<?xml version="1.0" encoding="utf-8"?>
<!-- Generator: Adobe Illustrator 15.0.0, SVG Export Plug-In . SVG Version: 6.00 Build 0)  -->
<!DOCTYPE svg PUBLIC "-//W3C//DTD SVG 1.1//EN" "http://www.w3.org/Graphics/SVG/1.1/DTD/svg11.dtd">
<svg version="1.1" id="Layer_1" xmlns="http://www.w3.org/2000/svg" xmlns:xlink="http://www.w3.org/1999/xlink" x="0px" y="0px"
	 width="199.172px" height="133.521px" viewBox="103.771 142.711 199.172 133.521"
	 enable-background="new 103.771 142.711 199.172 133.521" xml:space="preserve">
<g>
	<path fill="#231F20" d="M292.482,229.121c0.391-0.689,0.932-1.229,1.619-1.618c0.691-0.358,1.408-0.569,2.129-0.569h0.029
		c0.719,0,1.439,0.211,2.129,0.569c0.689,0.39,1.229,0.929,1.617,1.618s0.57,1.409,0.57,2.188c0,0.75-0.182,1.469-0.57,2.156
		c-0.359,0.659-0.9,1.2-1.588,1.588c-0.689,0.392-1.408,0.572-2.158,0.572h-0.029c-0.75,0-1.469-0.181-2.16-0.572
		c-0.688-0.388-1.227-0.929-1.588-1.588c-0.389-0.688-0.598-1.406-0.598-2.156C291.884,230.531,292.093,229.811,292.482,229.121
		 M293.652,235.805c0.84,0.478,1.678,0.689,2.578,0.689h0.029c0.9,0,1.738-0.212,2.578-0.689c0.838-0.45,1.469-1.078,1.918-1.918
		c0.479-0.838,0.688-1.708,0.688-2.577c0-0.931-0.209-1.799-0.688-2.637c-0.449-0.841-1.109-1.47-1.949-1.918
		c-0.838-0.45-1.676-0.688-2.547-0.688h-0.029c-0.871,0.028-1.709,0.238-2.549,0.688c-0.838,0.448-1.467,1.077-1.947,1.918
		c-0.479,0.838-0.688,1.706-0.688,2.637c0,0.869,0.209,1.739,0.688,2.577C292.183,234.727,292.812,235.355,293.652,235.805"/>
	<path fill="#231F20" d="M294.851,229.332h1.051h0.328c0.27,0.03,0.449,0.062,0.568,0.089c0.18,0.06,0.301,0.151,0.389,0.299
		c0.092,0.121,0.121,0.272,0.121,0.451c0,0.239-0.09,0.447-0.27,0.6c-0.15,0.149-0.42,0.209-0.809,0.239h-0.271h-1.107V229.332z
		 M294.851,231.789h0.539c0.33,0,0.568,0.062,0.721,0.209c0.059,0.031,0.09,0.062,0.119,0.092c0.238,0.209,0.51,0.629,0.84,1.197
		l0.508,0.898h1.08l-0.66-1.107c-0.328-0.511-0.629-0.899-0.838-1.109c-0.121-0.118-0.271-0.209-0.48-0.3
		c0.48-0.03,0.869-0.208,1.168-0.509c0.299-0.3,0.449-0.658,0.449-1.079c0-0.3-0.09-0.57-0.268-0.81
		c-0.182-0.269-0.42-0.45-0.721-0.538c-0.238-0.09-0.6-0.15-1.078-0.15c-0.092,0-0.211-0.03-0.328-0.03h-1.949v5.633h0.898V231.789z
		"/>
	<polygon fill="#231F20" points="160.261,228.962 168.355,228.962 160.261,215.475 153.429,204.119 124.39,221.559 128.826,228.962 
			"/>
	<polygon fill="#231F20" points="235.544,228.962 250.468,228.962 275.072,228.962 250.468,187.965 223.257,142.711 
		212.048,149.454 194.248,160.154 212.048,189.793 	"/>
	<g>
		<path fill="#231F20" d="M221.728,260.289c-0.869,4.494-4.855,7.942-9.59,7.942h-0.09c-5.365-0.058-9.711-4.437-9.711-9.8
			c0-5.365,4.346-9.74,9.711-9.771h0.09c4.734,0,8.721,3.418,9.59,7.913V260.289z M221.728,243.478
			c-2.787-1.8-6.055-2.848-9.59-2.848h-0.09c-9.77,0.058-17.713,8.03-17.713,17.802c0,9.77,7.943,17.741,17.713,17.801h0.09
			c3.535,0,6.803-1.049,9.59-2.848v1.859h8.184v-16.812v-28.47h-8.184V243.478z"/>
		<path fill="#231F20" d="M260.146,260.289c-0.867,4.494-4.854,7.942-9.59,7.942h-0.088c-5.365-0.058-9.711-4.437-9.711-9.8
			c0-5.365,4.346-9.74,9.711-9.771h0.088c4.736,0,8.723,3.418,9.59,7.913V260.289z M260.146,243.478
			c-2.756-1.8-6.053-2.848-9.59-2.848h-0.088c-9.77,0.058-17.713,8.03-17.713,17.802c0,9.77,7.943,17.741,17.713,17.801h0.088
			c3.537,0,6.834-1.049,9.59-2.848v1.859h8.184v-16.812V241.53h-8.184V243.478z"/>
		<path fill="#231F20" d="M297.427,256.213c-0.297-0.149-0.719-0.299-1.195-0.479c-1.83-0.629-4.797-1.41-8.934-2.309
			c-3.627-0.807-5.453-1.857-5.453-3.177c0-0.929,0.33-1.678,0.959-2.218c0.84-0.719,2.336-1.077,4.494-1.077
			c2.189,0,3.775,0.479,4.705,1.406c0.57,0.569,0.99,1.589,1.26,3.028h2.969h5.721c0-4.257-1.738-7.312-5.154-9.171
			c-0.18-0.119-0.357-0.21-0.566-0.298c-2.369-1.11-5.516-1.68-9.443-1.68c-4.764,0-8.361,1.26-10.758,3.807
			c-1.916,2.035-2.846,4.524-2.846,7.46c0,3.658,1.799,6.294,5.453,8.003c1.377,0.66,4.734,1.589,10.068,2.727
			c3.568,0.779,5.365,1.889,5.365,3.297c0,0.84-0.359,1.559-1.137,2.22c-0.988,0.837-2.488,1.258-4.496,1.258
			c-2.668,0-4.557-0.45-5.664-1.318c-1.111-0.839-1.68-2.069-1.68-3.628h-9.109c0,4.137,1.736,7.223,5.244,9.262
			c2.785,1.588,6.441,2.396,10.969,2.396c3.025,0,5.723-0.508,8.033-1.497c0.477-0.211,0.898-0.421,1.346-0.659
			c3.566-1.979,5.365-5.123,5.365-9.44C302.943,260.588,301.115,257.952,297.427,256.213"/>
		<path fill="#231F20" d="M131.164,260.289c-0.869,4.494-4.855,7.942-9.621,7.942h-0.09c-5.334-0.058-9.68-4.437-9.68-9.8
			c0-5.365,4.346-9.74,9.68-9.771h0.09c4.766,0,8.752,3.418,9.621,7.913V260.289z M131.164,243.478
			c-2.787-1.8-6.086-2.848-9.621-2.848h-0.09c-9.74,0.058-17.682,8.03-17.682,17.802c0,9.77,7.941,17.741,17.682,17.801h0.09
			c3.535,0,6.834-1.049,9.621-2.848v1.859h8.182v-16.812V241.53h-8.182V243.478z"/>
	</g>
	<rect x="182.23" y="229.141" fill="#231F20" width="8.9" height="7.822"/>
	<rect x="182.23" y="239.631" fill="#231F20" width="8.9" height="34.613"/>
	<g>
		<path fill="#231F20" d="M169.972,260.289c-0.869,4.494-4.854,7.942-9.619,7.942h-0.092c-5.361-0.058-9.709-4.437-9.709-9.8
			c0-5.365,4.348-9.74,9.709-9.771h0.092c4.766,0,8.75,3.418,9.619,7.913V260.289z M169.972,243.478
			c-2.787-1.8-6.084-2.848-9.619-2.848h-0.092c-9.768,0.058-17.711,8.03-17.711,17.802c0,9.77,7.943,17.741,17.711,17.801h0.092
			c3.535,0,6.832-1.049,9.619-2.848v1.859h8.182v-16.812v-28.47h-8.182V243.478z"/>
	</g>
	<polygon fill="#231F20" points="221.697,228.962 212.048,212.838 188.343,173.4 160.261,190.301 159.304,190.869 160.261,192.461 
		182.199,228.962 212.048,228.962 	"/>
</g>
</svg>
