<?xml version="1.0" encoding="utf-8"?>
<!-- Generator: Adobe Illustrator 15.0.0, SVG Export Plug-In . SVG Version: 6.00 Build 0)  -->
<!DOCTYPE svg PUBLIC "-//W3C//DTD SVG 1.1//EN" "http://www.w3.org/Graphics/SVG/1.1/DTD/svg11.dtd">
<svg version="1.1" id="Layer_1" xmlns="http://www.w3.org/2000/svg" xmlns:xlink="http://www.w3.org/1999/xlink" x="0px" y="0px"
	 width="205.308px" height="84.847px" viewBox="97.756 179.274 205.308 84.847"
	 enable-background="new 97.756 179.274 205.308 84.847" xml:space="preserve">
<g>
	<path fill="#231F20" d="M187.054,227.61c2.846,1.106,5.689,2.294,8.457,3.636c-8.852,3.557-17.467,7.823-25.604,12.723
		c-2.768-1.422-5.611-2.846-8.457-4.109C169.669,235.116,178.205,231.009,187.054,227.61"/>
	<path fill="#231F20" d="M176.466,223.895c-9.168,2.926-18.019,6.719-26.475,11.301c2.686,1.028,5.374,2.056,7.982,3.162
		c8.14-4.821,16.752-8.852,25.684-12.013C181.285,225.478,178.916,224.607,176.466,223.895"/>
	<path fill="#231F20" d="M243.084,241.281c0.157,0.475,0.552,0.633,0.948,0.633c0.236,0,0.473,0,0.631-0.158
		c0.08-0.08,0.16-0.236,0.16-0.395c0-0.316-0.239-0.474-0.555-0.474l-0.552-0.159c-0.161-0.08-0.397-0.08-0.554-0.236
		c-0.158-0.158-0.237-0.396-0.237-0.633c0-0.633,0.552-0.869,1.106-0.869c0.473,0,0.947,0.236,1.107,0.791l-0.396,0.078
		c0-0.316-0.395-0.553-0.79-0.553c-0.236,0-0.634,0.158-0.634,0.475c0,0.395,0.236,0.474,0.556,0.553l0.474,0.078
		c0.235,0.08,0.475,0.158,0.631,0.236c0.16,0.239,0.237,0.396,0.237,0.713c0,0.236-0.077,0.553-0.315,0.711
		s-0.553,0.237-0.869,0.237c-0.633,0-1.027-0.315-1.264-0.948L243.084,241.281z"/>
	<polygon fill="#231F20" points="246.166,241.23 245.85,241.23 245.85,238.069 246.404,238.069 247.429,240.597 248.298,238.069 
		248.932,238.069 248.932,241.23 248.535,241.23 248.535,238.464 247.509,241.23 247.193,241.23 246.166,238.464 	"/>
	<g>
		<path fill="#231F20" d="M206.257,227.215c-7.271-3.478-14.776-6.401-22.442-8.773c-2.767,0.792-5.453,1.661-8.06,2.532
			c7.902,2.368,15.646,5.371,23.073,8.93C201.279,228.952,203.728,228.084,206.257,227.215"/>
		<path fill="#231F20" d="M218.033,223.738c-7.35-3.24-15.016-5.926-22.838-8.061c-2.529,0.475-4.979,1.027-7.428,1.66
			c7.744,2.291,15.33,5.135,22.601,8.614C212.896,225.16,215.505,224.369,218.033,223.738"/>
		<path fill="#231F20" d="M237,230.061c-18.57,6.242-35.957,15.172-51.684,26.313c3.953,2.449,7.744,4.979,11.459,7.746
			c14.855-11.775,31.373-21.575,49.076-29.004C242.926,233.299,240.002,231.64,237,230.061"/>
		<path fill="#231F20" d="M224.195,224.055c-19.28,5.057-37.377,13.275-53.736,24.182c3.637,1.815,7.271,3.712,10.826,5.767
			c16.044-11.062,33.824-19.755,52.791-25.444C230.833,226.979,227.595,225.398,224.195,224.055"/>
		<path fill="#231F20" d="M171.17,199.556c1.267,0,1.817-1.105,1.817-5.057c0-3.637-0.395-4.979-1.817-4.979
			c-1.421,0-1.817,1.343-1.817,4.979C169.353,198.45,169.906,199.556,171.17,199.556 M171.17,186.359
			c4.664,0,7.034,3.479,7.034,8.141c0,4.82-2.291,8.217-7.034,8.217c-4.819,0-7.032-3.396-7.032-8.217
			C164.138,189.837,166.507,186.359,171.17,186.359"/>
		<path fill="#231F20" d="M181.445,190.31h-2.057v-3.477h2.057v-1.739c0-3.871,1.896-5.295,5.215-5.295
			c0.947,0,1.738,0.158,2.527,0.238v3.872c-0.236-0.079-0.631-0.157-0.947-0.157c-1.342,0-1.817,0.552-1.817,1.5v1.581h2.765v3.477
			h-2.765v12.092h-4.978V190.31z"/>
		<path fill="#231F20" d="M122.729,194.893c-1.738,0.159-3.081,0.87-3.081,2.845c0,1.107,0.552,1.66,1.5,1.66
			c0.554,0,1.186-0.395,1.581-0.946V194.893z M122.729,191.18c0-0.949-0.395-1.581-1.265-1.581c-1.264,0-1.658,1.105-1.658,2.055
			l-4.426-0.949c0.554-3.003,3.398-4.266,6.243-4.266c3.003,0,6.164,1.263,6.164,4.741v8.692c0,1.738,0.236,2.291,0.474,2.529
			h-5.216c-0.079-0.475-0.157-1.185-0.157-1.422c-0.87,0.869-2.372,1.736-3.794,1.736c-2.528,0-4.426-1.736-4.346-4.583
			c0.078-4.03,4.662-5.295,7.981-5.688V191.18z"/>
		<path fill="#231F20" d="M135.767,191.259v11.143h-5.057v-15.568h4.9l0.079,1.58c1.105-1.106,2.45-1.975,4.425-1.975
			c2.213,0,3.477,1.502,3.477,3.635v12.328h-5.057v-10.748c0-0.869-0.316-1.344-1.187-1.344
			C136.794,190.31,136.242,190.626,135.767,191.259"/>
	</g>
	<polygon fill="#231F20" points="146.673,179.274 151.73,179.274 151.73,190.496 151.81,190.496 155.524,185.833 160.503,185.833 
		156.314,190.575 160.503,201.402 155.287,201.402 152.837,194.606 152.757,194.606 151.73,195.789 151.73,201.402 146.673,201.402 
			"/>
	<g>
		<path fill="#231F20" d="M103.13,189.045h1.897c1.975,0,2.766-1.104,2.766-2.369c0-2.134-1.423-2.451-2.687-2.451h-1.976V189.045z
			 M103.13,198.292h2.055c1.264,0,2.845-0.555,2.845-2.766c0-1.661-1.028-2.766-2.845-2.766h-2.055V198.292z M109.374,190.863
			c2.37,0.791,4.109,2.767,4.109,5.611c0,3.794-3.003,5.928-7.272,5.928h-8.455v-22.128h8.693c3.952,0,6.48,2.371,6.48,5.375
			c0,2.924-1.974,4.425-3.555,5.056V190.863z"/>
		<path fill="#231F20" d="M291.21,194.893c-1.74,0.159-3.082,0.87-3.082,2.845c0,1.107,0.553,1.66,1.422,1.66
			c0.633,0,1.184-0.395,1.66-0.946V194.893z M291.21,191.18c0-0.949-0.477-1.581-1.346-1.581c-1.184,0-1.578,1.105-1.657,2.055
			l-4.347-0.949c0.554-3.003,3.398-4.266,6.244-4.266c3.002,0,6.164,1.263,6.164,4.741v8.692c0,1.738,0.235,2.291,0.394,2.529
			h-5.136c-0.08-0.475-0.158-1.185-0.158-1.422c-0.87,0.869-2.372,1.736-3.873,1.736c-2.448,0-4.424-1.736-4.348-4.583
			c0.16-4.03,4.742-5.295,8.062-5.688V191.18z"/>
		<path fill="#231F20" d="M243.242,192.681c0-1.422-0.157-3.161-1.896-3.161c-1.422,0-1.976,1.739-1.896,3.161H243.242z
			 M239.449,195.684c-0.079,1.345,0.314,3.714,2.372,3.714c1.185,0,2.211-0.947,2.448-2.133l3.398,1.186
			c-0.238,0.711-1.738,4.266-6.242,4.266c-4.822,0-7.035-3.871-7.035-8.217c0-4.426,2.373-8.141,6.955-8.141
			c4.819,0,6.56,4.188,6.56,8.298v1.027H239.449z"/>
	</g>
	<rect x="261.417" y="185.833" fill="#231F20" width="5.06" height="15.567"/>
	<rect x="261.417" y="179.274" fill="#231F20" width="5.06" height="4.505"/>
	<g>
		<path fill="#231F20" d="M277.618,192.601c0-0.632,0-1.421-0.235-1.975c-0.24-0.633-0.634-1.106-1.425-1.106
			c-1.657,0-1.897,2.056-1.897,5.216c0,3.477,0.555,4.662,1.897,4.662c1.739,0,1.896-1.818,1.896-3.002l3.953,0.553
			c-0.395,3.792-2.609,5.768-6.242,5.768c-4.506,0-6.877-3.95-6.877-7.823c0-4.267,2.371-8.534,7.113-8.534
			c5.297,0,6.164,4.664,6.164,6.242H277.618z"/>
	</g>
	<path fill="#231F20" d="M199.304,193.023h3.635l-1.579-9.008h-0.159L199.304,193.023z M197.96,179.274h7.349l4.663,22.128h-5.375
		l-0.868-4.505h-5.136l-1.028,4.505h-4.819L197.96,179.274z"/>
	<path fill="#231F20" d="M249.959,186.833h4.899v2.054h0.078c1.028-1.659,2.926-2.448,4.9-2.448v5.058
		c-0.633-0.237-1.186-0.396-2.055-0.396c-1.346,0-2.215,0.475-2.766,1.185v10.116h-5.058V186.833z"/>
	<path fill="#231F20" d="M224.433,191.259v11.143h-4.978v-10.67c0-0.869-0.237-1.422-1.185-1.422c-0.476,0-1.266,0.395-1.662,0.949
		v11.143h-4.979v-15.568h4.9l0.078,1.58c1.109-1.026,2.688-1.975,4.507-1.975c1.579,0,2.606,0.868,3.079,2.055h0.08
		c0.871-0.949,2.371-2.055,4.426-2.055c2.133,0,3.557,1.342,3.557,3.555v12.408h-4.979v-10.67c0-0.869-0.239-1.422-1.184-1.422
		C225.46,190.31,224.75,190.863,224.433,191.259"/>
	<path fill="#231F20" d="M299.113,200.582c0,0.949,0.792,1.659,1.818,1.659c0.945,0,1.736-0.71,1.736-1.659
		c0-0.948-0.791-1.737-1.736-1.737C299.905,198.845,299.113,199.634,299.113,200.582 M298.716,200.582
		c0-1.185,0.949-2.132,2.215-2.132c1.184,0,2.133,0.947,2.133,2.132c0,1.187-0.949,2.134-2.133,2.134
		C299.666,202.716,298.716,201.769,298.716,200.582"/>
	<path fill="#231F20" d="M300.852,200.347c0.315,0,0.789,0.078,0.789-0.316c0-0.316-0.237-0.396-0.554-0.396h-0.631v0.713H300.852z
		 M301.958,201.768h-0.396l-0.71-1.104h-0.396v1.104h-0.395v-2.37h1.105c0.158,0,0.395,0,0.553,0.08
		c0.238,0.156,0.316,0.315,0.316,0.553c0,0.475-0.396,0.633-0.789,0.633L301.958,201.768z"/>
</g>
</svg>
