<?xml version="1.0" encoding="utf-8"?>
<!-- Generator: Adobe Illustrator 15.0.0, SVG Export Plug-In . SVG Version: 6.00 Build 0)  -->
<!DOCTYPE svg PUBLIC "-//W3C//DTD SVG 1.1//EN" "http://www.w3.org/Graphics/SVG/1.1/DTD/svg11.dtd">
<svg version="1.1" id="Layer_1" xmlns="http://www.w3.org/2000/svg" xmlns:xlink="http://www.w3.org/1999/xlink" x="0px" y="0px"
	 width="234.5px" height="94.247px" viewBox="25.728 98.944 234.5 94.247" enable-background="new 25.728 98.944 234.5 94.247"
	 xml:space="preserve">
<g>
	<defs>
		<rect id="SVGID_1_" x="2.968" y="97.944" width="280.76" height="96.327"/>
	</defs>
	<clipPath id="SVGID_2_">
		<use xlink:href="#SVGID_1_"  overflow="visible"/>
	</clipPath>
	<path clip-path="url(#SVGID_2_)" fill="#231F20" d="M32.22,114.135c0-7.743,0-9.17-0.102-10.8c-0.102-1.732-0.509-2.547-2.19-2.903
		c-0.408-0.102-1.275-0.153-1.987-0.153c-0.561,0-0.866-0.103-0.866-0.458c0-0.357,0.356-0.458,1.121-0.458
		c2.701,0,5.909,0.152,6.929,0.152c2.495,0,4.482-0.152,6.215-0.152c9.22,0,10.85,4.941,10.85,7.642
		c0,4.178-2.394,6.673-5.195,8.915c4.178,1.426,9.271,5.042,9.271,11.003c0,5.45-4.228,11.106-13.601,11.106
		c-0.611,0-2.089-0.102-3.567-0.153c-1.528-0.101-3.057-0.153-3.82-0.153c-0.562,0-1.682,0-2.904,0.052
		c-1.171,0-2.496,0.101-3.515,0.101c-0.663,0-1.018-0.153-1.018-0.508c0-0.257,0.203-0.409,0.813-0.409
		c0.765,0,1.375-0.101,1.835-0.204c1.018-0.204,1.273-1.324,1.477-2.802c0.254-2.139,0.254-6.164,0.254-10.851V114.135z
		 M38.333,115.001c0,0.407,0.154,0.51,0.358,0.561c0.458,0.101,1.222,0.152,2.394,0.152c1.68,0,2.802-0.203,3.667-0.966
		c1.324-1.071,2.088-2.904,2.088-5.401c0-3.412-1.986-7.896-6.367-7.896c-0.713,0-1.171,0-1.682,0.103
		c-0.356,0.101-0.458,0.306-0.458,0.865V115.001z M45.058,119.076c-1.069-0.764-2.242-1.122-4.229-1.221
		c-0.917-0.051-1.427-0.051-2.19-0.051c-0.205,0-0.307,0.101-0.307,0.356v12.073c0,3.364,0.154,4.229,1.783,4.891
		c1.375,0.56,2.548,0.611,3.72,0.611c2.291,0,6.164-1.223,6.164-6.52C50,126.056,48.929,121.777,45.058,119.076"/>
	<path clip-path="url(#SVGID_2_)" fill="#231F20" d="M63.141,117.65c0-6.572,0.05-7.794-0.051-9.168
		c-0.103-1.529-0.509-1.937-1.937-2.344c-0.355-0.102-1.12-0.153-1.731-0.153c-0.511,0-0.764-0.154-0.764-0.458
		c0-0.306,0.305-0.409,0.968-0.409c2.395,0,5.399,0.103,6.724,0.103c1.122,0,4.127-0.103,5.757-0.103
		c0.663,0,0.967,0.103,0.967,0.409c0,0.305-0.254,0.458-0.713,0.458c-0.51,0-0.763,0.051-1.325,0.153
		c-1.171,0.204-1.527,0.814-1.629,2.344c-0.103,1.375-0.103,2.596-0.103,9.168v6.062c0,6.317,1.223,8.763,3.414,10.495
		c1.987,1.579,4.126,1.731,5.655,1.731c1.935,0,4.227-0.56,6.01-2.292c2.497-2.342,2.599-6.113,2.599-10.544v-5.452
		c0-6.572-0.051-7.794-0.103-9.168c-0.102-1.478-0.459-1.937-1.885-2.344c-0.357-0.102-1.122-0.153-1.63-0.153
		s-0.765-0.154-0.765-0.458c0-0.306,0.307-0.409,0.917-0.409c2.292,0,5.298,0.103,5.349,0.103c0.51,0,3.514-0.103,5.248-0.103
		c0.611,0,0.917,0.103,0.917,0.409c0,0.305-0.255,0.458-0.765,0.458s-0.764,0.051-1.325,0.153c-1.223,0.204-1.528,0.814-1.63,2.344
		c-0.051,1.375-0.102,2.596-0.102,9.168v4.637c0,4.838-0.51,9.934-4.278,13.041c-3.16,2.648-6.572,3.106-9.477,3.106
		c-2.344,0-6.979-0.1-10.239-2.954c-2.294-1.986-4.076-5.195-4.076-11.462V117.65z"/>
	<path clip-path="url(#SVGID_2_)" fill="#231F20" d="M99.207,137.315c-0.713-0.306-0.867-0.509-0.867-1.478
		c0-2.343,0.204-5.043,0.255-5.757c0-0.662,0.204-1.122,0.56-1.122c0.407,0,0.458,0.409,0.458,0.713
		c0,0.562,0.153,1.478,0.408,2.242c0.968,3.209,4.33,4.279,7.132,4.279c3.871,0,6.215-2.445,6.215-5.5
		c0-1.886-0.459-3.771-4.432-6.114l-2.598-1.529c-5.298-3.106-7.029-6.01-7.029-9.831c0-5.298,5.094-8.711,11.309-8.711
		c2.904,0,5.196,0.406,6.369,0.713c0.406,0.101,0.611,0.253,0.611,0.559c0,0.561-0.153,1.783-0.153,5.196
		c0,0.918-0.205,1.375-0.56,1.375c-0.306,0-0.459-0.253-0.459-0.765c0-0.407-0.203-1.731-1.172-2.853
		c-0.662-0.814-2.089-2.036-4.993-2.036c-3.209,0-6.113,1.68-6.113,4.635c0,1.936,0.714,3.463,4.739,5.706l1.833,1.018
		c5.909,3.261,7.744,6.573,7.744,10.494c0,3.21-1.224,5.808-4.483,8.102c-2.141,1.528-5.094,1.782-7.489,1.782
		C103.893,138.435,101.142,138.181,99.207,137.315"/>
	<path clip-path="url(#SVGID_2_)" fill="#231F20" d="M126.002,117.65c0-6.572,0-7.794-0.051-9.168
		c-0.102-1.478-0.56-1.988-1.529-2.294c-0.509-0.152-1.069-0.203-1.629-0.203c-0.458,0-0.713-0.103-0.713-0.51
		c0-0.255,0.356-0.357,1.069-0.357c1.681,0,4.738,0.103,6.011,0.103c1.122,0,4.024-0.103,5.757-0.103
		c0.56,0,0.917,0.103,0.917,0.357c0,0.407-0.254,0.51-0.714,0.51c-0.458,0-0.813,0.051-1.324,0.153
		c-1.222,0.204-1.578,0.814-1.68,2.344c-0.103,1.375-0.103,2.596-0.103,9.168v7.642c0,4.178,0,7.641,0.205,9.475
		c0.153,1.171,0.458,1.834,1.782,2.039c0.611,0.101,1.631,0.152,2.293,0.152c0.509,0,0.713,0.255,0.713,0.458
		c0,0.306-0.357,0.459-0.866,0.459c-2.955,0-6.012-0.153-7.234-0.153c-1.019,0-4.076,0.153-5.859,0.153
		c-0.56,0-0.865-0.153-0.865-0.459c0-0.203,0.154-0.458,0.714-0.458c0.662,0,1.171-0.051,1.578-0.152
		c0.917-0.204,1.173-0.815,1.325-2.09c0.204-1.782,0.204-5.246,0.204-9.423V117.65z"/>
	<path clip-path="url(#SVGID_2_)" fill="#231F20" d="M147.398,131.965c0.101,3.363,0.662,4.382,1.527,4.687
		c0.765,0.256,1.632,0.308,2.343,0.308c0.51,0,0.765,0.204,0.765,0.457c0,0.356-0.407,0.459-1.018,0.459
		c-2.904,0-4.993-0.153-5.808-0.153c-0.407,0-2.547,0.153-4.84,0.153c-0.612,0-1.019-0.05-1.019-0.459
		c0-0.253,0.306-0.457,0.713-0.457c0.611,0,1.427-0.052,2.038-0.205c1.171-0.306,1.324-1.478,1.375-5.247l0.407-25.675
		c0-0.867,0.305-1.478,0.764-1.478c0.561,0,1.171,0.662,1.936,1.426c0.559,0.56,7.285,7.438,13.804,13.807
		c3.058,3.003,9.019,9.118,9.68,9.729h0.205l-0.46-19.256c-0.05-2.65-0.457-3.413-1.526-3.821c-0.663-0.254-1.733-0.254-2.346-0.254
		c-0.56,0-0.711-0.204-0.711-0.458c0-0.356,0.46-0.407,1.121-0.407c2.343,0,4.738,0.101,5.704,0.101
		c0.509,0,2.191-0.101,4.383-0.101c0.61,0,1.017,0.051,1.017,0.407c0,0.254-0.254,0.458-0.765,0.458c-0.456,0-0.814,0-1.374,0.153
		c-1.224,0.356-1.577,1.121-1.631,3.564l-0.508,27.306c0,0.968-0.357,1.377-0.715,1.377c-0.763,0-1.373-0.459-1.833-0.918
		c-2.802-2.598-8.405-7.946-13.091-12.48c-4.892-4.686-9.63-9.935-10.497-10.699h-0.15L147.398,131.965z"/>
	<path clip-path="url(#SVGID_2_)" fill="#231F20" d="M185.296,117.65c0-6.572,0-7.794-0.05-9.168
		c-0.103-1.478-0.509-1.937-1.936-2.344c-0.357-0.102-1.121-0.153-1.784-0.153c-0.458,0-0.765-0.154-0.765-0.458
		c0-0.306,0.357-0.409,1.02-0.409c2.344,0,5.195,0.103,6.47,0.103c1.427,0,11.358,0.051,12.226,0
		c0.815-0.051,1.528-0.204,1.885-0.253c0.256-0.051,0.512-0.205,0.714-0.205c0.254,0,0.307,0.205,0.307,0.407
		c0,0.306-0.256,0.815-0.356,2.802c-0.05,0.458-0.152,2.343-0.256,2.853c-0.05,0.204-0.152,0.713-0.509,0.713
		c-0.306,0-0.357-0.203-0.357-0.559c0-0.308-0.05-1.072-0.305-1.58c-0.357-0.765-0.713-1.375-2.955-1.581
		c-0.765-0.101-6.113-0.202-7.029-0.202c-0.204,0-0.307,0.153-0.307,0.407v10.698c0,0.255,0.051,0.457,0.307,0.457
		c1.019,0,6.826,0,7.845-0.099c1.068-0.103,1.732-0.205,2.14-0.664c0.356-0.306,0.509-0.561,0.715-0.561
		c0.202,0,0.354,0.204,0.354,0.459c0,0.254-0.102,0.967-0.354,3.158c-0.103,0.867-0.206,2.598-0.206,2.903
		c0,0.356-0.051,0.968-0.458,0.968c-0.307,0-0.408-0.154-0.408-0.356c-0.05-0.458-0.05-1.021-0.152-1.58
		c-0.255-0.867-0.815-1.528-2.495-1.682c-0.818-0.101-5.911-0.204-7.029-0.204c-0.206,0-0.257,0.204-0.257,0.458v3.463
		c0,1.478-0.052,5.146,0,6.419c0.103,2.955,1.478,3.617,6.062,3.617c1.172,0,3.058-0.051,4.229-0.559
		c1.121-0.509,1.63-1.427,1.936-3.21c0.104-0.457,0.202-0.662,0.51-0.662c0.354,0,0.406,0.561,0.406,1.018
		c0,0.97-0.356,3.924-0.61,4.791c-0.306,1.119-0.714,1.119-2.394,1.119c-3.363,0-6.062-0.049-8.254-0.151
		c-2.19-0.051-3.871-0.103-5.195-0.103c-0.511,0-1.479,0.052-2.547,0.052c-1.071,0.051-2.19,0.101-3.109,0.101
		c-0.56,0-0.864-0.153-0.864-0.459c0-0.203,0.153-0.458,0.713-0.458c0.662,0,1.171-0.051,1.577-0.152
		c0.918-0.204,1.173-1.02,1.326-2.292c0.203-1.835,0.203-5.249,0.203-9.221V117.65z"/>
	<path clip-path="url(#SVGID_2_)" fill="#231F20" d="M210.055,137.315c-0.715-0.306-0.868-0.509-0.868-1.478
		c0-2.343,0.204-5.043,0.256-5.757c0-0.662,0.202-1.122,0.559-1.122c0.408,0,0.459,0.409,0.459,0.713
		c0,0.562,0.153,1.478,0.409,2.242c0.966,3.209,4.328,4.279,7.131,4.279c3.872,0,6.215-2.445,6.215-5.5
		c0-1.886-0.457-3.771-4.432-6.114l-2.599-1.529c-5.297-3.106-7.029-6.01-7.029-9.831c0-5.298,5.093-8.711,11.311-8.711
		c2.901,0,5.194,0.406,6.367,0.713c0.407,0.101,0.609,0.253,0.609,0.559c0,0.561-0.151,1.783-0.151,5.196
		c0,0.918-0.204,1.375-0.561,1.375c-0.305,0-0.46-0.253-0.46-0.765c0-0.407-0.202-1.731-1.17-2.853
		c-0.663-0.814-2.09-2.036-4.993-2.036c-3.209,0-6.112,1.68-6.112,4.635c0,1.936,0.712,3.463,4.737,5.706l1.834,1.018
		c5.908,3.261,7.742,6.573,7.742,10.494c0,3.21-1.222,5.808-4.481,8.102c-2.141,1.528-5.095,1.782-7.489,1.782
		C214.741,138.435,211.989,138.181,210.055,137.315"/>
	<path clip-path="url(#SVGID_2_)" fill="#231F20" d="M235.422,137.315c-0.715-0.306-0.868-0.509-0.868-1.478
		c0-2.343,0.206-5.043,0.256-5.757c0-0.662,0.204-1.122,0.561-1.122c0.408,0,0.458,0.409,0.458,0.713
		c0,0.562,0.152,1.478,0.408,2.242c0.968,3.209,4.332,4.279,7.131,4.279c3.873,0,6.216-2.445,6.216-5.5
		c0-1.886-0.457-3.771-4.432-6.114l-2.598-1.529c-5.298-3.106-7.029-6.01-7.029-9.831c0-5.298,5.095-8.711,11.309-8.711
		c2.904,0,5.197,0.406,6.367,0.713c0.407,0.101,0.612,0.253,0.612,0.559c0,0.561-0.152,1.783-0.152,5.196
		c0,0.918-0.206,1.375-0.562,1.375c-0.306,0-0.457-0.253-0.457-0.765c0-0.407-0.205-1.731-1.173-2.853
		c-0.663-0.814-2.09-2.036-4.992-2.036c-3.209,0-6.114,1.68-6.114,4.635c0,1.936,0.715,3.463,4.739,5.706l1.834,1.018
		c5.906,3.261,7.743,6.573,7.743,10.494c0,3.21-1.225,5.808-4.484,8.102c-2.141,1.528-5.093,1.782-7.489,1.782
		C240.109,138.435,237.358,138.181,235.422,137.315"/>
	<path clip-path="url(#SVGID_2_)" fill="#231F20" d="M34.308,168.553c0-7.744,0-9.169-0.102-10.801
		c-0.102-1.731-0.611-2.598-1.731-2.853c-0.56-0.153-1.223-0.205-1.833-0.205c-0.511,0-0.815-0.1-0.815-0.508
		c0-0.305,0.406-0.407,1.222-0.407c1.936,0,5.146,0.153,6.623,0.153c1.273,0,4.279-0.153,6.215-0.153
		c0.662,0,1.069,0.103,1.069,0.407c0,0.408-0.305,0.508-0.815,0.508c-0.509,0-0.916,0.052-1.528,0.155
		c-1.376,0.253-1.784,1.118-1.885,2.902c-0.102,1.632-0.102,3.057-0.102,10.801v8.966c0,4.94,0,8.964,0.203,11.157
		c0.153,1.374,0.511,2.29,2.037,2.495c0.714,0.102,1.836,0.204,2.598,0.204c0.562,0,0.816,0.153,0.816,0.406
		c0,0.357-0.407,0.51-0.968,0.51c-3.362,0-6.571-0.152-7.948-0.152c-1.171,0-4.38,0.152-6.418,0.152
		c-0.662,0-1.018-0.152-1.018-0.51c0-0.253,0.202-0.406,0.814-0.406c0.764,0,1.375-0.103,1.834-0.204
		c1.019-0.205,1.325-1.069,1.476-2.546c0.255-2.143,0.255-6.166,0.255-11.106V168.553z"/>
	<path clip-path="url(#SVGID_2_)" fill="#231F20" d="M60.237,186.382c0.103,3.363,0.663,4.382,1.529,4.688
		c0.764,0.254,1.629,0.307,2.343,0.307c0.509,0,0.764,0.202,0.764,0.457c0,0.355-0.406,0.458-1.018,0.458
		c-2.904,0-4.993-0.153-5.809-0.153c-0.407,0-2.546,0.153-4.839,0.153c-0.611,0-1.019-0.051-1.019-0.458
		c0-0.255,0.306-0.457,0.713-0.457c0.612,0,1.427-0.053,2.038-0.205c1.172-0.307,1.325-1.478,1.376-5.247l0.407-25.675
		c0-0.867,0.306-1.478,0.764-1.478c0.56,0,1.172,0.662,1.936,1.426c0.56,0.561,7.284,7.438,13.807,13.807
		c3.056,3.004,9.016,9.118,9.678,9.729h0.204l-0.458-19.259c-0.05-2.647-0.459-3.41-1.529-3.818
		c-0.662-0.255-1.732-0.255-2.344-0.255c-0.56,0-0.713-0.204-0.713-0.458c0-0.356,0.46-0.408,1.122-0.408
		c2.342,0,4.738,0.102,5.705,0.102c0.511,0,2.191-0.102,4.382-0.102c0.611,0,1.019,0.052,1.019,0.408
		c0,0.254-0.256,0.458-0.765,0.458c-0.458,0-0.814,0-1.376,0.151c-1.222,0.358-1.578,1.123-1.629,3.566l-0.51,27.306
		c0,0.969-0.356,1.376-0.712,1.376c-0.765,0-1.375-0.459-1.835-0.919c-2.801-2.596-8.405-7.945-13.091-12.479
		c-4.892-4.687-9.629-9.934-10.495-10.697h-0.153L60.237,186.382z"/>
	<path clip-path="url(#SVGID_2_)" fill="#231F20" d="M99.971,191.731c-0.713-0.306-0.866-0.508-0.866-1.479
		c0-2.343,0.205-5.041,0.254-5.755c0-0.662,0.205-1.122,0.561-1.122c0.407,0,0.459,0.409,0.459,0.714
		c0,0.562,0.152,1.478,0.407,2.242c0.967,3.208,4.33,4.279,7.131,4.279c3.871,0,6.215-2.445,6.215-5.502
		c0-1.886-0.458-3.769-4.431-6.112l-2.599-1.529c-5.298-3.107-7.03-6.012-7.03-9.831c0-5.298,5.094-8.712,11.31-8.712
		c2.904,0,5.196,0.407,6.368,0.713c0.408,0.104,0.613,0.255,0.613,0.561c0,0.561-0.154,1.782-0.154,5.196
		c0,0.917-0.204,1.376-0.56,1.376c-0.306,0-0.459-0.255-0.459-0.765c0-0.408-0.203-1.732-1.172-2.852
		c-0.662-0.815-2.088-2.039-4.992-2.039c-3.209,0-6.113,1.681-6.113,4.638c0,1.935,0.713,3.463,4.739,5.703l1.833,1.021
		c5.909,3.261,7.743,6.571,7.743,10.493c0,3.208-1.223,5.809-4.483,8.101c-2.14,1.528-5.093,1.783-7.489,1.783
		C104.657,192.853,101.907,192.598,99.971,191.731"/>
	<path clip-path="url(#SVGID_2_)" fill="#231F20" d="M131.044,172.068c0-6.571,0-7.795-0.051-9.169
		c-0.102-1.478-0.56-1.987-1.529-2.293c-0.509-0.153-1.069-0.204-1.629-0.204c-0.458,0-0.713-0.102-0.713-0.51
		c0-0.255,0.356-0.356,1.069-0.356c1.682,0,4.739,0.102,6.012,0.102c1.122,0,4.024-0.102,5.757-0.102
		c0.561,0,0.916,0.102,0.916,0.356c0,0.408-0.254,0.51-0.714,0.51c-0.458,0-0.814,0.051-1.324,0.151
		c-1.223,0.205-1.579,0.817-1.681,2.346c-0.103,1.374-0.103,2.598-0.103,9.169v7.642c0,4.178,0,7.641,0.205,9.475
		c0.153,1.172,0.458,1.833,1.783,2.039c0.61,0.101,1.63,0.153,2.292,0.153c0.509,0,0.712,0.253,0.712,0.457
		c0,0.305-0.357,0.458-0.866,0.458c-2.956,0-6.011-0.153-7.234-0.153c-1.019,0-4.075,0.153-5.859,0.153
		c-0.561,0-0.865-0.153-0.865-0.458c0-0.204,0.153-0.457,0.713-0.457c0.662,0,1.17-0.053,1.578-0.153
		c0.917-0.206,1.173-0.815,1.325-2.089c0.204-1.784,0.204-5.247,0.204-9.425V172.068z"/>
	<path clip-path="url(#SVGID_2_)" fill="#231F20" d="M153.917,172.068c0-6.571,0-7.795-0.051-9.169
		c-0.103-1.478-0.51-1.937-1.937-2.346c-0.356-0.102-1.119-0.151-1.78-0.151c-0.46,0-0.765-0.152-0.765-0.458
		s0.354-0.408,1.016-0.408c2.347,0,5.199,0.103,6.472,0.103c1.375,0,4.585-0.103,7.286-0.103c5.603,0,13.142,0,18.032,4.939
		c2.241,2.242,4.228,5.862,4.228,11.006c0,5.451-2.343,9.578-4.889,12.073c-2.038,2.039-6.778,5.094-15.029,5.094
		c-1.63,0-3.566-0.15-5.35-0.254c-1.781-0.153-3.412-0.255-4.533-0.255c-0.509,0-1.478,0.052-2.546,0.052
		c-1.072,0.05-2.191,0.101-3.109,0.101c-0.562,0-0.865-0.152-0.865-0.458c0-0.204,0.152-0.457,0.714-0.457
		c0.662,0,1.172-0.053,1.579-0.153c0.916-0.204,1.17-1.021,1.324-2.294c0.203-1.835,0.203-5.245,0.203-9.22V172.068z
		 M159.929,176.857c0,4.585,0.05,7.896,0.103,8.761c0.05,1.07,0.152,2.599,0.508,3.057c0.562,0.816,2.345,1.733,5.859,1.733
		c4.074,0,7.081-0.714,9.781-2.956c2.903-2.393,3.821-6.266,3.821-10.749c0-5.502-2.191-9.066-4.179-10.8
		c-4.126-3.666-9.017-4.126-12.531-4.126c-0.917,0-2.393,0.103-2.752,0.307c-0.405,0.153-0.561,0.356-0.561,0.866
		c-0.05,1.477-0.05,5.042-0.05,8.456V176.857z"/>
	<path clip-path="url(#SVGID_2_)" fill="#231F20" d="M197.879,172.068c0-6.571,0-7.795-0.05-9.169
		c-0.103-1.478-0.51-1.937-1.937-2.346c-0.356-0.101-1.121-0.151-1.783-0.151c-0.458,0-0.765-0.152-0.765-0.458
		c0-0.307,0.357-0.408,1.02-0.408c2.343,0,5.195,0.102,6.47,0.102c1.427,0,11.361,0.051,12.226,0
		c0.815-0.05,1.528-0.203,1.886-0.255c0.255-0.051,0.51-0.203,0.713-0.203c0.254,0,0.307,0.203,0.307,0.408
		c0,0.305-0.257,0.814-0.357,2.802c-0.05,0.459-0.152,2.343-0.255,2.852c-0.051,0.205-0.152,0.714-0.51,0.714
		c-0.306,0-0.356-0.202-0.356-0.561c0-0.304-0.05-1.068-0.306-1.578c-0.356-0.765-0.713-1.376-2.955-1.58
		c-0.765-0.102-6.113-0.204-7.029-0.204c-0.205,0-0.306,0.151-0.306,0.408v10.698c0,0.253,0.051,0.459,0.306,0.459
		c1.02,0,6.827,0,7.845-0.103c1.069-0.104,1.733-0.206,2.14-0.662c0.356-0.306,0.51-0.562,0.715-0.562
		c0.203,0,0.354,0.205,0.354,0.458c0,0.256-0.102,0.969-0.354,3.16c-0.103,0.865-0.205,2.596-0.205,2.902
		c0,0.358-0.051,0.969-0.459,0.969c-0.306,0-0.407-0.154-0.407-0.357c-0.05-0.458-0.05-1.018-0.152-1.579
		c-0.256-0.865-0.814-1.528-2.496-1.681c-0.814-0.103-5.911-0.204-7.029-0.204c-0.205,0-0.256,0.204-0.256,0.459v3.465
		c0,1.478-0.051,5.146,0,6.417c0.101,2.954,1.478,3.619,6.062,3.619c1.171,0,3.058-0.052,4.229-0.562
		c1.121-0.509,1.632-1.427,1.937-3.207c0.103-0.459,0.204-0.665,0.51-0.665c0.356,0,0.407,0.562,0.407,1.021
		c0,0.966-0.358,3.922-0.612,4.787c-0.305,1.121-0.714,1.121-2.394,1.121c-3.361,0-6.062-0.052-8.254-0.153
		c-2.189-0.052-3.871-0.103-5.195-0.103c-0.509,0-1.478,0.051-2.547,0.051c-1.07,0.052-2.19,0.103-3.108,0.103
		c-0.56,0-0.864-0.153-0.864-0.458c0-0.204,0.152-0.457,0.712-0.457c0.663,0,1.171-0.053,1.579-0.153
		c0.917-0.206,1.174-1.018,1.325-2.294c0.203-1.834,0.203-5.247,0.203-9.22V172.068z"/>
	<path clip-path="url(#SVGID_2_)" fill="#231F20" d="M228.343,172.068c0-6.571,0-7.795-0.054-9.169
		c-0.099-1.478-0.508-1.937-1.934-2.346c-0.356-0.102-1.12-0.151-1.782-0.151c-0.459,0-0.765-0.153-0.765-0.458
		c0-0.306,0.356-0.408,1.019-0.408c2.344,0,5.196,0.103,6.113,0.103c1.528,0,5.603-0.103,6.979-0.103
		c2.853,0,6.112,0.254,8.509,1.835c1.271,0.866,3.157,3.056,3.157,5.959c0,3.211-1.834,6.062-6.215,9.578
		c3.973,4.89,7.132,8.813,9.831,11.512c2.496,2.497,4.075,2.702,4.788,2.854c0.459,0.103,0.714,0.103,1.07,0.103
		c0.357,0,0.562,0.254,0.562,0.458c0,0.357-0.306,0.458-0.867,0.458h-4.278c-2.498,0-3.72-0.254-4.891-0.865
		c-1.937-0.968-3.617-3.007-6.112-6.367c-1.784-2.345-3.668-5.249-4.229-5.911c-0.255-0.253-0.511-0.304-0.816-0.304l-4.023-0.104
		c-0.204,0-0.356,0.104-0.356,0.356v0.612c0,4.022,0.051,7.385,0.255,9.22c0.152,1.273,0.357,2.09,1.731,2.292
		c0.663,0.103,1.631,0.154,2.19,0.154c0.357,0,0.562,0.254,0.562,0.458c0,0.306-0.358,0.458-0.919,0.458
		c-2.598,0-6.314-0.152-6.977-0.152c-0.867,0-3.72,0.152-5.503,0.152c-0.561,0-0.867-0.152-0.867-0.458
		c0-0.204,0.154-0.458,0.715-0.458c0.662,0,1.171-0.052,1.578-0.154c0.918-0.202,1.171-1.019,1.326-2.292
		c0.203-1.835,0.203-5.245,0.203-9.22V172.068z M234.048,175.43c0,0.459,0.102,0.61,0.407,0.765
		c0.969,0.304,2.293,0.407,3.412,0.407c1.785,0,2.396-0.153,3.158-0.713c1.378-0.969,2.904-2.854,2.904-6.42
		c0-6.112-4.176-7.692-6.827-7.692c-1.118,0-2.188,0.051-2.647,0.152c-0.306,0.103-0.407,0.257-0.407,0.612V175.43z"/>
</g>
</svg>
