<?xml version="1.0" encoding="utf-8"?>
<!-- Generator: Adobe Illustrator 15.0.0, SVG Export Plug-In . SVG Version: 6.00 Build 0)  -->
<!DOCTYPE svg PUBLIC "-//W3C//DTD SVG 1.1//EN" "http://www.w3.org/Graphics/SVG/1.1/DTD/svg11.dtd">
<svg version="1.1" id="Layer_1" xmlns="http://www.w3.org/2000/svg" xmlns:xlink="http://www.w3.org/1999/xlink" x="0px" y="0px"
	 width="297.455px" height="297.477px" viewBox="1.272 0 297.455 297.477" enable-background="new 1.272 0 297.455 297.477"
	 xml:space="preserve">
<circle fill="#EA1274" cx="149.825" cy="148.903" r="148.903"/>
<path fill-rule="evenodd" clip-rule="evenodd" fill="#FFFFFF" d="M159.036,159.38c0-5.238,4.254-9.494,9.495-9.494
	c5.24,0,9.493,4.255,9.493,9.494c0,5.241-4.253,9.495-9.493,9.495C163.29,168.875,159.036,164.621,159.036,159.38z M168.531,134.696
	c-13.634,0-24.686,11.053-24.686,24.684c0,13.634,11.052,24.687,24.686,24.687c13.632,0,24.684-11.053,24.684-24.687
	C193.215,145.749,182.163,134.696,168.531,134.696z M56.5,203.055c0,8.395,6.798,15.191,15.19,15.191h151.907
	c8.393,0,15.191-6.797,15.191-15.191v-87.347c0-8.394-6.799-15.191-15.191-15.191h-14.241l-19.444-19.444
	c-2.239-2.24-5.167-3.341-8.089-3.341h-26.547c-2.922,0-5.886,1.101-8.088,3.341l-19.371,19.444h-14.352v-8.545
	c0-3.682-2.959-6.646-6.646-6.646H82.133c-3.686,0-6.646,2.963-6.646,6.646v8.545h-3.798c-8.392,0-15.19,6.797-15.19,15.191V203.055
	z M105.869,134.696H83.083c-4.176,0-7.595-3.42-7.595-7.596s3.419-7.594,7.595-7.594h22.787c4.176,0,7.595,3.419,7.595,7.594
	S110.045,134.696,105.869,134.696z M168.531,119.506c22.024,0,39.875,17.85,39.875,39.874c0,22.027-17.851,39.876-39.875,39.876
	c-22.028,0-39.876-17.849-39.876-39.876C128.655,137.355,146.503,119.506,168.531,119.506z"/>
</svg>
