<?xml version="1.0" encoding="utf-8"?>
<!-- Generator: Adobe Illustrator 15.0.0, SVG Export Plug-In . SVG Version: 6.00 Build 0)  -->
<!DOCTYPE svg PUBLIC "-//W3C//DTD SVG 1.1//EN" "http://www.w3.org/Graphics/SVG/1.1/DTD/svg11.dtd">
<svg version="1.1" id="Layer_1" xmlns="http://www.w3.org/2000/svg" xmlns:xlink="http://www.w3.org/1999/xlink" x="0px" y="0px"
	 width="297.455px" height="297.477px" viewBox="1.272 0 297.455 297.477" enable-background="new 1.272 0 297.455 297.477"
	 xml:space="preserve">
<circle fill="#EA1274" cx="149.851" cy="148.578" r="148.579"/>
<g id="qB5vNG_1_">
	<g id="XMLID_3_">
		<g>
			<path fill="#FFFFFF" d="M228.681,96.264c0.336,5.107-6.438,11.965-9.659,16.409c-22.093,30.452-43.583,59.474-66.843,90.222
				c-3.821,5.054-7.438,12.218-13.137,13.195c-8.307,1.427-14.597-5.62-19.318-9.982c-10.011-9.243-20.223-18.665-30.137-27.816
				c-4.308-3.973-13.048-9.843-13.137-15.335c-0.081-4.832,5.425-8.341,8.114-11.055c3.172-3.199,6.831-7.418,11.591-7.493
				c6.874-0.104,15.722,10.952,19.319,14.265c6.611,6.105,10.505,10.225,17.387,16.049c18.913-24.886,41.083-55.541,61.047-82.381
				c3.106-4.172,6.703-12.186,13.137-11.412c4.369,0.531,7.376,3.277,12.363,6.422C223.696,90.059,228.379,91.692,228.681,96.264z"
				/>
		</g>
		<g>
		</g>
	</g>
</g>
</svg>
