<?xml version="1.0" encoding="utf-8"?>
<!-- Generator: Adobe Illustrator 15.0.0, SVG Export Plug-In . SVG Version: 6.00 Build 0)  -->
<!DOCTYPE svg PUBLIC "-//W3C//DTD SVG 1.1//EN" "http://www.w3.org/Graphics/SVG/1.1/DTD/svg11.dtd">
<svg version="1.1" id="Layer_1" xmlns="http://www.w3.org/2000/svg" xmlns:xlink="http://www.w3.org/1999/xlink" x="0px" y="0px"
	 width="196.578px" height="82.415px" viewBox="130.057 150.611 196.578 82.415"
	 enable-background="new 130.057 150.611 196.578 82.415" xml:space="preserve">
<g>
	<path id="coke_R" d="M324.121,228.336c-0.108-0.048-0.265-0.065-0.465-0.065h-0.197v0.893h0.312c0.186,0,0.333-0.043,0.443-0.116
		c0.101-0.075,0.154-0.194,0.154-0.362C324.369,228.519,324.287,228.398,324.121,228.336 M322.656,230.795v-3.065
		c0.194,0,0.473,0.004,0.854,0.004s0.59,0.004,0.629,0.004c0.25,0.021,0.446,0.07,0.608,0.158c0.274,0.153,0.41,0.393,0.41,0.732
		c0,0.26-0.074,0.443-0.218,0.559c-0.144,0.113-0.323,0.182-0.528,0.205c0.191,0.042,0.336,0.103,0.435,0.176
		c0.179,0.147,0.269,0.373,0.269,0.687v0.277c0,0.031,0,0.058,0.004,0.089c0.004,0.03,0.012,0.062,0.022,0.09l0.03,0.085h-0.764
		c-0.027-0.094-0.043-0.235-0.051-0.423c-0.008-0.183-0.029-0.311-0.053-0.375c-0.04-0.108-0.112-0.186-0.223-0.227
		c-0.062-0.024-0.155-0.042-0.276-0.049l-0.179-0.012h-0.166v1.085H322.656z M322.246,227.656c-0.44,0.451-0.66,0.983-0.66,1.602
		c0,0.641,0.225,1.185,0.67,1.631c0.447,0.452,0.982,0.674,1.615,0.674c0.625,0,1.162-0.222,1.605-0.676
		c0.445-0.452,0.667-0.995,0.667-1.627c0-0.616-0.222-1.148-0.664-1.604c-0.442-0.458-0.983-0.69-1.608-0.69
		C323.234,226.965,322.695,227.198,322.246,227.656 M325.806,231.241c-0.539,0.521-1.186,0.781-1.934,0.781
		c-0.781,0-1.434-0.264-1.967-0.801c-0.531-0.528-0.799-1.184-0.799-1.965c0-0.809,0.286-1.479,0.861-2.013
		c0.541-0.5,1.174-0.754,1.904-0.754c0.762,0,1.416,0.274,1.955,0.813c0.539,0.543,0.808,1.191,0.808,1.953
		C326.634,230.045,326.361,230.705,325.806,231.241"/>
	<path fill="#231F20" d="M301.001,188.788c5.136,0.008,6.297,6.336,6.285,10.656c0,8.953-13.777,9.39-14.416,9.39
		C292.887,194.274,297.333,188.791,301.001,188.788 M198.259,208.302c0-3.547-0.098-19.855,9.941-19.855
		c8.775,0.004,9.27,13.988,9.26,20.37c0,6.376-0.814,20.356-9.787,20.356C198.446,229.167,198.259,214.077,198.259,208.302
		 M237.185,175.262c0,1.778-0.031,56.036-0.031,56.036l14.549,0.009l0.012-17.145l2.189-2.843c0,0,5.188,9.012,8.299,13.907
		c3.107,4.886,6.969,7.417,13.584,7.423c6.133,0,10.897-3.635,10.897-3.635s4.883,3.69,14.12,3.696
		c16.07,0.005,20.297-12.339,20.828-13.979c0,0-6.264,7.192-16.699,7.178c-10.441-0.004-11.219-10.62-11.764-13.19
		c6.222-0.798,28.351-2.476,28.354-15.8c0.009-9.549-9.556-11.773-17.632-11.777c-15.749-0.009-26.602,10.437-26.615,24.684
		c0,10.215,4.43,14.653,5.814,16.168c-2.668,0.854-4.353,0.373-8.854-6.045c-2.301-3.295-10.819-17.24-10.819-17.24l15.64-18.115
		h-18.651c0.713,0,4.838,2.514,4.834,5.167c0.004,0.909-0.324,1.384-0.98,2.152c-0.655,0.765-12.551,14.66-12.551,14.66l0.02-38.524
		l-20.387-0.012C231.341,168.036,237.185,168.887,237.185,175.262 M186.439,222.178c2.486,3.868,8.627,10.52,21.342,10.53
		c17.602,0.003,26.482-11.273,26.487-24.204c0.015-12.918-8.376-23.531-25.431-23.537c-13.025-0.013-25.977,7.427-25.987,23.964
		c0,1.588,0.187,3.377,0.438,4.747c0.141,0.8,0.532,2.272,0.933,3.583c-2.959,3.903-8.651,9.556-17.007,9.553
		c-11.504-0.01-19.719-8.229-19.715-27.861c0.015-19.627,7.708-29.877,18.057-29.87c13.232,0.005,19.134,15.278,20.109,17.551
		l1.383-18.606c-5.5,1.014-11.324-3.151-22.073-3.172c-20.18-0.011-34.911,15.36-34.918,35.195
		c-0.024,19.746,13.375,32.973,32.666,32.976C176.145,233.031,183.303,226.187,186.439,222.178"/>
	<path fill="#231F20" d="M305.248,168.17c-0.746,0.836-1.562,1.966-2.209,3.297c0,0,3.775-0.962,5.838-3.585
		c0.463-0.59,1.247-1.662,0.727-2.304C309.433,165.372,308.336,164.71,305.248,168.17 M296.83,175.843
		c-1.491,1.526-3.029,2.909-4.809,3.85c-1.457,0.629-3.299,1.282-4.709,0.139c-0.684-0.629-0.746-1.686-0.502-2.562
		c0.271-0.916,0.75-1.771,1.205-2.607c0,0,6.068-11.129,6.131-11.245c0.07-0.12,0.17-0.114,0.17-0.114
		c1.096,0,4.344-0.007,4.472-0.007c0.116,0,0.026,0.206,0.065,0.128s-2.109,3.951-2.109,3.951s-4.561,8.443-4.746,8.799
		c-0.467,0.873-0.047,1.543,1.262,0.715c1.598-1.01,2.463-2.052,3.43-3.322c1.291-1.684,1.996-3.942,4.224-6.297
		c2.164-2.299,3.903-3.375,5.737-4.018c2.105-0.738,4.459-0.214,5.033,1.334c0.498,1.34-0.234,3.196-1.188,4.296
		c-2.253,2.576-5.29,3.989-8.465,4.701c-0.555,0.771-1.434,3.915,1.41,3.851c1.584-0.039,2.906-0.918,4.334-1.854
		c2.472-1.748,4.748-3.952,6.369-6.453c0.764-1.367,1.6-2.746,2.283-4.133h-2.777c0,0,0.982-1.691,0.986-1.691h2.743l3.065-5.377
		l4.512,0.009c0,0.02-2.577,4.884-2.836,5.368c0.65-0.011,3.461-0.007,3.461-0.007l-0.843,1.694l-3.543,0.003l-0.455,0.734
		c0,0-3.753,6.962-5.081,9.342c-1.094,1.958-0.268,2.272,0.536,1.932c1.088-0.459,2.45-1.929,2.924-2.4
		c0.832-0.953,1.64-1.911,2.323-2.91c0.634-0.012,1.5-0.012,1.768,0c-2.136,3.522-5.419,7.552-9.566,8.655
		c-1.121,0.182-2.482,0.202-3.276-0.653c-0.765-0.796-0.718-2.116-0.333-3.073c0.128-0.314,0.275-0.669,0.337-0.801
		c0.069-0.127-0.004-0.19-0.14-0.068c-2.547,2.389-5.687,4.689-9.133,4.72c-1.402,0.009-3.011-0.604-3.709-1.978
		C296.691,177.118,296.857,176.199,296.83,175.843"/>
	<path fill="#231F20" d="M298.039,156.664c-1.361,0.772-1.986,2.237-1.363,3.336c0.617,1.104,2.305,1.275,3.58,0.524
		c1.256-0.733,1.965-2.21,1.346-3.312C300.982,156.112,299.402,155.899,298.039,156.664"/>
	<path fill="#231F20" d="M280.044,155.562c-0.314,0.468-0.621,1.038-1.195,2.161c-0.571,1.121-1.721,4.386-2.666,6.651
		c-1.637,3.927-4.078,7.442-7.059,9.944c-2.472,2.086-3.768,2.976-5.787,3.69c0,0,0.756,0.275,2.494,0.348
		c6.65,0.289,12.258-2.685,15.418-7.131c2.924-4.122,5.03-9.692,1.662-14.731c-3.176-4.729-17.07-6.635-24.599-0.144
		c-4.14,3.574-2.696,8.961,3.166,6.694c1.041-0.46,1.985-1.245,2.364-1.956c3.369,1.236,7.406-1.386,7.406-1.386
		s-2.871,6.422-9.842,7.35c-7.135,0.944-9.135-2.77-9.043-5.392c0.676-8.754,17.889-13.861,28.145-9.414
		c8.418,3.656,10.201,10.086,8.484,15.213c-2.529,7.563-8.986,10.801-15.107,12.125c-6.612,1.438-12.004,0.14-13.779-0.307
		c-0.749-0.199-1.107-0.429-1.107-0.429s2.348-1.624,4.596-4.35c1.892-2.292,3.861-5.097,5.271-7.503
		C272.087,161.46,276.371,157.066,280.044,155.562"/>
</g>
</svg>
