<?xml version="1.0" encoding="utf-8"?>
<!-- Generator: Adobe Illustrator 15.0.0, SVG Export Plug-In . SVG Version: 6.00 Build 0)  -->
<!DOCTYPE svg PUBLIC "-//W3C//DTD SVG 1.1//EN" "http://www.w3.org/Graphics/SVG/1.1/DTD/svg11.dtd">
<svg version="1.1" id="Layer_1" xmlns="http://www.w3.org/2000/svg" xmlns:xlink="http://www.w3.org/1999/xlink" x="0px" y="0px"
	 width="199.614px" height="18.947px" viewBox="104.142 200.152 199.614 18.947"
	 enable-background="new 104.142 200.152 199.614 18.947" xml:space="preserve">
<path fill="#231F20" d="M119.897,209.626c0-5.233,4.502-9.475,10.054-9.475c5.554,0,10.055,4.241,10.055,9.475
	c0,5.231-4.501,9.473-10.055,9.473C124.399,219.099,119.897,214.858,119.897,209.626 M122.719,209.626
	c0-3.873,3.238-7.011,7.232-7.011c3.995,0,7.233,3.138,7.233,7.011c0,3.871-3.238,7.01-7.233,7.01
	C125.957,216.636,122.719,213.497,122.719,209.626"/>
<polygon fill="#231F20" points="140.734,219.099 140.734,201.067 143.434,201.067 143.434,216.851 148.601,216.851 148.601,219.099 
	"/>
<g>
	<path fill="#231F20" d="M104.142,200.911h5.383c5.834,0,9.569,3.966,9.569,9.117c0,4.159-2.7,8.915-9.301,8.915h-5.651V200.911z
		 M107.083,203.23v13.457h3.056c3.44,0,6.044-3.003,6.044-6.696c0-3.44-2.457-6.761-6.337-6.761H107.083z"/>
</g>
<polygon fill="#231F20" points="172.976,219.099 172.976,216.851 166.515,216.851 166.515,210.778 172.797,210.778 172.797,208.568 
	166.515,208.568 166.515,203.385 172.976,203.385 172.976,201.067 163.628,201.067 163.628,219.099 "/>
<path fill="#231F20" d="M212.543,211.738h5.075l-2.539-6.32L212.543,211.738z M223.488,219.099l-7.541-18.032h-1.734l-7.542,18.032
	h2.915l2.043-5.082h6.904l2.041,5.082H223.488z"/>
<polygon fill="#231F20" points="266.439,219.099 258.897,201.067 257.162,201.067 249.621,219.099 252.535,219.099 254.578,214.017 
	261.483,214.017 263.524,219.099 "/>
<polygon fill="#FFFFFF" points="255.494,211.269 260.57,211.269 258.029,204.948 "/>
<polygon fill="#F1F6F8" points="292.808,210.269 297.884,210.269 295.344,203.948 "/>
<polygon fill="#FFFFFF" points="212.542,211.269 217.618,211.269 215.078,204.948 "/>
<path d="M292.806,211.694h5.078l-2.541-6.321L292.806,211.694z M303.755,218.944l-7.543-18.032h-1.733l-7.542,18.032h2.912
	l2.046-5.081h6.905l2.039,5.081H303.755z"/>
<g>
	<path fill="#231F20" d="M199.462,209.485h8.764v0.142c0,6.262-3.113,9.473-9.158,9.473c-5.554,0-10.056-4.241-10.056-9.473
		c0-5.233,4.502-9.475,10.056-9.475c3.646,0,6.793,1.862,8.271,4.564l-2.189,1.114c-1.303-1.935-3.531-3.215-6.082-3.215
		c-3.996,0-7.232,3.138-7.232,7.011c0,3.871,3.236,7.01,7.232,7.01c3.246,0,6.17-1.84,6.17-4.926h-5.775V209.485z"/>
</g>
<polygon fill="#231F20" points="270.112,205.98 270.112,219.099 267.441,219.099 267.441,201.067 269.189,201.067 281.847,214.509 
	281.847,201.067 284.423,201.067 284.423,219.099 282.552,219.099 "/>
<path fill="#231F20" d="M162.862,217.334c-1.612,1.112-3.588,1.765-5.724,1.765c-6.367,0-9.843-4.241-9.843-9.473
	c0-5.233,3.507-9.475,9.843-9.475c2.131,0,4.098,0.651,5.724,1.76v2.676c-1.367-1.221-3.204-1.972-5.233-1.972
	c-4.148,0-7.513,3.138-7.513,7.011c0,3.871,3.364,7.01,7.513,7.01c2.035,0,3.864-0.756,5.233-1.98V217.334z"/>
<path fill="#231F20" d="M231.684,205.997c0-1.922-1.146-2.612-2.766-2.612h-2.273v5.332h1.99
	C229.948,208.717,231.684,207.919,231.684,205.997 M233.253,213.912c0-2.193-1.502-2.979-3.627-2.979h-2.981v6.084h2.981
	C231.348,217.017,233.253,216.107,233.253,213.912 M234.522,205.879c0-3.187-1.9-4.812-6.377-4.812h-4.455v18.032h6.119
	c2.484,0,6.399-0.765,6.399-5.082c0-3.636-3.728-4.644-3.728-4.644S234.522,208.177,234.522,205.879"/>
<path fill="#231F20" d="M245.383,205.997c0-1.922-1.146-2.612-2.766-2.612h-2.273v5.332h1.99
	C243.645,208.717,245.383,207.919,245.383,205.997 M246.953,213.912c0-2.193-1.502-2.979-3.627-2.979h-2.981v6.084h2.981
	C245.047,217.017,246.953,216.107,246.953,213.912 M248.219,205.879c0-3.187-1.897-4.812-6.377-4.812h-4.455v18.032h6.119
	c2.485,0,6.401-0.765,6.401-5.082c0-3.636-3.728-4.644-3.728-4.644S248.219,208.177,248.219,205.879"/>
<path fill="#231F20" d="M180.919,212.781c0.584-0.312,1.008-0.653,1.008-1.203c0-0.191-0.109-0.853-0.89-0.853
	c-0.987,0-0.999,1.018-0.589,1.508L180.919,212.781z M180.505,214.429c-0.758,0.44-1.371,0.925-1.371,1.732
	c0,0.892,0.752,1.336,1.467,1.336c0.629,0,1.263-0.335,1.834-0.785l-1.577-1.871C180.735,214.695,180.617,214.558,180.505,214.429
	 M181.74,213.74l1.719,1.996c0.649-0.722,1.075-1.392,1.075-1.392l1.003,1.003c0,0-0.453,0.67-1.182,1.425l1.607,1.858h-1.912
	l-0.754-0.9c-0.811,0.63-1.771,1.137-2.769,1.137c-1.84,0-2.886-1.266-2.886-2.673c0-1.524,0.959-2.249,1.975-2.775
	c-0.589-0.69-0.859-1.127-0.859-1.887c0-1.167,0.887-2.072,2.262-2.072s2.314,0.729,2.314,1.993
	C183.333,212.585,182.58,213.224,181.74,213.74"/>
<path fill="#FFFFFF" d="M122.719,209.615c0-3.872,3.238-7.011,7.232-7.011c3.995,0,7.233,3.139,7.233,7.011
	c0,3.871-3.238,7.011-7.233,7.011C125.957,216.625,122.719,213.486,122.719,209.615"/>
<path fill="#FFFFFF" d="M244.716,205.724c0-1.922-1.146-2.612-2.765-2.612h-2.274v5.332h1.99
	C242.979,208.444,244.716,207.646,244.716,205.724 M246.286,213.639c0-2.193-1.502-2.979-3.627-2.979h-2.981v6.084h2.981
	C244.381,216.743,246.286,215.833,246.286,213.639"/>
<path fill="#FFFFFF" d="M231.383,205.724c0-1.922-1.145-2.612-2.766-2.612h-2.273v5.332h1.99
	C229.646,208.444,231.383,207.646,231.383,205.724 M232.954,213.639c0-2.193-1.502-2.979-3.627-2.979h-2.982v6.084h2.982
	C231.048,216.743,232.954,215.833,232.954,213.639"/>
<polygon fill="#FFFFFF" points="292.808,211.103 297.884,211.103 295.343,204.782 "/>
</svg>
