<?xml version="1.0" encoding="utf-8"?>
<!-- Generator: Adobe Illustrator 15.0.0, SVG Export Plug-In . SVG Version: 6.00 Build 0)  -->
<!DOCTYPE svg PUBLIC "-//W3C//DTD SVG 1.1//EN" "http://www.w3.org/Graphics/SVG/1.1/DTD/svg11.dtd">
<svg version="1.1" id="Layer_1" xmlns="http://www.w3.org/2000/svg" xmlns:xlink="http://www.w3.org/1999/xlink" x="0px" y="0px"
	 width="530.667px" height="79.333px" viewBox="-135.272 107.14 530.667 79.333"
	 enable-background="new -135.272 107.14 530.667 79.333" xml:space="preserve">
<g>
	<g>
		<defs>
			<rect id="SVGID_1_" x="-189.938" y="104.067" width="640.333" height="85.309"/>
		</defs>
		<clipPath id="SVGID_2_">
			<use xlink:href="#SVGID_1_"  overflow="visible"/>
		</clipPath>
		<path clip-path="url(#SVGID_2_)" fill="#231F20" d="M117.099,128.621c0,10.645-1.07,43.652-1.07,43.652
			c0,6.386,2.133,9.227,8.163,9.227v2.838h-23.775V181.5c6.031,0,9.226-2.841,9.226-9.227l2.128-53.944
			c-1.77-4.256-3.549-5.68-8.163-6.03v-2.489h18.101l19.166,50.396l19.521-50.396h16.324v2.489c-4.616,0-7.098,2.124-7.098,7.096
			l2.132,52.168c0,7.809,1.419,9.937,7.808,9.937v2.838h-27.329V181.5c5.324,0,7.805-1.777,7.449-9.937
			c0,0-1.062-36.557-1.421-42.942l-13.128,36.196c-1.777,4.613-3.546,9.942-4.965,15.618l-4.261,0.353
			c-1.07-3.902-3.91-10.998-3.91-10.998S121.001,138.917,117.099,128.621"/>
		<path clip-path="url(#SVGID_2_)" fill="#231F20" d="M94.737,184.696c-1.421-0.353-2.839-0.353-4.261-0.353
			c-2.839,0-7.805,1.416-13.839,1.416c-23.062,0-40.101-13.842-40.101-39.393c0-21.648,15.968-38.33,40.457-38.33
			c5.679,0,12.065,1.067,17.388,3.197c1.068-1.064,1.426-1.777,2.484-2.836h2.133c-0.358,3.899-1.777,16.675-1.777,16.675h-2.128
			c-1.418-7.453-5.321-12.419-17.744-12.419c-14.904,0-28.39,11.712-28.39,33.364c0,24.485,13.841,35.128,29.097,35.128
			c9.939,0,15.974-5.675,19.877-12.773l2.483,1.062L94.737,184.696z"/>
		<path clip-path="url(#SVGID_2_)" fill="#231F20" d="M27.661,123.652h-2.483c-0.349-6.743-2.483-8.87-7.806-8.87H7.083v55.715
			c0,9.229,1.77,11.005,7.805,11.005v2.841h-26.62v-2.841c6.036,0,7.812-1.775,7.812-11.357v-55.363h-10.296
			c-6.742,0-7.806,1.774-9.582,8.87h-2.483l1.776-15.969l1.77,0.354c0.713,1.773,2.132,1.773,6.393,1.773h34.426
			c6.387,0,7.806,0,9.227-2.127h2.126L27.661,123.652z"/>
		<path clip-path="url(#SVGID_2_)" fill="#231F20" d="M-47.572,186.115c-4.973,0-8.875-0.713-11.709-1.772
			c-2.845-0.714-4.972-1.773-6.036-2.491c-1.419,1.425-2.489,3.198-2.489,3.198l-2.126-0.707l1.776-16.683l2.483,0.354
			c1.42,7.81,6.743,13.487,17.745,13.487c8.52,0,14.192-7.097,14.192-14.905c0-6.391-2.476-9.585-10.996-15.972
			c-2.84-1.78-5.323-3.193-7.456-4.97C-60,140.687-64.96,135.007-64.96,125.782c0-10.646,8.87-17.746,20.579-17.746
			c6.743,0,11.001,2.133,12.422,2.84l2.483-2.84l1.776,0.357l-1.776,15.258l-2.483-0.354c0-7.096-4.253-10.29-11.359-10.29
			c-6.736,0-11.709,3.547-11.709,10.29c0,6.032,4.616,9.939,9.939,13.488c2.84,1.77,4.966,3.189,7.092,4.613
			c12.429,8.869,15.269,14.55,15.269,23.064C-22.728,176.891-32.316,186.115-47.572,186.115"/>
		<path clip-path="url(#SVGID_2_)" fill="#231F20" d="M-88.028,123.652h-2.84c0-6.387-2.839-8.87-8.519-8.87h-15.974v28.034h10.295
			c5.323,0,6.386-2.84,7.099-7.453h2.483v19.878h-2.483c-0.713-5.329-1.776-7.453-7.45-7.453h-9.944v23.775
			c0,8.872,2.132,9.938,7.812,9.938v2.841h-26.971v-2.841c6.743,0,7.806-1.775,7.806-9.938v-52.168c0-4.97-2.133-7.099-7.806-7.099
			v-2.486h36.903c6.393,0,7.812-0.354,8.876-2.48h2.482L-88.028,123.652z"/>
		<path clip-path="url(#SVGID_2_)" fill="#231F20" d="M250.533,124.365l-9.933,32.293h20.584L250.533,124.365z M294.9,127.911
			v42.586c0,9.229,2.125,11.005,7.805,11.005v2.841h-41.878v-2.841c3.197,0,6.037-1.066,6.037-3.195c0-1.416-0.363-3.901-1.07-6.39
			l-3.19-10.294h-23.422c-0.357,1.425-4.618,13.134-4.618,16.33c0,2.835,3.197,3.549,5.323,3.549v2.841h-19.515v-2.841
			c3.547,0,6.386-0.357,8.87-7.812l18.101-57.845c-1.062-2.486-2.481-3.193-4.965-3.55v-2.483h15.968l19.163,60.685
			c1.772,6.394,3.547,9.586,6.389,11.005c4.258-1.419,5.323-2.84,5.323-11.005v-51.102c-3.198-4.26-3.549-7.099-9.584-7.099v-2.483
			h18.101l29.811,50.749v-38.68c0-7.813-1.777-9.586-7.806-9.586v-2.483h39.743v2.483c-2.477,0-4.609,1.064-4.609,3.55
			c0,1.773,0.705,3.549,1.412,5.68l11.36,24.485l11.008-23.779c1.771-3.194,2.125-4.966,2.125-6.743
			c0-2.129-1.418-3.193-4.616-3.193v-2.483h18.81v2.483c-4.608,0-7.448,4.26-9.584,9.229l-14.547,29.811v19.518
			c0,8.516,2.133,10.648,7.812,10.648v2.841h-26.978v-2.841c5.679,0,7.807-2.133,7.807-10.648v-16.678l-15.611-33.007
			c-2.84-6.387-3.903-7.809-5.68-8.873c-3.547,1.42-4.609,3.906-4.609,9.586v54.651c0,0,0.351,4.255,0.707,9.226l-4.616,0.356
			L294.9,127.911z"/>
		<path clip-path="url(#SVGID_2_)" fill="#231F20" d="M202.983,114.779h-1.777v36.557h3.191c11.714,0,17.752-5.323,17.752-18.812
			C222.149,119.038,216.818,114.779,202.983,114.779 M206.529,156.658h-5.323v15.259c0,7.81,2.128,9.585,8.166,9.585v2.841h-27.329
			v-2.841c5.68,0,7.805-2.13,7.805-9.941v-50.035c0-7.809-2.125-9.229-7.805-9.229v-2.483h20.584
			c19.873,0,31.588,6.033,31.588,22.362C234.214,149.209,220.013,156.658,206.529,156.658"/>
		<path clip-path="url(#SVGID_2_)" fill="#231F20" d="M82.672,127.56c-9.232,0-12.421,8.87-12.421,19.163
			c0,9.58,2.84,19.16,12.421,19.16c9.226,0,12.065-9.58,12.065-19.517C94.737,136.787,91.191,127.56,82.672,127.56 M82.672,170.145
			c-13.484,0-22.717-9.583-22.717-23.421c0-13.132,9.589-23.425,22.717-23.425c12.772,0,22.354,9.939,22.354,23.425
			C105.026,159.852,95.093,170.145,82.672,170.145"/>
		<path clip-path="url(#SVGID_2_)" fill="#231F20" d="M-78.445,131.461l-5.323,17.389h11.001L-78.445,131.461z M-73.479,165.883
			v-2.481c3.546,0,4.26-1.063,4.26-2.13c0-1.417-0.356-2.483-0.713-3.551c0,0-0.707-2.84-1.419-4.966h-13.842l-1.413,4.612
			c-0.356,1.068-0.714,2.133-0.714,3.549c0,1.422,1.42,2.485,3.553,2.485v2.481H-97.61v-2.481c3.547,0,4.966-1.063,6.387-4.966
			l10.645-31.941c-0.356-1.42-1.419-2.486-3.546-2.486v-2.487h11.358c9.22,26.975,11.71,34.071,11.71,34.071
			c1.776,6.036,3.546,7.81,6.386,7.81v2.481H-73.479z"/>
	</g>
</g>
</svg>
