<?xml version="1.0" encoding="utf-8"?>
<!-- Generator: Adobe Illustrator 15.0.0, SVG Export Plug-In . SVG Version: 6.00 Build 0)  -->
<!DOCTYPE svg PUBLIC "-//W3C//DTD SVG 1.1//EN" "http://www.w3.org/Graphics/SVG/1.1/DTD/svg11.dtd">
<svg version="1.1" id="Layer_1" xmlns="http://www.w3.org/2000/svg" xmlns:xlink="http://www.w3.org/1999/xlink" x="0px" y="0px"
	 width="268.627px" height="268.629px" viewBox="2.234 0 268.627 268.629" enable-background="new 2.234 0 268.627 268.629"
	 xml:space="preserve">
<path fill-rule="evenodd" clip-rule="evenodd" fill="#EA1274" d="M270.861,12.21c0-6.722-5.484-12.21-12.21-12.21h-97.684
	c-6.722,0-12.21,5.488-12.21,12.21v97.684c0,6.723,5.488,12.21,12.21,12.21h97.684c6.726,0,12.21-5.487,12.21-12.21V12.21z
	 M270.861,158.735c0-6.724-5.484-12.211-12.21-12.211h-97.684c-6.722,0-12.21,5.487-12.21,12.211v97.682
	c0,6.723,5.488,12.212,12.21,12.212h97.684c6.726,0,12.21-5.489,12.21-12.212V158.735z M124.338,12.21
	c0-6.722-5.489-12.21-12.21-12.21H14.444C7.723,0,2.234,5.488,2.234,12.21v97.684c0,6.723,5.489,12.21,12.21,12.21h97.684
	c6.721,0,12.21-5.487,12.21-12.21V12.21z M124.338,158.735c0-6.724-5.489-12.211-12.21-12.211H14.444
	c-6.721,0-12.21,5.487-12.21,12.211v97.682c0,6.723,5.489,12.212,12.21,12.212h97.684c6.721,0,12.21-5.489,12.21-12.212V158.735z"/>
</svg>
