<?xml version="1.0" encoding="utf-8"?>
<!-- Generator: Adobe Illustrator 15.0.0, SVG Export Plug-In . SVG Version: 6.00 Build 0)  -->
<!DOCTYPE svg PUBLIC "-//W3C//DTD SVG 1.1//EN" "http://www.w3.org/Graphics/SVG/1.1/DTD/svg11.dtd">
<svg version="1.1" id="Layer_1" xmlns="http://www.w3.org/2000/svg" xmlns:xlink="http://www.w3.org/1999/xlink" x="0px" y="0px"
	 width="150.713px" height="150.713px" viewBox="134.883 81.71 150.713 150.713"
	 enable-background="new 134.883 81.71 150.713 150.713" xml:space="preserve">
<path fill="#231F20" d="M285.596,157.066c0-41.543-33.812-75.355-75.357-75.355c-41.543,0-75.355,33.812-75.355,75.355
	c0,41.705,33.812,75.357,75.355,75.357C251.784,232.423,285.596,198.771,285.596,157.066 M282,157.066
	c0,39.666-32.096,71.764-71.762,71.764c-39.664,0-71.814-32.098-71.814-71.764c0-39.664,32.15-71.815,71.814-71.815
	C249.905,85.25,282,117.615,282,157.066 M277.44,157.066c0-23.828-12.132-48.467-38.218-56.356
	c-5.421-1.661-9.981-2.737-15.241-2.737c-12.078,0-12.507,6.87-18.142,6.87c-3.115,0-5.209-2.256-5.209-4.992
	c0-4.775,5.637-8.533,14.6-8.533c8.374,0,14.815,2.095,16.05,2.684l0.215-0.589c-2.254-0.863-10.198-3.6-21.256-3.6
	c-24.045,0-48.465,12.347-56.355,38.219c-1.666,5.418-2.737,10.035-2.737,15.243c0,12.129,6.868,12.721,6.868,18.355
	c0,2.951-2.254,5.046-4.99,5.046c-4.777,0-8.535-5.476-8.535-14.654c0-8.318,2.094-14.815,2.469-16.047l-0.59-0.215
	c-0.644,2.521-3.381,10.252-3.381,21.307c0,24.21,12.342,48.63,38.215,56.575c5.42,1.662,10.037,2.682,15.244,2.682
	c12.131,0,12.506-7.084,18.142-7.084c2.95,0,5.259,2.306,5.259,5.205c0,4.617-5.475,8.373-14.652,8.373
	c-8.318,0-15.029-2.093-16.05-2.521l-0.214,0.641c2.309,1.021,10.253,3.332,21.309,3.332c23.992,0,48.629-12.133,56.357-38.219
	c1.664-5.206,2.684-9.983,2.684-15.029c0-12.29-6.869-12.72-6.869-18.355c0-3.115,2.094-5.207,4.99-5.207
	c4.834,0,8.588,5.637,8.588,14.814c0,8.159-2.093,14.599-2.521,16.05l0.644,0.216C274.915,176.067,277.44,168.339,277.44,157.066
	 M252.157,177.086c0,9.395-8.103,19.217-20.019,19.217c-14.386,0-21.685-12.132-21.685-22.973c0-15.243,10.412-21.687,14.813-23.991
	c-0.858-0.645-1.502-1.451-2.092-2.524c-5.046,3.544-9.608,6.71-19.218,12.131c-0.426,6.654-1.018,13.956-2.735,19
	c-3.543,10.626-10.842,18.357-20.448,18.357c-8.107,0-12.078-5.852-12.078-12.132c0-4.563,2.683-10.41,7.514-14.812
	c6.064-5.421,12.721-8.751,21.9-13.579c0.215-1.235,0.428-2.47,0.643-3.974c-2.307,2.094-5.637,2.954-8.372,2.954
	c-4.349,0-7.944-3.757-8.749-7.73c-5.85-0.43-10.253-4.616-10.467-11.271c0-4.778,1.879-8.964,5.045-8.964
	c1.236,0,1.666,1.019,1.666,1.879c0,0.804-1.076,3.541-1.076,6.226c0,2.738,1.289,6.279,4.617,6.279
	c0-10.842,7.945-24.852,17.336-24.852c6.227,0,7.087,4.617,7.087,6.71c0,9.823-9.823,20.665-17.767,23.347
	c0.215,0.858,1.071,3.166,3.596,3.166c3.113,0,6.869-2.95,8.75-5.258c0.804-4.349,3.971-10.628,8.158-10.628
	c1.662,0,2.469,1.235,2.469,2.739c0,3.111-3.327,7.084-5.852,9.77c-0.377,2.092-0.59,4.398-0.59,6.277
	c7.299-4.401,11.055-6.655,16.477-10.629c-0.428-1.445-0.428-3.164-0.428-4.828c0-9.77,6.494-20.666,15.026-20.666
	c4.832,0,7.302,3.383,7.302,7.141c0,7.083-6.066,13.309-14.601,19.806c0.646,1.664,1.665,3.11,3.327,3.969
	c0.216-0.428,2.953-0.858,5.207-0.858c2.523,0,6.066,0.646,6.066,3.166c0,2.9-3.972,3.545-7.087,3.545
	c-1.663,0.215-4.399-0.43-4.399-0.43c-4.562,1.234-13.365,6.494-13.365,19.806c0,9.019,5.636,17.337,14.439,17.337
	c6.653,0,12.073-4.992,12.289-12.722c0-4.99-2.092-10.251-7.084-10.251c-2.521,0-4.777,1.879-4.777,4.615
	c-0.215,4.189,2.897,4.616,2.897,7.301c0,1.879-1.446,2.738-2.897,2.738c-4.187,0-7.354-4.186-7.354-9.394
	c0-6.281,5.475-11.488,12.559-11.488C247.382,160.608,252.157,168.553,252.157,177.086 M236.755,124.488
	c0-1.02-0.216-2.309-1.503-2.309c-3.114,0-8.105,6.709-8.105,15.244C233.374,132.003,236.755,127.385,236.755,124.488
	 M199.774,123.627c0-1.019-0.591-1.448-1.449-1.448c-4.402,0-10.629,11.485-10.629,18.357
	C194.567,136.777,199.774,128.243,199.774,123.627 M197.303,162.702c-9.393,4.563-21.309,12.719-21.309,21.684
	c0,3.329,1.666,5.422,4.779,5.422C189.95,189.808,195.586,175.206,197.303,162.702"/>
</svg>
