<?xml version="1.0" encoding="utf-8"?>
<!-- Generator: Adobe Illustrator 15.0.0, SVG Export Plug-In . SVG Version: 6.00 Build 0)  -->
<!DOCTYPE svg PUBLIC "-//W3C//DTD SVG 1.1//EN" "http://www.w3.org/Graphics/SVG/1.1/DTD/svg11.dtd">
<svg version="1.1" id="Layer_1" xmlns="http://www.w3.org/2000/svg" xmlns:xlink="http://www.w3.org/1999/xlink" x="0px" y="0px"
	 width="205.391px" height="192.231px" viewBox="19.744 35.88 205.391 192.231"
	 enable-background="new 19.744 35.88 205.391 192.231" xml:space="preserve">
<path d="M201.438,227.526H43.434c-13.086,0-23.69-9.909-23.69-22.119V57.993c0-12.21,10.604-22.113,23.69-22.113h158.005
	c13.087,0,23.696,9.903,23.696,22.113v147.414C225.135,217.617,214.525,227.526,201.438,227.526 M122.436,94.848
	c-21.82,0-39.501,16.494-39.501,36.855c0,20.348,17.681,36.855,39.501,36.855c21.817,0,39.501-16.507,39.501-36.855
	C161.938,111.342,144.253,94.848,122.436,94.848 M201.438,65.365c0-4.073-3.54-7.372-7.908-7.372h-23.696
	c-4.362,0-7.896,3.299-7.896,7.372v22.113c0,4.066,3.534,7.371,7.896,7.371h23.696c4.368,0,7.908-3.305,7.908-7.371V65.365z
	 M201.438,116.955h-17.884c1.305,4.719,2.078,9.649,2.078,14.749c0,32.565-28.3,58.967-63.197,58.967
	c-34.904,0-63.197-26.402-63.197-58.967c0-5.099,0.773-10.03,2.079-14.749H43.434v81.081c0,4.065,3.537,7.371,7.912,7.371H193.53
	c4.368,0,7.908-3.306,7.908-7.371V116.955z"/>
</svg>
