<?xml version="1.0" encoding="utf-8"?>
<!-- Generator: Adobe Illustrator 15.0.0, SVG Export Plug-In . SVG Version: 6.00 Build 0)  -->
<!DOCTYPE svg PUBLIC "-//W3C//DTD SVG 1.1//EN" "http://www.w3.org/Graphics/SVG/1.1/DTD/svg11.dtd">
<svg version="1.1" id="Layer_1" xmlns="http://www.w3.org/2000/svg" xmlns:xlink="http://www.w3.org/1999/xlink" x="0px" y="0px"
	 width="193.256px" height="40.013px" viewBox="132.103 170.001 193.256 40.013"
	 enable-background="new 132.103 170.001 193.256 40.013" xml:space="preserve">
<g>
	<path fill="#231F20" d="M296.842,173.756c-5.646,1.322-8.011,2.242-14.32,5.307c-9.758,4.738-16.225,10.936-18.902,15.955
		c-0.719,1.617-0.99,3.582-0.793,5.045c0.074,1.029,0.361,2.047,0.802,2.98c1.565,2.672,4.275,3.404,6.97,3.375
		c1.164,0.08,2.32,0.002,3.363-0.186c0.363-0.078,3.08-0.363,3.984-1.66c0.17-0.289,0.179-0.457,0.079-0.559
		c-0.21-0.221-0.491-0.088-2.114,0.047c-4.842,0.186-8.621,0.213-10.047-2.291c-1.674-3.184,0.539-7.318,2.371-9.332
		c3.302-3.771,8.031-7.582,14.66-11.031c3.697-1.922,7.807-3.756,11.76-4.773c2.127-0.545,4.002-0.986,6.219-1.025
		c1.806,0.107,2.495,0.244,3.709,1.018c0.799,0.652,1.106,1.557,0.965,2.066c-0.135,0.613-0.696,0.809-0.373,1.139
		c0.511,0.598,1.327,0.135,1.833-0.525c0.173-0.357,0.614-0.869,0.437-2.197C306.639,173.744,302.12,172.551,296.842,173.756"/>
	<path fill="#231F20" d="M304.895,194.717c0.344,0.557,0.281,1.131-0.227,1.539c-3.346,1.85-5.48,2.979-7.918,5.973
		c-0.479,0.773,0.051,1.455,0.824,1.521c2.832,0.08,6.771-0.609,6.771-0.609c0.136,0.119,0.247,0.057,0.225,0.215
		c-2.197,2.033-5.392,2.186-6.517,2.318c-1.135-0.033-2.488,0.076-3.289-0.877c-0.92-1.088-0.67-2.822-0.114-3.592
		c2.569-3.174,5.537-4.58,8.97-6.709C304.099,194.194,305.127,194.006,304.895,194.717"/>
	<path fill="#231F20" d="M195.248,193.678c0.003,0.561,0.688,0.439,0.536,1.064c-1.68,2.92-2.797,5.076-4.381,7.883
		c-0.172,0.291,0.352,0.551,1.057-0.113c2.984-2.814,5.633-6.631,8.676-9.279c0.393-0.246,0.584-0.16,1.223-0.057
		c0.996,0.162,0.404,1.004,0.158,1.268c-4.152,3.342-7.123,11.125-12.109,11.611c-0.643,0.064-1.129-0.197-1.279-0.627
		c-0.357-1.02,0.415-1.926,0.312-3.068c-2.038,2.039-1.976,1.299-4.155,3.355c-0.799,0.539-1.395-0.061-1.721-0.639
		c-0.426-0.518-0.18-1.238,0.327-1.51l0.368-0.037c5.184-3.172,6.049-5.887,9.66-10.326
		C194.532,192.936,194.963,193.502,195.248,193.678"/>
	<path fill="#231F20" d="M216.134,194.033c0.095,1.344-1.346,4.209-2.286,5.664c-2.396,3.703-4.352,5.77-8.099,5.715
		c-0.484-0.061-0.713-0.324-0.889-0.578c-0.147-0.232-0.173-1.385-0.192-2.473c-1.338,1.518-1.842,2.061-2.436,2.553
		c-0.397,0.33-1.756,1.246-2.238,1.27c-0.152,0.049-1.023-1.207-0.699-2.049c-0.09-0.805,0.782-0.508,1.15-0.975
		c4.209-2.666,3.641-4.428,7.116-8.057c-0.146-0.365,0.271-0.406,0.46-0.584c0.61-0.166,1.165,0.73,1.2,0.918
		c-0.328,1.84-1.376,3.658-2.032,5.281c-0.26,0.641-0.956,1.654-0.265,1.975c2.324-0.381,4.519-3.076,6.001-5.443
		c0.707-1.121,2.412-4.361,2.863-3.789L216.134,194.033z"/>
	<path fill="#231F20" d="M187.293,192.379c0.336,0.283,0.83,1.004,0.213,1.102c-1.051,0.771-2.635,1.182-3.55,1.611
		c-1.86,0.848-3.288,1.504-4.932,2.625c1.278,0.229,2.776-0.096,3.706,0.729c0.367,0.637,0.238,1.49-6.276,4.967
		c-2.853,1.172,1.184,1.025,1.676,2.168c0.1,0.209-0.275,0.621-0.642,0.723c-0.577,0.174-3.948-0.342-4.158-0.613
		c-0.484-0.119-0.857-1.547-0.392-2.199c0.324-0.656,3.358-2.322,4.953-3.457c-0.378-0.115-1.22-0.215-1.653-0.656
		c-0.367-0.289-0.664-1.336-0.205-2.041c0.468-0.783,5.711-3.812,7.737-4.543C184.898,192.391,186.094,191.379,187.293,192.379"/>
	<path fill="#231F20" d="M227.235,193.014c0.058,0.521,0.26,0.959-0.322,1.213c-1.062,0-3.549,0.607-3.429,0.855
		c0.994,0.654,2.053,1.166,2.517,1.664c0.342,0.729-0.27,1.471-0.947,1.924c-3.022,1.998-5.91,2.809-6.917,4.785
		c0.237,0.186,3.114-0.207,3.085,0.633c-0.256,0.561-0.17,1.412-0.996,1.494c-1.013,0.32-3.801-0.301-4.435-0.936
		c-0.537-0.363-0.204-1.895,0.23-2.383c2.178-2.744,3.452-2.49,6.048-4.686c-0.612-0.906-1.758-1.379-1.268-2.715
		c0.405-1.494,1.697-2.016,3.104-2.342c0.827-0.193,2.016-0.557,2.431-0.449C226.336,192.073,227.023,192.244,227.235,193.014"/>
	<path fill="#231F20" d="M246.62,193.406c0.689,1.174-0.527,3.064-1.096,4.191c1.457,0.209,3.26,0.398,3.439,0.176
		c1.82-2.254,2.464-3.189,4.074-5.238c1.333-1.695,1.539-2.367,2.508-2.291c0.635-0.193,0.7,0.633,0.475,1.127
		c-1.008,2.42-2.664,4.244-4.146,6.475c0.903,0.115,3.564-0.799,3.138,0.35c-0.633,1.131-3.539,1.568-5.176,1.824l-3.969,5.375
		c-0.328,0.227-1.692,0.293-1.764-0.268c0.035-0.947,1.396-2.566,1.764-3.191c0.366-0.555,0.967-1.383,1.213-1.766
		c-0.357-0.002-3.213,0.285-3.014-0.385c-0.85,0.621-1.861,1.572-2.939,2.623c-1.444,1.174-3.461,3.463-4.162,3.621
		c-0.75,0.016-1.055-0.633-1.061-0.902c-0.104-0.463,0.459-1.088,0.693-1.314c1.957-1.861,4.188-3.99,5.738-5.885
		c0.698-0.805,1.914-2.91,1.801-3.488c-0.006-0.461-2.981-1.398-4.707-1.432c-2.124-0.105-4.266,0.354-6.164,1.281
		c-0.562,0.324-1.189,0.6-1.273,0.5c-0.049-0.059-0.096-0.156-0.144-0.254c-0.152-0.158-1.712-0.246-1.598-0.941
		c-0.445-0.34,1.998-1.443,4.171-2.066c3.463-0.992,6.244-0.707,8.82-0.061C244.977,191.901,246.305,192.934,246.62,193.406"/>
	<path fill="#231F20" d="M236.805,197.256c-3.064,3.139-5.227,5.973-8.902,8.48c-0.514,0.111-1.123-0.225-1.296-0.693
		c-0.483-1.305,1.474-1.896,2.399-2.824c2.294-2.121,6-6.385,6.537-6.514C237.085,195.203,236.805,197.256,236.805,197.256"/>
	<path fill="#231F20" d="M160.606,191.395c6.465-8.334,12.024-15.721,14.6-18.785c0.734-0.941,1.222-1.756,0.583-2.287
		c-0.955-0.795-1.924,0.092-2.187,0.449c-1.734,1.918-7.608,9.738-9.325,11.814c-1.718,2.076-6.05,7.646-8.009,10.146
		c-1.96,2.496-9.967,12.156-11.049,13.305c-1.072,1.139-1.811,1.781-2.177,2.791c-0.075,0.777,0.366,1.084,1.206,1.174
		c0.87,0.096,1.209-0.453,1.395-0.617C149.628,204.309,156.52,196.666,160.606,191.395"/>
	<path fill="#231F20" d="M198.586,172.903c-0.736-0.986-1.855-0.691-2.59-0.26c-3.846,2.744-11.695,7.348-15.74,9.691
		c-2.988,1.699-6.906,4.113-10.542,5.932c-3.196,1.6-8.403,4.004-8.905,6.504c-0.596,1.643,0.053,3.383,1.037,5.062
		c0.984,1.682,3.627,4.854,6.301,5.469c0.528,0.076,1.178-0.26,1.078-0.721c-2.4-2.051-5.371-5.258-6.004-7.168
		c-0.586-1.775,0.271-2.689,1.103-3.334c0.585-0.453,2.32-1.5,4.708-2.727c5.489-2.824,18.635-10.752,20.548-11.861
		c2.746-1.59,4.611-2.758,8.237-4.953C198.78,173.908,199.061,173.531,198.586,172.903"/>
	<path fill="#231F20" d="M141.745,190.299c0.725,0.039,0.859,0.01,2.189,0.053c1.816,0.057,3.255-0.301,4.379-0.035
		c1.129,0.262,1.67,1.383,1.088,1.906c-0.418,0.379-1.629,0.18-2.371,0.078c-0.803-0.111-0.698-0.1-1.486-0.043
		c-0.791,0.053-1.268,0.031-2.021,0.018c-0.756-0.014-2.06-0.082-3.065-0.092c-1.12-0.012-3.733-0.053-4.079-0.041
		c-0.34,0.014-2.072-0.082-3.362-0.076c-1.15,0.008-1.305-1.779,0.062-1.869c1.365-0.09,3.534-0.002,4.508,0.057
		C138.526,190.309,139.884,190.198,141.745,190.299"/>
	<path fill="#231F20" d="M284.563,203.635c-0.482-0.1-1.243,0.096-1.082-1.033c-0.4-0.633,3.844-4.467,7.51-4.469
		C289.356,202.098,287.265,203.467,284.563,203.635 M292.92,195.203c-0.562-0.893-2.121-1.291-2.212,0.328
		c-1.517,0.459-3.278,1.066-4.815,1.814c-2.214,1.188-4.822,2.832-5.002,6.016c-0.051,0.98,0.566,2.162,1.775,2.566
		c1.125,0.379,5.344,0.094,7.439-1.918C290.912,203.239,294.006,198.026,292.92,195.203"/>
	<path fill="#231F20" d="M311.663,201.785c-0.719,0.146-1.082,0.051-1.399,0.295c-0.581,0.453-0.366,0.422-0.739,0.988
		c-0.21,0.318,0.694,0.91,1.9,0.771c1.283-0.145,2.449-0.42,2.848-0.527c0.785-0.211,0.468,0.088,0.424,0.674
		c-0.711,2.102-4.125,1.84-4.729,1.943c-1.114-0.01-2.13,0.145-2.893-0.703c-1.079-1.193,0.325-3.379,1.536-4.795
		c2.137-2.029,3.389-3.494,5.511-5.182c0.953-0.639,3.96-0.639,6.659-0.945c2.052-0.234,0.886-0.168,4.105-0.33
		c0.943,0.109,0.256,1.23-0.158,1.332c-5.239,1.053-4.901,1.01-7.018,1.678c-0.844,0.262-1.793,0.631-2.373,0.42
		c-0.158-0.58-0.174-0.01-1.422,0.949c-0.146,0.119-1.111,0.984-1.497,1.355c1.984,0.158,4.09-0.521,3.418,0.318
		c0.226,0.268-0.07,0.881-0.493,1.096C314.935,201.334,312.374,201.645,311.663,201.785"/>
</g>
</svg>
