<?xml version="1.0" encoding="utf-8"?>
<!-- Generator: Adobe Illustrator 15.0.0, SVG Export Plug-In . SVG Version: 6.00 Build 0)  -->
<!DOCTYPE svg PUBLIC "-//W3C//DTD SVG 1.1//EN" "http://www.w3.org/Graphics/SVG/1.1/DTD/svg11.dtd">
<svg version="1.1" id="Layer_1" xmlns="http://www.w3.org/2000/svg" xmlns:xlink="http://www.w3.org/1999/xlink" x="0px" y="0px"
	 width="200.926px" height="26.346px" viewBox="110.093 144.631 200.926 26.346"
	 enable-background="new 110.093 144.631 200.926 26.346" xml:space="preserve">
<g>
	<path fill="#231F20" d="M180.877,155.533c0.74,0.407,1.683,0.614,2.78,0.614c1.115,0,2.015-0.207,2.787-0.614
		c0.785-0.372,1.154-0.86,1.154-1.397c0-0.573-0.369-1.019-1.154-1.393c-0.772-0.412-1.672-0.612-2.787-0.571
		c-1.098-0.041-2.008,0.159-2.78,0.571c-0.776,0.374-1.142,0.819-1.142,1.393C179.736,154.673,180.101,155.161,180.877,155.533"/>
	<path fill="#231F20" d="M236.832,155.488c0.741,0.372,1.684,0.576,2.791,0.576c1.062,0,2.008-0.204,2.781-0.576
		c0.783-0.408,1.15-0.863,1.15-1.393c0-0.573-0.367-1.062-1.15-1.43c-0.773-0.37-1.719-0.576-2.781-0.576
		c-1.107,0-2.006,0.206-2.791,0.576c-0.773,0.367-1.141,0.856-1.141,1.43C235.691,154.624,236.058,155.079,236.832,155.488"/>
	<path fill="#231F20" d="M308.97,166.38h-47.981c-10.062-1.279-10.991-5.646-11.267-7.215v-0.012c0-0.103-0.043-0.951-0.057-1.234
		c0.014-0.042,0.031-0.082,0.038-0.126c0.884-4.718,4.537-7.347,11.153-8.038h47.996c1.133,0,2.039-0.916,2.039-2.051
		c0-1.132-0.906-2.051-2.039-2.051h-48.139c-0.072,0-0.135,0.012-0.203,0.014c-10.693,1.096-13.971,6.775-14.824,11.355
		c-0.094,0.243-0.141,0.513-0.129,0.8l0.101,1.804c0,0.08,0,0.064,0.005,0.139c0.311,1.81,0.992,3.397,2.025,4.767l-9.086-5.054
		l-25.745-14.295c-0.644-0.525-1.571-0.634-2.335-0.188l-34.639,20.198v-18.141c0-1.129-0.918-2.047-2.053-2.047
		c-0.191,0-0.375,0.035-0.552,0.085c-0.279,0.009-0.562,0.069-0.828,0.199l-30.727,14.827c-0.146,0.07-0.276,0.16-0.397,0.258
		l-3.294,1.631l3.538,1.783c0.299,0.15,0.619,0.213,0.935,0.212c0.334,0.019,0.676-0.035,0.999-0.19l28.28-13.646v18.267
		c0,0.611,0.269,1.152,0.688,1.527c0.633,0.747,1.723,0.961,2.597,0.445l12.233-7.129c0.021,0.004,0.041,0.012,0.062,0.015
		l6.906-4.07h-0.01l17.287-10.074l18.156,10.074h-31.893l-7.018,4.097h46.293l13.293,7.404c0.989,0.547,2.236,0.194,2.784-0.796
		c0.214-0.386,0.288-0.811,0.241-1.219c2.016,0.827,4.41,1.415,7.18,1.76c0.081,0.01,0.161,0.02,0.252,0.02h48.131
		c1.129,0,2.049-0.915,2.049-2.054C311.019,167.298,310.099,166.38,308.97,166.38"/>
	<path fill="#231F20" d="M113.146,144.853c-1.007-0.514-2.243-0.104-2.75,0.903c-0.141,0.276-0.207,0.569-0.216,0.86
		c-0.051,0.18-0.087,0.364-0.087,0.562v21.376c0,1.134,0.913,2.053,2.049,2.053c1.127,0,2.046-0.919,2.046-2.053v-18.582
		l21.875,11.039l4.598-2.264L113.146,144.853z"/>
</g>
</svg>
