<?xml version="1.0" encoding="utf-8"?>
<!-- Generator: Adobe Illustrator 15.0.0, SVG Export Plug-In . SVG Version: 6.00 Build 0)  -->
<!DOCTYPE svg PUBLIC "-//W3C//DTD SVG 1.1//EN" "http://www.w3.org/Graphics/SVG/1.1/DTD/svg11.dtd">
<svg version="1.1" id="Layer_1" xmlns="http://www.w3.org/2000/svg" xmlns:xlink="http://www.w3.org/1999/xlink" x="0px" y="0px"
	 width="193.412px" height="73.871px" viewBox="103.617 184.684 193.412 73.871"
	 enable-background="new 103.617 184.684 193.412 73.871" xml:space="preserve">
<g>
	<g>
		<path fill-rule="evenodd" clip-rule="evenodd" fill="#231F20" d="M200.489,253.868c28.862,0,56.847-1.313,83.481-3.728v1.061
			c-26.629,4.191-54.626,7.354-83.481,7.354c-28.857,0-56.854-3.162-83.484-7.354v-1.061
			C143.64,252.555,171.621,253.868,200.489,253.868z"/>
		<g>
			<g>
				<g>
					<path fill="#231F20" d="M111.309,239.102v-4.93h-4.142v4.93h-2.908v-10.047c0-0.517-0.145-0.846-0.643-1.238v-0.049h3.551
						v4.524h4.142v-4.524h2.928v11.334H111.309z"/>
					<path fill="#231F20" d="M124.41,239.354c-3.533,0-5.791-2.121-5.791-5.92s2.258-5.916,5.791-5.916
						c3.535,0,5.788,2.117,5.788,5.916S127.945,239.354,124.41,239.354z M124.41,229.464c-2.081,0-2.687,2.135-2.687,3.97
						s0.606,3.974,2.687,3.974c2.078,0,2.686-2.139,2.686-3.974S126.488,229.464,124.41,229.464z"/>
					<path fill="#231F20" d="M143.506,229.119c-0.256,0.498-0.593,0.688-1.331,0.688h-2.061v9.295h-3.007v-9.295h-3.392
						c-0.176,0.016-0.352,0.064-0.558,0.16l-0.048-0.033l0.798-1.445c0.306-0.549,0.691-0.721,1.313-0.721h8.987L143.506,229.119z"
						/>
					<path fill="#231F20" d="M147.696,239.102v-11.334h7.964v1.886h-5.039v2.761h4.177v1.695h-4.177v3.141h5.12v1.852H147.696z"/>
					<path fill="#231F20" d="M160.46,239.102v-10.047c0-0.517-0.146-0.846-0.643-1.238v-0.049h3.568v9.432h5.214v1.902H160.46z"/>
					<path fill="#231F20" d="M175.671,239.354c-1.395,0-2.436-0.207-3.553-0.52l0.989-1.805c0.689,0.221,1.552,0.424,2.306,0.424
						c1.15,0.015,1.742-0.439,1.742-1.242c0-0.845-0.48-1.081-2.126-1.942c-1.681-0.884-3.007-1.872-2.864-3.676
						c0.164-2.149,1.984-3.075,4.076-3.075c1.217,0,2.227,0.078,3.521,0.518v0.017l-0.896,1.724
						c-0.719-0.281-1.425-0.422-2.112-0.393c-0.959,0.047-1.646,0.348-1.661,1.023c-0.034,0.956,1.183,1.316,2.364,1.945
						c1.619,0.846,2.687,1.475,2.687,3.468C180.145,237.533,178.997,239.354,175.671,239.354z"/>
					<path fill="#231F20" d="M196.877,239.102l-0.606-0.832c-0.498,0.363-1.441,1.051-3.119,1.051c-2.435,0-3.647-1.366-3.647-3.062
						c0-1.787,1.341-2.651,2.494-3.389c-0.337-0.438-1.071-1.335-1.071-2.497c0-1.535,1.344-2.855,3.342-2.855
						c2.227,0,3.007,1.474,3.007,2.496c0,1.555-1.439,2.604-1.966,2.98l1.611,2.023c0.642-0.859,0.852-1.283,1.202-2.053
						l1.774,1.207c-0.461,0.877-1.037,1.729-1.692,2.434c0.415,0.564,2.027,2.496,2.027,2.496H196.877z M193.31,234.563
						c-0.463,0.317-1.039,0.726-1.039,1.434c0,0.593,0.479,1.236,1.359,1.236c0.702,0,1.088-0.283,1.408-0.5L193.31,234.563z
						 M194.221,229.214c-0.481,0-0.864,0.376-0.864,0.847c0,0.393,0.146,0.596,0.721,1.383c0.415-0.334,0.976-0.771,0.976-1.43
						C195.053,229.448,194.573,229.214,194.221,229.214z"/>
					<path fill="#231F20" d="M218.42,239.102c-0.878,0-1.628-0.093-2.126-0.818l-2.561-3.721h-0.638v4.539h-2.931v-11.334h4.416
						c3.357,0,4.27,1.68,4.27,3.266c0,1.083-0.447,2.462-2.188,3.029l3.197,4.538c0.111,0.169,0.32,0.344,0.513,0.485v0.016
						C218.835,239.102,218.42,239.102,218.42,239.102z M213.923,229.654h-0.827v3.044h0.895c1.327,0,1.95-0.551,1.95-1.523
						C215.941,230.029,215.318,229.654,213.923,229.654z"/>
					<path fill="#231F20" d="M223.57,239.102v-11.334h7.964v1.886h-5.036v2.761h4.176v1.695h-4.176v3.141h5.117v1.852H223.57z"/>
					<path fill="#231F20" d="M239.164,239.354c-1.391,0-2.43-0.207-3.552-0.52l0.994-1.805c0.689,0.221,1.548,0.424,2.304,0.424
						c1.15,0.015,1.74-0.439,1.74-1.242c0-0.845-0.479-1.081-2.127-1.942c-1.677-0.884-3.005-1.872-2.863-3.676
						c0.16-2.149,1.984-3.075,4.081-3.075c1.217,0,2.221,0.078,3.519,0.518v0.017l-0.896,1.724
						c-0.722-0.281-1.423-0.422-2.112-0.393c-0.96,0.047-1.646,0.348-1.664,1.023c-0.032,0.956,1.186,1.316,2.37,1.945
						c1.614,0.846,2.686,1.475,2.686,3.468C243.643,237.533,242.492,239.354,239.164,239.354z"/>
					<path fill="#231F20" d="M253.029,239.354c-3.532,0-5.787-2.121-5.787-5.92s2.255-5.916,5.787-5.916
						c3.537,0,5.789,2.117,5.789,5.916S256.566,239.354,253.029,239.354z M253.029,229.464c-2.08,0-2.686,2.135-2.686,3.97
						s0.605,3.974,2.686,3.974c2.082,0,2.688-2.139,2.688-3.974S255.111,229.464,253.029,229.464z"/>
					<path fill="#231F20" d="M271.458,239.102c-0.883,0-1.633-0.093-2.132-0.818l-2.558-3.721h-0.641v4.539h-2.925v-11.334h4.413
						c3.361,0,4.271,1.68,4.271,3.266c0,1.083-0.447,2.462-2.193,3.029l3.199,4.538c0.112,0.169,0.321,0.344,0.514,0.485v0.016
						C271.869,239.102,271.458,239.102,271.458,239.102z M266.96,229.654h-0.832v3.044h0.898c1.328,0,1.951-0.551,1.951-1.523
						C268.978,230.029,268.355,229.654,266.96,229.654z"/>
					<path fill="#231F20" d="M285.531,229.119c-0.256,0.498-0.591,0.688-1.328,0.688h-2.063v9.295h-3.005v-9.295h-3.392
						c-0.179,0.016-0.354,0.064-0.558,0.16l-0.049-0.033l0.797-1.445c0.305-0.549,0.688-0.721,1.312-0.721h8.988L285.531,229.119z"
						/>
					<path fill="#231F20" d="M292.552,239.354c-1.391,0-2.433-0.207-3.552-0.52l0.991-1.805c0.689,0.221,1.553,0.424,2.307,0.424
						c1.148,0.015,1.742-0.439,1.742-1.242c0-0.845-0.48-1.081-2.127-1.942c-1.682-0.884-3.007-1.872-2.865-3.676
						c0.162-2.149,1.984-3.075,4.078-3.075c1.217,0,2.227,0.078,3.518,0.518v0.017l-0.891,1.724
						c-0.723-0.281-1.426-0.422-2.113-0.393c-0.963,0.047-1.646,0.348-1.662,1.023c-0.035,0.956,1.18,1.316,2.365,1.945
						c1.614,0.846,2.686,1.475,2.686,3.468C297.029,237.533,295.875,239.354,292.552,239.354z"/>
				</g>
			</g>
		</g>
	</g>
	<g>
		<path fill-rule="evenodd" clip-rule="evenodd" fill="#231F20" d="M131.475,211.905c-0.77,0-1.645-0.176-2.252-0.309l-3.863,6.333
			c1.018,0.969,3.478,1.574,4.879,1.574c4.249,0,7.044-4.188,12.28-16.029l6.26,13.337h8.354l-3.93-8.98l2.213-4.676l6.154,13.656
			h8.02l-13.981-30.876l-6.444,3.224l5.041,11.455l-2.211,4.506l-9.257-19.962l-6.775,3.46l5.612,12.021l0,0l-2.173,4.451
			C137.909,208.141,134.71,211.905,131.475,211.905z"/>
		<path fill-rule="evenodd" clip-rule="evenodd" fill="#231F20" d="M185.241,210.188v-12.445c0-1.81-0.431-3.32-1.267-4.342
			c-0.777-0.951-2.018-2.044-5.319-2.044c-2.438,0-4.396,0.44-5.99,1.18c-0.663,0.308-1.135,0.923-1.507,1.814
			c-0.423,1-0.747,2.372-0.979,3.906c2.244-2.075,4.385-3.146,5.854-3.36c1.906-0.289,3.204,0.106,3.204,1.106
			c0,0.731-0.545,1.172-1.402,1.598c-1.243,0.625-3.903,1.351-6.027,2.612c-1.909,1.135-3.575,2.95-3.421,6.695
			c0.159,3.878,2.894,6.425,5.329,6.436c2.503,0.008,4.008-1.2,5.674-2.649c0.175,0.797,0.571,1.808,1.202,2.398h5.756
			C185.713,212.236,185.241,211.262,185.241,210.188z M178.091,208.662c-0.881,0.645-1.547,0.797-2.252,0.777
			c-1.329-0.037-2.057-1.374-2.057-3.172c0-1.098,0.335-2.438,0.805-3.285c0.836-1.498,2.091-2.549,3.328-2.607
			c0.768-0.043,1.086,0.291,1.196,1.285c0.07,0.646,0.089,1.23,0.089,2.669C179.201,207.215,179.102,207.917,178.091,208.662z"/>
		<path fill-rule="evenodd" clip-rule="evenodd" fill="#231F20" d="M214.249,191.578c1.634,0,2.808,0.731,3.432,1.539l-2.527,3.909
			c-1.222-0.921-2.868-1.24-4.294-0.099v11.442c-0.008,1.983,0.328,3.773,1.358,4.723h-5.733c-1.203-0.909-1.66-2.489-1.66-3.659
			v-15.225c0-1.248-0.27-1.77-0.763-2.477h5.95c0.322,0.281,0.627,0.951,0.743,1.42
			C211.717,192.289,212.863,191.578,214.249,191.578z"/>
		<path fill-rule="evenodd" clip-rule="evenodd" fill="#231F20" d="M225.986,196.078v12.292c-0.016,1.983,0.326,3.773,1.355,4.723
			h-5.732c-1.208-0.909-1.661-2.489-1.661-3.659v-15.225c0-1.248-0.272-1.77-0.76-2.477h5.845
			C225.776,192.79,225.986,194.014,225.986,196.078z"/>
		<path fill-rule="evenodd" clip-rule="evenodd" fill="#231F20" d="M199.284,191.578c1.636,0,2.807,0.731,3.431,1.539l-2.525,3.909
			c-1.223-0.921-2.869-1.24-4.295-0.099v11.442c-0.014,1.983,0.328,3.773,1.357,4.723h-5.733c-1.202-0.909-1.658-2.489-1.658-3.659
			v-15.225c0-1.248-0.272-1.77-0.764-2.477h5.949c0.322,0.281,0.629,0.951,0.744,1.42
			C196.752,192.289,197.9,191.578,199.284,191.578z"/>
		<path fill-rule="evenodd" clip-rule="evenodd" fill="#231F20" d="M246.144,196.438c-0.881-1.498-2.549-3.338-4.979-4.631
			c-1.627-0.868-2.586-0.845-6.131,0.828c-1.001,0.469-3.205,1.72-4.186,3.274c-0.344,0.548-0.599,1.62-0.721,2.918
			c-0.215,2.237-0.16,5.021-0.021,7.042c0.334,4.754,5.053,6.943,6.787,7.501c3.025,0.979,6.518-2.236,7.422-3.133
			c1.709-1.695,2.43-2.824,2.648-4.82c0.111-1.008,0.126-2.155,0.109-3.608C247.043,199.955,246.826,197.601,246.144,196.438z
			 M240.183,208.904c-0.467,0.854-1.004,1.245-1.734,1.237c-0.738-0.011-1.539-0.814-2.018-2.375
			c-0.547-1.806-0.482-6.57-0.403-7.823c0.116-1.892,0.25-3.232,0.874-4.329c0.312-0.557,1.042-1.384,2.102-1.045
			c1.024,0.329,2.012,1.859,2.211,6.351C241.43,205.857,240.749,207.883,240.183,208.904z"/>
		<path fill-rule="evenodd" clip-rule="evenodd" fill="#231F20" d="M257.102,193.412v14.958c-0.014,1.983,0.323,3.773,1.354,4.723
			h-5.842c-1.205-0.909-1.652-2.489-1.652-3.659v-16.021h-3.376l0.741-1.99h2.635v-4.447l6.14-2.291v6.738h2.973l-0.751,1.99
			H257.102z"/>
		<path fill-rule="evenodd" clip-rule="evenodd" fill="#231F20" d="M270.128,193.412v14.958c-0.01,1.983,0.326,3.773,1.356,4.723
			h-5.839c-1.207-0.909-1.658-2.489-1.658-3.659v-16.021h-3.373l0.744-1.99h2.629v-4.447l6.141-2.291v6.738h2.975l-0.753,1.99
			H270.128z"/>
	</g>
	<g>
		<path fill="#231F20" d="M275.96,213.289c-1.424,0-2.579-1.151-2.579-2.575c0-1.423,1.155-2.578,2.579-2.578
			c1.421,0,2.577,1.155,2.577,2.578C278.538,212.138,277.381,213.289,275.96,213.289z M275.96,208.49
			c-1.232,0-2.223,0.994-2.223,2.224c0,1.23,0.99,2.226,2.223,2.226c1.231,0,2.223-0.995,2.223-2.226
			C278.183,209.485,277.192,208.49,275.96,208.49z M276.904,212.279c-0.156,0-0.314-0.015-0.411-0.151l-0.777-1.172h-0.218v1.323
			h-0.557v-3.092h1.072c0.838,0,1.014,0.526,1.014,0.843c0,0.434-0.294,0.758-0.725,0.842l0.876,1.272
			c0.042,0.054,0.089,0.095,0.142,0.132v0.003C277.134,212.279,276.904,212.279,276.904,212.279z M275.827,209.573h-0.329v0.992h0.3
			c0.397,0,0.671-0.16,0.671-0.512C276.468,209.62,276.117,209.573,275.827,209.573z"/>
	</g>
</g>
</svg>
