<?xml version="1.0" encoding="utf-8"?>
<!-- Generator: Adobe Illustrator 15.0.0, SVG Export Plug-In . SVG Version: 6.00 Build 0)  -->
<!DOCTYPE svg PUBLIC "-//W3C//DTD SVG 1.1//EN" "http://www.w3.org/Graphics/SVG/1.1/DTD/svg11.dtd">
<svg version="1.1" id="Layer_1" xmlns="http://www.w3.org/2000/svg" xmlns:xlink="http://www.w3.org/1999/xlink" x="0px" y="0px"
	 width="297.455px" height="297.477px" viewBox="1.272 0 297.455 297.477" enable-background="new 1.272 0 297.455 297.477"
	 xml:space="preserve">
<circle fill="#EA1274" cx="149.794" cy="148.934" r="148.934"/>
<g>
	<g id="XMLID_4_">
		<g>
			<path fill="#FFFFFF" d="M224.596,97.757c4.074,9.153-1.915,15.734-6.122,20.437c-11.506-11.477-23.113-22.829-34.81-34.054
				c3.355-5.994,12.601-9.117,21.143-4.73c3.816,1.953,4.27,1.853,8.618,6.108C217.858,89.854,222.877,93.885,224.596,97.757z"/>
		</g>
		<g>
		</g>
	</g>
	<g id="wu7En4_1_">
		<g id="XMLID_5_">
			<g>
				<path fill="#FFFFFF" d="M178.294,87.699c12.264,11.499,24.897,22.65,36.488,34.787c-24.602,22.643-51.044,48.125-76.221,71.868
					c-3.637,3.429-7.59,8.093-10.947,9.939c-3.592,1.969-8.076,2.771-12.163,4.205c-7.549,2.642-15.909,5.386-24.326,8.414
					c-5.271,1.888-14.23,6.85-17.028,0.378c-2.327-5.379,4.731-19.029,6.535-23.472c1.728-4.267,3.231-8.608,4.569-11.95
					c1.549-3.88,3.422-8.157,5.518-11.598c1.954-3.216,7.225-6.816,10.946-10.322C126.553,136.481,153.412,110.602,178.294,87.699z
					 M169.779,128.519c3.386-3.192,15.602-11.086,15.001-17.202c-0.356-3.617-4.217-5.83-8.108-4.966
					c-0.3,0.065-0.965-0.157-1.217,0c-6.032,3.562-11.12,10.096-16.217,14.905c-10.44,9.84-22.088,20.823-32.435,30.583
					c-4.508,4.247-14.847,11.816-14.595,16.82c0.174,3.57,3.248,5.733,6.487,5.733c3.572,0,6.941-3.868,9.73-6.498
					C143.155,154.001,155.387,142.086,169.779,128.519z M95.991,207.65c8.923-2.929,17.34-6.335,26.353-9.175
					c-7.48-8.035-18.159-17.485-25.137-24.848c-0.563-0.493-0.563-0.493-1.216-0.383c-1.533,4.247-3.008,7.863-5.271,12.997
					c-4.504,10.23-5.34,11.267-4.46,12.233C89.022,201.511,92.059,205.062,95.991,207.65z"/>
				<path fill="#EA1274" d="M184.78,111.316c0.601,6.116-11.615,14.01-15.001,17.202c-14.393,13.567-26.625,25.482-41.354,39.375
					c-2.79,2.63-6.159,6.498-9.73,6.498c-3.239,0-6.312-2.163-6.487-5.733c-0.251-5.004,10.087-12.573,14.595-16.82
					c10.347-9.76,21.995-20.743,32.435-30.583c5.097-4.809,10.185-11.342,16.217-14.905c0.252-0.157,0.917,0.065,1.217,0
					C180.563,105.486,184.424,107.7,184.78,111.316z"/>
				<path fill="#EA1274" d="M122.344,198.476c-9.013,2.84-17.43,6.246-26.353,9.175c-3.933-2.588-6.969-6.14-9.73-9.175
					c-0.88-0.967-0.044-2.003,4.46-12.233c2.262-5.134,3.738-8.75,5.271-12.997c0.653-0.11,0.653-0.11,1.216,0.383
					C104.185,180.99,114.864,190.44,122.344,198.476z"/>
			</g>
			<g>
			</g>
		</g>
	</g>
</g>
</svg>
