<?xml version="1.0" encoding="utf-8"?>
<!-- Generator: Adobe Illustrator 15.0.0, SVG Export Plug-In . SVG Version: 6.00 Build 0)  -->
<!DOCTYPE svg PUBLIC "-//W3C//DTD SVG 1.1//EN" "http://www.w3.org/Graphics/SVG/1.1/DTD/svg11.dtd">
<svg version="1.1" id="Layer_1" xmlns="http://www.w3.org/2000/svg" xmlns:xlink="http://www.w3.org/1999/xlink" x="0px" y="0px"
	 width="184.19px" height="244.459px" viewBox="15.593 9.67 184.19 244.459" enable-background="new 15.593 9.67 184.19 244.459"
	 xml:space="preserve">
<path d="M125.154,182.197c-11.304,0-22.924-4.648-30.27-11.592c-4.907,14.074-11.505,33.312-12.538,37.013
	c-5.065,18.392-18.479,36.784-24.002,43.829c-1.448,1.821-3.228,2.682-5.15,2.682c-3.07,0-5.637-2.18-6.054-5.223
	c-2.869-19.826-2.683-37.701,0.487-51.071c2.31-9.813,19.368-68.174,22.467-78.704c-1.306-3.243-3.902-10.845-3.902-20.888
	c0-21.362,12.969-38.104,29.524-38.104c13.142,0,21.949,9.641,21.949,23.958c0,8.263-3.184,18.549-6.542,29.438
	c-1.808,5.882-3.672,11.893-5.05,17.746c-1.19,4.993-0.23,9.77,2.683,13.471c3.113,3.931,8.048,6.184,13.556,6.184
	c21.005,0,36.842-27.847,36.842-64.802c0-28.033-19.052-45.449-49.725-45.449c-38.763,0-59.666,29.84-59.666,57.93
	c0,9.383,2.396,16.584,7.547,22.667c2.969,3.5,4.146,6.082,2.769,11.218l-2.669,10.444c-1.119,4.319-4.404,7.001-8.521,7.001
	c-1.32,0-2.626-0.272-3.931-0.803c-18.378-7.518-29.366-27.631-29.366-53.783c0-42.107,36.424-85.69,97.396-85.69
	c54.329,0,86.795,40.141,86.795,78.947C199.783,142.831,168.394,182.197,125.154,182.197"/>
</svg>
