<?xml version="1.0" encoding="utf-8"?>
<!-- Generator: Adobe Illustrator 15.0.0, SVG Export Plug-In . SVG Version: 6.00 Build 0)  -->
<!DOCTYPE svg PUBLIC "-//W3C//DTD SVG 1.1//EN" "http://www.w3.org/Graphics/SVG/1.1/DTD/svg11.dtd">
<svg version="1.1" id="Layer_1" xmlns="http://www.w3.org/2000/svg" xmlns:xlink="http://www.w3.org/1999/xlink" x="0px" y="0px"
	 width="198.316px" height="71.053px" viewBox="101.604 186.188 198.316 71.053"
	 enable-background="new 101.604 186.188 198.316 71.053" xml:space="preserve">
<g>
	<g>
		<path fill="#231F20" d="M148.569,245.563h-8.273v-20.199h-8.762v20.199h-8.029V198.84h8.029v18.982h8.762V198.84h8.273V245.563z
			 M151.973,222.203c0-14.357,5.111-23.363,11.438-24.336c-6.326-7.543-16.789-11.68-26.281-11.68
			c-10.461,0-19.951,4.381-26.521,11.68c6.326,1.217,8.273,6.572,8.273,14.602h-7.543c0-4.867-0.975-7.301-3.895-7.301
			c-1.217,0-2.189,0.73-2.676,1.703c0,0.244-0.244,0.488-0.244,0.488c-0.242,0.729-0.486,1.459-0.486,2.189
			c0,9.732,16.303,9.246,16.303,24.576c0,5.838-4.621,11.438-9.732,11.438c6.812,7.297,15.816,11.678,26.521,11.678
			c10.221,0,19.469-4.381,26.037-11.436C157.084,244.344,151.973,235.826,151.973,222.203"/>
		<path fill="#231F20" d="M108.661,238.264c2.191,0,3.895-2.191,3.895-5.111c0-5.84-5.355-7.057-10.951-12.168v1.949
			C101.807,232.09,105.02,238.264,108.661,238.264"/>
		<path fill="#231F20" d="M160.004,221.473c0-8.033,2.189-15.818,6.326-15.818c5.111,0,6.326,12.168,6.326,16.059
			c0,8.277-2.676,16.061-6.326,16.061C162.194,237.774,160.004,229.746,160.004,221.473"/>
	</g>
	<polygon fill="#231F20" points="241.278,199.573 206.967,199.573 203.561,226.338 199.911,199.573 192.368,199.573 
		188.473,226.338 188.231,226.338 185.309,199.573 177.768,199.573 183.85,245.074 191.149,245.074 195.288,216.117 195.53,216.117 
		199.424,245.074 206.967,245.074 211.834,206.627 218.891,206.627 218.891,245.074 227.165,245.074 227.165,206.627 
		234.708,206.627 234.708,245.074 243.223,245.074 243.223,199.573 	"/>
	<polygon fill="#231F20" points="247.118,199.573 258.311,199.573 261.961,222.932 265.856,199.573 276.803,199.573 
		276.803,245.074 269.26,245.074 269.26,211.739 263.665,245.074 259.04,245.074 253.444,211.739 253.202,211.739 253.202,245.074 
		247.118,245.074 	"/>
	<polygon fill="#231F20" points="280.698,199.573 299.432,199.573 299.432,206.627 288.971,206.627 288.971,218.065 
		296.758,218.065 296.758,225.61 288.971,225.61 288.971,238.018 299.92,238.018 299.92,245.074 280.698,245.074 	"/>
</g>
</svg>
