<?xml version="1.0" encoding="utf-8"?>
<!-- Generator: Adobe Illustrator 15.0.0, SVG Export Plug-In . SVG Version: 6.00 Build 0)  -->
<!DOCTYPE svg PUBLIC "-//W3C//DTD SVG 1.1//EN" "http://www.w3.org/Graphics/SVG/1.1/DTD/svg11.dtd">
<svg version="1.1" id="Layer_1" xmlns="http://www.w3.org/2000/svg" xmlns:xlink="http://www.w3.org/1999/xlink" x="0px" y="0px"
	 width="195.476px" height="34.564px" viewBox="102.328 204.69 195.476 34.564"
	 enable-background="new 102.328 204.69 195.476 34.564" xml:space="preserve">
<g>
	<path fill="#231F20" d="M249.487,217.479c0-1.432-1.848-3.43-5.215-3.43c-3.025,0-5.01,2.07-5.01,4.719
		c0,3.154,2.496,3.932,5.025,4.301c2.131,0.314,4.031,0.957,4.031,3.086c0,1.672-1.699,2.719-3.834,2.719
		c-1.543,0-2.627-0.521-3.576-1.461l-0.756,0.744c1.143,1.139,2.68,1.734,4.332,1.734c2.986,0,5.645-1.98,5.645-4.801
		c0-2.441-0.873-4.277-5.789-4.961c-2.045-0.283-3.783-0.678-3.719-2.482l0,0c0.051-1.385,1.578-2.596,3.717-2.596
		c1.148,0,2.51,0.379,3.064,0.941l-0.088,0.039l0,0c-0.566,0.26-0.932,0.828-0.932,1.447c0,0.832,0.705,1.535,1.537,1.535
		C248.77,219.014,249.487,218.311,249.487,217.479L249.487,217.479L249.487,217.479z M236.293,217.479c0-1.432-1.85-3.43-5.215-3.43
		c-3.025,0-5.01,2.07-5.01,4.719c0,3.154,2.496,3.932,5.025,4.301c2.129,0.314,4.029,0.957,4.029,3.086
		c0,1.672-1.699,2.719-3.832,2.719c-1.543,0-2.627-0.521-3.576-1.461l-0.756,0.744c1.141,1.139,2.68,1.734,4.332,1.734
		c2.984,0,5.645-1.98,5.645-4.801c0-2.441-0.875-4.277-5.791-4.961c-2.043-0.283-3.783-0.678-3.719-2.482h0.002
		c0.049-1.385,1.578-2.596,3.715-2.596c1.15,0,2.51,0.379,3.064,0.941l-0.086,0.039l0,0c-0.566,0.26-0.932,0.828-0.932,1.447
		c0,0.832,0.703,1.535,1.537,1.535C235.575,219.014,236.293,218.311,236.293,217.479L236.293,217.479L236.293,217.479z
		 M154.85,217.479c0-1.432-1.848-3.43-5.215-3.43c-3.025,0-5.011,2.07-5.011,4.719c0,3.154,2.497,3.932,5.026,4.301
		c2.131,0.314,4.03,0.957,4.03,3.086c0,1.672-1.7,2.719-3.832,2.719c-1.544,0-2.628-0.521-3.577-1.461l-0.756,0.744
		c1.141,1.139,2.68,1.734,4.333,1.734c2.985,0,5.644-1.98,5.644-4.801c0-2.441-0.874-4.277-5.791-4.961
		c-2.043-0.283-3.781-0.678-3.718-2.482h0.001c0.05-1.385,1.578-2.596,3.716-2.596c1.149,0,2.51,0.379,3.064,0.941l-0.087,0.039l0,0
		c-0.566,0.26-0.932,0.828-0.932,1.447c0,0.832,0.705,1.535,1.536,1.535C154.132,219.014,154.85,218.311,154.85,217.479
		L154.85,217.479L154.85,217.479z M102.328,221.973L102.328,221.973 M119.61,239.254L119.61,239.254 M119.61,204.69L119.61,204.69
		 M136.893,221.973c0-9.547-7.738-17.283-17.283-17.283s-17.282,7.736-17.282,17.283c0,9.545,7.737,17.281,17.282,17.281
		S136.893,231.518,136.893,221.973L136.893,221.973z M293.959,208.791h-2.67v5.637h-1.68v1.014h1.68l0,0l-0.016,8.588
		c0,3.852,1.793,5.705,4.771,5.705c0.736,0,1.307-0.105,1.758-0.254l0,0l-0.156-0.904c-0.314,0.096-0.643,0.154-0.982,0.154
		c-2.008,0-2.705-1.371-2.705-4.045v-9.244h3.492v-1.014h-3.492V208.791L293.959,208.791z M203.038,214.348v1.006l0,0h-2.697
		c1.07,1.014,1.643,2.51,1.643,4.324c0,3.596-2.072,5.879-5.838,5.879c-1.996,0.027-3.646-0.145-3.646,1.309
		c0,1.061,1.943,0.947,4,1.041c3.02,0.137,6.09,0.414,6.09,4.035c0,2.826-3.121,4.787-6.34,4.787c-1.941,0-3.645-0.602-4.689-1.559
		l0.678-0.742c0.896,0.791,2.303,1.301,4.012,1.301c2.348,0,4.361-0.992,4.361-2.789c0-2.139-1.342-2.176-4.184-2.393
		c-2.533-0.188-5.043-0.664-5.043-3.092c0-1.258,0.514-2.199,1.828-2.643c-1.826-0.957-2.834-2.641-2.834-5.135
		c0-3.451,2.051-5.809,5.785-5.809c1.045,0,1.977,0.203,2.707,0.479H203.038L203.038,214.348z M199.272,219.365
		c0-3.418-1.053-4.477-3.109-4.477c-2.051,0-3.107,1.057-3.107,4.477v1.053c0,3.252,1.039,4.139,3.09,4.139
		c2.057,0,3.127-0.887,3.127-4.139V219.365L199.272,219.365z M220.526,220.694c-0.582,0.441-1.285,0.715-2.951,1.182
		c-2.084,0.584-2.738,1.408-2.738,3.625c0,1.596,0.477,3.092,2.221,3.119c1.973,0,3.469-1.701,3.469-3.285V220.694L220.526,220.694z
		 M223.135,220.088v9.174h-2.609v-1.521c-0.609,0.893-1.971,1.887-3.635,1.887c-3.139,0-4.697-1.887-4.697-4.051
		c0-3.195,2.131-3.787,4.992-4.635c2.404-0.711,3.521-1.076,3.521-3.131c0-1.664-1.051-2.857-3.189-2.857
		c-2.137,0-3.223,0.941-3.891,2.518l-0.934-0.379l0,0c0.834-2.137,2.678-3.139,4.904-3.139
		C220.731,213.953,223.135,216.399,223.135,220.088L223.135,220.088z M168.073,214.428v10.299c0,2.549-1.143,4.088-3.352,4.088
		c-2.266,0-3.414-1.539-3.414-4.088v-10.299h-2.668l0.026,9.162c0,3.631,2.115,6.254,5.998,6.254c3.937,0,6.079-2.623,6.079-6.254
		h0.001v-9.162H168.073L168.073,214.428z M283.928,214.428v10.299c0,2.549-1.145,4.088-3.352,4.088
		c-2.268,0-3.414-1.539-3.414-4.088v-10.299h-2.67l0.027,9.162c0,3.631,2.115,6.254,5.998,6.254c3.936,0,6.08-2.623,6.08-6.254l0,0
		v-9.162H283.928L283.928,214.428z M181.725,213.881c-1.934,0-3.334,0.896-4.104,2.076v-1.529l0,0h-2.638v14.854h2.638v-10.209
		c0-2.217,1.586-4.197,3.6-4.197c2.15,0,3.201,1.719,3.201,4.188v10.219h2.633v-10.033
		C187.055,216.129,184.756,213.881,181.725,213.881L181.725,213.881z M206.045,229.272h2.635v-22.645h-2.635V229.272
		L206.045,229.272z M267.94,229.278v-9.896c0-2.551-0.809-4.502-3.166-4.502c-2.34,0-3.566,2.338-3.566,4.256l0.002,10.143h-2.666
		v-22.646h2.676v-0.002v9.219l0,0c0.65-1.039,1.91-1.984,4.092-1.984c3.215,0,5.299,2.26,5.299,5.379v10.035H267.94L267.94,229.278z
		"/>
</g>
</svg>
