<?xml version="1.0" encoding="utf-8"?>
<!-- Generator: Adobe Illustrator 15.0.0, SVG Export Plug-In . SVG Version: 6.00 Build 0)  -->
<!DOCTYPE svg PUBLIC "-//W3C//DTD SVG 1.1//EN" "http://www.w3.org/Graphics/SVG/1.1/DTD/svg11.dtd">
<svg version="1.1" id="Layer_1" xmlns="http://www.w3.org/2000/svg" xmlns:xlink="http://www.w3.org/1999/xlink" x="0px" y="0px"
	 width="199.589px" height="25.692px" viewBox="100.772 209.324 199.589 25.692"
	 enable-background="new 100.772 209.324 199.589 25.692" xml:space="preserve">
<g>
	<path fill="#231F20" d="M145.846,215.094l0.811,4.776h-0.451c-0.631-2.974-3.335-4.236-6.219-4.236c-0.451,0-0.902,0-1.533,0.182
		v8.203h1.082c2.343,0,3.786-0.902,3.786-2.795h0.451v6.671h-0.361c-0.181-1.442-0.721-3.245-3.787-3.245h-1.171v7.573
		c0,1.261,0.54,1.982,2.434,1.982v0.452h-8.023v-0.452c1.802,0,2.434-0.722,2.434-1.982v-14.694c0-1.173-0.722-1.985-2.524-1.985
		v-0.449H145.846z"/>
	<path fill="#231F20" d="M162.074,215.094l0.812,4.776h-0.452c-0.632-2.974-3.336-4.236-6.22-4.236c-0.451,0-0.901,0-1.533,0.182
		v8.203h1.082c2.345,0,3.787-0.902,3.787-2.795H160v6.671h-0.36c-0.181-1.442-0.722-3.245-3.787-3.245h-1.172v7.573
		c0,1.261,0.541,1.982,2.435,1.982v0.452h-8.023v-0.452c1.803,0,2.434-0.722,2.434-1.982v-14.694c0-1.173-0.721-1.985-2.523-1.985
		v-0.449H162.074z"/>
	<path fill="#231F20" d="M128.897,215.094v0.449c-1.352,0-2.164,0.723-2.164,1.985v14.694c0,1.35,0.902,1.982,2.164,1.982v0.452
		h-7.572v-0.452c1.353-0.091,2.164-0.633,2.164-1.982v-14.694c0-1.263-0.811-1.985-2.164-1.985v-0.449H128.897z"/>
	<path fill="#231F20" d="M119.072,209.775l0.811,5.859h-0.36c-1.172-3.064-3.245-5.139-7.302-5.139v20.734
		c0,2.254,1.262,2.976,2.615,2.976v0.451h-9.016v-0.451c1.262,0,2.794-0.722,2.794-2.976v-20.734c-4.146,0-6.039,1.894-7.482,5.139
		h-0.36l0.631-5.859H119.072z"/>
	<path fill="#231F20" d="M235.544,221.855l5.408,6.762c0,0,0.541-1.083,0.631-2.164c0-1.262-0.631-1.714-1.713-1.893v-0.361h5.86
		c0,0,0.091,0.361,0,0.361c-1.081,0.179-1.893,0.541-2.706,1.171c-0.629,0.812-0.99,1.532-1.712,3.335l2.525,3.066
		c1.082,1.263,2.524,1.983,4.056,2.073v0.451h-6.311v-0.451l-1.803-2.164c-1.533,1.532-3.966,2.886-6.4,2.886
		c-3.876,0-6.4-2.164-6.4-5.139c0-3.246,3.066-5.319,5.499-6.942c0,0-2.614-2.976-2.614-5.679c0-3.064,2.344-5.408,5.59-5.408
		c2.885,0,5.139,2.072,5.139,4.597C240.593,219.241,237.256,220.502,235.544,221.855 M238.611,216.175
		c-0.01-2.506-1.092-3.786-3.246-3.786c-2.164,0-3.426,1.263-3.426,3.336c0,2.343,3.154,5.589,3.154,5.589
		C237.619,219.87,238.611,218.43,238.611,216.175 M229.955,228.255c0,3.065,2.164,5.318,5.318,5.318c1.352,0,2.975-0.63,4.057-1.982
		l-6.31-8.113C231.488,224.019,229.955,225.642,229.955,228.255"/>
	<path fill="#231F20" d="M274.849,209.324l0.271,7.843h-0.451c-0.812-4.417-3.696-6.941-7.394-6.941c-4.416,0-7.48,5.138-7.48,11.99
		c0,8.563,3.426,12.08,8.113,12.08c4.867,0,6.761-4.508,7.212-7.754h0.451v3.426c-0.812,1.441-3.246,4.779-8.384,4.779
		c-6.492,0-11.541-5.318-11.541-12.442c0-6.489,5.681-12.44,11.541-12.44c3.424,0,4.326,1.442,5.679,1.442
		c0.991,0,1.442-0.63,1.532-1.982H274.849z"/>
	<path fill="#231F20" d="M298.558,231.05c0.992,0,1.803,0.812,1.803,1.803c0,0.992-0.811,1.713-1.803,1.713
		s-1.803-0.721-1.803-1.713C296.755,231.863,297.566,231.05,298.558,231.05"/>
	<path fill="#231F20" d="M286.75,215.002c5.577,0.013,10.277,4.247,10.277,9.918c0,5.499-4.418,9.736-10.098,9.736
		c-5.59,0-10.277-4.419-10.277-9.736C276.652,219.602,281.251,215.002,286.75,215.002 M280.798,224.56
		c0,6.039,2.344,9.736,6.041,9.736c3.785,0,6.129-3.426,6.129-9.736c0-5.77-2.072-9.017-6.039-9.104
		C282.873,215.364,280.798,219.241,280.798,224.56"/>
	<path fill="#231F20" d="M180.553,234.205c-0.721,0-1.262-0.632-1.623-1.081c-0.271-0.451-7.842-19.021-7.842-19.021l-6.942,16.947
		c-0.812,2.164-1.893,3.155-3.426,3.155v0.451h5.68v-0.451c-1.172-0.09-1.893-0.632-1.893-1.442c0-0.631,1.802-4.958,1.802-4.958
		h6.853c0,0,1.893,4.057,1.982,4.958c0.09,0.721-0.99,1.442-2.072,1.442v0.451h7.481V234.205z M169.736,219.241l3.336,8.021h-6.582
		L169.736,219.241z"/>
	<path fill="#231F20" d="M183.708,231.23c0,1.804-1.172,2.615-2.435,2.976v0.451h5.681v-0.451c-1.623-0.36-2.525-1.442-2.525-2.976
		v-12.71l13.253,16.497v-15.866c0-2.254,1.262-3.607,2.704-3.607v-0.449h-6.401v0.36c1.804,0.541,3.065,1.623,3.065,3.696v9.735
		l-10.998-13.792h-5.229v0.36c2.255,0.089,2.886,1.983,2.886,2.434V231.23z"/>
	<path fill="#231F20" d="M201.107,215.543c0.803,0,0.994,0.007,1.623,1.173c0,0,6.041,9.646,6.041,9.736v5.771
		c0,1.261-1.082,1.982-2.705,2.073v0.36h8.383v-0.36c-1.532-0.091-2.523-0.812-2.523-2.073v-6.762c0,0,3.876-6.94,4.236-7.573
		c0.902-1.441,2.164-2.345,3.695-2.524v-0.27h-6.851l0.091,0.27c2.163,0,2.704,2.075,1.893,3.336l-3.517,6.491l-4.325-7.573
		c-0.722-1.171,0.181-2.254,1.801-2.254v-0.27h-7.842V215.543z"/>
</g>
</svg>
