<?xml version="1.0" encoding="utf-8"?>
<!-- Generator: Adobe Illustrator 15.0.0, SVG Export Plug-In . SVG Version: 6.00 Build 0)  -->
<!DOCTYPE svg PUBLIC "-//W3C//DTD SVG 1.1//EN" "http://www.w3.org/Graphics/SVG/1.1/DTD/svg11.dtd">
<svg version="1.1" id="Layer_1" xmlns="http://www.w3.org/2000/svg" xmlns:xlink="http://www.w3.org/1999/xlink" x="0px" y="0px"
	 width="205.282px" height="38.896px" viewBox="125.768 170.543 205.282 38.896"
	 enable-background="new 125.768 170.543 205.282 38.896" xml:space="preserve">
<g>
	<rect x="126.268" y="187.994" fill="#231F20" stroke="#231F20" stroke-miterlimit="10" width="7.459" height="7.459"/>
	<rect x="147.814" y="187.994" fill="#231F20" stroke="#231F20" stroke-miterlimit="10" width="7.459" height="7.459"/>
	<rect x="170.375" y="187.994" fill="#231F20" stroke="#231F20" stroke-miterlimit="10" width="7.459" height="7.459"/>
	<rect x="192.474" y="187.994" fill="#231F20" stroke="#231F20" stroke-miterlimit="10" width="7.459" height="7.459"/>
	<path fill="#231F20" stroke="#231F20" stroke-width="0.9662" d="M237.507,173.362c-0.755,0.053-1.359,0.186-1.814,0.402
		c-0.459,0.215-0.877,0.574-1.259,1.076c-0.291,0.363-0.511,0.766-0.653,1.205c-0.148,0.443-0.246,1-0.299,1.674
		c-0.094,0.898-0.141,1.961-0.141,3.191v19.117c0,1.777,0.08,3.102,0.239,3.965c0.159,0.865,0.442,1.557,0.854,2.074
		c0.726,0.918,1.749,1.42,3.073,1.504v0.564h-12.65v-0.564c0.766-0.049,1.383-0.191,1.852-0.428c0.471-0.23,0.891-0.59,1.26-1.076
		c0.41-0.553,0.691-1.256,0.844-2.113c0.152-0.855,0.229-2.164,0.229-3.926v-23.191l-10.212,31.299h-0.417l-10.149-30.832v22.725
		c0,1.777,0.076,3.092,0.227,3.941c0.152,0.846,0.433,1.545,0.844,2.098c0.369,0.504,0.789,0.867,1.258,1.092
		c0.471,0.223,1.082,0.363,1.835,0.412v0.564h-9.133v-0.564c0.754-0.049,1.365-0.189,1.834-0.412c0.47-0.225,0.889-0.588,1.26-1.092
		c0.408-0.553,0.691-1.256,0.842-2.113c0.152-0.855,0.229-2.164,0.229-3.926V180.91c0-0.799-0.02-1.549-0.059-2.258
		c-0.066-1.281-0.219-2.213-0.456-2.801c-0.331-0.812-0.784-1.414-1.358-1.803s-1.34-0.619-2.291-0.688v-0.564h8.6l8.578,27.695
		l8.891-27.695h8.146V173.362z"/>
	<path fill="#231F20" stroke="#231F20" stroke-width="1.0716" d="M239.127,195.832c0-3.031,0.896-5.738,2.69-8.115
		c2.184-2.883,4.793-4.324,7.828-4.324s5.637,1.441,7.805,4.324c1.793,2.396,2.692,5.109,2.692,8.143
		c0,2.996-0.854,5.664-2.559,8.004c-2.093,2.881-4.739,4.324-7.938,4.324s-5.854-1.443-7.961-4.324
		c-0.824-1.121-1.454-2.379-1.896-3.766C239.347,198.715,239.127,197.291,239.127,195.832z M243.205,195.508
		c0,3.256,0.583,6.016,1.75,8.279c1.316,2.525,2.926,3.789,4.826,3.789c0.808,0,1.594-0.281,2.357-0.844
		c0.762-0.561,1.42-1.35,1.975-2.357c0.584-1.047,1.055-2.361,1.414-3.943c0.358-1.58,0.539-3.109,0.539-4.586
		c0-1.533-0.191-3.08-0.573-4.645c-0.382-1.561-0.894-2.904-1.537-4.025c-1.226-2.113-2.73-3.172-4.513-3.172
		c-1.689,0-3.15,1.115-4.377,3.342C243.824,189.571,243.205,192.293,243.205,195.508z"/>
	<path fill="#231F20" stroke="#231F20" stroke-width="1.0185" d="M268.478,189.03c0.625-0.871,1.221-1.518,1.787-1.938
		c1.148-0.824,2.521-1.234,4.116-1.234c2.267,0,4.24,0.818,5.924,2.457c2.088,2.01,3.132,4.85,3.132,8.516s-1.002,6.553-3.002,8.664
		c-1.733,1.842-3.951,2.764-6.654,2.764c-1.421,0-2.623-0.221-3.607-0.656l-1.255-0.584c-0.345-0.152-0.65-0.229-0.919-0.229
		c-0.762,0-1.433,0.715-2.016,2.141h-0.911v-29.863c0-1.902-0.265-3.262-0.798-4.086c-0.531-0.824-1.426-1.234-2.686-1.234v-0.594
		l6.889-1.068V189.03z M268.478,196.717c0,1.811,0.088,3.477,0.266,4.998c0.178,1.523,0.408,2.629,0.691,3.322
		c0.34,0.83,0.848,1.48,1.523,1.955c0.676,0.473,1.443,0.709,2.305,0.709c1.811,0,3.306-0.982,4.484-2.941
		c1.182-1.963,1.771-4.457,1.771-7.486c0-1.588-0.194-3.1-0.58-4.529c-0.385-1.428-0.934-2.641-1.646-3.639
		c-0.564-0.826-1.188-1.457-1.871-1.893c-0.683-0.428-1.379-0.643-2.092-0.643c-0.86,0-1.661,0.297-2.404,0.898
		c-0.742,0.602-1.291,1.383-1.647,2.35C268.744,191.237,268.478,193.537,268.478,196.717z"/>
	<path fill="#231F20" stroke="#231F20" stroke-width="1.0185" d="M287.792,186.768l6.489-0.91v14.639l0.023,1.924
		c0,1.146,0.061,1.986,0.18,2.52c0.119,0.531,0.353,0.975,0.695,1.328c0.418,0.457,1.191,0.801,2.312,1.039v0.514h-9.932v-0.514
		c0.896-0.137,1.538-0.324,1.928-0.57c0.39-0.244,0.703-0.66,0.943-1.252c0.163-0.391,0.28-0.975,0.347-1.762
		c0.066-0.783,0.102-1.92,0.102-3.402v-6.254c0-1.738-0.037-2.961-0.113-3.658c-0.074-0.701-0.24-1.271-0.495-1.709
		c-0.256-0.475-0.565-0.814-0.925-1.025s-0.878-0.342-1.554-0.393V186.768z M292.482,176.715c-0.59,0-1.077-0.213-1.462-0.637
		c-0.384-0.422-0.577-0.957-0.577-1.6c0-0.627,0.195-1.156,0.59-1.588c0.391-0.434,0.874-0.648,1.449-0.648
		c0.574,0,1.055,0.215,1.448,0.648c0.394,0.432,0.589,0.961,0.589,1.588c0,0.643-0.193,1.178-0.577,1.6
		C293.556,176.502,293.07,176.715,292.482,176.715z"/>
	<path fill="#231F20" stroke="#231F20" stroke-width="1.0185" d="M300.396,172.996l6.49-0.912v28.381l0.021,1.934
		c0,1.154,0.061,1.996,0.181,2.529c0.12,0.537,0.352,0.979,0.695,1.334c0.419,0.457,1.188,0.807,2.31,1.045v0.514h-9.934v-0.514
		c0.897-0.137,1.54-0.326,1.932-0.572c0.389-0.246,0.703-0.664,0.941-1.258c0.166-0.391,0.283-0.98,0.349-1.766
		c0.067-0.789,0.103-1.93,0.103-3.422v-19.953c0-1.729-0.039-2.947-0.113-3.66c-0.075-0.713-0.241-1.287-0.496-1.73
		c-0.255-0.473-0.562-0.814-0.924-1.016c-0.359-0.201-0.88-0.33-1.555-0.381V172.996z"/>
	<path fill="#231F20" stroke="#231F20" stroke-width="1.0507" d="M316.882,193.01c-0.053,0.885-0.078,1.525-0.078,1.926
		c0,1.57,0.188,3.105,0.566,4.604c0.381,1.498,0.896,2.746,1.551,3.736c0.669,1.016,1.498,1.811,2.486,2.387
		c0.988,0.578,2.025,0.869,3.111,0.869c0.802,0,1.563-0.164,2.286-0.494c0.72-0.326,1.318-0.785,1.794-1.369
		c0.535-0.641,0.996-1.662,1.382-3.064l0.476,0.189c-0.389,2.125-1.221,3.723-2.499,4.801c-1.276,1.08-2.978,1.621-5.097,1.621
		c-1.84,0-3.417-0.35-4.73-1.055c-1.316-0.699-2.43-1.779-3.34-3.238c-1.271-2.035-1.904-4.537-1.904-7.506
		c0-4.049,1.201-7.225,3.609-9.529c1.75-1.672,3.747-2.512,5.99-2.512c1.195,0,2.301,0.256,3.318,0.766
		c1.018,0.512,1.876,1.252,2.58,2.219c1.092,1.508,1.637,3.391,1.637,5.65H316.882z M326.658,191.955
		c-0.105-1.791-0.379-3.172-0.825-4.141c-0.403-0.877-0.938-1.572-1.608-2.082c-0.668-0.51-1.383-0.766-2.142-0.766
		c-1.28,0-2.399,0.662-3.358,1.986c-0.96,1.328-1.529,2.998-1.707,5.002H326.658z"/>
	<path fill="#231F20" stroke="#231F20" stroke-miterlimit="10" d="M144.091,205.227h5.676v2.848h-17.064v-2.848h5.67v-32.34
		c0,0-9.479-0.025-9.479,12.352h-1.9v-14.195h28.512v14.195h-1.936c0,0-0.455-12.367-9.479-12.367V205.227z"/>
</g>
</svg>
