<?xml version="1.0" encoding="utf-8"?>
<!-- Generator: Adobe Illustrator 15.0.0, SVG Export Plug-In . SVG Version: 6.00 Build 0)  -->
<!DOCTYPE svg PUBLIC "-//W3C//DTD SVG 1.1//EN" "http://www.w3.org/Graphics/SVG/1.1/DTD/svg11.dtd">
<svg version="1.1" id="Layer_1" xmlns="http://www.w3.org/2000/svg" xmlns:xlink="http://www.w3.org/1999/xlink" x="0px" y="0px"
	 width="184.19px" height="192.569px" viewBox="15.593 35.615 184.19 192.569"
	 enable-background="new 15.593 35.615 184.19 192.569" xml:space="preserve">
<path d="M199.666,157.832l-0.685,0.75c-6.992,2.184-13.344,3.331-21.615,3.331c-5.228,0-10.478-0.441-15.639-1.335
	c-10.19,21.285-32.601,48.592-52.187,63.591c-3.518,2.702-6.97,4.015-10.532,4.015c-3.474,0-7.014-1.279-10.819-3.893
	c-13.83-9.475-25.95-21.76-37.056-37.553c-14.977-21.296-25.343-45.967-30.78-73.329c-3.049-15.407-4.588-30.704-4.566-45.459
	c0-1.367-0.044-3.584-0.077-6.099h33.946c-0.022,2.646-0.066,4.919-0.055,6.22c0.32,25.961,4.555,48.658,12.958,69.392
	c8.073,19.873,19.586,34.442,36.548,52.198c12.286-10.819,22.509-24.406,31.145-41.379c-17.513-11.746-28.674-28.663-33.185-50.301
	c-1.599-7.587-2.195-14.701-1.875-21.726c0.981-21.064,15.341-37.155,35.71-40.022c2.801-0.397,5.547-0.618,8.282-0.618
	c10.323,0,19.444,3.011,27.108,9.054c9.198,7.279,14.337,17.017,15.286,29.148c1.048,13.455-1.5,40.64-1.61,41.809l-0.287,2.691
	h-34.32l0.882-3.728c0.044-0.198,4.412-20.756,1.731-37.166c-0.552-3.397-2.349-7.532-7.731-7.952
	c-0.662-0.055-3.419-0.055-4.081,0.066c-5.051,0.838-7.444,3.485-7.456,8.349c-0.022,15.352,3.275,26.898,10.631,36.328
	c6.992,9.01,19.036,16.631,32.225,16.631c13.213,0,24.991-5.128,25.123-5.184l2.979-1.908V157.832z"/>
</svg>
