<?xml version="1.0" encoding="utf-8"?>
<!-- Generator: Adobe Illustrator 15.0.0, SVG Export Plug-In . SVG Version: 6.00 Build 0)  -->
<!DOCTYPE svg PUBLIC "-//W3C//DTD SVG 1.1//EN" "http://www.w3.org/Graphics/SVG/1.1/DTD/svg11.dtd">
<svg version="1.1" id="Layer_1" xmlns="http://www.w3.org/2000/svg" xmlns:xlink="http://www.w3.org/1999/xlink" x="0px" y="0px"
	 width="199.172px" height="133.521px" viewBox="0 0 199.172 133.521" enable-background="new 0 0 199.172 133.521"
	 xml:space="preserve">
<g>
	<path fill="#B4B3B4" d="M188.711,86.41c0.391-0.688,0.932-1.229,1.619-1.618c0.69-0.357,1.407-0.568,2.129-0.568h0.028
		c0.72,0,1.438,0.211,2.13,0.568c0.688,0.391,1.229,0.93,1.616,1.618c0.388,0.689,0.57,1.409,0.57,2.188
		c0,0.75-0.183,1.469-0.57,2.155c-0.358,0.659-0.899,1.2-1.588,1.589c-0.688,0.392-1.408,0.571-2.158,0.571h-0.028
		c-0.75,0-1.47-0.181-2.16-0.571c-0.688-0.389-1.228-0.93-1.588-1.589c-0.39-0.688-0.599-1.405-0.599-2.155
		C188.112,87.82,188.321,87.1,188.711,86.41 M189.881,93.094c0.84,0.478,1.678,0.688,2.578,0.688h0.028
		c0.9,0,1.738-0.212,2.578-0.688c0.838-0.45,1.47-1.078,1.918-1.918c0.479-0.839,0.688-1.708,0.688-2.577
		c0-0.932-0.209-1.8-0.688-2.638c-0.448-0.841-1.108-1.47-1.948-1.918c-0.839-0.449-1.677-0.688-2.548-0.688h-0.028
		c-0.871,0.028-1.709,0.238-2.549,0.688c-0.839,0.448-1.468,1.077-1.947,1.918c-0.479,0.838-0.688,1.706-0.688,2.638
		c0,0.869,0.209,1.738,0.688,2.577C188.412,92.016,189.041,92.644,189.881,93.094"/>
	<path fill="#B4B3B4" d="M191.08,86.621h1.051h0.328c0.27,0.03,0.449,0.062,0.567,0.089c0.181,0.061,0.302,0.151,0.39,0.3
		c0.092,0.12,0.121,0.271,0.121,0.45c0,0.239-0.091,0.447-0.271,0.601c-0.149,0.148-0.42,0.209-0.81,0.238h-0.271h-1.106V86.621
		L191.08,86.621z M191.08,89.078h0.539c0.33,0,0.567,0.062,0.721,0.209c0.059,0.031,0.09,0.062,0.119,0.092
		c0.237,0.209,0.51,0.629,0.84,1.197l0.508,0.898h1.08l-0.66-1.107c-0.328-0.511-0.629-0.898-0.838-1.109
		c-0.121-0.117-0.271-0.209-0.48-0.3c0.48-0.029,0.869-0.208,1.168-0.509c0.299-0.3,0.449-0.658,0.449-1.079
		c0-0.3-0.09-0.57-0.268-0.81c-0.182-0.27-0.42-0.45-0.721-0.538c-0.238-0.09-0.601-0.15-1.078-0.15
		c-0.093,0-0.211-0.029-0.328-0.029h-1.949v5.633h0.898V89.078L191.08,89.078z"/>
	<polygon fill="#B4B3B4" points="56.49,86.251 64.584,86.251 56.49,72.764 49.658,61.408 20.619,78.848 25.055,86.251 	"/>
	<polygon fill="#B4B3B4" points="131.772,86.251 146.696,86.251 171.301,86.251 146.696,45.254 119.485,0 108.276,6.743 
		90.477,17.443 108.276,47.082 	"/>
	<g>
		<path fill="#B4B3B4" d="M117.957,117.578c-0.869,4.494-4.855,7.942-9.59,7.942h-0.091c-5.364-0.059-9.711-4.438-9.711-9.8
			c0-5.365,4.347-9.74,9.711-9.771h0.091c4.733,0,8.721,3.418,9.59,7.913V117.578z M117.957,100.767
			c-2.787-1.801-6.056-2.849-9.59-2.849h-0.091c-9.771,0.059-17.713,8.03-17.713,17.803c0,9.77,7.942,17.74,17.713,17.801h0.091
			c3.534,0,6.803-1.049,9.59-2.849v1.859h8.184v-16.812V87.251h-8.184V100.767z"/>
		<path fill="#B4B3B4" d="M156.375,117.578c-0.867,4.494-4.854,7.942-9.59,7.942h-0.089c-5.364-0.059-9.711-4.438-9.711-9.8
			c0-5.365,4.347-9.74,9.711-9.771h0.089c4.735,0,8.723,3.418,9.59,7.913V117.578z M156.375,100.767
			c-2.756-1.801-6.054-2.849-9.59-2.849h-0.089c-9.77,0.059-17.713,8.03-17.713,17.803c0,9.77,7.943,17.74,17.713,17.801h0.089
			c3.536,0,6.834-1.049,9.59-2.849v1.859h8.184v-16.812V98.819h-8.184V100.767z"/>
		<path fill="#B4B3B4" d="M193.655,113.502c-0.297-0.148-0.719-0.299-1.194-0.479c-1.83-0.629-4.797-1.41-8.935-2.31
			c-3.627-0.807-5.452-1.856-5.452-3.177c0-0.929,0.329-1.678,0.959-2.218c0.84-0.719,2.336-1.077,4.493-1.077
			c2.188,0,3.775,0.479,4.705,1.406c0.57,0.569,0.99,1.589,1.261,3.028h2.969h5.721c0-4.258-1.738-7.312-5.154-9.172
			c-0.18-0.118-0.357-0.21-0.566-0.298c-2.368-1.109-5.516-1.68-9.442-1.68c-4.765,0-8.36,1.26-10.758,3.807
			c-1.916,2.035-2.847,4.524-2.847,7.46c0,3.658,1.799,6.294,5.453,8.003c1.377,0.66,4.734,1.59,10.068,2.728
			c3.568,0.779,5.365,1.889,5.365,3.297c0,0.84-0.359,1.559-1.137,2.22c-0.988,0.837-2.488,1.258-4.496,1.258
			c-2.668,0-4.558-0.449-5.664-1.317c-1.111-0.839-1.68-2.069-1.68-3.628h-9.109c0,4.137,1.736,7.223,5.244,9.262
			c2.785,1.588,6.44,2.396,10.969,2.396c3.025,0,5.723-0.509,8.033-1.497c0.477-0.211,0.897-0.421,1.346-0.659
			c3.566-1.979,5.365-5.123,5.365-9.44C199.172,117.877,197.344,115.241,193.655,113.502"/>
		<path fill="#B4B3B4" d="M27.393,117.578c-0.869,4.494-4.855,7.942-9.621,7.942h-0.09c-5.334-0.059-9.68-4.438-9.68-9.8
			c0-5.365,4.346-9.74,9.68-9.771h0.09c4.766,0,8.752,3.418,9.621,7.913V117.578z M27.393,100.767
			c-2.787-1.801-6.086-2.849-9.621-2.849h-0.09C7.941,97.977,0,105.949,0,115.721c0,9.77,7.94,17.74,17.682,17.801h0.09
			c3.535,0,6.834-1.049,9.621-2.849v1.859h8.182v-16.812V98.819h-8.182V100.767z"/>
	</g>
	<rect x="78.459" y="86.43" fill="#B4B3B4" width="8.899" height="7.821"/>
	<rect x="78.459" y="96.92" fill="#B4B3B4" width="8.899" height="34.613"/>
	<g>
		<path fill="#B4B3B4" d="M66.201,117.578c-0.869,4.494-4.854,7.942-9.619,7.942H56.49c-5.361-0.059-9.71-4.438-9.71-9.8
			c0-5.365,4.349-9.74,9.71-9.771h0.092c4.766,0,8.75,3.418,9.619,7.913V117.578z M66.201,100.767
			c-2.787-1.801-6.084-2.849-9.619-2.849H56.49c-9.769,0.059-17.712,8.03-17.712,17.803c0,9.77,7.943,17.74,17.712,17.801h0.092
			c3.535,0,6.832-1.049,9.619-2.849v1.859h8.182v-16.812V87.251h-8.182V100.767z"/>
	</g>
	<polygon fill="#B4B3B4" points="117.926,86.251 108.276,70.127 84.571,30.689 56.49,47.59 55.533,48.158 56.49,49.75 
		78.428,86.251 108.276,86.251 	"/>
</g>
</svg>
