<?xml version="1.0" encoding="utf-8"?>
<!-- Generator: Adobe Illustrator 15.0.0, SVG Export Plug-In . SVG Version: 6.00 Build 0)  -->
<!DOCTYPE svg PUBLIC "-//W3C//DTD SVG 1.1//EN" "http://www.w3.org/Graphics/SVG/1.1/DTD/svg11.dtd">
<svg version="1.1" id="Layer_1" xmlns="http://www.w3.org/2000/svg" xmlns:xlink="http://www.w3.org/1999/xlink" x="0px" y="0px"
	 width="305.482px" height="28.227px" viewBox="101.327 175.678 305.482 28.227"
	 enable-background="new 101.327 175.678 305.482 28.227" xml:space="preserve">
<g>
	<path fill="#231F20" d="M126.439,202.242c-1.972-0.348-2.164-0.617-3.054-3.207l-5.565-16.195c-0.618-1.738-1.12-3.555-1.739-5.295
		c-0.153-0.191-0.348-0.309-0.656-0.309c-0.077,0-1.353,1.584-2.705,1.855c0.115,0.658-0.233,1.584-0.735,2.82l-5.295,13.76
		c-0.812,2.088-1.429,3.711-1.894,4.717c-0.58,1.275-1.005,1.621-2.125,1.777l-1.16,0.193c-0.27,0.348-0.23,0.928,0.038,1.119
		c1.354-0.076,2.552-0.115,3.827-0.115c1.585,0.039,2.859,0.039,4.097,0.115c0.309-0.152,0.348-0.85,0.077-1.119l-1.12-0.193
		c-1.43-0.193-1.585-0.311-0.812-2.59l1.584-4.639c0.348-1.043,0.31-1.043,1.313-1.043h5.141c1.082,0,1.198,0,1.585,1.043
		l1.816,5.258c0.502,1.66,0.386,1.893-1.005,2.047l-0.851,0.117c-0.232,0.232-0.193,0.928,0.116,1.119
		c1.353-0.037,3.054-0.115,4.714-0.115c2.011,0,3.44,0.039,5.025,0.115c0.271-0.191,0.271-0.85-0.039-1.119L126.439,202.242z
		 M115.154,192.156h-4.021c-0.926,0-1.042,0-0.618-1.123l1.624-4.521c0.695-1.816,1.004-2.781,1.159-3.053h0.077
		c0.193,0.271,0.425,1.006,1.082,3.053l1.623,4.639C116.39,192.078,116.236,192.156,115.154,192.156z"/>
	<path fill="#231F20" d="M137.839,187.596c-1.546,0-2.821,0.502-4.058,1.236c-0.232,0-0.309-0.156-0.309-0.695v-6.494
		c0-1.662,0.038-4.059,0.115-5.604c-0.077-0.193-0.309-0.35-0.542-0.311c-1.584,0.619-3.593,1.432-5.062,1.855
		c-0.271,0.117-0.231,0.734,0,0.891l0.541,0.346c0.851,0.504,0.89,0.773,0.89,3.363v17.432c0,1.43-0.116,3.479-0.116,3.633
		c0,0.115,0.232,0.27,0.386,0.27c0.116,0,0.194,0,0.271-0.039c0.231-0.27,0.502-0.617,0.966-0.617s2.281,1.043,5.14,1.043
		c5.063,0,9.16-3.168,9.16-8.656C145.221,190.957,142.361,187.596,137.839,187.596z M136.912,202.36
		c-1.121,0-2.048-0.58-2.589-1.314c-0.618-0.812-0.85-2.164-0.85-3.865v-4.947c0-1.314,0.076-1.816,0.425-2.047
		c0.309-0.234,1.12-0.504,1.893-0.504c2.745,0,5.141,2.436,5.141,6.957C140.931,199.924,139.501,202.36,136.912,202.36z"/>
	<path fill="#231F20" d="M160.758,199.035c-0.89,1.43-2.165,1.932-3.711,1.932c-3.439,0-5.836-2.781-5.836-6.26
		c0-0.465,0.077-0.502,0.812-0.502h6.687c1.545,0,2.435-0.156,2.666-0.504c0.155-0.309,0.193-0.541,0.193-0.889
		c0-3.363-2.938-5.217-5.797-5.217c-5.179,0-8.155,4.211-8.155,8.578c0,4.406,2.977,7.73,7.46,7.73c2.357,0,5.217-1.16,6.531-4.25
		C161.569,199.307,161.144,198.918,160.758,199.035z M155.307,189.065c1.663,0,2.552,1.121,2.552,2.512
		c0,0.348-0.155,0.656-0.387,0.811c-0.271,0.154-0.773,0.271-1.894,0.271h-3.518c-0.464,0-0.541-0.117-0.541-0.271
		C151.52,191.576,152.719,189.065,155.307,189.065z"/>
	<path fill="#231F20" d="M173.782,187.596c-1.314,0-2.59,1.158-3.788,2.008c-0.231,0-0.386-0.193-0.386-0.463
		c0-0.348,0.039-1.004,0.077-1.738c-0.077-0.232-0.311-0.35-0.542-0.35c-1.159,0.697-3.207,1.547-4.869,2.088
		c-0.155,0.193-0.155,0.734-0.038,0.889l0.464,0.271c0.966,0.578,0.966,1.043,0.966,2.781v5.682c0,2.861-0.154,3.285-1.469,3.479
		l-0.696,0.117c-0.27,0.27-0.23,0.967,0.078,1.119c1.469-0.076,2.744-0.115,4.02-0.115c1.43,0,2.743,0.039,5.062,0.115
		c0.31-0.152,0.349-0.85,0.077-1.119l-1.507-0.154c-1.354-0.156-1.507-0.58-1.507-3.441v-5.295c0-1.893,0.23-2.781,1.12-2.781
		c0.231,0,0.89,0.076,1.854,0.734c0.311,0.191,0.658,0.309,1.044,0.309c1.044,0,2.165-0.734,2.165-2.242
		C175.908,188.485,175.133,187.596,173.782,187.596z"/>
	<path fill="#231F20" d="M189.967,198.996c-0.772,1.121-1.662,2.049-4.174,2.049c-3.517,0-5.526-2.977-5.526-6.107
		c0-3.633,2.28-5.797,4.483-5.797c1.507,0,2.667,1.236,3.517,2.357c0.271,0.348,0.464,0.426,0.734,0.426
		c0.309,0,0.966-0.58,0.966-1.816c0-0.891-0.271-1.508-0.772-1.971c-1.083-0.387-2.203-0.541-3.323-0.541
		c-6.223,0-9.508,4.135-9.508,8.656c0,2.242,0.889,4.252,2.241,5.566c1.314,1.275,3.324,2.086,5.373,2.086
		c2.435,0,5.409-1.082,6.802-4.213C190.74,199.229,190.316,198.957,189.967,198.996z"/>
	<path fill="#231F20" d="M202.374,187.596c-1.314,0-2.59,1.158-3.788,2.008c-0.231,0-0.387-0.193-0.387-0.463
		c0-0.348,0.039-1.004,0.078-1.738c-0.078-0.232-0.309-0.35-0.542-0.35c-1.159,0.697-3.208,1.547-4.868,2.088
		c-0.155,0.193-0.155,0.734-0.039,0.889l0.463,0.271c0.968,0.578,0.968,1.043,0.968,2.781v5.682c0,2.861-0.155,3.285-1.47,3.479
		l-0.696,0.117c-0.27,0.27-0.231,0.967,0.078,1.119c1.47-0.076,2.745-0.115,4.019-0.115c1.431,0,2.745,0.039,5.064,0.115
		c0.309-0.152,0.348-0.85,0.077-1.119l-1.509-0.154c-1.352-0.156-1.507-0.58-1.507-3.441v-5.295c0-1.893,0.232-2.781,1.121-2.781
		c0.232,0,0.889,0.076,1.855,0.734c0.31,0.191,0.657,0.309,1.043,0.309c1.044,0,2.165-0.734,2.165-2.242
		C204.5,188.485,203.726,187.596,202.374,187.596z"/>
	<path fill="#231F20" d="M213.54,187.596c-4.522,0-8.464,3.246-8.464,8.424c0,5.064,3.71,7.885,8.154,7.885
		c4.6,0,8.464-2.859,8.464-8.348C221.694,190.531,217.907,187.596,213.54,187.596z M213.695,202.36
		c-2.783,0-4.059-3.402-4.059-6.918c0-4.291,1.546-6.301,3.518-6.301c2.859,0,3.98,3.826,3.98,7.072
		C217.134,199.19,216.362,202.36,213.695,202.36z"/>
	<path fill="#231F20" d="M251.723,202.242c-1.314-0.193-1.469-0.617-1.469-3.479v-5.99c0-3.016-1.468-5.178-4.714-5.178
		c-1.817,0-3.132,0.695-4.947,1.814c-0.465,0.271-0.695,0.387-0.852,0.387c-0.153,0-0.386-0.23-0.618-0.58
		c-0.54-0.732-1.815-1.621-3.478-1.621c-2.628,0-3.633,0.926-5.527,1.932c-0.23-0.039-0.347-0.117-0.347-0.387
		c0-0.309,0-1.043,0.077-1.777c-0.077-0.156-0.232-0.311-0.503-0.311c-1.236,0.697-3.323,1.623-5.024,2.088
		c-0.153,0.193-0.153,0.734-0.038,0.889l0.464,0.271c0.967,0.578,0.967,1.043,0.967,2.781v5.682c0,2.861-0.156,3.285-1.47,3.479
		l-0.696,0.117c-0.27,0.27-0.23,0.967,0.078,1.119c1.469-0.076,2.744-0.115,4.02-0.115c1.43,0,2.744,0.039,4.097,0.115
		c0.31-0.152,0.349-0.85,0.076-1.119l-0.578-0.078c-1.315-0.232-1.469-0.656-1.469-3.518v-5.178c0-1.508,0.039-1.855,0.502-2.475
		c0.426-0.58,1.43-1.197,2.744-1.197c2.241,0,2.937,1.547,2.937,3.594v5.256c0,2.861-0.154,3.285-1.469,3.518l-0.502,0.078
		c-0.271,0.27-0.232,0.967,0.077,1.119c1.276-0.076,2.59-0.115,3.866-0.115c1.429,0,2.704,0.039,4.057,0.115
		c0.309-0.152,0.348-0.85,0.077-1.119l-0.58-0.078c-1.313-0.232-1.468-0.656-1.468-3.518v-5.682c0-1.082,0.077-1.545,0.464-2.01
		c0.463-0.578,1.469-1.158,2.589-1.158c2.436,0,3.131,1.547,3.131,3.594v5.256c0,2.861-0.155,3.285-1.469,3.479l-0.618,0.117
		c-0.271,0.27-0.231,0.967,0.077,1.119c1.392-0.076,2.705-0.115,3.98-0.115c1.431,0,2.743,0.039,4.406,0.115
		c0.154-0.152,0.347-0.85,0-1.119L251.723,202.242z"/>
	<path fill="#231F20" d="M263.28,187.596c-1.546,0-2.821,0.502-4.058,1.236c-0.231,0-0.309-0.156-0.309-0.695v-6.494
		c0-1.662,0.038-4.059,0.115-5.604c-0.077-0.193-0.309-0.35-0.541-0.311c-1.584,0.619-3.595,1.432-5.063,1.855
		c-0.271,0.117-0.231,0.734,0,0.891l0.542,0.346c0.85,0.504,0.889,0.773,0.889,3.363v17.432c0,1.43-0.116,3.479-0.116,3.633
		c0,0.115,0.232,0.27,0.386,0.27c0.117,0,0.194,0,0.271-0.039c0.231-0.27,0.502-0.617,0.966-0.617s2.281,1.043,5.14,1.043
		c5.063,0,9.16-3.168,9.16-8.656C270.662,190.957,267.801,187.596,263.28,187.596z M262.352,202.36c-1.12,0-2.048-0.58-2.589-1.314
		c-0.618-0.812-0.85-2.164-0.85-3.865v-4.947c0-1.314,0.077-1.816,0.424-2.047c0.309-0.234,1.121-0.504,1.895-0.504
		c2.743,0,5.141,2.436,5.141,6.957C266.373,199.924,264.943,202.36,262.352,202.36z"/>
	<path fill="#231F20" d="M276.458,182.492c1.469,0,2.474-1.043,2.474-2.434c0-1.393-1.005-2.436-2.474-2.436
		s-2.473,1.043-2.473,2.436C273.986,181.449,274.99,182.492,276.458,182.492z"/>
	<path fill="#231F20" d="M279.976,202.242c-1.314-0.193-1.469-0.617-1.469-3.479v-6.686c0-1.584,0.039-3.439,0.115-4.715
		c-0.115-0.193-0.309-0.271-0.541-0.311c-1.082,0.658-3.014,1.508-5.023,2.088c-0.155,0.193-0.155,0.734-0.039,0.889l0.464,0.271
		c0.966,0.578,0.966,1.043,0.966,2.781v5.682c0,2.861-0.154,3.285-1.469,3.479l-0.695,0.117c-0.271,0.27-0.232,0.967,0.077,1.119
		c1.47-0.076,2.783-0.115,4.059-0.115c1.43,0,2.743,0.039,4.173,0.115c0.311-0.152,0.35-0.85,0.078-1.119L279.976,202.242z"/>
	<path fill="#231F20" d="M295.161,199.035c-0.889,1.43-2.164,1.932-3.71,1.932c-3.439,0-5.835-2.781-5.835-6.26
		c0-0.465,0.077-0.502,0.811-0.502h6.687c1.546,0,2.435-0.156,2.666-0.504c0.155-0.309,0.194-0.541,0.194-0.889
		c0-3.363-2.938-5.217-5.797-5.217c-5.18,0-8.155,4.211-8.155,8.578c0,4.406,2.976,7.73,7.459,7.73c2.357,0,5.217-1.16,6.531-4.25
		C295.973,199.307,295.547,198.918,295.161,199.035z M289.711,189.065c1.662,0,2.551,1.121,2.551,2.512
		c0,0.348-0.154,0.656-0.386,0.811c-0.271,0.154-0.773,0.271-1.895,0.271h-3.517c-0.464,0-0.542-0.117-0.542-0.271
		C285.923,191.576,287.123,189.065,289.711,189.065z"/>
	<path fill="#231F20" d="M325.253,189.426c-0.663,0.057-3.379,0.172-4.851,0.172h-1.589c-0.287,0.115-0.346,0.549-0.087,0.809
		l0.837,0.145c0.81,0.145,0.694,0.434,0.203,1.531c-0.837,1.848-1.849,3.812-2.772,5.055c-1.53-2.369-2.628-3.697-4.852-5.141
		c0.981-0.578,2.714-1.271,2.714-3.438c0-1.994-1.617-3.727-4.188-3.727c-2.396,0-4.504,1.732-4.504,4.332
		c0,2.023,1.588,3.178,2.021,3.553c-2.166,1.127-4.361,2.83-4.419,5.834c0.058,2.311,1.675,5.17,5.834,5.17
		c2.224,0,4.071-0.895,5.978-2.83c0.376,0.607,0.981,1.502,1.387,1.906c0.549,0.549,2.021,0.924,3.378,0.924
		c1.444,0,3.523-0.549,4.938-2.078c0.087-0.291-0.115-0.578-0.404-0.607c-0.606,0.434-1.53,0.779-2.339,0.779
		c-2.051,0-3.379-1.184-4.592-3.09c-0.201-0.318-0.231-0.578-0.058-0.838c1.271-1.82,2.311-3.379,3.003-4.535
		c0.981-1.674,1.588-2.512,3.091-2.83l1.328-0.287C325.542,190.002,325.457,189.541,325.253,189.426z M310.554,185.873
		c1.099,0,1.82,1.068,1.82,2.57c0,1.213-0.404,2.166-0.953,2.771c-0.059,0.029-0.202,0.145-0.289,0.145
		c-0.058,0-0.288-0.145-0.463-0.26c-1.27-0.924-1.963-1.791-1.963-3.004C308.707,186.768,309.544,185.873,310.554,185.873z
		 M314.656,200.254c-0.895,0.811-2.08,1.33-3.35,1.33c-2.513,0-4.535-1.703-4.535-4.131c0-1.443,0.78-2.916,1.762-3.609
		c0.232-0.174,0.521-0.348,0.664-0.348c0.146,0,1.849,1.041,3.207,2.543c0.836,0.924,1.645,2.021,2.339,3.117
		C315.089,199.707,315.089,199.881,314.656,200.254z"/>
	<path fill="#231F20" d="M343.681,177.809h-7.305c-1.699,0-3.438-0.039-4.791-0.117c-0.311,0.156-0.349,0.852-0.078,1.123
		l0.502,0.076c1.816,0.271,2.165,0.387,2.165,4.484v14.377c0,4.098-0.349,4.213-2.165,4.445l-0.85,0.115
		c-0.271,0.271-0.232,0.967,0.077,1.121c1.778-0.078,3.518-0.115,5.218-0.115s3.439,0.037,5.913,0.115
		c0.309-0.154,0.348-0.85,0.077-1.121l-1.624-0.193c-1.815-0.154-2.164-0.27-2.164-4.367v-5.41c0-0.967,0.039-1.045,0.927-1.045
		h2.281c3.362,0,3.981,0.078,4.329,1.701l0.309,1.508c0.233,0.27,0.967,0.27,1.16-0.039c-0.039-1.199-0.117-2.59-0.117-4.02
		s0.078-2.859,0.117-3.865c-0.193-0.311-0.927-0.311-1.16-0.039l-0.309,1.314c-0.348,1.623-0.967,1.701-4.329,1.701h-2.281
		c-0.888,0-0.927-0.078-0.927-1.045v-6.918c0-2.164,0-2.24,1.624-2.24h1.971c1.236,0,2.203,0.039,3.246,0.309
		c1.469,0.387,2.088,1.506,2.475,3.748c0.386,0.232,1.081,0.154,1.236-0.154c-0.078-1.816-0.078-4.715-0.078-5.566
		C348.32,177.77,346.155,177.809,343.681,177.809z"/>
	<path fill="#231F20" d="M354.542,182.446c1.469,0,2.474-1.043,2.474-2.434c0-1.393-1.005-2.436-2.474-2.436
		c-1.47,0-2.474,1.043-2.474,2.436C352.068,181.403,353.072,182.446,354.542,182.446z"/>
	<path fill="#231F20" d="M358.058,202.198c-1.314-0.193-1.469-0.619-1.469-3.48v-6.686c0-1.584,0.038-3.439,0.115-4.715
		c-0.115-0.193-0.308-0.27-0.541-0.309c-1.081,0.656-3.014,1.506-5.023,2.088c-0.155,0.191-0.155,0.732-0.039,0.887l0.464,0.271
		c0.967,0.58,0.967,1.043,0.967,2.783v5.68c0,2.861-0.155,3.287-1.469,3.48l-0.696,0.115c-0.27,0.271-0.231,0.967,0.078,1.121
		c1.469-0.078,2.782-0.115,4.058-0.115c1.431,0,2.744,0.037,4.174,0.115c0.31-0.154,0.348-0.85,0.077-1.121L358.058,202.198z"/>
	<path fill="#231F20" d="M370.473,200.959c-0.618,0.426-1.082,0.695-1.854,0.695c-2.474,0-2.822-2.164-2.822-4.598v-5.953
		c0-1.236,0.039-1.314,0.734-1.314h3.672c0.31-0.191,0.464-0.539,0.503-1.004c0-0.387-0.077-0.695-0.31-0.811h-3.826
		c-0.734,0-0.734-0.117-0.734-0.736v-2.318c-0.193-0.309-0.734-0.424-1.082-0.193c-0.54,1.045-1.391,1.855-2.125,2.396
		c-0.851,0.619-1.739,1.121-3.053,1.623c-0.349,0.232-0.271,0.852,0.115,1.043h1.353c0.619,0,0.695,0.039,0.695,1.393v7.846
		c0,2.705,0.657,4.832,4.329,4.832c2.357,0,4.135-1.045,4.908-2.127C371.053,201.309,370.821,200.998,370.473,200.959z"/>
	<path fill="#231F20" d="M385.507,198.949c-0.772,1.121-1.662,2.049-4.174,2.049c-3.518,0-5.526-2.975-5.526-6.107
		c0-3.633,2.28-5.795,4.482-5.795c1.507,0,2.667,1.236,3.518,2.357c0.27,0.348,0.462,0.424,0.733,0.424
		c0.31,0,0.967-0.58,0.967-1.816c0-0.889-0.271-1.508-0.772-1.971c-1.083-0.387-2.203-0.543-3.323-0.543
		c-6.223,0-9.508,4.137-9.508,8.658c0,2.242,0.889,4.252,2.24,5.566c1.314,1.275,3.325,2.088,5.373,2.088
		c2.435,0,5.41-1.084,6.803-4.215C386.281,199.182,385.855,198.91,385.507,198.949z"/>
	<path fill="#231F20" d="M406.571,202.313l-0.89-0.115c-1.314-0.193-1.469-0.619-1.469-3.48v-5.756c0-3.287-1.623-5.414-4.946-5.414
		c-1.933,0-3.595,0.852-4.947,1.857c-0.271,0-0.349-0.193-0.349-0.658v-7.15c0-1.662,0.039-4.057,0.117-5.604
		c-0.078-0.193-0.31-0.348-0.541-0.309c-1.585,0.617-3.556,1.43-5.063,1.855c-0.271,0.115-0.231,0.732,0,0.887l0.541,0.35
		c0.851,0.502,0.889,0.773,0.889,3.361v16.58c0,2.861-0.154,3.287-1.468,3.48l-0.85,0.115c-0.271,0.271-0.233,0.967,0.076,1.121
		c1.623-0.078,2.938-0.115,4.174-0.115c1.43,0,2.744,0.037,4.098,0.115c0.308-0.154,0.347-0.85,0.076-1.121l-0.579-0.076
		c-1.314-0.232-1.47-0.658-1.47-3.52v-5.178c0-1.508,0.039-2.086,0.465-2.551c0.464-0.502,1.353-1.121,2.627-1.121
		c2.281,0,3.093,1.545,3.093,3.4v5.449c0,2.861-0.154,3.287-1.469,3.52l-0.58,0.076c-0.271,0.271-0.231,0.967,0.078,1.121
		c1.353-0.078,2.666-0.115,3.941-0.115c1.431,0,2.745,0.037,4.367,0.115C406.879,203.28,406.918,202.584,406.571,202.313z"/>
</g>
</svg>
