<?xml version="1.0" encoding="utf-8"?>
<!-- Generator: Adobe Illustrator 15.0.0, SVG Export Plug-In . SVG Version: 6.00 Build 0)  -->
<!DOCTYPE svg PUBLIC "-//W3C//DTD SVG 1.1//EN" "http://www.w3.org/Graphics/SVG/1.1/DTD/svg11.dtd">
<svg version="1.1" id="Layer_1" xmlns="http://www.w3.org/2000/svg" xmlns:xlink="http://www.w3.org/1999/xlink" x="0px" y="0px"
	 width="305.481px" height="28.227px" viewBox="0.001 0 305.481 28.227" enable-background="new 0.001 0 305.481 28.227"
	 xml:space="preserve">
<g>
	<path fill="#B4B3B4" d="M25.113,26.565c-1.973-0.349-2.164-0.617-3.055-3.207L16.494,7.162c-0.618-1.738-1.12-3.555-1.739-5.295
		c-0.152-0.191-0.348-0.31-0.656-0.31c-0.076,0-1.353,1.584-2.704,1.855c0.114,0.658-0.233,1.584-0.735,2.82l-5.295,13.76
		c-0.812,2.088-1.429,3.711-1.895,4.717c-0.58,1.275-1.005,1.621-2.125,1.777L0.185,26.68c-0.271,0.349-0.23,0.929,0.037,1.119
		c1.354-0.076,2.553-0.115,3.827-0.115c1.585,0.039,2.859,0.039,4.098,0.115c0.309-0.151,0.348-0.85,0.076-1.119l-1.119-0.192
		c-1.431-0.193-1.585-0.312-0.812-2.59l1.584-4.64c0.348-1.043,0.311-1.043,1.313-1.043h5.141c1.082,0,1.198,0,1.585,1.043
		l1.816,5.258c0.502,1.66,0.386,1.894-1.005,2.048l-0.852,0.116c-0.231,0.232-0.193,0.929,0.116,1.119
		c1.353-0.037,3.054-0.115,4.714-0.115c2.011,0,3.44,0.039,5.025,0.115c0.271-0.19,0.271-0.85-0.039-1.119L25.113,26.565z
		 M13.828,16.479H9.806c-0.926,0-1.042,0-0.617-1.123l1.624-4.521c0.694-1.816,1.004-2.781,1.158-3.053h0.077
		c0.193,0.271,0.425,1.006,1.082,3.053l1.623,4.639C15.064,16.401,14.91,16.479,13.828,16.479z"/>
	<path fill="#B4B3B4" d="M36.512,11.918c-1.546,0-2.82,0.502-4.058,1.236c-0.232,0-0.309-0.156-0.309-0.695V5.965
		c0-1.662,0.037-4.059,0.114-5.604c-0.077-0.193-0.309-0.351-0.542-0.312c-1.584,0.619-3.593,1.433-5.062,1.855
		c-0.271,0.117-0.231,0.733,0,0.891l0.541,0.346c0.851,0.505,0.89,0.773,0.89,3.363v17.432c0,1.431-0.116,3.479-0.116,3.634
		c0,0.114,0.232,0.27,0.387,0.27c0.115,0,0.193,0,0.271-0.039c0.231-0.27,0.502-0.617,0.966-0.617s2.281,1.043,5.141,1.043
		c5.062,0,9.16-3.168,9.16-8.655C43.895,15.28,41.035,11.918,36.512,11.918z M35.586,26.682c-1.121,0-2.048-0.58-2.589-1.313
		c-0.618-0.812-0.85-2.164-0.85-3.865v-4.947c0-1.313,0.075-1.815,0.425-2.047c0.309-0.233,1.12-0.504,1.893-0.504
		c2.745,0,5.142,2.437,5.142,6.957C39.605,24.246,38.175,26.682,35.586,26.682z"/>
	<path fill="#B4B3B4" d="M59.431,23.358c-0.89,1.43-2.165,1.932-3.711,1.932c-3.438,0-5.836-2.781-5.836-6.26
		c0-0.465,0.077-0.502,0.812-0.502h6.687c1.545,0,2.436-0.156,2.666-0.504c0.155-0.31,0.193-0.541,0.193-0.89
		c0-3.362-2.938-5.217-5.797-5.217c-5.18,0-8.155,4.211-8.155,8.578c0,4.406,2.977,7.729,7.46,7.729c2.357,0,5.217-1.159,6.531-4.25
		C60.243,23.629,59.818,23.24,59.431,23.358z M53.981,13.387c1.663,0,2.552,1.121,2.552,2.513c0,0.348-0.155,0.655-0.387,0.811
		c-0.271,0.154-0.773,0.271-1.895,0.271h-3.518c-0.464,0-0.541-0.117-0.541-0.271C50.194,15.899,51.392,13.387,53.981,13.387z"/>
	<path fill="#B4B3B4" d="M72.456,11.918c-1.314,0-2.59,1.158-3.788,2.008c-0.23,0-0.386-0.192-0.386-0.463
		c0-0.348,0.039-1.004,0.077-1.738c-0.077-0.231-0.312-0.35-0.542-0.35c-1.159,0.697-3.207,1.547-4.869,2.088
		c-0.155,0.193-0.155,0.734-0.038,0.889l0.464,0.271c0.966,0.578,0.966,1.043,0.966,2.781v5.682c0,2.861-0.153,3.285-1.469,3.479
		l-0.696,0.116c-0.27,0.271-0.229,0.968,0.078,1.119c1.469-0.076,2.744-0.114,4.021-0.114c1.43,0,2.742,0.038,5.062,0.114
		c0.311-0.151,0.349-0.85,0.077-1.119l-1.507-0.153c-1.354-0.156-1.507-0.58-1.507-3.441v-5.295c0-1.893,0.229-2.781,1.119-2.781
		c0.231,0,0.891,0.076,1.854,0.734c0.311,0.19,0.658,0.309,1.044,0.309c1.044,0,2.165-0.733,2.165-2.241
		C74.582,12.807,73.806,11.918,72.456,11.918z"/>
	<path fill="#B4B3B4" d="M88.64,23.319c-0.771,1.121-1.661,2.049-4.174,2.049c-3.517,0-5.525-2.978-5.525-6.107
		c0-3.633,2.279-5.797,4.482-5.797c1.507,0,2.667,1.236,3.518,2.357c0.271,0.348,0.464,0.426,0.733,0.426
		c0.31,0,0.966-0.58,0.966-1.816c0-0.891-0.271-1.508-0.771-1.971c-1.083-0.387-2.203-0.541-3.323-0.541
		c-6.223,0-9.508,4.135-9.508,8.656c0,2.242,0.889,4.252,2.241,5.565c1.313,1.275,3.324,2.086,5.373,2.086
		c2.435,0,5.409-1.081,6.802-4.213C89.414,23.551,88.99,23.28,88.64,23.319z"/>
	<path fill="#B4B3B4" d="M101.048,11.918c-1.313,0-2.59,1.158-3.788,2.008c-0.23,0-0.387-0.192-0.387-0.463
		c0-0.348,0.039-1.004,0.078-1.738c-0.078-0.231-0.31-0.35-0.542-0.35c-1.159,0.697-3.208,1.547-4.868,2.088
		c-0.155,0.193-0.155,0.734-0.039,0.889l0.463,0.271c0.968,0.578,0.968,1.043,0.968,2.781v5.682c0,2.861-0.154,3.285-1.47,3.479
		l-0.696,0.116c-0.27,0.271-0.23,0.968,0.078,1.119c1.471-0.076,2.745-0.114,4.02-0.114c1.431,0,2.745,0.038,5.063,0.114
		c0.31-0.151,0.349-0.85,0.077-1.119l-1.509-0.153c-1.352-0.156-1.507-0.58-1.507-3.441v-5.295c0-1.893,0.231-2.781,1.121-2.781
		c0.231,0,0.889,0.076,1.854,0.734c0.311,0.19,0.657,0.309,1.043,0.309c1.044,0,2.165-0.733,2.165-2.241
		C103.174,12.807,102.4,11.918,101.048,11.918z"/>
	<path fill="#B4B3B4" d="M112.214,11.918c-4.521,0-8.464,3.246-8.464,8.424c0,5.064,3.71,7.885,8.154,7.885
		c4.6,0,8.464-2.858,8.464-8.348C120.368,14.854,116.581,11.918,112.214,11.918z M112.369,26.682c-2.783,0-4.059-3.401-4.059-6.918
		c0-4.291,1.546-6.301,3.518-6.301c2.859,0,3.979,3.826,3.979,7.072C115.807,23.512,115.036,26.682,112.369,26.682z"/>
	<path fill="#B4B3B4" d="M150.397,26.565c-1.314-0.193-1.47-0.617-1.47-3.479v-5.99c0-3.016-1.468-5.178-4.714-5.178
		c-1.816,0-3.132,0.695-4.947,1.814c-0.465,0.271-0.694,0.387-0.852,0.387c-0.153,0-0.386-0.23-0.618-0.58
		c-0.54-0.732-1.814-1.621-3.478-1.621c-2.628,0-3.633,0.926-5.527,1.932c-0.229-0.039-0.347-0.116-0.347-0.387
		c0-0.309,0-1.043,0.077-1.777c-0.077-0.155-0.232-0.311-0.503-0.311c-1.236,0.697-3.323,1.623-5.024,2.088
		c-0.153,0.193-0.153,0.734-0.038,0.889l0.464,0.271c0.967,0.578,0.967,1.043,0.967,2.781v5.682c0,2.861-0.155,3.285-1.47,3.479
		l-0.696,0.116c-0.27,0.271-0.229,0.968,0.078,1.119c1.47-0.076,2.744-0.114,4.021-0.114c1.43,0,2.744,0.038,4.097,0.114
		c0.311-0.151,0.349-0.85,0.076-1.119l-0.578-0.077c-1.315-0.232-1.469-0.656-1.469-3.519v-5.178c0-1.508,0.039-1.855,0.502-2.476
		c0.426-0.579,1.43-1.196,2.744-1.196c2.24,0,2.937,1.547,2.937,3.594v5.256c0,2.861-0.154,3.285-1.469,3.519l-0.502,0.077
		c-0.271,0.271-0.232,0.968,0.077,1.119c1.275-0.076,2.59-0.115,3.866-0.115c1.429,0,2.703,0.039,4.057,0.115
		c0.309-0.151,0.348-0.85,0.077-1.119l-0.58-0.077c-1.313-0.232-1.468-0.656-1.468-3.519v-5.682c0-1.082,0.076-1.545,0.464-2.011
		c0.463-0.577,1.469-1.157,2.589-1.157c2.436,0,3.131,1.547,3.131,3.594v5.256c0,2.861-0.155,3.285-1.469,3.479l-0.618,0.116
		c-0.271,0.271-0.231,0.968,0.077,1.119c1.392-0.076,2.705-0.115,3.979-0.115c1.432,0,2.743,0.039,4.406,0.115
		c0.154-0.151,0.347-0.85,0-1.119L150.397,26.565z"/>
	<path fill="#B4B3B4" d="M161.954,11.918c-1.546,0-2.821,0.502-4.058,1.236c-0.231,0-0.31-0.156-0.31-0.695V5.965
		c0-1.662,0.038-4.059,0.115-5.604c-0.077-0.193-0.31-0.351-0.541-0.312c-1.584,0.619-3.595,1.433-5.063,1.855
		c-0.271,0.117-0.23,0.733,0,0.891l0.542,0.346c0.851,0.505,0.89,0.773,0.89,3.363v17.432c0,1.431-0.116,3.479-0.116,3.634
		c0,0.114,0.232,0.27,0.386,0.27c0.117,0,0.194,0,0.271-0.039c0.23-0.27,0.502-0.617,0.966-0.617s2.281,1.043,5.14,1.043
		c5.063,0,9.16-3.168,9.16-8.655C169.336,15.28,166.474,11.918,161.954,11.918z M161.026,26.682c-1.12,0-2.048-0.58-2.589-1.313
		c-0.618-0.812-0.851-2.164-0.851-3.865v-4.947c0-1.313,0.077-1.815,0.424-2.047c0.31-0.233,1.121-0.504,1.896-0.504
		c2.743,0,5.141,2.437,5.141,6.957C165.047,24.246,163.617,26.682,161.026,26.682z"/>
	<path fill="#B4B3B4" d="M175.132,6.815c1.469,0,2.475-1.043,2.475-2.435c0-1.393-1.006-2.436-2.475-2.436s-2.473,1.043-2.473,2.436
		C172.66,5.772,173.664,6.815,175.132,6.815z"/>
	<path fill="#B4B3B4" d="M178.65,26.565c-1.314-0.193-1.47-0.617-1.47-3.479V16.4c0-1.584,0.039-3.439,0.115-4.716
		c-0.115-0.192-0.309-0.271-0.541-0.311c-1.082,0.658-3.014,1.508-5.022,2.088c-0.155,0.193-0.155,0.734-0.039,0.889l0.464,0.271
		c0.966,0.578,0.966,1.043,0.966,2.781v5.682c0,2.861-0.154,3.285-1.469,3.479l-0.695,0.116c-0.271,0.271-0.231,0.968,0.077,1.119
		c1.47-0.076,2.783-0.115,4.059-0.115c1.431,0,2.743,0.039,4.173,0.115c0.312-0.151,0.351-0.85,0.078-1.119L178.65,26.565z"/>
	<path fill="#B4B3B4" d="M193.835,23.358c-0.889,1.43-2.164,1.932-3.71,1.932c-3.438,0-5.835-2.781-5.835-6.26
		c0-0.465,0.077-0.502,0.812-0.502h6.687c1.546,0,2.435-0.156,2.666-0.504c0.155-0.31,0.194-0.541,0.194-0.89
		c0-3.362-2.938-5.217-5.797-5.217c-5.181,0-8.155,4.211-8.155,8.578c0,4.406,2.976,7.729,7.459,7.729
		c2.356,0,5.217-1.159,6.531-4.25C194.647,23.629,194.22,23.24,193.835,23.358z M188.385,13.387c1.662,0,2.552,1.121,2.552,2.513
		c0,0.348-0.154,0.655-0.387,0.811c-0.271,0.154-0.772,0.271-1.895,0.271h-3.518c-0.464,0-0.542-0.117-0.542-0.271
		C184.596,15.899,185.797,13.387,188.385,13.387z"/>
	<path fill="#B4B3B4" d="M223.927,13.748c-0.663,0.057-3.379,0.172-4.851,0.172h-1.59c-0.286,0.115-0.346,0.549-0.087,0.81
		l0.837,0.145c0.811,0.146,0.694,0.434,0.203,1.531c-0.837,1.848-1.849,3.812-2.771,5.055c-1.53-2.369-2.628-3.697-4.853-5.141
		c0.981-0.578,2.715-1.271,2.715-3.438c0-1.994-1.617-3.727-4.188-3.727c-2.396,0-4.504,1.731-4.504,4.332
		c0,2.022,1.588,3.178,2.021,3.553c-2.166,1.127-4.36,2.83-4.418,5.834c0.058,2.311,1.675,5.17,5.833,5.17
		c2.225,0,4.071-0.895,5.979-2.83c0.376,0.607,0.98,1.502,1.387,1.906c0.549,0.549,2.021,0.924,3.378,0.924
		c1.444,0,3.523-0.549,4.938-2.078c0.087-0.291-0.115-0.578-0.404-0.606c-0.605,0.434-1.53,0.778-2.339,0.778
		c-2.051,0-3.379-1.184-4.592-3.09c-0.201-0.317-0.231-0.578-0.059-0.838c1.271-1.82,2.312-3.379,3.003-4.535
		c0.981-1.674,1.588-2.512,3.092-2.83l1.327-0.287C224.216,14.324,224.131,13.864,223.927,13.748z M209.227,10.196
		c1.1,0,1.82,1.067,1.82,2.569c0,1.214-0.404,2.166-0.953,2.771c-0.059,0.029-0.202,0.145-0.289,0.145
		c-0.058,0-0.288-0.145-0.463-0.26c-1.27-0.924-1.963-1.791-1.963-3.004C207.381,11.09,208.218,10.196,209.227,10.196z
		 M213.33,24.576c-0.896,0.811-2.08,1.33-3.351,1.33c-2.513,0-4.534-1.703-4.534-4.131c0-1.443,0.779-2.916,1.762-3.609
		c0.231-0.174,0.521-0.348,0.664-0.348c0.146,0,1.849,1.041,3.207,2.543c0.836,0.924,1.645,2.021,2.339,3.117
		C213.762,24.03,213.762,24.203,213.33,24.576z"/>
	<path fill="#B4B3B4" d="M242.354,2.131h-7.305c-1.699,0-3.438-0.039-4.791-0.117c-0.311,0.156-0.349,0.853-0.078,1.123l0.502,0.076
		c1.816,0.271,2.165,0.387,2.165,4.484v14.377c0,4.098-0.349,4.213-2.165,4.445l-0.85,0.114c-0.271,0.271-0.232,0.967,0.077,1.121
		c1.777-0.078,3.518-0.115,5.218-0.115s3.438,0.037,5.913,0.115c0.309-0.154,0.348-0.85,0.077-1.121l-1.624-0.192
		c-1.815-0.154-2.164-0.271-2.164-4.367v-5.41c0-0.967,0.039-1.045,0.927-1.045h2.281c3.361,0,3.98,0.078,4.329,1.701l0.309,1.508
		c0.233,0.27,0.967,0.27,1.16-0.039c-0.039-1.199-0.117-2.59-0.117-4.02c0-1.431,0.078-2.859,0.117-3.865
		c-0.193-0.312-0.927-0.312-1.16-0.039l-0.309,1.313c-0.349,1.623-0.968,1.701-4.329,1.701h-2.281c-0.888,0-0.927-0.078-0.927-1.045
		V5.917c0-2.164,0-2.24,1.624-2.24h1.971c1.236,0,2.203,0.039,3.246,0.31c1.469,0.387,2.088,1.506,2.475,3.748
		c0.387,0.231,1.081,0.153,1.236-0.154c-0.078-1.816-0.078-4.715-0.078-5.566C246.994,2.092,244.829,2.131,242.354,2.131z"/>
	<path fill="#B4B3B4" d="M253.216,6.768c1.469,0,2.474-1.043,2.474-2.434c0-1.393-1.005-2.436-2.474-2.436
		c-1.47,0-2.474,1.043-2.474,2.436C250.742,5.725,251.746,6.768,253.216,6.768z"/>
	<path fill="#B4B3B4" d="M256.731,26.521c-1.313-0.193-1.469-0.619-1.469-3.48v-6.686c0-1.584,0.038-3.439,0.115-4.716
		c-0.115-0.192-0.308-0.27-0.541-0.309c-1.081,0.656-3.014,1.506-5.023,2.088c-0.154,0.191-0.154,0.732-0.039,0.887l0.465,0.271
		c0.967,0.58,0.967,1.043,0.967,2.783v5.68c0,2.861-0.155,3.287-1.469,3.479l-0.696,0.115c-0.271,0.271-0.231,0.967,0.078,1.121
		c1.469-0.078,2.781-0.115,4.058-0.115c1.431,0,2.744,0.037,4.174,0.115c0.311-0.154,0.349-0.85,0.077-1.121L256.731,26.521z"/>
	<path fill="#B4B3B4" d="M269.146,25.281c-0.617,0.426-1.082,0.694-1.854,0.694c-2.475,0-2.822-2.163-2.822-4.598v-5.953
		c0-1.235,0.039-1.313,0.734-1.313h3.672c0.31-0.191,0.464-0.539,0.503-1.004c0-0.388-0.077-0.695-0.31-0.812h-3.826
		c-0.734,0-0.734-0.117-0.734-0.736V9.242c-0.193-0.31-0.734-0.424-1.082-0.193c-0.54,1.045-1.391,1.855-2.125,2.396
		c-0.851,0.619-1.739,1.121-3.053,1.623c-0.35,0.231-0.271,0.852,0.115,1.043h1.353c0.619,0,0.695,0.039,0.695,1.393v7.846
		c0,2.705,0.657,4.832,4.329,4.832c2.356,0,4.135-1.045,4.907-2.127C269.726,25.631,269.495,25.321,269.146,25.281z"/>
	<path fill="#B4B3B4" d="M284.18,23.272c-0.771,1.12-1.662,2.049-4.174,2.049c-3.518,0-5.526-2.976-5.526-6.107
		c0-3.633,2.28-5.795,4.482-5.795c1.507,0,2.667,1.236,3.518,2.357c0.271,0.348,0.462,0.424,0.733,0.424
		c0.31,0,0.967-0.58,0.967-1.816c0-0.889-0.271-1.508-0.771-1.971c-1.083-0.387-2.203-0.543-3.323-0.543
		c-6.223,0-9.508,4.137-9.508,8.658c0,2.242,0.889,4.252,2.239,5.565c1.314,1.275,3.325,2.088,5.373,2.088
		c2.436,0,5.41-1.084,6.804-4.215C284.955,23.504,284.529,23.233,284.18,23.272z"/>
	<path fill="#B4B3B4" d="M305.245,26.635l-0.891-0.114c-1.313-0.193-1.469-0.619-1.469-3.48v-5.756c0-3.287-1.623-5.414-4.946-5.414
		c-1.933,0-3.595,0.852-4.946,1.856c-0.271,0-0.35-0.192-0.35-0.657v-7.15c0-1.662,0.039-4.057,0.117-5.604
		c-0.078-0.193-0.31-0.349-0.541-0.31c-1.585,0.617-3.556,1.43-5.062,1.855c-0.271,0.114-0.231,0.731,0,0.887l0.541,0.35
		c0.851,0.502,0.889,0.773,0.889,3.361v16.58c0,2.861-0.154,3.287-1.468,3.479l-0.851,0.115c-0.271,0.271-0.232,0.967,0.076,1.121
		c1.623-0.078,2.938-0.115,4.174-0.115c1.431,0,2.744,0.037,4.099,0.115c0.308-0.154,0.347-0.85,0.075-1.121l-0.578-0.076
		c-1.314-0.231-1.471-0.657-1.471-3.52v-5.178c0-1.509,0.039-2.086,0.465-2.552c0.465-0.502,1.354-1.12,2.628-1.12
		c2.28,0,3.093,1.545,3.093,3.399v5.449c0,2.861-0.154,3.287-1.47,3.52l-0.579,0.076c-0.271,0.271-0.231,0.967,0.077,1.121
		c1.354-0.078,2.666-0.115,3.941-0.115c1.431,0,2.745,0.037,4.367,0.115C305.552,27.602,305.592,26.906,305.245,26.635z"/>
</g>
</svg>
