<?xml version="1.0" encoding="utf-8"?>
<!-- Generator: Adobe Illustrator 15.0.0, SVG Export Plug-In . SVG Version: 6.00 Build 0)  -->
<!DOCTYPE svg PUBLIC "-//W3C//DTD SVG 1.1//EN" "http://www.w3.org/Graphics/SVG/1.1/DTD/svg11.dtd">
<svg version="1.1" id="Layer_1" xmlns="http://www.w3.org/2000/svg" xmlns:xlink="http://www.w3.org/1999/xlink" x="0px" y="0px"
	 width="76.707px" height="94.833px" viewBox="0 0 76.707 94.833" enable-background="new 0 0 76.707 94.833" xml:space="preserve">
<g>
	<path fill-rule="evenodd" clip-rule="evenodd" fill="#B4B3B4" d="M52.121,15.112C55.337,11.096,57.681,5.57,57.076,0
		C52.27,0.176,46.546,3.169,43.137,7.212c-3.071,3.481-5.736,9.225-4.972,14.628C43.388,22.186,48.759,19.154,52.121,15.112
		L52.121,15.112z"/>
	<path fill-rule="evenodd" clip-rule="evenodd" fill="#B4B3B4" d="M66.036,59.018H0.585l0.008-0.006h65.365v-0.143
		c-1.497-3.016-2.179-7.729-1.605-11.546V47.18h0.004c0.6-5,3.82-10.115,6.395-11.971c0.029-0.022,0.065-0.048,0.1-0.077v-0.011
		h0.008l0,0c0.57-0.629,2.197-1.936,3.297-2.728c-4.059-5.972-10.705-9.194-17.474-9.297c-6.824-0.573-13.907,4.32-17.727,4.208
		C35.26,27.417,29.679,23,23.789,23.28l-0.059-0.009c-0.131,0-1.192,0.059-1.192,0.059C14.73,23.522,7.81,28.123,3.88,35.099v0.022
		H3.855v-0.022C2.3,37.613,0.436,43.472,0.158,47.18l0,0v0.198c-0.377,2.353-0.013,8.624,0.41,11.64l0,0
		c0.018,0.053,0.021,0.107,0.025,0.15l0.01-0.006c0.329,3.006,1.855,8.814,3,11.654v0.025H3.597
		c1.099,3.139,4.168,9.025,6.15,12.035v0.021h0.021c4.001,5.746,8.713,12.203,14.923,11.926c6-0.229,8.209-3.986,15.437-3.928
		c7.224-0.059,9.222,3.748,15.552,3.775c6.453-0.277,10.452-6.02,14.456-11.773c1.96-2.965,5.035-8.67,6.122-12.057h0.016
		c0.122-0.357,0.305-0.908,0.434-1.309C72.462,68.33,67.702,62.74,66.036,59.018L66.036,59.018z"/>
</g>
</svg>
