<?xml version="1.0" encoding="utf-8"?>
<!-- Generator: Adobe Illustrator 15.0.0, SVG Export Plug-In . SVG Version: 6.00 Build 0)  -->
<!DOCTYPE svg PUBLIC "-//W3C//DTD SVG 1.1//EN" "http://www.w3.org/Graphics/SVG/1.1/DTD/svg11.dtd">
<svg version="1.1" id="Layer_1" xmlns="http://www.w3.org/2000/svg" xmlns:xlink="http://www.w3.org/1999/xlink" x="0px" y="0px"
	 width="175.932px" height="110.437px" viewBox="0 0 175.932 110.437" enable-background="new 0 0 175.932 110.437"
	 xml:space="preserve">
<g>
	<path fill-rule="evenodd" clip-rule="evenodd" fill="#B4B3B4" d="M107.262,10.21c-3.002-3.162-6.457-5.671-10.248-7.457
		C93.033,0.893,88.83,0,84.399,0c-4.432,0-8.599,0.893-12.577,2.753c-3.83,1.786-7.285,4.295-10.287,7.457
		c-3.004,3.238-5.297,6.967-6.982,11.099c-1.616,4.337-2.443,8.873-2.443,13.573c0,4.779,0.827,9.318,2.443,13.572
		c1.686,4.213,3.979,7.98,6.982,11.1c3.002,3.241,6.457,5.752,10.287,7.535c3.979,1.865,8.146,2.756,12.577,2.756
		c4.431,0,8.634-0.891,12.614-2.756c3.791-1.783,7.246-4.294,10.248-7.535c3.006-3.119,5.332-6.887,6.91-11.1
		c1.729-4.254,2.555-8.793,2.555-13.572c0-4.7-0.826-9.236-2.555-13.573C112.594,17.177,110.268,13.448,107.262,10.21L107.262,10.21
		z"/>
	<path fill-rule="evenodd" clip-rule="evenodd" fill="#FFFFFF" d="M110.115,23.214c-1.426-3.605-3.377-6.766-6.006-9.601
		c-2.555-2.756-5.441-4.862-8.823-6.403c-3.452-1.619-7.06-2.432-10.887-2.432c-3.831,0-7.397,0.812-10.851,2.432
		c-3.378,1.541-6.308,3.647-8.862,6.403c-2.628,2.835-4.579,5.995-6.007,9.601c-1.389,3.725-2.137,7.615-2.137,11.668
		c0,4.132,0.748,8.021,2.137,11.747c1.428,3.607,3.379,6.769,6.007,9.604c2.555,2.756,5.484,4.86,8.862,6.399
		c3.453,1.621,7.02,2.433,10.851,2.433c3.827,0,7.435-0.812,10.887-2.433c3.382-1.539,6.269-3.644,8.823-6.399
		c2.629-2.835,4.58-5.996,6.006-9.604c1.43-3.727,2.178-7.615,2.178-11.747C112.293,30.829,111.545,26.938,110.115,23.214
		L110.115,23.214z"/>
	<path fill-rule="evenodd" clip-rule="evenodd" fill="#B4B3B4" d="M102.383,16.69l-1.279-1.781l-0.299-0.811l-0.15-0.485
		l-1.351-0.244c-0.79,0.244-1.916,1.376-3.265,3.483c-1.881,2.92-3.455,5.024-4.883,6.361c-0.973,0.892-2.104,1.457-3.229,1.622
		c-0.301,0-0.526-0.083-0.75-0.245c-0.376-0.242-0.602-0.972-0.602-2.107l2.026-2.47l0.527-2.025c0-0.405-0.376-0.568-1.05-0.486
		l-1.654,0.323L85.3,18.229l-0.376-0.485l-0.9-0.891c-0.676-0.568-1.201-0.484-1.427,0.324l-0.149,1.62
		c-2.178,1.136-3.229,2.026-3.229,2.675c0,0.487,0.224,0.891,0.603,1.092l2.25,0.812l-0.15,1.295l-0.898,0.082
		c-1.279-0.162-2.404-0.647-3.271-1.539c-1.274-1.176-2.927-3.281-4.876-6.361c-0.979-1.539-2.104-2.754-3.305-3.483l-0.527-0.243
		l-0.677,0.082l-0.374,0.486v0.646l-0.451,0.729l-1.127,1.62l-2.477,3.566l-2.104,4.334c-0.977,2.271-1.575,4.943-1.801,7.939
		c-0.226,2.92-0.075,5.674,0.452,8.348c0.898,4.213,2.55,7.859,4.955,10.979l1.127,1.377l0.373,0.405l0.449-0.04
		c0.152-0.283,0-0.525-0.373-0.932l-0.751-1.054c-0.901-1.377-1.651-2.876-2.253-4.456c-1.425-3.931-1.577-6.117-0.601-6.521
		c0.677-0.326,1.502,0.404,2.478,2.107l0.678,1.295c0.223,0.729,0.524,0.971,0.751,0.811c0.224-0.082,0.224-0.324,0.149-0.568
		l-0.451-0.73l-0.602-1.622l-0.824-3.076c-0.451-2.593-0.227-4.132,0.598-4.699c0.828-0.569,1.881-0.081,3.08,1.538l0.977,1.623
		l0.752,2.105c0.074,0.566,0.225,0.811,0.449,0.811c0.377-0.079,0.377-0.406,0.15-0.971l-0.15-1.621l0.15-1.539
		c0.227-0.568,0.525-0.974,0.9-1.137c0.826-0.242,1.578,0.163,2.252,1.217c0.826,1.217,1.203,2.835,1.129,4.861l-0.525,0.809
		c-1.051,0.488-1.578,1.054-1.504,1.701c0.076,0.813,0.3,1.459,0.752,1.865c2.178-1.135,3.791-1.297,4.918-0.566
		c0.902,0.566,1.802,2.39,2.703,5.388c0.904,2.997,1.502,6.076,1.728,9.317l0.075,1.054l0.074,1.054
		c-0.074,0.406,0.077,0.568,0.302,0.568c0.298,0,0.452-0.162,0.376-0.568l0.148-2.107c0.227-3.321,0.824-6.359,1.652-9.197
		c0.825-2.956,1.727-4.697,2.627-5.426c1.053-0.812,2.705-0.65,4.883,0.4c0.6-0.322,0.9-0.891,0.973-1.781
		c0-0.729-0.521-1.293-1.574-1.701c-0.299-0.159-0.451-0.485-0.527-0.891c0-2.025,0.377-3.562,1.129-4.779
		c0.674-1.135,1.426-1.541,2.251-1.297c0.377,0.162,0.677,0.568,0.862,1.135l0.265,1.621l-0.265,1.621
		c-0.186,0.564-0.111,0.809,0.188,0.892c0.19,0.079,0.374-0.165,0.452-0.731l0.828-2.189l0.934-1.539
		c1.203-1.619,2.18-2.186,3.006-1.619c0.828,0.566,1.051,2.188,0.677,4.78l-0.827,3.076l-0.676,1.543l-0.375,0.729
		c-0.077,0.324-0.077,0.484,0.076,0.566c0.223,0.164,0.524-0.082,0.751-0.729l0.749-1.295c0.977-1.785,1.805-2.514,2.479-2.19
		c0.977,0.487,0.75,2.674-0.674,6.521c-0.527,1.663-1.279,3.162-2.18,4.539l-0.826,1.054c-0.375,0.326-0.452,0.566-0.299,0.811
		l0.375,0.121l0.376-0.404l1.126-1.418c2.479-3.16,4.129-6.768,4.955-10.898c0.525-2.674,0.752-5.428,0.525-8.348
		c-0.227-2.996-0.9-5.669-1.877-7.939l-2.102-4.334L102.383,16.69L102.383,16.69z"/>
	<path fill-rule="evenodd" clip-rule="evenodd" fill="#FFFFFF" d="M101.705,17.502l-1.502-2.106l-0.223-0.568l-0.076-0.322
		c-0.072-0.244-0.303-0.244-0.525,0l-0.938,0.972c-1.127,1.298-2.179,3.32-3.006,5.995l-1.049,3.281l-0.902,1.619
		c-0.299,0.408-0.678,0.65-1.202,0.732l-2.177-0.488l-2.403-0.892c-0.751-0.162-0.978-0.162-0.601,0.083
		c2.102,1.377,2.629,4.05,1.576,8.021l-1.199,3.969l-1.429,3.646c-1.052,2.919-1.577,5.875-1.65,9.035v0.163v-0.163
		c0-1.542-0.225-3.322-0.602-5.308c-0.526-2.593-1.201-4.214-1.952-4.942c-0.674-0.568-1.504-0.73-2.328-0.485
		c-0.826,0.241-1.463,0.809-1.84,1.78c0.227-2.025,0.49-3.238,1.014-3.564h1.201l2.027,0.973l-0.898-2.512l-0.903-2.838
		c-0.376-2.105-0.376-3.887,0.151-5.348c0.299-0.728,0.824-1.374,1.503-1.781l1.199-0.485l0.376-0.323l-0.149-1.137l-0.227-0.403
		l-0.073,1.136l-0.375,0.24l-0.604,0.081c-1.127,0.083-2.178,0.486-3.153,1.054c-0.712,0.488-1.464,0.65-2.142,0.568
		c-0.525-0.08-0.973-0.404-1.273-0.812l-0.826-1.536l-0.9-3.12c-0.828-2.674-1.953-4.782-3.232-6.239l-0.9-0.972h-0.6v0.322
		l-0.301,0.568l-1.351,1.863l-2.179,3.564c-1.575,3.282-2.326,6.521-2.402,9.683c-0.073,3.646,0.374,6.401,1.428,8.427l0.074-0.081
		c-0.675-2.431-0.9-5.105-0.675-8.103c0.149-2.105,0.601-4.295,1.426-6.644l2.251-4.983c-0.375,1.943-0.375,4.254-0.148,7.092
		c0.373,3.482,1.125,6.316,2.404,8.506h0.072c-0.823-2.593-1.352-5.592-1.5-8.912c-0.074-2.838,0.076-5.227,0.524-7.252l0.601-1.945
		l0.602-0.566l0.752,0.809l0.75,1.621c0.675,1.701,1.052,3.564,1.275,5.389l0.9,4.781c0.377,1.457,0.98,2.35,1.655,2.674
		c0.677,0.322,1.349,0.16,2.179-0.405c0.747-0.568,1.236-1.296,1.536-2.188c-0.223,1.214-0.376,2.188-0.3,3.08
		c0.077,0.891,0.377,1.942,0.824,3.078l1.352,2.672l-1.352-0.729l-0.674-0.16c-0.562-0.082-1.016,0.323-1.238,1.215
		c-0.377,1.053-0.528,2.43-0.528,4.133c-0.073,0.324-0.226,0.566-0.45,0.648c-1.201,0.241-1.726,0.728-1.502,1.457l2.779-0.729
		c-0.076-0.646,0.227-1.294,0.713-1.944c0.602-0.73,1.277-0.892,2.104-0.566c1.052,0.485,1.953,2.024,2.631,4.699
		c0.598,2.146,0.973,4.659,1.123,7.496l0.151,4.293l0.226-4.293c0.072-2.837,0.449-5.35,1.049-7.496
		c0.676-2.675,1.58-4.214,2.629-4.699c0.827-0.325,1.501-0.164,2.18,0.566c0.523,0.65,0.75,1.299,0.674,1.944l2.777,0.649
		c0.299-0.567-0.149-1.053-1.426-1.377c-0.301-0.082-0.451-0.324-0.451-0.648l-0.524-4.133c-0.3-0.892-0.751-1.297-1.276-1.215
		l-0.826,0.323l-0.975,0.485l0.898-1.943c0.676-1.539,1.051-3.16,1.051-4.701l-0.299-2.186c0.449,1.135,0.9,1.862,1.276,2.269
		c0.374,0.405,0.751,0.565,1.202,0.646c0.449,0.082,0.9-0.08,1.275-0.486c0.602-0.565,1.127-1.537,1.576-2.916l0.901-4.293
		c0.377-2.146,0.751-4.012,1.241-5.389l0.863-1.621l0.639-0.809l0.598,0.566l0.678,1.945c0.376,2.025,0.523,4.414,0.449,7.252
		c-0.073,3.32-0.602,6.319-1.501,8.912h0.075c1.275-2.189,2.027-5.023,2.402-8.506c0.226-2.838,0.226-5.148-0.15-7.092l2.254,4.983
		c0.826,2.349,1.275,4.538,1.5,6.644c0.227,2.997-0.074,5.672-0.748,8.103l0.074,0.081c1.051-1.944,1.576-4.78,1.5-8.427
		c-0.072-2.998-0.9-6.157-2.402-9.44L101.705,17.502L101.705,17.502z"/>
	<path fill-rule="evenodd" clip-rule="evenodd" fill="#B4B3B4" d="M83.798,20.014l-0.45,0.728c-0.076,0.162,0.076,0.246,0.301,0.324
		l0.9,0.082c0.375,0,0.525-0.082,0.602-0.244l-0.227-0.646L83.798,20.014L83.798,20.014z"/>
	<polygon fill-rule="evenodd" clip-rule="evenodd" fill="#B4B3B4" points="86.2,19.772 86.35,20.581 86.802,20.014 86.951,19.445 
		86.5,19.527 86.2,19.772 	"/>
	<path fill-rule="evenodd" clip-rule="evenodd" fill="#B4B3B4" d="M175.332,106.631c-0.377-0.405-0.9-0.649-1.43-0.649
		c-0.598,0-1.125,0.244-1.502,0.649c-0.371,0.446-0.598,0.971-0.598,1.621c0,0.567,0.227,1.132,0.598,1.537
		c0.453,0.407,0.979,0.647,1.502,0.647c0.529,0,1.053-0.24,1.43-0.647c0.375-0.405,0.6-0.97,0.6-1.537
		C175.932,107.602,175.707,107.077,175.332,106.631L175.332,106.631z M173.902,106.307c0.453,0,0.828,0.162,1.203,0.565
		c0.375,0.406,0.527,0.812,0.527,1.38c0,0.567-0.152,0.97-0.527,1.296c-0.375,0.404-0.75,0.565-1.203,0.565
		c-0.523,0-0.898-0.161-1.275-0.565c-0.375-0.406-0.525-0.81-0.525-1.296c0-0.568,0.15-0.974,0.525-1.38
		C173.004,106.469,173.379,106.307,173.902,106.307L173.902,106.307z"/>
	<path fill-rule="evenodd" clip-rule="evenodd" fill="#B4B3B4" d="M174.805,107.684l-0.373-0.567l-0.604-0.162h-0.824v2.512h0.451
		v-0.97h0.297l0.453,0.079l0.227,0.566v0.242v0.082h0.373v-0.082v-0.078v-0.408l-0.148-0.401l-0.375-0.165l0.299-0.16
		L174.805,107.684L174.805,107.684z M173.752,107.278l0.529,0.082l0.15,0.404l-0.227,0.324l-0.377,0.082h-0.373v-0.893H173.752
		L173.752,107.278z"/>
	<path fill-rule="evenodd" clip-rule="evenodd" fill="#B4B3B4" d="M73.322,89.576c-0.074-4.62-0.074-7.498,0.074-8.915l-0.223-0.08
		l-0.977,0.688l-1.654-0.201c-2.701-1.135-5.48-1.539-8.257-1.298c-1.728,0.082-3.38,0.485-4.919,1.298
		c-1.578,0.729-3.003,1.822-4.318,3.158c-2.665,3-3.941,6.888-3.867,11.627c0.076,4.619,1.427,8.267,4.206,10.857
		c2.628,2.512,5.891,3.648,9.874,3.486c2.775-0.083,5.18-0.891,7.209-2.351c1.572-1.054,2.703-2.431,3.453-3.971l0.602-1.295
		l-0.378-0.245c-1.272,2.025-2.851,3.646-4.728,4.742c-1.731,0.93-3.682,1.337-5.783,1.175c-2.479-0.081-4.58-1.298-6.231-3.485
		c-1.728-2.35-2.667-5.43-2.741-9.115c-0.111-4.053,0.6-7.373,2.139-10.047c1.651-2.838,3.98-4.295,6.91-4.336
		c2.324-0.119,4.279,0.608,6.006,2.148c1.727,1.621,2.777,3.645,3.156,6.159H73.322L73.322,89.576z"/>
	<path fill-rule="evenodd" clip-rule="evenodd" fill="#B4B3B4" d="M20.234,86.655c-0.299-1.943-1.2-3.482-2.777-4.577
		c-1.615-1.335-3.904-1.903-6.645-1.823L0.074,80.337v0.527l0.676,0.121l0.9,0.324l1.203,0.81c0.375,0.407,0.524,0.812,0.524,1.378
		v22.646c0,0.811-0.601,1.54-1.728,2.271L0,108.897v0.486l6.72-0.078l7.021,0.16c2.74-0.082,4.92-0.809,6.57-1.985
		c1.729-1.416,2.704-3.2,2.779-5.468c0.072-2.351-0.677-4.376-2.404-5.914c-1.576-1.418-3.379-2.147-5.443-2.23
		c1.465-0.244,2.664-0.892,3.642-1.943C20.086,90.548,20.536,88.843,20.234,86.655L20.234,86.655z M13.516,83.173
		c1.125,1.053,1.727,2.511,1.727,4.295c0,2.026-0.451,3.565-1.352,4.457c-1.127,1.052-2.929,1.378-5.557,1.135v-10.94
		c0.451-0.242,0.975-0.323,1.576-0.403C11.338,81.716,12.541,82.201,13.516,83.173L13.516,83.173z M17.684,101.445
		c0.074,1.216-0.076,2.186-0.451,3.077c-0.9,2.188-2.74,3.403-5.67,3.484c-2.176,0-3.229-0.891-3.229-2.752V94.923l2.327-0.242
		c2.778,0.242,4.808,1.336,6.046,3.441C17.232,99.012,17.607,100.147,17.684,101.445L17.684,101.445z"/>
	<path fill-rule="evenodd" clip-rule="evenodd" fill="#B4B3B4" d="M168.65,80.743v-0.406h-11.379v0.406l1.652,0.566
		c1.053,0.567,1.578,1.378,1.578,2.432v22.402c0,0.934-0.525,1.621-1.578,2.271l-1.652,0.565v0.404h11.379v-0.404l-1.582-0.565
		l-1.051-0.812c-0.373-0.403-0.6-0.892-0.6-1.458V83.659c0-0.893,0.525-1.701,1.65-2.35
		C167.672,81.067,168.199,80.864,168.65,80.743L168.65,80.743z"/>
	<path fill-rule="evenodd" clip-rule="evenodd" fill="#B4B3B4" d="M114.246,80.459l-3.529-0.122l-9.012,0.122v0.284l1.579,0.566
		l1.052,0.81c0.375,0.407,0.6,0.812,0.6,1.378v22.729c0,0.566-0.225,0.973-0.6,1.376l-1.052,0.729l-1.579,0.648v0.404h10.965v-0.404
		l-1.428-0.565l-0.975-0.73c-0.301-0.405-0.488-0.812-0.488-1.377V95.165c0-0.242,0.188-0.406,0.373-0.406
		c0.715,0,1.617,0.729,2.744,2.065l2.25,3.568l2.102,4.051l2.256,3.402c0.861,0.974,1.764,1.46,2.664,1.538
		c1.955,0.244,3.979,0.244,6.006,0.082v-0.486c-1.049-0.16-1.953-0.565-2.627-1.134l-1.502-1.944l-2.025-3.484l-2.254-3.889
		c-1.467-2.512-3.039-3.931-4.693-4.338c2.025-0.078,3.68-0.727,4.918-1.943c1.428-1.295,2.105-2.915,1.877-4.859
		c-0.223-2.027-1.123-3.646-2.666-4.903C117.775,81.269,116.125,80.581,114.246,80.459L114.246,80.459z M111.545,81.716
		c1.424,0.08,2.627,0.566,3.602,1.581c0.979,1.01,1.502,2.387,1.58,4.171c0.072,1.619-0.078,2.836-0.527,3.727
		c-0.453,0.811-1.277,1.377-2.479,1.782l-2.104,0.243l-1.727-0.16V82.078L111.545,81.716L111.545,81.716z"/>
	<path fill-rule="evenodd" clip-rule="evenodd" fill="#B4B3B4" d="M152.242,84.632c-2.707-2.674-6.309-4.051-10.738-4.295
		l-7.172,0.122l-5.781-0.122v0.406l1.578,0.566l1.047,0.769c0.377,0.406,0.527,0.854,0.527,1.419v22.729l-0.527,1.458l-1.047,0.73
		l-1.578,0.483v0.486l12.803,0.164c4.805,0.08,8.637-1.377,11.414-4.539c1.125-1.378,2.025-2.916,2.701-4.699
		c0.527-1.621,0.826-3.282,0.826-5.061C156.295,90.872,154.943,87.306,152.242,84.632L152.242,84.632z M141.879,82.078
		c2.627,0.526,4.656,1.986,6.23,4.174c1.578,2.269,2.33,5.022,2.406,8.346c0.072,3.362-0.451,6.2-1.578,8.386
		c-1.201,2.514-3.08,4.133-5.707,4.781l-2.029,0.242l-1.988-0.081c-0.824-0.242-1.424-0.445-1.65-0.728
		c-0.525-0.488-0.826-1.297-0.9-2.514V82.119C138.088,81.675,139.889,81.675,141.879,82.078L141.879,82.078z"/>
	<path fill-rule="evenodd" clip-rule="evenodd" fill="#B4B3B4" d="M38.594,79.933l-4.092,0.121l-8.334,25.604
		c-0.377,1.214-1.053,2.025-1.952,2.594l-2.103,0.728v0.404h9.012v-0.404l-1.805-0.728c-0.524-0.406-0.826-0.892-0.826-1.621
		l0.527-2.431l2.327-7.376h7.548l2.326,7.051l0.6,2.432c0.077,0.81-0.148,1.458-0.749,1.864l-1.726,0.727v0.486h11.711v-0.486
		l-1.801-0.566c-0.828-0.405-1.465-1.133-1.876-2.267L38.594,79.933L38.594,79.933z M38.371,94.759h-6.422l3.229-9.964
		L38.371,94.759L38.371,94.759z"/>
	<path fill-rule="evenodd" clip-rule="evenodd" fill="#B4B3B4" d="M88.678,80.054h-4.053l-8.375,25.604
		c-0.373,1.214-0.975,2.025-1.949,2.594l-2.028,0.646v0.486h8.899v-0.404l-1.73-0.728c-0.598-0.406-0.897-0.892-0.824-1.621
		l0.451-2.431l2.327-7.376h7.657l2.93,9.482c0.074,0.81-0.227,1.458-0.75,1.864c-0.375,0.325-0.977,0.567-1.727,0.727v0.486h11.598
		v-0.486l-1.725-0.566c-0.787-0.405-1.428-1.133-1.838-2.267L88.678,80.054L88.678,80.054z M88.529,94.759H82.07l3.229-9.964
		L88.529,94.759L88.529,94.759z"/>
</g>
</svg>
