<?xml version="1.0" encoding="utf-8"?>
<!-- Generator: Adobe Illustrator 15.0.0, SVG Export Plug-In . SVG Version: 6.00 Build 0)  -->
<!DOCTYPE svg PUBLIC "-//W3C//DTD SVG 1.1//EN" "http://www.w3.org/Graphics/SVG/1.1/DTD/svg11.dtd">
<svg version="1.1" id="Layer_1" xmlns="http://www.w3.org/2000/svg" xmlns:xlink="http://www.w3.org/1999/xlink" x="0px" y="0px"
	 width="205.308px" height="84.846px" viewBox="2.965 0.001 205.308 84.846" enable-background="new 2.965 0.001 205.308 84.846"
	 xml:space="preserve">
<g>
	<path fill="#B4B3B4" d="M92.264,48.337c2.846,1.105,5.688,2.294,8.457,3.636c-8.853,3.558-17.468,7.823-25.604,12.723
		c-2.768-1.422-5.611-2.846-8.457-4.108C74.878,55.843,83.414,51.735,92.264,48.337"/>
	<path fill="#B4B3B4" d="M81.675,44.622c-9.168,2.926-18.019,6.719-26.475,11.301c2.686,1.028,5.374,2.056,7.982,3.162
		c8.14-4.821,16.752-8.853,25.684-12.013C86.494,46.205,84.125,45.334,81.675,44.622"/>
	<path fill="#B4B3B4" d="M148.293,62.008c0.158,0.475,0.553,0.633,0.949,0.633c0.236,0,0.473,0,0.631-0.158
		c0.08-0.08,0.16-0.235,0.16-0.395c0-0.316-0.24-0.474-0.555-0.474l-0.553-0.159c-0.16-0.08-0.396-0.08-0.555-0.236
		c-0.158-0.158-0.236-0.396-0.236-0.633c0-0.633,0.553-0.869,1.105-0.869c0.473,0,0.947,0.236,1.107,0.791l-0.396,0.078
		c0-0.316-0.395-0.553-0.789-0.553c-0.236,0-0.635,0.157-0.635,0.475c0,0.395,0.236,0.474,0.557,0.553l0.475,0.078
		c0.234,0.08,0.475,0.158,0.631,0.236c0.16,0.239,0.236,0.396,0.236,0.713c0,0.236-0.076,0.553-0.314,0.711
		s-0.553,0.237-0.869,0.237c-0.633,0-1.027-0.315-1.264-0.948L148.293,62.008z"/>
	<polygon fill="#B4B3B4" points="151.375,61.957 151.06,61.957 151.06,58.796 151.613,58.796 152.638,61.324 153.508,58.796 
		154.142,58.796 154.142,61.957 153.744,61.957 153.744,59.19 152.719,61.957 152.402,61.957 151.375,59.19 	"/>
	<g>
		<path fill="#B4B3B4" d="M111.467,47.941c-7.271-3.478-14.776-6.4-22.442-8.772c-2.768,0.792-5.453,1.661-8.061,2.532
			c7.902,2.367,15.646,5.371,23.073,8.93C106.488,49.678,108.937,48.81,111.467,47.941"/>
		<path fill="#B4B3B4" d="M123.242,44.465c-7.35-3.24-15.016-5.926-22.837-8.062c-2.529,0.476-4.979,1.027-7.428,1.66
			c7.744,2.291,15.33,5.136,22.601,8.614C118.105,45.886,120.715,45.095,123.242,44.465"/>
		<path fill="#B4B3B4" d="M142.209,50.788C123.64,57.03,106.252,65.96,90.526,77.1c3.953,2.449,7.744,4.979,11.459,7.746
			c14.855-11.774,31.373-21.575,49.076-29.004C148.135,54.025,145.211,52.367,142.209,50.788"/>
		<path fill="#B4B3B4" d="M129.404,44.782c-19.279,5.057-37.376,13.274-53.736,24.182c3.638,1.814,7.271,3.712,10.826,5.767
			c16.044-11.062,33.824-19.755,52.791-25.443C136.043,47.706,132.804,46.125,129.404,44.782"/>
		<path fill="#B4B3B4" d="M76.379,20.283c1.268,0,1.817-1.105,1.817-5.058c0-3.637-0.396-4.979-1.817-4.979
			c-1.421,0-1.816,1.343-1.816,4.979C74.563,19.177,75.115,20.283,76.379,20.283 M76.379,7.086c4.664,0,7.034,3.479,7.034,8.141
			c0,4.82-2.291,8.217-7.034,8.217c-4.818,0-7.031-3.396-7.031-8.217C69.348,10.563,71.716,7.086,76.379,7.086"/>
		<path fill="#B4B3B4" d="M86.655,11.037h-2.057V7.559h2.057V5.82c0-3.87,1.896-5.295,5.215-5.295c0.947,0,1.738,0.158,2.527,0.238
			v3.872c-0.236-0.079-0.631-0.157-0.947-0.157c-1.342,0-1.817,0.553-1.817,1.5v1.581h2.766v3.478h-2.766v12.092h-4.978V11.037
			L86.655,11.037z"/>
		<path fill="#B4B3B4" d="M27.939,15.62c-1.738,0.158-3.081,0.87-3.081,2.845c0,1.107,0.552,1.66,1.5,1.66
			c0.554,0,1.186-0.396,1.581-0.946V15.62z M27.939,11.907c0-0.949-0.396-1.581-1.266-1.581c-1.264,0-1.657,1.104-1.657,2.055
			l-4.427-0.949c0.555-3.003,3.398-4.266,6.243-4.266c3.003,0,6.164,1.263,6.164,4.741v8.691c0,1.738,0.236,2.291,0.475,2.529
			h-5.217c-0.079-0.476-0.156-1.186-0.156-1.422c-0.87,0.869-2.372,1.735-3.794,1.735c-2.528,0-4.427-1.735-4.347-4.583
			c0.078-4.029,4.662-5.295,7.981-5.688V11.907z"/>
		<path fill="#B4B3B4" d="M40.977,11.985v11.144h-5.058V7.56h4.9l0.079,1.58c1.104-1.105,2.45-1.975,4.425-1.975
			c2.213,0,3.477,1.502,3.477,3.635v12.328h-5.057V12.381c0-0.869-0.316-1.344-1.187-1.344
			C42.003,11.037,41.451,11.352,40.977,11.985"/>
	</g>
	<polygon fill="#B4B3B4" points="51.882,0.001 56.94,0.001 56.94,11.222 57.02,11.222 60.734,6.559 65.712,6.559 61.524,11.302 
		65.712,22.129 60.496,22.129 58.046,15.333 57.966,15.333 56.94,16.515 56.94,22.129 51.882,22.129 	"/>
	<g>
		<path fill="#B4B3B4" d="M8.339,9.771h1.897c1.975,0,2.766-1.104,2.766-2.369c0-2.134-1.423-2.45-2.687-2.45H8.339V9.771z
			 M8.339,19.018h2.056c1.264,0,2.845-0.555,2.845-2.766c0-1.661-1.028-2.767-2.845-2.767H8.339V19.018z M14.583,11.59
			c2.37,0.791,4.109,2.767,4.109,5.611c0,3.794-3.003,5.928-7.272,5.928H2.965V1.001h8.693c3.952,0,6.48,2.371,6.48,5.375
			c0,2.924-1.975,4.425-3.556,5.056V11.59z"/>
		<path fill="#B4B3B4" d="M196.42,15.62c-1.74,0.158-3.082,0.87-3.082,2.845c0,1.107,0.553,1.66,1.422,1.66
			c0.633,0,1.184-0.396,1.66-0.946V15.62z M196.42,11.907c0-0.949-0.477-1.581-1.346-1.581c-1.184,0-1.578,1.104-1.658,2.055
			l-4.346-0.949c0.553-3.003,3.396-4.266,6.244-4.266c3.002,0,6.164,1.263,6.164,4.741v8.691c0,1.738,0.234,2.291,0.393,2.529
			h-5.135c-0.08-0.476-0.158-1.186-0.158-1.422c-0.871,0.869-2.373,1.735-3.873,1.735c-2.449,0-4.424-1.735-4.348-4.583
			c0.16-4.029,4.742-5.295,8.061-5.688v-1.264H196.42z"/>
		<path fill="#B4B3B4" d="M148.451,13.408c0-1.423-0.156-3.161-1.895-3.161c-1.424,0-1.977,1.738-1.896,3.161H148.451z
			 M144.658,16.411c-0.078,1.345,0.314,3.714,2.373,3.714c1.184,0,2.211-0.947,2.447-2.133l3.398,1.186
			c-0.238,0.711-1.738,4.266-6.242,4.266c-4.822,0-7.035-3.87-7.035-8.217c0-4.426,2.373-8.141,6.955-8.141
			c4.818,0,6.561,4.188,6.561,8.298v1.027H144.658z"/>
	</g>
	<rect x="166.627" y="6.559" fill="#B4B3B4" width="5.061" height="15.567"/>
	<rect x="166.627" y="0.001" fill="#B4B3B4" width="5.061" height="4.505"/>
	<g>
		<path fill="#B4B3B4" d="M182.828,13.328c0-0.633,0-1.421-0.236-1.976c-0.238-0.633-0.633-1.105-1.424-1.105
			c-1.658,0-1.896,2.056-1.896,5.216c0,3.477,0.555,4.662,1.896,4.662c1.738,0,1.896-1.818,1.896-3.002l3.953,0.553
			c-0.396,3.792-2.609,5.768-6.242,5.768c-4.506,0-6.877-3.949-6.877-7.822c0-4.268,2.371-8.534,7.111-8.534
			c5.299,0,6.164,4.664,6.164,6.242L182.828,13.328L182.828,13.328z"/>
	</g>
	<path fill="#B4B3B4" d="M104.513,13.75h3.635l-1.578-9.008h-0.16L104.513,13.75z M103.17,0.001h7.35l4.662,22.128h-5.375
		l-0.867-4.505h-5.137l-1.028,4.505h-4.819L103.17,0.001z"/>
	<path fill="#B4B3B4" d="M155.168,7.559h4.9v2.055h0.078c1.027-1.659,2.926-2.448,4.898-2.448v5.058
		c-0.633-0.237-1.186-0.396-2.055-0.396c-1.346,0-2.215,0.475-2.766,1.185v10.116h-5.059V7.559H155.168z"/>
	<path fill="#B4B3B4" d="M129.642,11.985v11.144h-4.979v-10.67c0-0.869-0.236-1.422-1.184-1.422c-0.477,0-1.268,0.395-1.662,0.948
		v11.144h-4.98V7.56h4.9l0.078,1.58c1.109-1.025,2.688-1.975,4.508-1.975c1.578,0,2.605,0.868,3.078,2.055h0.08
		c0.871-0.949,2.371-2.055,4.426-2.055c2.133,0,3.557,1.342,3.557,3.555v12.408h-4.979v-10.67c0-0.869-0.238-1.422-1.184-1.422
		C130.67,11.037,129.959,11.59,129.642,11.985"/>
	<path fill="#B4B3B4" d="M204.322,21.308c0,0.949,0.793,1.659,1.818,1.659c0.945,0,1.736-0.71,1.736-1.659
		c0-0.948-0.791-1.736-1.736-1.736C205.115,19.572,204.322,20.36,204.322,21.308 M203.926,21.308c0-1.185,0.949-2.132,2.215-2.132
		c1.184,0,2.133,0.947,2.133,2.132c0,1.188-0.949,2.134-2.133,2.134C204.875,23.442,203.926,22.496,203.926,21.308"/>
	<path fill="#B4B3B4" d="M206.062,21.074c0.314,0,0.789,0.077,0.789-0.316c0-0.316-0.238-0.396-0.555-0.396h-0.631v0.714
		L206.062,21.074L206.062,21.074z M207.168,22.495h-0.396l-0.709-1.104h-0.396v1.104h-0.395v-2.37h1.104c0.158,0,0.396,0,0.555,0.08
		c0.236,0.155,0.314,0.314,0.314,0.553c0,0.475-0.395,0.633-0.789,0.633L207.168,22.495z"/>
</g>
</svg>
