<?xml version="1.0" encoding="utf-8"?>
<!-- Generator: Adobe Illustrator 15.0.0, SVG Export Plug-In . SVG Version: 6.00 Build 0)  -->
<!DOCTYPE svg PUBLIC "-//W3C//DTD SVG 1.1//EN" "http://www.w3.org/Graphics/SVG/1.1/DTD/svg11.dtd">
<svg version="1.1" id="Layer_1" xmlns="http://www.w3.org/2000/svg" xmlns:xlink="http://www.w3.org/1999/xlink" x="0px" y="0px"
	 width="280.761px" height="96.327px" viewBox="2.968 97.944 280.761 96.327" enable-background="new 2.968 97.944 280.761 96.327"
	 xml:space="preserve">
<g>
	<path fill="#B4B3B4" d="M32.22,114.135c0-7.743,0-9.17-0.102-10.801c-0.102-1.731-0.509-2.547-2.19-2.902
		c-0.408-0.102-1.275-0.153-1.987-0.153c-0.561,0-0.866-0.103-0.866-0.458c0-0.357,0.356-0.458,1.121-0.458
		c2.701,0,5.909,0.152,6.929,0.152c2.495,0,4.482-0.152,6.215-0.152c9.22,0,10.85,4.941,10.85,7.642
		c0,4.179-2.394,6.674-5.195,8.916c4.178,1.426,9.271,5.041,9.271,11.002c0,5.451-4.228,11.106-13.601,11.106
		c-0.611,0-2.089-0.103-3.567-0.153c-1.528-0.101-3.057-0.152-3.82-0.152c-0.562,0-1.682,0-2.904,0.052
		c-1.171,0-2.496,0.101-3.515,0.101c-0.663,0-1.018-0.152-1.018-0.508c0-0.257,0.203-0.408,0.813-0.408
		c0.765,0,1.375-0.102,1.835-0.205c1.018-0.203,1.273-1.323,1.477-2.801c0.254-2.14,0.254-6.164,0.254-10.852V114.135z M38.333,115
		c0,0.408,0.154,0.51,0.358,0.562c0.458,0.101,1.222,0.151,2.394,0.151c1.68,0,2.802-0.203,3.667-0.965
		c1.324-1.072,2.088-2.904,2.088-5.401c0-3.412-1.986-7.896-6.367-7.896c-0.713,0-1.171,0-1.682,0.103
		c-0.356,0.101-0.458,0.306-0.458,0.864V115z M45.058,119.077c-1.069-0.765-2.242-1.123-4.229-1.222
		c-0.917-0.051-1.427-0.051-2.19-0.051c-0.205,0-0.307,0.101-0.307,0.356v12.072c0,3.364,0.154,4.229,1.783,4.891
		c1.375,0.561,2.548,0.611,3.72,0.611c2.291,0,6.164-1.223,6.164-6.52C50,126.056,48.929,121.777,45.058,119.077"/>
</g>
<g>
	<path fill="#B4B3B4" d="M63.141,117.65c0-6.571,0.05-7.794-0.051-9.168c-0.103-1.528-0.509-1.937-1.937-2.344
		c-0.355-0.103-1.12-0.153-1.731-0.153c-0.511,0-0.764-0.154-0.764-0.458c0-0.306,0.305-0.409,0.968-0.409
		c2.395,0,5.399,0.104,6.724,0.104c1.122,0,4.127-0.104,5.757-0.104c0.663,0,0.967,0.104,0.967,0.409s-0.254,0.458-0.713,0.458
		c-0.51,0-0.763,0.051-1.325,0.153c-1.171,0.204-1.527,0.813-1.629,2.344c-0.103,1.375-0.103,2.597-0.103,9.168v6.062
		c0,6.317,1.223,8.764,3.414,10.496c1.987,1.578,4.126,1.73,5.655,1.73c1.935,0,4.227-0.561,6.01-2.292
		c2.497-2.342,2.599-6.112,2.599-10.544v-5.452c0-6.571-0.051-7.794-0.103-9.168c-0.102-1.478-0.459-1.937-1.885-2.344
		c-0.357-0.103-1.122-0.153-1.63-0.153c-0.508,0-0.765-0.154-0.765-0.458c0-0.306,0.307-0.409,0.917-0.409
		c2.292,0,5.298,0.104,5.349,0.104c0.51,0,3.514-0.104,5.248-0.104c0.611,0,0.917,0.104,0.917,0.409s-0.255,0.458-0.765,0.458
		c-0.51,0-0.764,0.051-1.325,0.153c-1.223,0.204-1.528,0.813-1.63,2.344c-0.051,1.375-0.102,2.597-0.102,9.168v4.638
		c0,4.838-0.51,9.934-4.278,13.041c-3.16,2.647-6.572,3.105-9.477,3.105c-2.344,0-6.979-0.1-10.239-2.954
		c-2.294-1.985-4.076-5.194-4.076-11.462v-6.368H63.141z"/>
</g>
<g>
	<path fill="#B4B3B4" d="M99.207,137.315c-0.713-0.307-0.867-0.509-0.867-1.479c0-2.342,0.204-5.043,0.255-5.756
		c0-0.662,0.204-1.123,0.56-1.123c0.407,0,0.458,0.41,0.458,0.713c0,0.562,0.153,1.479,0.408,2.242
		c0.968,3.209,4.33,4.279,7.132,4.279c3.871,0,6.215-2.445,6.215-5.5c0-1.886-0.459-3.771-4.432-6.113l-2.598-1.529
		c-5.298-3.106-7.029-6.01-7.029-9.832c0-5.297,5.094-8.711,11.309-8.711c2.904,0,5.196,0.406,6.369,0.714
		c0.406,0.101,0.611,0.253,0.611,0.559c0,0.562-0.153,1.783-0.153,5.196c0,0.918-0.205,1.375-0.56,1.375
		c-0.306,0-0.459-0.253-0.459-0.766c0-0.406-0.203-1.73-1.172-2.853c-0.662-0.813-2.089-2.036-4.993-2.036
		c-3.209,0-6.113,1.68-6.113,4.635c0,1.937,0.714,3.463,4.739,5.707l1.833,1.018c5.909,3.261,7.744,6.572,7.744,10.494
		c0,3.209-1.224,5.808-4.483,8.102c-2.141,1.528-5.094,1.782-7.489,1.782C103.893,138.435,101.142,138.181,99.207,137.315"/>
</g>
<g>
	<path fill="#B4B3B4" d="M126.002,117.65c0-6.571,0-7.794-0.051-9.168c-0.102-1.478-0.561-1.987-1.529-2.294
		c-0.509-0.152-1.068-0.203-1.629-0.203c-0.458,0-0.713-0.104-0.713-0.51c0-0.255,0.355-0.357,1.068-0.357
		c1.682,0,4.738,0.104,6.012,0.104c1.122,0,4.023-0.104,5.757-0.104c0.56,0,0.917,0.104,0.917,0.357c0,0.406-0.254,0.51-0.714,0.51
		c-0.458,0-0.813,0.051-1.324,0.153c-1.222,0.204-1.578,0.813-1.68,2.344c-0.103,1.375-0.103,2.597-0.103,9.168v7.642
		c0,4.179,0,7.642,0.204,9.476c0.153,1.171,0.458,1.834,1.782,2.039c0.611,0.101,1.631,0.151,2.293,0.151
		c0.51,0,0.713,0.256,0.713,0.459c0,0.306-0.357,0.459-0.865,0.459c-2.955,0-6.013-0.153-7.234-0.153
		c-1.02,0-4.076,0.153-5.859,0.153c-0.561,0-0.865-0.153-0.865-0.459c0-0.203,0.154-0.459,0.715-0.459
		c0.662,0,1.17-0.051,1.578-0.151c0.916-0.204,1.172-0.815,1.324-2.091c0.204-1.781,0.204-5.245,0.204-9.422L126.002,117.65
		L126.002,117.65z"/>
</g>
<g>
	<path fill="#B4B3B4" d="M147.398,131.965c0.101,3.363,0.662,4.382,1.526,4.687c0.765,0.257,1.632,0.308,2.343,0.308
		c0.51,0,0.766,0.205,0.766,0.457c0,0.356-0.407,0.459-1.018,0.459c-2.904,0-4.994-0.152-5.809-0.152
		c-0.407,0-2.547,0.152-4.84,0.152c-0.612,0-1.02-0.049-1.02-0.459c0-0.252,0.307-0.457,0.713-0.457
		c0.611,0,1.428-0.051,2.039-0.205c1.17-0.305,1.323-1.478,1.375-5.246l0.406-25.676c0-0.867,0.305-1.478,0.764-1.478
		c0.562,0,1.172,0.662,1.937,1.427c0.56,0.559,7.285,7.438,13.804,13.807c3.059,3.002,9.02,9.117,9.68,9.729h0.205l-0.459-19.256
		c-0.051-2.65-0.457-3.413-1.526-3.82c-0.663-0.255-1.733-0.255-2.347-0.255c-0.56,0-0.711-0.204-0.711-0.458
		c0-0.355,0.461-0.406,1.121-0.406c2.344,0,4.738,0.101,5.704,0.101c0.509,0,2.191-0.101,4.384-0.101
		c0.609,0,1.017,0.051,1.017,0.406c0,0.254-0.254,0.458-0.765,0.458c-0.457,0-0.814,0-1.375,0.153
		c-1.224,0.355-1.576,1.121-1.631,3.564l-0.508,27.305c0,0.969-0.357,1.377-0.715,1.377c-0.764,0-1.373-0.459-1.833-0.918
		c-2.802-2.598-8.405-7.945-13.091-12.479c-4.893-4.687-9.631-9.935-10.497-10.698h-0.149L147.398,131.965z"/>
</g>
<g>
	<path fill="#B4B3B4" d="M185.296,117.65c0-6.571,0-7.794-0.05-9.168c-0.104-1.478-0.51-1.937-1.936-2.344
		c-0.357-0.103-1.121-0.153-1.785-0.153c-0.457,0-0.764-0.154-0.764-0.458c0-0.306,0.356-0.409,1.02-0.409
		c2.344,0,5.195,0.104,6.47,0.104c1.427,0,11.358,0.051,12.226,0c0.815-0.051,1.528-0.204,1.885-0.254
		c0.257-0.051,0.513-0.204,0.715-0.204c0.254,0,0.307,0.204,0.307,0.407c0,0.306-0.256,0.814-0.355,2.802
		c-0.051,0.458-0.152,2.343-0.256,2.853c-0.051,0.204-0.152,0.713-0.51,0.713c-0.306,0-0.357-0.203-0.357-0.559
		c0-0.309-0.049-1.072-0.305-1.58c-0.356-0.766-0.713-1.375-2.955-1.581c-0.765-0.101-6.112-0.202-7.028-0.202
		c-0.204,0-0.308,0.153-0.308,0.407v10.698c0,0.255,0.051,0.457,0.308,0.457c1.019,0,6.825,0,7.845-0.1
		c1.068-0.103,1.732-0.205,2.141-0.664c0.355-0.306,0.508-0.561,0.715-0.561c0.201,0,0.354,0.204,0.354,0.459
		c0,0.254-0.102,0.967-0.354,3.158c-0.104,0.867-0.207,2.598-0.207,2.902c0,0.356-0.051,0.969-0.457,0.969
		c-0.307,0-0.408-0.154-0.408-0.356c-0.051-0.458-0.051-1.021-0.152-1.58c-0.255-0.866-0.814-1.528-2.494-1.682
		c-0.818-0.101-5.912-0.204-7.029-0.204c-0.207,0-0.258,0.204-0.258,0.458v3.463c0,1.478-0.052,5.146,0,6.419
		c0.104,2.955,1.479,3.617,6.062,3.617c1.172,0,3.059-0.051,4.229-0.559c1.121-0.51,1.631-1.428,1.937-3.211
		c0.104-0.457,0.202-0.662,0.51-0.662c0.354,0,0.406,0.562,0.406,1.019c0,0.97-0.356,3.924-0.61,4.791
		c-0.306,1.119-0.714,1.119-2.394,1.119c-3.363,0-6.062-0.05-8.255-0.151c-2.189-0.051-3.87-0.104-5.194-0.104
		c-0.511,0-1.479,0.053-2.547,0.053c-1.071,0.051-2.19,0.102-3.108,0.102c-0.561,0-0.865-0.154-0.865-0.459
		c0-0.203,0.153-0.459,0.713-0.459c0.662,0,1.172-0.051,1.578-0.151c0.918-0.204,1.172-1.021,1.326-2.292
		c0.202-1.836,0.202-5.249,0.202-9.221v-7.642H185.296z"/>
</g>
<g>
	<path fill="#B4B3B4" d="M210.055,137.315c-0.715-0.307-0.867-0.509-0.867-1.479c0-2.342,0.203-5.043,0.256-5.756
		c0-0.662,0.201-1.123,0.559-1.123c0.408,0,0.459,0.41,0.459,0.713c0,0.562,0.152,1.479,0.409,2.242
		c0.966,3.209,4.328,4.279,7.131,4.279c3.872,0,6.215-2.445,6.215-5.5c0-1.886-0.457-3.771-4.432-6.113l-2.599-1.529
		c-5.297-3.106-7.029-6.01-7.029-9.832c0-5.297,5.093-8.711,11.311-8.711c2.901,0,5.194,0.406,6.367,0.714
		c0.407,0.101,0.609,0.253,0.609,0.559c0,0.562-0.151,1.783-0.151,5.196c0,0.918-0.204,1.375-0.562,1.375
		c-0.305,0-0.459-0.253-0.459-0.766c0-0.406-0.203-1.73-1.17-2.853c-0.664-0.813-2.091-2.036-4.994-2.036
		c-3.209,0-6.111,1.68-6.111,4.635c0,1.937,0.712,3.463,4.736,5.707l1.834,1.018c5.908,3.261,7.742,6.572,7.742,10.494
		c0,3.209-1.222,5.808-4.48,8.102c-2.141,1.528-5.096,1.782-7.489,1.782C214.741,138.435,211.988,138.181,210.055,137.315"/>
</g>
<g>
	<path fill="#B4B3B4" d="M235.422,137.315c-0.715-0.307-0.867-0.509-0.867-1.479c0-2.342,0.205-5.043,0.256-5.756
		c0-0.662,0.203-1.123,0.561-1.123c0.408,0,0.458,0.41,0.458,0.713c0,0.562,0.151,1.479,0.407,2.242
		c0.969,3.209,4.332,4.279,7.132,4.279c3.873,0,6.216-2.445,6.216-5.5c0-1.886-0.457-3.771-4.432-6.113l-2.598-1.529
		c-5.299-3.106-7.029-6.01-7.029-9.832c0-5.297,5.095-8.711,11.309-8.711c2.904,0,5.197,0.406,6.367,0.714
		c0.406,0.101,0.611,0.253,0.611,0.559c0,0.562-0.151,1.783-0.151,5.196c0,0.918-0.206,1.375-0.562,1.375
		c-0.307,0-0.457-0.253-0.457-0.766c0-0.406-0.205-1.73-1.174-2.853c-0.662-0.813-2.09-2.036-4.992-2.036
		c-3.209,0-6.113,1.68-6.113,4.635c0,1.937,0.715,3.463,4.738,5.707l1.834,1.018c5.906,3.261,7.744,6.572,7.744,10.494
		c0,3.209-1.226,5.808-4.484,8.102c-2.141,1.528-5.094,1.782-7.489,1.782C240.109,138.435,237.357,138.181,235.422,137.315"/>
</g>
<g>
	<path fill="#B4B3B4" d="M34.308,168.553c0-7.744,0-9.17-0.102-10.801c-0.102-1.731-0.611-2.599-1.731-2.854
		c-0.56-0.152-1.223-0.205-1.833-0.205c-0.511,0-0.815-0.1-0.815-0.508c0-0.305,0.406-0.407,1.222-0.407
		c1.936,0,5.146,0.153,6.623,0.153c1.273,0,4.279-0.153,6.215-0.153c0.662,0,1.069,0.103,1.069,0.407
		c0,0.408-0.305,0.508-0.815,0.508c-0.509,0-0.916,0.053-1.528,0.155c-1.376,0.253-1.784,1.118-1.885,2.901
		c-0.102,1.633-0.102,3.058-0.102,10.801v8.967c0,4.939,0,8.964,0.203,11.156c0.153,1.375,0.511,2.291,2.037,2.496
		c0.714,0.102,1.836,0.203,2.598,0.203c0.562,0,0.816,0.153,0.816,0.406c0,0.357-0.407,0.51-0.968,0.51
		c-3.362,0-6.571-0.151-7.948-0.151c-1.171,0-4.38,0.151-6.418,0.151c-0.662,0-1.018-0.151-1.018-0.51
		c0-0.253,0.202-0.406,0.814-0.406c0.764,0,1.375-0.103,1.834-0.203c1.019-0.205,1.325-1.069,1.476-2.547
		c0.255-2.143,0.255-6.166,0.255-11.105L34.308,168.553L34.308,168.553z"/>
</g>
<g>
	<path fill="#B4B3B4" d="M60.237,186.381c0.103,3.363,0.663,4.383,1.529,4.688c0.764,0.255,1.629,0.308,2.343,0.308
		c0.509,0,0.764,0.201,0.764,0.457c0,0.354-0.406,0.457-1.018,0.457c-2.904,0-4.993-0.152-5.809-0.152
		c-0.407,0-2.546,0.152-4.839,0.152c-0.611,0-1.019-0.051-1.019-0.457c0-0.256,0.306-0.457,0.713-0.457
		c0.612,0,1.427-0.053,2.038-0.205c1.172-0.307,1.325-1.479,1.376-5.248l0.407-25.674c0-0.867,0.306-1.479,0.764-1.479
		c0.56,0,1.172,0.662,1.936,1.426c0.56,0.561,7.284,7.438,13.807,13.807c3.056,3.004,9.016,9.119,9.678,9.729h0.204l-0.458-19.259
		c-0.05-2.646-0.459-3.41-1.529-3.818c-0.662-0.255-1.732-0.255-2.344-0.255c-0.56,0-0.713-0.204-0.713-0.458
		c0-0.355,0.46-0.408,1.122-0.408c2.342,0,4.738,0.103,5.705,0.103c0.511,0,2.191-0.103,4.382-0.103
		c0.611,0,1.019,0.053,1.019,0.408c0,0.254-0.256,0.458-0.765,0.458c-0.458,0-0.814,0-1.376,0.151
		c-1.222,0.357-1.578,1.123-1.629,3.566l-0.51,27.305c0,0.97-0.356,1.377-0.712,1.377c-0.765,0-1.375-0.459-1.835-0.92
		c-2.801-2.596-8.405-7.944-13.091-12.479c-4.892-4.688-9.629-9.934-10.495-10.697h-0.153L60.237,186.381z"/>
</g>
<g>
	<path fill="#B4B3B4" d="M99.971,191.731c-0.713-0.307-0.866-0.508-0.866-1.479c0-2.344,0.205-5.041,0.254-5.756
		c0-0.662,0.205-1.121,0.561-1.121c0.407,0,0.459,0.408,0.459,0.713c0,0.562,0.152,1.479,0.407,2.242
		c0.967,3.209,4.33,4.279,7.131,4.279c3.871,0,6.215-2.445,6.215-5.502c0-1.886-0.458-3.77-4.431-6.111l-2.599-1.529
		c-5.298-3.107-7.03-6.012-7.03-9.831c0-5.298,5.094-8.712,11.31-8.712c2.904,0,5.196,0.406,6.368,0.713
		c0.408,0.104,0.613,0.255,0.613,0.561c0,0.561-0.154,1.782-0.154,5.196c0,0.917-0.204,1.376-0.56,1.376
		c-0.306,0-0.459-0.255-0.459-0.766c0-0.407-0.203-1.731-1.172-2.852c-0.662-0.814-2.088-2.039-4.992-2.039
		c-3.209,0-6.113,1.682-6.113,4.639c0,1.935,0.713,3.463,4.739,5.703l1.833,1.021c5.909,3.261,7.744,6.571,7.744,10.493
		c0,3.207-1.224,5.809-4.483,8.101c-2.14,1.528-5.093,1.783-7.489,1.783C104.657,192.853,101.907,192.598,99.971,191.731"/>
</g>
<g>
	<path fill="#B4B3B4" d="M131.044,172.068c0-6.571,0-7.795-0.051-9.169c-0.103-1.479-0.56-1.986-1.529-2.293
		c-0.509-0.152-1.069-0.204-1.629-0.204c-0.458,0-0.713-0.103-0.713-0.51c0-0.255,0.356-0.356,1.069-0.356
		c1.682,0,4.738,0.103,6.012,0.103c1.122,0,4.023-0.103,5.757-0.103c0.562,0,0.916,0.103,0.916,0.356c0,0.407-0.254,0.51-0.714,0.51
		c-0.458,0-0.814,0.052-1.324,0.151c-1.223,0.205-1.579,0.816-1.681,2.346c-0.103,1.374-0.103,2.598-0.103,9.169v7.642
		c0,4.179,0,7.642,0.204,9.476c0.153,1.172,0.458,1.833,1.783,2.039c0.61,0.101,1.63,0.153,2.292,0.153
		c0.509,0,0.712,0.252,0.712,0.457c0,0.305-0.356,0.457-0.866,0.457c-2.955,0-6.011-0.152-7.234-0.152
		c-1.018,0-4.074,0.152-5.858,0.152c-0.562,0-0.864-0.152-0.864-0.457c0-0.205,0.152-0.457,0.713-0.457
		c0.662,0,1.17-0.053,1.578-0.153c0.916-0.206,1.172-0.815,1.324-2.089c0.204-1.784,0.204-5.247,0.204-9.426v-7.642H131.044z"/>
</g>
<g>
	<path fill="#B4B3B4" d="M153.917,172.068c0-6.571,0-7.795-0.051-9.169c-0.103-1.479-0.511-1.938-1.937-2.346
		c-0.356-0.102-1.119-0.151-1.781-0.151c-0.459,0-0.765-0.151-0.765-0.458c0-0.306,0.354-0.408,1.017-0.408
		c2.347,0,5.199,0.104,6.472,0.104c1.375,0,4.585-0.104,7.286-0.104c5.604,0,13.142,0,18.031,4.939
		c2.242,2.242,4.229,5.861,4.229,11.006c0,5.451-2.343,9.578-4.889,12.073c-2.038,2.038-6.778,5.094-15.029,5.094
		c-1.63,0-3.566-0.149-5.35-0.254c-1.781-0.153-3.412-0.255-4.533-0.255c-0.51,0-1.479,0.052-2.547,0.052
		c-1.071,0.05-2.19,0.101-3.108,0.101c-0.562,0-0.864-0.151-0.864-0.457c0-0.205,0.151-0.457,0.713-0.457
		c0.662,0,1.172-0.053,1.58-0.153c0.916-0.204,1.17-1.021,1.323-2.294c0.203-1.836,0.203-5.245,0.203-9.221V172.068z
		 M159.93,176.857c0,4.585,0.049,7.896,0.103,8.761c0.05,1.07,0.151,2.6,0.508,3.057c0.562,0.816,2.345,1.734,5.858,1.734
		c4.074,0,7.082-0.715,9.781-2.957c2.903-2.393,3.821-6.266,3.821-10.748c0-5.502-2.19-9.066-4.179-10.801
		c-4.127-3.666-9.018-4.126-12.531-4.126c-0.917,0-2.393,0.103-2.752,0.308c-0.405,0.152-0.561,0.355-0.561,0.865
		c-0.051,1.477-0.051,5.043-0.051,8.457v5.45H159.93z"/>
</g>
<g>
	<path fill="#B4B3B4" d="M197.879,172.068c0-6.571,0-7.795-0.05-9.169c-0.103-1.479-0.511-1.938-1.937-2.346
		c-0.356-0.102-1.121-0.151-1.783-0.151c-0.459,0-0.766-0.151-0.766-0.458s0.357-0.408,1.02-0.408c2.344,0,5.195,0.103,6.471,0.103
		c1.428,0,11.361,0.051,12.227,0c0.814-0.05,1.527-0.203,1.885-0.255c0.256-0.051,0.511-0.203,0.714-0.203
		c0.254,0,0.307,0.203,0.307,0.408c0,0.305-0.257,0.813-0.356,2.802c-0.051,0.459-0.152,2.343-0.256,2.853
		c-0.051,0.205-0.151,0.713-0.51,0.713c-0.306,0-0.355-0.201-0.355-0.561c0-0.305-0.051-1.068-0.307-1.578
		c-0.355-0.766-0.713-1.376-2.955-1.58c-0.765-0.102-6.113-0.203-7.028-0.203c-0.205,0-0.306,0.15-0.306,0.407v10.698
		c0,0.253,0.051,0.459,0.306,0.459c1.02,0,6.827,0,7.845-0.104c1.068-0.104,1.732-0.205,2.141-0.662
		c0.355-0.306,0.51-0.562,0.715-0.562c0.203,0,0.354,0.205,0.354,0.458c0,0.256-0.102,0.969-0.354,3.16
		c-0.104,0.865-0.205,2.596-0.205,2.902c0,0.357-0.051,0.969-0.459,0.969c-0.307,0-0.407-0.154-0.407-0.357
		c-0.05-0.458-0.05-1.018-0.152-1.578c-0.256-0.865-0.813-1.529-2.495-1.682c-0.814-0.104-5.912-0.204-7.029-0.204
		c-0.205,0-0.256,0.204-0.256,0.459v3.465c0,1.478-0.052,5.146,0,6.417c0.101,2.954,1.478,3.619,6.062,3.619
		c1.171,0,3.058-0.052,4.229-0.562c1.121-0.508,1.631-1.426,1.937-3.207c0.103-0.459,0.204-0.664,0.51-0.664
		c0.356,0,0.407,0.562,0.407,1.021c0,0.966-0.357,3.923-0.612,4.787c-0.305,1.121-0.714,1.121-2.394,1.121
		c-3.361,0-6.062-0.052-8.254-0.153c-2.189-0.052-3.871-0.103-5.195-0.103c-0.509,0-1.479,0.051-2.547,0.051
		c-1.07,0.052-2.189,0.103-3.107,0.103c-0.561,0-0.865-0.152-0.865-0.457c0-0.205,0.152-0.457,0.713-0.457
		c0.662,0,1.171-0.053,1.578-0.153c0.918-0.206,1.174-1.019,1.326-2.294c0.202-1.834,0.202-5.247,0.202-9.221v-7.642H197.879z"/>
</g>
<g>
	<path fill="#B4B3B4" d="M228.343,172.068c0-6.571,0-7.795-0.054-9.169c-0.1-1.479-0.508-1.938-1.934-2.346
		c-0.356-0.102-1.121-0.151-1.782-0.151c-0.46,0-0.765-0.153-0.765-0.458c0-0.306,0.355-0.408,1.019-0.408
		c2.344,0,5.196,0.104,6.112,0.104c1.528,0,5.604-0.104,6.979-0.104c2.853,0,6.112,0.254,8.509,1.836
		c1.271,0.865,3.157,3.055,3.157,5.959c0,3.211-1.834,6.062-6.215,9.578c3.973,4.889,7.132,8.812,9.831,11.512
		c2.496,2.496,4.074,2.701,4.788,2.854c0.459,0.104,0.714,0.104,1.069,0.104c0.357,0,0.562,0.254,0.562,0.457
		c0,0.357-0.307,0.459-0.867,0.459h-4.277c-2.498,0-3.721-0.254-4.892-0.865c-1.937-0.969-3.617-3.008-6.112-6.367
		c-1.783-2.346-3.668-5.249-4.229-5.911c-0.255-0.253-0.512-0.304-0.816-0.304l-4.022-0.104c-0.204,0-0.356,0.104-0.356,0.355v0.611
		c0,4.022,0.051,7.385,0.256,9.221c0.151,1.273,0.356,2.09,1.73,2.292c0.663,0.103,1.631,0.153,2.189,0.153
		c0.357,0,0.562,0.254,0.562,0.459c0,0.306-0.357,0.457-0.919,0.457c-2.599,0-6.313-0.151-6.978-0.151
		c-0.867,0-3.72,0.151-5.502,0.151c-0.562,0-0.867-0.151-0.867-0.457c0-0.205,0.153-0.459,0.715-0.459
		c0.662,0,1.171-0.051,1.578-0.153c0.918-0.202,1.17-1.019,1.326-2.292c0.202-1.836,0.202-5.245,0.202-9.221V172.068
		L228.343,172.068z M234.048,175.43c0,0.459,0.103,0.609,0.407,0.765c0.969,0.304,2.293,0.407,3.412,0.407
		c1.785,0,2.396-0.152,3.158-0.713c1.377-0.969,2.904-2.854,2.904-6.42c0-6.112-4.177-7.692-6.828-7.692
		c-1.117,0-2.188,0.052-2.646,0.152c-0.307,0.103-0.407,0.257-0.407,0.612V175.43L234.048,175.43z"/>
</g>
</svg>
