<?xml version="1.0" encoding="utf-8"?>
<!-- Generator: Adobe Illustrator 15.0.0, SVG Export Plug-In . SVG Version: 6.00 Build 0)  -->
<!DOCTYPE svg PUBLIC "-//W3C//DTD SVG 1.1//EN" "http://www.w3.org/Graphics/SVG/1.1/DTD/svg11.dtd">
<svg version="1.1" id="Layer_1" xmlns="http://www.w3.org/2000/svg" xmlns:xlink="http://www.w3.org/1999/xlink" x="0px" y="0px"
	 width="296.464px" height="228.523px" viewBox="0 0 296.464 228.523" enable-background="new 0 0 296.464 228.523"
	 xml:space="preserve">
<path fill="#F58D86" d="M168.033,132.79c0-8.521,6.918-15.44,15.441-15.44c8.521,0,15.439,6.919,15.439,15.44
	c0,8.522-6.918,15.441-15.439,15.441C174.951,148.231,168.033,141.313,168.033,132.79z M183.475,92.644
	c-22.175,0-40.147,17.976-40.147,40.146c0,22.173,17.972,40.147,40.147,40.147c22.171,0,40.144-17.975,40.144-40.147
	C223.619,110.619,205.646,92.644,183.475,92.644z M1.272,203.82c0,13.65,11.056,24.704,24.704,24.704h247.057
	c13.646,0,24.703-11.054,24.703-24.704V61.763c0-13.651-11.057-24.706-24.703-24.706h-23.162L218.246,5.434
	C214.604,1.79,209.843,0,205.091,0h-43.174c-4.754,0-9.572,1.79-13.155,5.434l-31.503,31.624H93.917V23.16
	c0-5.989-4.812-10.809-10.809-10.809H42.961c-5.995,0-10.808,4.818-10.808,10.809v13.896h-6.177
	c-13.648,0-24.704,11.055-24.704,24.706V203.82z M81.564,92.644H44.505c-6.792,0-12.352-5.562-12.352-12.353
	S37.714,67.94,44.505,67.94h37.059c6.791,0,12.352,5.562,12.352,12.352C93.917,87.082,88.355,92.644,81.564,92.644z M183.475,67.939
	c35.819,0,64.853,29.029,64.853,64.851c0,35.823-29.031,64.853-64.853,64.853c-35.824,0-64.852-29.029-64.852-64.853
	C118.623,96.969,147.651,67.939,183.475,67.939z"/>
</svg>
