<?xml version="1.0" encoding="utf-8"?>
<!-- Generator: Adobe Illustrator 15.0.0, SVG Export Plug-In . SVG Version: 6.00 Build 0)  -->
<!DOCTYPE svg PUBLIC "-//W3C//DTD SVG 1.1//EN" "http://www.w3.org/Graphics/SVG/1.1/DTD/svg11.dtd">
<svg version="1.1" id="Layer_1" xmlns="http://www.w3.org/2000/svg" xmlns:xlink="http://www.w3.org/1999/xlink" x="0px" y="0px"
	 width="156.998px" height="81.898px" viewBox="176.969 145.415 156.998 81.898"
	 enable-background="new 176.969 145.415 156.998 81.898" xml:space="preserve">
<rect x="176.969" y="145.415" fill="none" width="156.998" height="81.898"/>
<rect x="176.969" y="145.415" fill="none" width="156.998" height="81.898"/>
<rect x="176.969" y="145.415" fill="none" width="156.998" height="81.898"/>
<rect x="176.969" y="145.415" fill="none" width="156.998" height="81.898"/>
<path fill="#B4B3B4" d="M212.413,174.673c5.17,0,9.36-4.227,9.36-9.438c0-5.214-4.19-9.439-9.36-9.439s-9.36,4.227-9.36,9.439
	C203.051,170.446,207.243,174.673,212.413,174.673"/>
<rect x="176.969" y="145.415" fill="none" width="156.998" height="81.898"/>
<path fill="#B4B3B4" d="M240.727,165.161c0-13.486,3.875-18.302,8.439-18.302c6.459,0,9.992,9.72,11.111,13.485v-13.049
	c-1.119,0.877-1.637,1.313-2.842,1.313c-1.207,0-3.017-0.613-3.877-1.138c-0.859-0.525-2.582-0.965-4.308-0.965
	c-5.685,0-15.588,7.619-15.588,18.652c0,13.049,8.785,18.653,15.588,18.653c1.726,0,3.617-0.701,4.479-1.228
	c0.86-0.525,2.498-1.227,3.705-1.227c1.205,0,1.723,0.438,2.842,1.314v-13.138c-0.947,5.08-4.652,13.925-11.111,13.925
	c-1.85,0-4.393-0.877-5.555-2.103C243.254,180.984,240.727,179.173,240.727,165.161"/>
<rect x="176.969" y="145.415" fill="none" width="156.998" height="81.898"/>
<path fill="#B4B3B4" d="M212.413,146.638c-10.187,0-18.442,8.326-18.442,18.597s8.258,18.599,18.442,18.599
	s18.442-8.328,18.442-18.599S222.598,146.638,212.413,146.638 M212.413,176.157c-7.574-0.032-13.731-5.046-16.994-11.057
	c3.295-5.979,9.483-10.826,16.994-10.826c7.639,0,13.767,4.814,16.991,10.826C226.178,171.111,220.12,176.19,212.413,176.157"/>
<rect x="176.969" y="145.415" fill="none" width="156.998" height="81.898"/>
<path fill="#B4B3B4" d="M281.948,163.771c7.118-1.513,8.396-4.632,8.396-7.927c0-4.408-5.021-8.728-12.232-8.728h-16.979v0.354
	h5.658v35.537h-5.658v0.356h17.801c5.385,0,13.236-3.385,13.236-10.331C292.17,166.089,284.684,164.13,281.948,163.771
	 M284.229,155.757c0,7.482-2.512,7.838-4.885,7.838h-5.283v-16.121h3.959C281.215,147.474,284.229,148.275,284.229,155.757
	 M278.75,183.011h-5.201v-0.084h0.512v-18.976h4.963c3.652,0.09,6.574,1.869,6.574,9.618S282.95,183.011,278.75,183.011"/>
<rect x="176.969" y="145.415" fill="none" width="156.998" height="81.898"/>
<path fill="#B4B3B4" d="M313.518,160.276h0.47l-0.06-13.569h-0.41c0,0-1.17,1.287-2.809,1.287c-1.637,0-4.152-1.58-6.842-1.58
	c-2.69,0-9.768,2.866-9.768,10.996s5.438,9.533,8.014,10.586c2.574,1.054,10.645,2.749,10.645,8.13s-3.803,7.254-7.018,7.254
	c-3.217,0-7.135-2.34-9.299-7.193c-2.164-4.855-2.226-7.137-2.226-7.137h-0.524v13.861h0.408c0,0,0.938-1.287,2.28-1.287
	c1.347,0,5.908,2.398,9.533,2.398c3.627,0,11.055-3.744,11.055-11.932c0-8.188-6.199-9.125-8.363-9.886
	c-2.163-0.76-10.702-2.222-10.702-8.305s6.256-8.247,9.942-5.615C311.53,150.919,313.401,158.288,313.518,160.276"/>
<rect x="176.969" y="145.415" fill="none" width="156.998" height="81.898"/>
<path fill="#B4B3B4" d="M308.606,203.916c-2.164-0.76-10.704-2.221-10.704-8.304s6.259-8.248,9.943-5.615s5.556,10.002,5.672,11.99
	h0.472l-0.062-13.57h-0.41c0,0-1.17,1.287-2.809,1.287c-1.637,0-4.152-1.579-6.842-1.579c-2.69,0-9.768,2.866-9.768,10.995
	c0,8.13,5.438,9.534,8.014,10.587c2.572,1.054,10.645,2.748,10.645,8.132c0,5.381-3.803,7.25-7.018,7.25
	c-3.217,0-7.137-2.34-9.301-7.192c-2.164-4.854-2.224-7.136-2.224-7.136h-0.526v13.86h0.41c0,0,0.938-1.284,2.28-1.284
	c1.347,0,5.908,2.396,9.535,2.396c3.625,0,11.053-3.743,11.053-11.931C316.969,205.613,310.77,204.677,308.606,203.916
	 M296.225,188.564h-8.26v1.05h3.668l-8.025,26.085l-7.739-26.085h3.985v-1.05h-13.268v1.05h2.328l3.43,11.016l-4.604,15.172
	l-7.615-26.188h3.06v-1.05H215.49v1.05h4.086v22.956l-14.619-24.006h-1.623h-0.932h-8.109v1.05h4.055v34.445h-4.055v0.902h9.012
	v-0.902h-3.854v-31.078l19.324,31.931h0.801h0.25h0.451v-35.298h7.26v34.445h-4.057v0.902h28.188v-0.353v-0.55v-10.514h-0.703
	c0,0-1.353,6.407-4.205,8.461c-1.551,1.113-3.067,1.726-4.133,2.053h-8.584v-18.024h2.705c1.451,0,2.752,0.353,4.004,1.603
	c1.252,1.252,2.304,5.76,2.304,5.76h0.801v-15.723h-0.801c0,0-0.552,2.053-1.302,4.307c-0.752,2.252-3.604,3.154-4.957,3.154
	c-0.965,0-2.147,0.023-2.754,0.039v-15.562h7.812c1.594,0.46,3.776,1.308,4.906,2.704c1.901,2.354,2.403,5.208,2.403,5.208h0.801
	v-7.912h3.104l11.014,36.699h1.352l7.41-23.933l7.16,23.933h1.402l11.455-36.699h3.363v-1.049H296.225z"/>
</svg>
