<?xml version="1.0" encoding="utf-8"?>
<!-- Generator: Adobe Illustrator 15.0.0, SVG Export Plug-In . SVG Version: 6.00 Build 0)  -->
<!DOCTYPE svg PUBLIC "-//W3C//DTD SVG 1.1//EN" "http://www.w3.org/Graphics/SVG/1.1/DTD/svg11.dtd">
<svg version="1.1" id="Layer_1" xmlns="http://www.w3.org/2000/svg" xmlns:xlink="http://www.w3.org/1999/xlink" x="0px" y="0px"
	 width="124px" height="80.666px" viewBox="193.061 149.807 124 80.666" enable-background="new 193.061 149.807 124 80.666"
	 xml:space="preserve">
<g>
	<g>
		<defs>
			<rect id="SVGID_1_" x="176.803" y="149.134" width="156.998" height="81.898"/>
		</defs>
		<clipPath id="SVGID_2_">
			<use xlink:href="#SVGID_1_"  overflow="visible"/>
		</clipPath>
		<polygon clip-path="url(#SVGID_2_)" fill="#F1F2F3" points="236.375,207.672 236.375,220.488 241.608,220.488 241.608,223.546 
			232.973,223.546 232.973,207.672 		"/>
		<rect x="279.428" y="207.672" clip-path="url(#SVGID_2_)" fill="#F1F2F3" width="2.963" height="3.773"/>
		<polygon clip-path="url(#SVGID_2_)" fill="#F1F2F3" points="278.61,213.462 273.944,213.462 273.944,215.544 278.61,215.544 
			278.672,218.472 273.944,218.472 273.944,220.488 278.61,220.488 278.61,223.545 270.542,223.545 270.542,210.469 278.61,210.469 
					"/>
		<path clip-path="url(#SVGID_2_)" fill="#231F20" d="M212.247,178.392c5.17,0,9.361-4.227,9.361-9.438
			c0-5.214-4.191-9.44-9.361-9.44s-9.361,4.227-9.361,9.44C202.885,174.165,207.077,178.392,212.247,178.392"/>
		<path clip-path="url(#SVGID_2_)" fill="#231F20" d="M240.561,168.88c0-13.486,3.875-18.302,8.439-18.302
			c6.459,0,9.992,9.72,11.111,13.485v-13.048c-1.119,0.876-1.637,1.313-2.842,1.313c-1.207,0-3.016-0.613-3.877-1.138
			c-0.859-0.525-2.582-0.965-4.307-0.965c-5.684,0-15.588,7.62-15.588,18.653c0,13.049,8.785,18.653,15.588,18.653
			c1.725,0,3.617-0.701,4.479-1.228c0.861-0.524,2.498-1.226,3.705-1.226c1.205,0,1.723,0.438,2.842,1.314v-13.137
			c-0.947,5.08-4.652,13.924-11.111,13.924c-1.85,0-4.393-0.876-5.555-2.102C243.088,184.703,240.561,182.891,240.561,168.88"/>
		<path clip-path="url(#SVGID_2_)" fill="#231F20" d="M212.247,150.356c-10.186,0-18.443,8.326-18.443,18.597
			s8.258,18.599,18.443,18.599s18.443-8.328,18.443-18.599S222.432,150.356,212.247,150.356 M212.247,179.876
			c-7.574-0.032-13.732-5.046-16.994-11.057c3.295-5.978,9.484-10.826,16.994-10.826c7.639,0,13.766,4.815,16.992,10.826
			C226.012,174.83,219.954,179.909,212.247,179.876"/>
		<path clip-path="url(#SVGID_2_)" fill="#231F20" d="M281.782,167.49c7.119-1.513,8.396-4.631,8.396-7.926
			c0-4.409-5.021-8.728-12.232-8.728h-16.979v0.355h5.658v35.537h-5.658v0.356h17.801c5.385,0,13.236-3.385,13.236-10.331
			C292.004,169.808,284.518,167.849,281.782,167.49 M284.063,159.476c0,7.482-2.512,7.837-4.885,7.837h-5.283v-16.12h3.959
			C281.049,151.193,284.063,151.994,284.063,159.476 M278.584,186.73h-5.201v-0.084h0.512V167.67h4.963
			c3.652,0.09,6.574,1.869,6.574,9.618S282.784,186.73,278.584,186.73"/>
		<path clip-path="url(#SVGID_2_)" fill="#231F20" d="M313.352,163.995h0.469l-0.059-13.569h-0.41c0,0-1.17,1.287-2.809,1.287
			c-1.637,0-4.152-1.58-6.842-1.58s-9.768,2.866-9.768,10.996s5.439,9.533,8.014,10.586s10.645,2.749,10.645,8.13
			s-3.803,7.253-7.018,7.253c-3.217,0-7.135-2.339-9.299-7.193c-2.164-4.855-2.225-7.137-2.225-7.137h-0.525v13.862h0.408
			c0,0,0.938-1.287,2.281-1.287c1.346,0,5.908,2.398,9.533,2.398c3.627,0,11.055-3.744,11.055-11.932
			c0-8.188-6.199-9.125-8.363-9.885s-10.703-2.222-10.703-8.305s6.256-8.247,9.943-5.615
			C311.364,154.637,313.235,162.007,313.352,163.995"/>
		<path clip-path="url(#SVGID_2_)" fill="#231F20" d="M308.44,207.635c-2.164-0.76-10.703-2.221-10.703-8.304
			s6.258-8.248,9.943-5.615c3.684,2.632,5.555,10.002,5.672,11.99h0.471l-0.061-13.57h-0.41c0,0-1.17,1.287-2.809,1.287
			c-1.637,0-4.152-1.579-6.842-1.579s-9.768,2.866-9.768,10.995c0,8.13,5.439,9.534,8.014,10.587
			c2.572,1.054,10.645,2.748,10.645,8.131c0,5.381-3.803,7.251-7.018,7.251c-3.217,0-7.137-2.34-9.301-7.193
			c-2.164-4.854-2.223-7.135-2.223-7.135h-0.527v13.86h0.41c0,0,0.938-1.285,2.281-1.285c1.346,0,5.908,2.396,9.535,2.396
			c3.625,0,11.053-3.743,11.053-11.93C316.803,209.332,310.604,208.396,308.44,207.635 M296.059,192.283h-8.26v1.05h3.668
			l-8.025,26.085l-7.74-26.085h3.986v-1.05H266.42v1.05h2.328l3.43,11.016l-4.605,15.171l-7.615-26.187h3.059v-1.05h-47.693v1.05
			h4.086v22.956l-14.619-24.006h-1.623h-0.932h-8.109v1.05h4.055v34.446h-4.055v0.901h9.012v-0.901h-3.854V196.7l19.324,31.931
			h0.801h0.25h0.451v-35.298h7.26v34.446h-4.057v0.901h28.189v-0.352v-0.55v-10.514h-0.703c0,0-1.352,6.408-4.205,8.462
			c-1.551,1.113-3.068,1.725-4.133,2.052h-8.584v-18.024h2.705c1.451,0,2.752,0.352,4.004,1.603
			c1.252,1.252,2.303,5.759,2.303,5.759h0.801v-15.722h-0.801c0,0-0.551,2.053-1.301,4.306c-0.752,2.252-3.605,3.155-4.957,3.155
			c-0.965,0-2.148,0.023-2.754,0.039v-15.562h7.811c1.594,0.46,3.777,1.307,4.906,2.704c1.902,2.354,2.404,5.208,2.404,5.208h0.801
			v-7.912h3.104l11.014,36.699h1.352l7.41-23.932l7.16,23.932h1.402l11.455-36.699h3.363V192.283z"/>
	</g>
</g>
</svg>
