<?xml version="1.0" encoding="utf-8"?>
<!-- Generator: Adobe Illustrator 15.0.0, SVG Export Plug-In . SVG Version: 6.00 Build 0)  -->
<!DOCTYPE svg PUBLIC "-//W3C//DTD SVG 1.1//EN" "http://www.w3.org/Graphics/SVG/1.1/DTD/svg11.dtd">
<svg version="1.1" id="Layer_1" xmlns="http://www.w3.org/2000/svg" xmlns:xlink="http://www.w3.org/1999/xlink" x="0px" y="0px"
	 width="160.532px" height="135.838px" viewBox="109.366 121.711 160.532 135.838"
	 enable-background="new 109.366 121.711 160.532 135.838" xml:space="preserve">
<g>
	<path fill="#231F20" d="M252.621,223.351c0,0,11.059,0.199,16.759-0.468v3.728c0,0-0.543-2.098-4.812-1.629l-7.086,0.789v9.23
		h11.232v2.05h-11.281v10.515l5.283,0.494c1.012,0.073,5.01,0.665,6.911-2.246l-0.321,2.049c0,0-0.049,1.802-2.395,1.802h-14.834
		c0,0,1.333-1.013,1.333-3.776v-15.131C253.411,230.757,253.534,226.782,252.621,223.351"/>
	<path fill="#231F20" d="M226.926,223.106h5.505v20.14c0,0-0.049,5.431,6.219,5.431c6.271,0,7.428-5.307,7.428-8.565V227.5
		c0,0,0.201-3.037-1.676-4.395h4.494c0,0-0.422,1.678-0.422,3.876v15.326c0,0,0.889,8.243-10.17,8.243
		c-11.031,0-10.439-6.293-10.439-8.392v-14.562C227.865,227.598,227.939,225.301,226.926,223.106"/>
	<path fill="#231F20" d="M211.131,222.464c9.946,0,13.476,6.244,13.476,13.871c0,6.467-4.345,11.921-10.193,13.452
		c1.357,0.099,3.086,0.469,4.097,1.283c1.752,1.407,2.642,3.061,5.108,3.061v1.233c0,0-2.467,0.223-5.108-0.938
		c-2.221-1.012-3.999-3.011-8.219-4.246c-9.478-0.345-12.638-6.44-12.638-13.846C197.654,228.708,201.183,222.464,211.131,222.464"
		/>
	<path fill="#231F20" d="M161.716,222.933h5.456l13.969,18.832l1.187-15.327c0,0,0.492-2.173-1.678-3.432h3.602v26.362h-2.863
		l-15.4-20.314l-1.013,15.92c0,0-0.519,2.863,1.358,4.395h-3.555v-22.758C162.779,226.611,162.753,224.808,161.716,222.933"/>
	<path fill="#231F20" d="M189.213,223.081h5.677c0,0-0.791,4.071-0.791,9.231v12.81c0,0-0.049,3.628,0.273,4.441h-4.741
		c0,0,0.347-2.492,0.347-5.208v-10.859C189.978,233.496,190.324,227.301,189.213,223.081"/>
	<path fill="#231F20" d="M152.683,223.081h5.677c0,0-0.79,4.071-0.79,9.231v12.81c0,0-0.05,3.628,0.297,4.441h-4.787
		c0,0,0.369-2.492,0.369-5.208v-10.859C153.449,233.496,153.794,227.301,152.683,223.081"/>
	<path fill="#231F20" d="M134.566,223.279h5.283c0,0-0.446,8.639-0.446,11.354v12.711c0,0,2.543,0.691,5.777,0.691
		c3.234,0,4.517-1.037,5.602-2.79c0,0-0.122,2.691-1.405,4.223h-14.662c0,0,0.543-3.235,0.543-7.085v-11.798
		C135.258,230.584,135.406,226.438,134.566,223.279"/>
	<path fill="#231F20" d="M123.484,222.439c0,0,4.689,0.073,7.38,1.259v3.109c0,0-2.024-2.394-7.182-2.394
		c-5.159,0-10.071,3.702-10.071,11.922c0,8.219,4.616,12.192,10.094,12.192c5.506,0,7.703-3.899,7.703-3.899
		s0.616,3.753-2.667,4.961c0,0-3.183,0.592-4.911,0.592s-14.464,0.84-14.464-13.697
		C109.366,221.971,121.139,222.439,123.484,222.439"/>
	<rect x="109.762" y="256.562" fill="#231F20" width="160.136" height="0.987"/>
	<rect x="109.762" y="214.652" fill="#231F20" width="160.136" height="1.014"/>
	<path fill="#231F20" d="M169.739,199.213v-64.544c0-4.516,0-12.982,20.585-12.958c20.312,0.024,20.312,7.8,20.312,13.156v29.52
		h-18.537v-35.443c0,0,0.224-2.049-1.727-2.049c-1.9,0-1.949,1.456-1.949,2.345v72.269c0,0-0.224,2.667,1.53,2.667
		c0,0,2.146,0.171,2.146-2.493v-33.988h18.537v30.015c0,6.837-3.455,12.118-20.731,12.118
		C176.552,209.851,169.739,206.816,169.739,199.213"/>
	<path fill="#F1F6F8" d="M211.229,224.339c6.614,0,9.157,5.455,9.157,12.119s-2.887,12.095-9.157,12.095
		c-6.294,0-9.183-5.431-9.183-12.095S204.589,224.339,211.229,224.339"/>
</g>
</svg>
