<?xml version="1.0" encoding="utf-8"?>
<!-- Generator: Adobe Illustrator 15.0.0, SVG Export Plug-In . SVG Version: 6.00 Build 0)  -->
<!DOCTYPE svg PUBLIC "-//W3C//DTD SVG 1.1//EN" "http://www.w3.org/Graphics/SVG/1.1/DTD/svg11.dtd">
<svg version="1.1" id="Layer_1" xmlns="http://www.w3.org/2000/svg" xmlns:xlink="http://www.w3.org/1999/xlink" x="0px" y="0px"
	 width="160.532px" height="135.838px" viewBox="109.366 121.711 160.532 135.838"
	 enable-background="new 109.366 121.711 160.532 135.838" xml:space="preserve">
<g>
	<path fill="#B4B3B4" d="M252.622,223.351c0,0,11.059,0.199,16.758-0.468v3.728c0,0-0.543-2.098-4.812-1.629l-7.086,0.789v9.23
		h11.231v2.05h-11.28v10.515l5.282,0.494c1.013,0.073,5.011,0.666,6.912-2.246l-0.321,2.049c0,0-0.05,1.803-2.396,1.803h-14.834
		c0,0,1.334-1.014,1.334-3.775v-15.132C253.411,230.757,253.534,226.782,252.622,223.351"/>
	<path fill="#B4B3B4" d="M226.926,223.106h5.505v20.14c0,0-0.05,5.431,6.219,5.431c6.271,0,7.429-5.307,7.429-8.564V227.5
		c0,0,0.2-3.037-1.677-4.396h4.494c0,0-0.422,1.679-0.422,3.877v15.326c0,0,0.889,8.242-10.17,8.242
		c-11.031,0-10.438-6.293-10.438-8.392v-14.562C227.866,227.599,227.939,225.301,226.926,223.106"/>
	<path fill="#B4B3B4" d="M211.131,222.464c9.945,0,13.476,6.244,13.476,13.871c0,6.467-4.345,11.921-10.192,13.452
		c1.356,0.099,3.086,0.469,4.097,1.282c1.752,1.408,2.642,3.062,5.108,3.062v1.233c0,0-2.468,0.223-5.108-0.938
		c-2.222-1.012-3.999-3.011-8.22-4.245c-9.478-0.346-12.638-6.44-12.638-13.847C197.654,228.708,201.183,222.464,211.131,222.464"/>
	<path fill="#B4B3B4" d="M161.715,222.933h5.457l13.969,18.832l1.188-15.326c0,0,0.491-2.174-1.679-3.433h3.603v26.362h-2.863
		l-15.4-20.314l-1.013,15.92c0,0-0.519,2.863,1.358,4.396h-3.556V226.61C162.779,226.61,162.752,224.808,161.715,222.933"/>
	<path fill="#B4B3B4" d="M189.213,223.081h5.677c0,0-0.791,4.07-0.791,9.23v12.811c0,0-0.05,3.628,0.272,4.441h-4.74
		c0,0,0.347-2.492,0.347-5.209v-10.858C189.978,233.496,190.325,227.301,189.213,223.081"/>
	<path fill="#B4B3B4" d="M152.683,223.081h5.677c0,0-0.79,4.07-0.79,9.23v12.811c0,0-0.05,3.628,0.298,4.441h-4.787
		c0,0,0.369-2.492,0.369-5.209v-10.858C153.45,233.496,153.793,227.301,152.683,223.081"/>
	<path fill="#B4B3B4" d="M134.566,223.278h5.283c0,0-0.446,8.64-0.446,11.354v12.711c0,0,2.543,0.691,5.777,0.691
		s4.517-1.037,5.602-2.79c0,0-0.121,2.691-1.404,4.223h-14.662c0,0,0.543-3.234,0.543-7.085v-11.798
		C135.258,230.584,135.407,226.438,134.566,223.278"/>
	<path fill="#B4B3B4" d="M123.484,222.438c0,0,4.688,0.074,7.38,1.26v3.109c0,0-2.023-2.395-7.182-2.395
		c-5.159,0-10.071,3.702-10.071,11.922c0,8.219,4.616,12.191,10.095,12.191c5.506,0,7.703-3.898,7.703-3.898
		s0.615,3.753-2.668,4.961c0,0-3.183,0.592-4.91,0.592c-1.729,0-14.465,0.84-14.465-13.697
		C109.366,221.972,121.139,222.438,123.484,222.438"/>
	<rect x="109.762" y="256.562" fill="#B4B3B4" width="160.136" height="0.987"/>
	<rect x="109.762" y="214.651" fill="#B4B3B4" width="160.136" height="1.015"/>
	<path fill="#B4B3B4" d="M169.739,199.213v-64.544c0-4.516,0-12.982,20.586-12.958c20.312,0.024,20.312,7.8,20.312,13.156v29.521
		h-18.537v-35.443c0,0,0.224-2.049-1.728-2.049c-1.899,0-1.949,1.455-1.949,2.345v72.269c0,0-0.223,2.667,1.531,2.667
		c0,0,2.146,0.171,2.146-2.493v-33.988h18.536v30.016c0,6.837-3.454,12.118-20.73,12.118
		C176.551,209.851,169.739,206.815,169.739,199.213"/>
	<path fill="#FFFFFF" d="M211.229,224.339c6.613,0,9.157,5.455,9.157,12.119s-2.888,12.096-9.157,12.096
		c-6.294,0-9.184-5.432-9.184-12.096S204.588,224.339,211.229,224.339"/>
</g>
</svg>
