<?xml version="1.0" encoding="utf-8"?>
<!-- Generator: Adobe Illustrator 15.0.0, SVG Export Plug-In . SVG Version: 6.00 Build 0)  -->
<!DOCTYPE svg PUBLIC "-//W3C//DTD SVG 1.1//EN" "http://www.w3.org/Graphics/SVG/1.1/DTD/svg11.dtd">
<svg version="1.1" id="Layer_1" xmlns="http://www.w3.org/2000/svg" xmlns:xlink="http://www.w3.org/1999/xlink" x="0px" y="0px"
	 width="297.455px" height="297.477px" viewBox="0 0 297.455 297.477" enable-background="new 0 0 297.455 297.477"
	 xml:space="preserve">
<circle fill="#F58D86" cx="150.158" cy="148.569" r="148.569"/>
<path fill="#FFFFFF" d="M174.188,140.116h-50.931c-5.02,0-9.095,4.075-9.095,9.096c0,5.018,4.075,9.093,9.095,9.093h50.931
	c5.018,0,9.093-4.075,9.093-9.093C183.28,144.192,179.205,140.116,174.188,140.116z M174.188,172.855h-50.931
	c-5.02,0-9.095,4.076-9.095,9.096c0,5.021,4.075,9.095,9.095,9.095h50.931c5.018,0,9.093-4.074,9.093-9.095
	C183.28,176.932,179.205,172.855,174.188,172.855z M77.785,212.872c0,8.039,6.511,14.552,14.551,14.552h112.771
	c8.041,0,14.554-6.513,14.554-14.552V89.188c0-8.04-6.513-14.552-14.554-14.552H175.46c-2.508-12.441-13.531-21.826-26.738-21.826
	c-13.203,0-24.227,9.385-26.736,21.826H92.335c-8.04,0-14.551,6.512-14.551,14.552L77.785,212.872L77.785,212.872z M103.979,92.825
	h17.459v6.547c0,4.437,3.567,8.004,8.005,8.004h38.56c4.438,0,8.004-3.567,8.004-8.004v-6.547h17.46
	c4.437,0,8.005,3.566,8.005,8.004v100.399c0,4.438-3.568,8.005-8.005,8.005H103.98c-4.438,0-8.005-3.566-8.005-8.005V100.829
	C95.974,96.392,99.54,92.825,103.979,92.825z M139.628,80.092c0-5.02,4.073-9.093,9.093-9.093c5.021,0,9.094,4.074,9.094,9.093
	s-4.073,9.095-9.094,9.095C143.701,89.188,139.628,85.112,139.628,80.092z"/>
</svg>
