<?xml version="1.0" encoding="utf-8"?>
<!-- Generator: Adobe Illustrator 15.0.0, SVG Export Plug-In . SVG Version: 6.00 Build 0)  -->
<!DOCTYPE svg PUBLIC "-//W3C//DTD SVG 1.1//EN" "http://www.w3.org/Graphics/SVG/1.1/DTD/svg11.dtd">
<svg version="1.1" id="Layer_1" xmlns="http://www.w3.org/2000/svg" xmlns:xlink="http://www.w3.org/1999/xlink" x="0px" y="0px"
	 width="186.442px" height="85.21px" viewBox="96.986 147.894 186.442 85.21" enable-background="new 96.986 147.894 186.442 85.21"
	 xml:space="preserve">
<g>
	<path fill="#B4B3B4" d="M283.427,163.416c-17.24,0-32.435,5.055-45.776,14.5c-0.991,0.793-2.049,1.486-2.905,2.412l-0.926,1.914
		c10.007-5.978,22.127-7.102,34.68-6.836c5.087,0.197,10.074,0.693,14.929,1.486v56.212H96.986v-10.37
		c35.835,5.119,73.651,1.784,102.849-15.785c2.442-1.521,4.854-3.141,7.134-5.055c-0.296-0.462-0.66-0.893-0.793-1.422
		c-21.697,10.77-49.111,13.146-74.708,9.25c-11.957-1.817-23.549-4.625-34.48-8.818v-53.01h186.441L283.427,163.416L283.427,163.416
		z"/>
	<path fill="#FFFFFF" d="M244.224,171.046c-1.322,0.23-2.841,0.23-4.229,0.131c1.288-1.946,2.644-3.896,4.163-5.745
		c6.076,0.032,10.7-3.731,14.827-8.257C257.368,163.649,251.092,170.287,244.224,171.046L244.224,171.046z"/>
	<path fill="#FFFFFF" d="M237.915,163.285c-1.388,1.652-2.709,3.303-3.897,5.021c-5.021-2.974-9.38-8.322-16.019-6.837
		c0.166,5.25-1.651,9.843-5.449,13.476c-1.455,1.222-3.369,2.443-5.252,1.421c-1.552-1.091-1.453-3.203-1.123-4.888
		c1.059-4.261,4.294-8.126,8.093-10.769c-1.484-0.297-2.675,0.761-3.864,1.453c-8.026,5.945-13.048,14.234-16.812,22.492
		c-1.256,3.236-2.542,6.473-2.212,10.27c0.199,1.355,0.827,2.843,2.246,3.402c4.029,1.09,7.065-2.938,9.216-5.812
		c1.485-2.411,2.607-4.954,2.972-7.86c0-0.693-0.101-1.453-0.761-1.785c-1.154-0.229-2.015,0.662-2.806,1.422
		c-1.156,1.686-1.587,3.699-1.817,5.746c-2.345,0.924-4.524,2.873-6.077,5.021c-0.527-4.062,0.858-7.662,2.907-10.8
		c1.814-2.577,4.425-4.789,7.629-4.491c0.957,0.165,1.881,0.858,2.376,1.751c1.061,2.016,0.166,4.492-0.229,6.54
		c-1.322,5.086-5.054,9.94-9.81,12.881c-2.874,1.552-7.333,1.781-9.974-0.465c-4.263-3.931-2.71-10.997-1.091-15.687
		c3.863-10.604,12.749-22.361,23.978-26.324c1.816-0.659,4.425-0.924,6.043,0.431l0.661,0.66c3.635-1.884,8.686-2.609,12.683-1.024
		C232.532,159.619,235.139,161.634,237.915,163.285L237.915,163.285z"/>
	<path fill="#FFFFFF" d="M249.341,158.562c0.628,1.09,0.032,2.312-0.659,3.171c-0.331,0.231-0.627,0.627-1.059,0.463
		c0-0.463,0.497-0.76,0.692-1.188c0.102-0.264,0.233-0.66,0-0.924c-0.163-0.133-0.395,0.033-0.561,0.098
		c-5.316,4.791-8.885,10.604-12.221,16.383c-3.172,5.879-6.044,11.889-7.267,18.561c-0.131,0.729-0.23,1.719,0.432,2.181
		c0.856,0.032,1.484-0.791,2.046-1.388c3.37-3.963,5.254-8.555,8.556-12.551c2.081-2.047,4.523-4.393,7.53-3.17l0.957,0.594
		l0.693-0.857h5.548l-8.617,16.415c0,0.196-0.102,0.362-0.034,0.528c0.097,0.197,0.33,0.133,0.495,0.1
		c0.857-0.432,1.519-1.354,2.146-2.083c1.058-1.353,2.016-2.74,2.809-4.192c0.628-0.033,1.354-0.033,2.014-0.033
		c-1.452,3.996-4.226,7.729-7.895,10.504c-1.057,0.66-2.276,1.388-3.6,0.924c-1.222-0.594-1.552-1.914-1.783-3.104
		c-1.452,1.65-3.104,3.602-5.383,3.203c-1.851-0.759-2.146-2.775-2.312-4.525c-1.09,1.521-2.607,3.039-4.13,4.097
		c-1.021,0.595-2.509,0.462-3.399-0.265c-2.18-1.815-1.982-5.119-1.421-7.662c0.298-1.221,0.924-2.312,1.188-3.533
		c-0.856,0.162-1.816,0.361-2.74,0.361c-1.917,3.666-3.831,7.629-7.499,10.338c-1.485,1.06-3.798,1.488-5.517,0.627
		c-2.31-1.584-1.419-5.149-0.856-7.396c1.52-5.153,4.69-10.272,9.646-13.409c1.253-0.728,3.137-1.224,4.492-0.363
		c2.608,1.815,1.22,5.582,0.626,7.992c0.825,0.065,1.982,0.332,2.544-0.461c2.907-8.424,7.463-16.152,13.244-23.386
		c2.575-2.971,5.481-6.272,9.247-6.937C248.121,157.605,248.846,157.901,249.341,158.562L249.341,158.562z"/>
	<path fill="#FFFFFF" d="M148.31,159.223c0.99,1.551,0.596,3.798-0.229,5.282c-0.693,1.158-1.783,2.679-3.336,2.513
		c-0.529-0.134-1.059-0.528-1.288-1.058c-0.396-1.155,0.033-2.346,0.759-3.27c0.727-0.826,1.652-1.223,2.676-1.422
		c-0.033-0.396-0.363-0.725-0.692-0.957c-1.752-0.463-3.172,0.793-4.592,1.65c-6.274,5.021-10.072,11.727-13.013,18.463
		c-1.817,4.591-3.667,10.9-0.958,15.688c2.972,4.625,9.512,3.008,13.772,1.95c7.102-1.851,13.771-5.087,21.863-4.263
		c7.299,0.695,14.435,3.238,18.66,9.877c-1.057-1.122-2.675-1.422-4.16-1.816c-4.459-0.891-10.041-1.322-14.17,0.596
		c-2.378-3.897-6.671-5.482-11.163-4.658c-6.342,0.859-12.088,3.105-18.297,4.229c-3.237,0.229-7.168,0.791-9.776-1.223
		c-5.118-3.668-6.076-10.341-4.523-16.149c2.607-8.523,7.431-16.48,14.928-22.658c2.906-2.181,5.979-3.896,9.577-4.293
		C145.931,157.605,147.386,157.934,148.31,159.223L148.31,159.223z"/>
	<path fill="#B4B3B4" d="M215.918,162.425c0.133,4.13-1.422,7.63-4.098,10.636c-0.791,0.826-1.65,1.619-2.708,1.851
		c-0.562-0.064-0.727-0.693-0.856-1.154c-0.398-3.073,1.717-5.286,3.236-7.631C212.649,164.539,214.233,163.154,215.918,162.425
		L215.918,162.425z"/>
	<path fill="#FFFFFF" d="M164.89,170.221c0.858,2.346-0.1,4.854-1.851,6.538c-0.461,0.365-1.188,0.595-1.75,0.266
		c-0.495-0.197-0.858-0.76-0.926-1.288c-0.064-1.286,0.465-2.543,1.719-3.104c0.462-0.197,0.957-0.362,1.485-0.33
		c-0.064-0.362-0.33-0.727-0.659-0.924c-1.09-0.266-1.851,0.727-2.643,1.42c-2.906,3.367-4.923,7.068-6.145,11.098
		c-0.131,1.122-0.495,2.807,0.661,3.434c0.989,0.299,1.815-0.295,2.607-0.692c2.973-1.685,5.451-4.623,7.234-7.396
		c2.543-3.535,4.522-8.49,9.082-9.976c1.188-0.431,2.873-0.728,4.028,0.032l0.597,0.595l0.461-0.894h5.284l-8.157,16.516
		c0,0.132-0.101,0.297-0.033,0.43c0.166,0.196,0.463,0.033,0.661-0.099c2.112-1.587,3.632-3.731,4.592-5.945h2.312
		c-1.554,3.699-4.262,7.067-7.53,9.94c-1.453,1.154-3.468,1.814-5.352,1.121c-0.594-0.33-0.925-0.924-0.858-1.616
		c-0.032-0.464,0.166-0.826,0.199-1.188c-1.52,1.915-3.501,3.303-5.944,3.237c-0.729-0.101-1.422-0.629-1.752-1.322
		c-0.594-1.188-0.626-2.872-0.329-4.228h-0.065c-3.007,2.707-5.979,5.648-10.141,5.351c-1.388-0.198-2.741-1.255-3.236-2.575
		c-1.057-3.369,0.562-6.605,1.783-9.545c-0.76,0.198-1.717,0.299-2.544,0.065c-2.08,3.896-4.16,8.06-8.023,10.965
		c-1.521,1.058-3.832,1.717-5.55,0.66c-2.676-2.312-1.454-6.539-0.496-9.28c1.884-4.393,4.524-8.884,8.886-11.824
		c1.254-0.824,3.138-1.354,4.623-0.562c2.18,1.389,2.213,4.26,1.685,6.571l-0.495,1.619c3.602,0.693,5.055-3.633,7.629-5.517
		c2.182-1.915,4.725-3.931,7.695-2.774C164.164,169.231,164.626,169.725,164.89,170.221L164.89,170.221z"/>
	<path fill="#FFFFFF" d="M189.661,173.656c-0.463,0.857-1.419,0.857-2.278,0.826l-3.467-0.066l2.277-4.592
		c0.329-0.494,0.858-0.76,1.42-0.826h4.261L189.661,173.656L189.661,173.656z"/>
	<path fill="#B4B3B4" d="M176.912,171.839c0.166,0.527-0.032,1.089-0.197,1.584c-1.817,3.636-3.534,7.268-5.715,10.734
		c-0.628,0.826-1.42,2.047-2.574,1.98c-0.761-0.691-0.332-2.047-0.1-2.904c1.319-3.963,3.435-7.631,6.604-10.801
		c0.527-0.462,1.057-0.957,1.751-0.857L176.912,171.839L176.912,171.839z"/>
	<path fill="#B4B3B4" d="M147.154,172.3c0.166,1.619-0.264,3.205-1.022,4.492c-0.957-0.065-1.784-0.627-2.346-1.453
		c-0.43-0.692-0.196-1.684,0.198-2.312c0.528-0.627,1.123-1.354,1.947-1.387C146.427,171.641,146.923,171.806,147.154,172.3
		L147.154,172.3z"/>
	<path fill="#B4B3B4" d="M145.107,179.106c-0.331,1.388-1.321,2.642-2.146,3.862c-1.09,1.322-2.279,3.041-3.997,3.402
		c-0.265-0.033-0.528-0.166-0.628-0.429c-0.362-1.851,0.396-3.601,1.023-5.219c0.627-1.452,1.422-2.841,2.444-4.128
		C142.597,177.818,143.917,178.477,145.107,179.106L145.107,179.106z"/>
	<path fill="#B4B3B4" d="M246.6,182.802c0.432,0.73,0,1.588-0.263,2.281c-1.751,3.435-3.469,6.869-5.517,10.14
		c-0.661,0.791-1.422,2.014-2.577,1.914c-0.792-0.691-0.264-1.979-0.099-2.871c1.124-3.401,2.973-6.54,5.317-9.446
		c0.761-0.826,1.584-1.816,2.607-2.146C246.271,182.673,246.469,182.673,246.6,182.802L246.6,182.802z"/>
	<path fill="#B4B3B4" d="M221.301,183.399c0.166,1.618-0.296,3.104-0.924,4.492c-0.299,0.101-0.628-0.033-0.894-0.134
		c-0.858-0.396-1.719-1.254-1.651-2.276c0.231-0.959,0.497-1.981,1.455-2.545C219.948,182.641,220.972,182.574,221.301,183.399
		L221.301,183.399z"/>
	<path fill="#B4B3B4" d="M219.253,190.137c-0.265,1.223-1.058,2.378-1.75,3.468c-0.99,1.387-2.146,3.204-3.864,3.665
		c-0.298,0.065-0.628,0-0.856-0.166c-0.827-1.121-0.199-2.674,0.097-3.83c0.694-2.08,1.685-3.995,3.073-5.778
		C216.776,188.684,218.065,189.507,219.253,190.137L219.253,190.137z"/>
	<path fill="#FFFFFF" d="M219.849,208.137l2.442,8.521c0.033,0.86,1.321,0.463,1.155,1.354h-3.069
		c-0.166-0.134-0.267-0.363-0.166-0.562c0.199-0.1,0.462-0.133,0.527-0.398c-0.065-0.924-0.462-1.747-0.66-2.641l-2.113-0.033
		l-0.761,2.543c0,0.197,0.166,0.363,0.332,0.431c0.065,0.065,0.198,0.032,0.229,0.133c0.034,0.229,0,0.461-0.196,0.562h-7.662
		c-0.197-0.101-0.133-0.363-0.064-0.494c0.262-0.266,0.757-0.199,0.924-0.596c0.1-2.576,0.066-5.22,0.032-7.795
		c-0.066-0.728-1.32-0.23-0.956-1.091c1.353,0,2.345-0.032,3.697-0.032c0.1,0.1,0.133,0.297,0.066,0.43
		c-0.298,0.297-0.824,0.133-0.958,0.627c-0.1,2.443-0.1,4.988-0.032,7.464c0.065,0.298,0.133,0.628,0.462,0.761
		c0.528,0.166,1.188,0.033,1.586-0.396c0.461-0.428,0.526-1.057,0.956-1.486c0.1,0,0.231,0,0.266,0.133
		c0.033,0.596-0.066,1.223-0.166,1.817c0.166,0,0.43-0.033,0.595-0.199l0.329-0.462l2.711-8.885
		C219.551,207.311,219.815,207.939,219.849,208.137L219.849,208.137z"/>
	<path fill="#FFFFFF" d="M208.981,208.731c0,0.66,0.267,1.586-0.195,2.082c-0.232,0.065-0.365-0.166-0.397-0.299
		c-0.229-0.856-0.529-1.815-1.453-2.181c-0.824-0.133-1.519,0.299-2.014,0.924c-1.123,1.355-1.123,3.306-0.926,5.121
		c0.197,1.156,0.693,2.443,1.916,2.974c0.33,0.166,0.761,0.198,1.09,0.101c1.022-0.431,1.156-1.488,1.484-2.312
		c0.066-0.133,0.232-0.166,0.332-0.1c0.396,0.527,0.163,1.354,0.197,2.014c-0.691,1.057-2.048,1.057-3.203,0.959
		c-1.42-0.166-2.809-1.288-3.271-2.678c-0.892-2.146-0.528-4.951,1.188-6.604c1.156-1.023,2.974-1.188,4.426-0.691
		C208.454,208.167,208.785,208.434,208.981,208.731L208.981,208.731z"/>
	<path fill="#FFFFFF" d="M244.981,208.83c-0.065,0.627,0.102,1.321-0.129,1.883c-0.101,0.066-0.232,0.134-0.366,0.066
		c-0.395-0.926-0.659-2.412-1.979-2.479c-1.123,0.066-2.081,1.188-2.347,2.213c-0.43,2.113-0.693,4.953,1.123,6.508
		c0.528,0.33,1.224,0.693,1.851,0.33c1.057-0.496,0.825-1.65,1.453-2.346c0.266,0,0.328,0.231,0.395,0.429
		c-0.097,0.628,0.199,1.454-0.262,1.917c-0.927,0.891-2.479,0.824-3.602,0.527c-1.948-0.562-2.973-2.642-3.07-4.524
		c-0.1-2.015,0.528-3.931,2.245-5.054C241.646,207.576,244.025,207.376,244.981,208.83L244.981,208.83z"/>
	<path fill="#FFFFFF" d="M237.749,208.005c0.199,0.064,0.166,0.328,0.133,0.494c-0.23,0.23-0.595,0.166-0.758,0.527
		c-0.167,2.51-0.066,5.188-0.066,7.764c0.066,0.23,0.196,0.494,0.461,0.562c0.164,0,0.297,0.101,0.396,0.265
		c0,0.166,0,0.329-0.133,0.43h-3.006c-0.165-0.101-0.132-0.33-0.099-0.494c0.198-0.266,0.628-0.199,0.759-0.562
		c0.1-2.576,0.066-5.252,0.032-7.861c-0.032-0.627-1.319-0.396-0.658-1.121h2.938V208.005z"/>
	<path fill="#FFFFFF" d="M228.238,208.533c-0.031,0.66,0.064,1.387-0.099,1.98c-0.034,0.1-0.199,0.066-0.299,0.033
		c-0.297-0.43-0.1-1.09-0.496-1.521c-0.395-0.493-0.989-0.659-1.617-0.594c-0.329,0.133-0.693,0.396-0.856,0.728
		c-0.267,0.528-0.166,1.254,0.163,1.719c1.188,1.551,3.964,2.146,3.602,4.556c-0.066,0.927-0.596,1.751-1.421,2.214
		c-1.024,0.627-2.576,0.527-3.567,0l-0.197-0.297c0-0.794-0.133-1.65,0.1-2.379c0.199-0.1,0.362,0.133,0.396,0.299
		c0.198,0.824,0.266,1.848,1.188,2.246c0.595,0.264,1.322,0.033,1.783-0.398c0.528-0.461,0.662-1.188,0.463-1.848
		c-0.857-1.818-3.303-2.049-3.799-4.098c-0.132-0.989-0.032-2.047,0.827-2.641c0.99-0.562,2.509-0.562,3.632-0.232L228.238,208.533
		L228.238,208.533z"/>
	<path fill="#FFFFFF" d="M233.884,208.5l-0.033,1.98c-0.031,0.1-0.164,0.1-0.296,0.1c-0.363-0.396-0.133-1.09-0.528-1.52
		c-0.429-0.527-1.091-0.76-1.719-0.594c-0.362,0.166-0.692,0.496-0.823,0.857c-0.266,0.694-0.033,1.422,0.527,1.916
		c1.287,1.223,3.765,2.147,3.237,4.393c-0.133,0.828-0.596,1.652-1.39,2.016c-0.99,0.627-2.509,0.494-3.531,0l-0.199-0.264
		c0.033-0.795-0.232-1.719,0.133-2.412c0.296-0.066,0.329,0.266,0.396,0.462c0.133,0.761,0.23,1.587,0.989,2.017
		c0.528,0.33,1.288,0.164,1.783-0.166c0.562-0.396,0.761-1.057,0.662-1.718c-0.562-2.245-3.831-2.278-3.897-4.788
		c0-0.893,0.134-1.783,0.925-2.279c0.859-0.461,1.982-0.43,3.04-0.362C233.422,208.201,233.721,208.235,233.884,208.5L233.884,208.5
		z"/>
	<path fill="#B4B3B4" d="M219.948,213.949h-1.884l0.991-3.203C219.354,211.802,219.65,212.893,219.948,213.949L219.948,213.949z"/>
	<polygon fill="#FFFFFF" points="138.994,208.425 138.244,208.425 138.873,205.612 137.788,205.612 137.922,205.005 
		140.842,205.005 140.707,205.612 139.623,205.612 	"/>
	<path fill="#FFFFFF" d="M140.518,205.891h0.669l-0.098,0.438h0.01c0.203-0.258,0.418-0.504,0.844-0.504
		c0.044,0,0.088,0.004,0.134,0.01l-0.151,0.676c-0.058-0.012-0.132-0.012-0.198-0.012c-0.545,0-0.717,0.326-0.779,0.605l-0.295,1.32
		h-0.699L140.518,205.891L140.518,205.891z"/>
	<path fill="#FFFFFF" d="M143.929,207.93c-0.065,0.301-0.011,0.366,0.066,0.396l-0.021,0.1h-0.755
		c-0.013-0.118-0.015-0.157,0.002-0.301c-0.194,0.158-0.466,0.367-0.941,0.367c-0.398,0-0.763-0.214-0.645-0.738
		c0.111-0.494,0.497-0.748,0.955-0.811l0.648-0.088c0.114-0.016,0.261-0.059,0.291-0.201c0.062-0.281-0.214-0.297-0.395-0.297
		c-0.35,0-0.455,0.205-0.508,0.354h-0.675c0.253-0.775,0.843-0.887,1.388-0.887c0.374,0,1.034,0.11,0.896,0.733L143.929,207.93
		L143.929,207.93z M143.41,207.194c-0.08,0.052-0.205,0.095-0.507,0.138c-0.27,0.043-0.497,0.104-0.559,0.381
		c-0.053,0.232,0.121,0.305,0.257,0.305c0.31,0,0.667-0.191,0.735-0.5L143.41,207.194L143.41,207.194z"/>
	<path fill="#FFFFFF" d="M146.638,208.425h-0.686l0.069-0.318h-0.009c-0.233,0.286-0.566,0.387-0.855,0.387
		c-0.789,0-0.972-0.668-0.815-1.361c0.196-0.877,0.812-1.307,1.396-1.307c0.45,0,0.607,0.233,0.683,0.396h0.009l0.272-1.215h0.698
		L146.638,208.425L146.638,208.425z M145.455,207.945c0.444,0,0.698-0.354,0.782-0.729c0.091-0.403,0.062-0.814-0.418-0.814
		c-0.444,0-0.68,0.379-0.769,0.777C144.985,207.479,145.005,207.945,145.455,207.945L145.455,207.945z"/>
	<path fill="#FFFFFF" d="M149.477,207.682c-0.32,0.61-0.896,0.812-1.351,0.812c-0.751,0-1.25-0.343-1.017-1.388
		c0.067-0.306,0.396-1.28,1.561-1.28c0.523,0,1.198,0.237,0.938,1.396l-0.025,0.12h-1.826c-0.021,0.191-0.077,0.619,0.486,0.619
		c0.194,0,0.416-0.096,0.512-0.277L149.477,207.682L149.477,207.682z M148.958,206.906c0.052-0.41-0.194-0.533-0.42-0.533
		c-0.33,0-0.55,0.199-0.663,0.533H148.958L148.958,206.906z"/>
	<path fill="#FFFFFF" d="M153.373,208.425h-0.699l0.343-1.536c0.085-0.378-0.062-0.502-0.268-0.502
		c-0.352,0-0.524,0.219-0.591,0.521l-0.341,1.52h-0.698l0.339-1.525c0.049-0.213,0.116-0.514-0.305-0.514
		c-0.329,0-0.482,0.219-0.546,0.494l-0.345,1.545h-0.699l0.565-2.535h0.669l-0.082,0.371h0.01c0.127-0.166,0.383-0.438,0.854-0.438
		c0.384,0,0.529,0.133,0.648,0.403c0.119-0.121,0.376-0.403,0.801-0.403c0.521,0,0.859,0.291,0.734,0.848L153.373,208.425
		L153.373,208.425z"/>
	<path fill="#FFFFFF" d="M156.041,207.93c-0.066,0.301-0.012,0.366,0.066,0.396l-0.021,0.1h-0.756
		c-0.014-0.118-0.016-0.157,0.002-0.301c-0.195,0.158-0.467,0.367-0.941,0.367c-0.398,0-0.763-0.214-0.646-0.738
		c0.11-0.494,0.496-0.748,0.957-0.811l0.648-0.088c0.113-0.016,0.258-0.059,0.289-0.201c0.062-0.281-0.214-0.297-0.394-0.297
		c-0.351,0-0.456,0.205-0.51,0.354h-0.675c0.253-0.775,0.844-0.887,1.388-0.887c0.376,0,1.034,0.11,0.896,0.733L156.041,207.93
		L156.041,207.93z M155.52,207.194c-0.08,0.052-0.204,0.095-0.505,0.138c-0.27,0.043-0.498,0.104-0.56,0.381
		c-0.053,0.232,0.122,0.305,0.257,0.305c0.31,0,0.667-0.191,0.734-0.5L155.52,207.194L155.52,207.194z"/>
	<path fill="#FFFFFF" d="M156.88,205.891h0.669l-0.098,0.438h0.01c0.201-0.258,0.417-0.504,0.843-0.504
		c0.045,0,0.089,0.004,0.133,0.01l-0.149,0.676c-0.06-0.012-0.134-0.012-0.199-0.012c-0.544,0-0.717,0.326-0.778,0.605l-0.295,1.32
		h-0.7L156.88,205.891L156.88,205.891z"/>
	<polygon fill="#FFFFFF" points="158.747,208.425 158.046,208.425 158.811,205.005 159.51,205.005 159.097,206.856 160.194,205.891 
		161.053,205.891 159.892,206.873 160.512,208.425 159.672,208.425 159.279,207.339 158.924,207.625 	"/>
	<path fill="#FFFFFF" d="M162.468,206.664c0.006-0.164-0.016-0.334-0.396-0.334c-0.379,0-0.459,0.137-0.482,0.248
		c-0.09,0.398,1.64,0.109,1.431,1.043c-0.164,0.738-0.944,0.871-1.358,0.871c-0.604,0-1.216-0.199-1.083-0.877h0.719
		c-0.048,0.215,0.057,0.373,0.497,0.373c0.36,0,0.481-0.168,0.504-0.264c0.095-0.422-1.627-0.104-1.416-1.053
		c0.083-0.371,0.437-0.848,1.264-0.848c0.521,0,1.113,0.125,1.011,0.84H162.468L162.468,206.664z"/>
	<path fill="#FFFFFF" d="M165,207.682h-0.436l0.434-1.938h0.76c0.525,0,0.803,0.144,0.703,0.586
		c-0.079,0.357-0.327,0.485-0.604,0.504l0.332,0.849h-0.516l-0.288-0.813h-0.205L165,207.682L165,207.682z M165.64,206.541
		c0.194,0,0.317-0.041,0.366-0.254c0.045-0.201-0.178-0.215-0.344-0.215h-0.305l-0.104,0.469H165.64L165.64,206.541z
		 M165.128,208.517c-1.005,0-1.752-0.663-1.498-1.801c0.255-1.141,1.297-1.801,2.302-1.801c1,0,1.747,0.66,1.492,1.801
		C167.171,207.854,166.128,208.517,165.128,208.517l0.71-3.184c-0.749,0-1.479,0.554-1.663,1.383
		c-0.184,0.828,0.297,1.386,1.047,1.38l-0.001,0.006c0.729,0,1.474-0.558,1.657-1.386c0.188-0.829-0.311-1.383-1.04-1.383
		L165.128,208.517L165.128,208.517z"/>
</g>
</svg>
