<?xml version="1.0" encoding="utf-8"?>
<!-- Generator: Adobe Illustrator 15.0.0, SVG Export Plug-In . SVG Version: 6.00 Build 0)  -->
<!DOCTYPE svg PUBLIC "-//W3C//DTD SVG 1.1//EN" "http://www.w3.org/Graphics/SVG/1.1/DTD/svg11.dtd">
<svg version="1.1" id="Layer_1" xmlns="http://www.w3.org/2000/svg" xmlns:xlink="http://www.w3.org/1999/xlink" x="0px" y="0px"
	 width="90.883px" height="134.759px" viewBox="155.452 123.755 90.883 134.759"
	 enable-background="new 155.452 123.755 90.883 134.759" xml:space="preserve">
<g>
	<g>
		<path fill="#B4B3B4" d="M237.196,201.289c-0.008,0.039,0.009,0.066,0.046,0.066h0.104c0.021,0,0.045-0.021,0.047-0.037
			l0.228-1.381h0.01l0.483,1.416c0.007,0.014,0.029,0.026,0.044,0.026h0.047c0.018,0,0.039-0.014,0.045-0.026l0.479-1.416h0.008
			l0.234,1.381c0.004,0.018,0.027,0.037,0.047,0.037h0.104c0.037,0,0.055-0.027,0.047-0.066l-0.336-1.799
			c-0.004-0.021-0.025-0.035-0.047-0.035h-0.039c-0.021,0-0.039,0.014-0.047,0.029l-0.507,1.475h-0.012l-0.516-1.475
			c-0.004-0.017-0.027-0.029-0.045-0.029h-0.041c-0.021,0-0.041,0.014-0.05,0.035L237.196,201.289z M236.377,201.305
			c0,0.027,0.022,0.051,0.047,0.051h0.1c0.027,0,0.05-0.022,0.05-0.051v-1.645h0.452c0.027,0,0.05-0.025,0.05-0.051v-0.078
			c0-0.025-0.021-0.051-0.05-0.051h-1.104c-0.027,0-0.049,0.024-0.049,0.051v0.078c0,0.024,0.021,0.051,0.049,0.051h0.455V201.305z
			 M199.245,192.281c8.125,0,15.565-4.586,19.409-11.963l-8.053-4.455c-2.26,4.313-6.606,7-11.356,7
			c-7.101,0-12.879-5.947-12.879-13.258c0-7.31,5.778-13.26,12.879-13.26c4.651,0,8.973,2.604,11.248,6.797l7.979-4.593
			c-3.891-7.172-11.26-11.62-19.229-11.62c-12.146,0-22.029,10.168-22.029,22.674S187.098,192.281,199.245,192.281 M199.313,215.453
			c24.549,0,44.523-20.566,44.523-45.848s-19.976-45.851-44.523-45.851c-16.158,0-31.08,9.042-38.938,23.601l7.994,4.572
			c6.246-11.564,18.102-18.757,30.942-18.757c19.506,0,35.379,16.347,35.379,36.435s-15.873,36.427-35.379,36.427
			c-12.998,0-24.932-7.318-31.135-19.107l-8.039,4.49C167.942,206.24,182.95,215.453,199.313,215.453 M163.079,245.779
			c0-0.186-0.146-0.35-0.347-0.35h-6.727c-0.197,0-0.334,0.164-0.334,0.35v2.007c0,0.18,0.137,0.35,0.334,0.35h4.26v9.843
			c0,0.182,0.162,0.346,0.338,0.346h2.129c0.199,0,0.347-0.164,0.347-0.346V245.779L163.079,245.779z M173.797,249.848l-1.348,3.043
			h-0.017l-1.363-3.043H173.797z M178.426,245.91c0.104-0.244-0.035-0.48-0.307-0.48h-1.97c-0.356,0-0.553,0.213-0.643,0.438
			l-0.646,1.473H170l-0.646-1.45c-0.164-0.354-0.305-0.459-0.627-0.459h-1.985c-0.269,0-0.408,0.235-0.306,0.479l5.604,12.397
			c0.053,0.105,0.18,0.205,0.299,0.205h0.178c0.123,0,0.256-0.1,0.31-0.205L178.426,245.91z M188.038,252.816v2.867h-2.644
			c-0.74,0-1.362-0.615-1.362-1.395c0-0.771,0.622-1.473,1.362-1.473H188.038L188.038,252.816z M190.866,245.779
			c0-0.186-0.142-0.35-0.339-0.35h-2.133c-0.174,0-0.342,0.164-0.342,0.35v4.701h-1.232l-2.377-4.887
			c-0.039-0.074-0.145-0.164-0.284-0.164h-2.386c-0.303,0-0.426,0.287-0.303,0.535l2.449,4.676
			c-1.558,0.646-2.639,2.014-2.639,3.701c0,2.195,1.747,3.98,3.896,3.98h5.35c0.197,0,0.339-0.164,0.339-0.342L190.866,245.779
			L190.866,245.779z M200.467,245.777c0-0.184-0.16-0.352-0.34-0.352h-2.146c-0.178,0-0.342,0.168-0.342,0.352v9.845h-2.559
			c-0.197,0-0.334,0.162-0.334,0.344v2.017c0,0.178,0.137,0.342,0.334,0.342h7.946c0.193,0,0.341-0.164,0.341-0.342v-2.017
			c0-0.182-0.146-0.344-0.341-0.344h-2.561L200.467,245.777L200.467,245.777z M218.235,245.779c0-0.186-0.166-0.35-0.34-0.35h-2.129
			c-0.197,0-0.338,0.164-0.338,0.35v6.878h-0.021l-7.07-7.322c-0.039-0.035-0.174-0.092-0.232-0.092h-0.287
			c-0.174,0-0.334,0.146-0.334,0.334v12.403c0,0.179,0.16,0.343,0.334,0.343h2.15c0.201,0,0.34-0.164,0.34-0.343v-6.541h0.017
			l7.145,7.074h0.449c0.176,0,0.332-0.147,0.332-0.332L218.235,245.779z M231.047,245.779c0-0.186-0.144-0.35-0.34-0.35h-7.404
			c-0.195,0-0.34,0.164-0.34,0.35v2.007c0,0.18,0.145,0.353,0.34,0.353h4.955v2.485h-4.078c-0.18,0-0.342,0.146-0.342,0.351v2.014
			c0,0.182,0.162,0.342,0.342,0.342h4.078v2.293h-4.955c-0.195,0-0.34,0.162-0.34,0.342v2.018c0,0.179,0.145,0.343,0.34,0.343h7.404
			c0.196,0,0.34-0.164,0.34-0.343V245.779z M239.874,258.514c3.574,0,6.461-2.967,6.461-6.654c0-3.687-2.887-6.616-6.461-6.616
			c-1.59,0-3.127,0.571-4.349,1.789c-0.118,0.122-0.143,0.362-0.018,0.497l1.393,1.533c0.113,0.123,0.343,0.123,0.468,0.019
			c0.646-0.572,1.561-0.888,2.407-0.888c2.017,0,3.519,1.693,3.519,3.742c0,2.062-1.484,3.793-3.512,3.793
			c-0.878,0-1.753-0.332-2.414-0.938c-0.125-0.129-0.322-0.129-0.447,0l-1.396,1.49c-0.143,0.146-0.143,0.369,0.017,0.514
			C236.762,257.939,238.079,258.514,239.874,258.514 M239.077,240.289c0,0.197,0.145,0.369,0.354,0.369h2.219
			c0.189,0,0.357-0.172,0.357-0.369v-6.135l4.188-6.402c0.15-0.254,0-0.562-0.301-0.562h-2.43c-0.17,0-0.238,0.099-0.299,0.172
			l-2.592,3.945l-2.605-3.945c-0.051-0.079-0.145-0.172-0.293-0.172h-2.43c-0.302,0-0.451,0.31-0.302,0.562l4.132,6.42
			L239.077,240.289L239.077,240.289z M223.672,237.812v-7.797h1.793c2.111,0,3.645,1.719,3.645,3.892
			c0,2.188-1.532,3.905-3.645,3.905H223.672L223.672,237.812z M220.762,240.293c0,0.193,0.146,0.365,0.334,0.365h4.559
			c3.603,0,6.558-3.021,6.558-6.752c0-3.693-2.955-6.717-6.558-6.717h-4.559c-0.188,0-0.334,0.172-0.334,0.362V240.293z
			 M207.377,240.293c0,0.193,0.146,0.365,0.354,0.365h7.732c0.199,0,0.356-0.172,0.356-0.365v-2.098
			c0-0.189-0.157-0.363-0.356-0.363h-5.172v-2.6h4.262c0.182,0,0.346-0.15,0.346-0.363v-2.102c0-0.187-0.164-0.361-0.346-0.361
			h-4.262v-2.391h5.172c0.199,0,0.356-0.168,0.356-0.359v-2.105c0-0.189-0.157-0.361-0.356-0.361h-7.732
			c-0.209,0-0.354,0.172-0.354,0.361V240.293z M187.715,240.234c-0.035,0.252,0.129,0.425,0.348,0.425h2.207
			c0.193,0,0.342-0.154,0.355-0.304l0.824-5.951h0.032l3.168,6.238c0.056,0.111,0.199,0.213,0.314,0.213h0.332
			c0.096,0,0.27-0.102,0.32-0.213l3.141-6.238h0.037l0.844,5.951c0.016,0.148,0.18,0.304,0.353,0.304h2.204
			c0.222,0,0.394-0.173,0.354-0.425l-2.109-12.93c-0.018-0.176-0.186-0.309-0.338-0.309h-0.297c-0.1,0-0.262,0.074-0.318,0.193
			l-4.336,8.317h-0.036l-4.337-8.317c-0.057-0.119-0.223-0.193-0.313-0.193h-0.305c-0.146,0-0.32,0.133-0.332,0.309L187.715,240.234
			z M177.114,237.771c-2.038,0-3.719-1.731-3.719-3.823c0-2.117,1.681-3.867,3.719-3.867c2.056,0,3.73,1.75,3.73,3.867
			C180.844,236.039,179.168,237.771,177.114,237.771 M177.114,226.996c-3.729,0-6.706,3.096-6.706,6.951
			c0,3.85,2.977,6.908,6.706,6.908c3.73,0,6.728-3.06,6.728-6.908C183.84,230.092,180.844,226.996,177.114,226.996 M162.2,226.996
			c1.868,0,3.25,0.6,4.521,1.789c0.164,0.158,0.164,0.385,0.016,0.539l-1.454,1.561c-0.13,0.133-0.341,0.133-0.468,0
			c-0.688-0.639-1.604-0.979-2.521-0.979c-2.115,0-3.666,1.803-3.666,3.963c0,2.131,1.567,3.903,3.686,3.903
			c0.873,0,1.828-0.321,2.502-0.924c0.127-0.111,0.373-0.111,0.484,0.021l1.455,1.596c0.131,0.146,0.111,0.39-0.019,0.519
			c-1.271,1.274-2.875,1.875-4.536,1.875c-3.74,0-6.748-3.064-6.748-6.908C155.452,230.092,158.459,226.996,162.2,226.996"/>
	</g>
</g>
</svg>
