<?xml version="1.0" encoding="utf-8"?>
<!-- Generator: Adobe Illustrator 15.0.0, SVG Export Plug-In . SVG Version: 6.00 Build 0)  -->
<!DOCTYPE svg PUBLIC "-//W3C//DTD SVG 1.1//EN" "http://www.w3.org/Graphics/SVG/1.1/DTD/svg11.dtd">
<svg version="1.1" id="Layer_1" xmlns="http://www.w3.org/2000/svg" xmlns:xlink="http://www.w3.org/1999/xlink" x="0px" y="0px"
	 width="196.577px" height="82.417px" viewBox="130.057 150.61 196.577 82.417"
	 enable-background="new 130.057 150.61 196.577 82.417" xml:space="preserve">
<g>
	<path id="coke_R" fill="#B4B3B4" d="M324.121,228.336c-0.108-0.049-0.265-0.065-0.465-0.065h-0.197v0.894h0.312
		c0.186,0,0.333-0.043,0.442-0.117c0.102-0.074,0.154-0.193,0.154-0.361C324.369,228.519,324.287,228.398,324.121,228.336
		 M322.656,230.795v-3.065c0.193,0,0.473,0.004,0.854,0.004s0.59,0.004,0.629,0.004c0.25,0.021,0.446,0.07,0.608,0.158
		c0.274,0.153,0.41,0.394,0.41,0.731c0,0.261-0.074,0.443-0.218,0.56c-0.145,0.112-0.323,0.183-0.528,0.205
		c0.19,0.042,0.336,0.103,0.435,0.176c0.18,0.147,0.27,0.373,0.27,0.687v0.277c0,0.031,0,0.059,0.004,0.09
		c0.004,0.029,0.012,0.062,0.021,0.09l0.03,0.084h-0.764c-0.027-0.094-0.043-0.234-0.051-0.422
		c-0.009-0.184-0.029-0.312-0.054-0.375c-0.04-0.108-0.111-0.187-0.223-0.228c-0.062-0.024-0.155-0.042-0.276-0.049l-0.179-0.013
		h-0.166v1.086H322.656z M322.246,227.657c-0.44,0.45-0.66,0.982-0.66,1.602c0,0.641,0.225,1.185,0.67,1.631
		c0.447,0.451,0.982,0.674,1.615,0.674c0.625,0,1.162-0.223,1.604-0.676c0.445-0.452,0.667-0.995,0.667-1.627
		c0-0.616-0.222-1.148-0.664-1.604c-0.441-0.459-0.982-0.691-1.607-0.691C323.234,226.965,322.695,227.198,322.246,227.657
		 M325.806,231.241c-0.539,0.521-1.186,0.781-1.934,0.781c-0.781,0-1.434-0.264-1.967-0.801c-0.531-0.528-0.799-1.184-0.799-1.965
		c0-0.809,0.285-1.479,0.86-2.014c0.541-0.5,1.174-0.754,1.904-0.754c0.762,0,1.416,0.274,1.955,0.812
		c0.539,0.544,0.808,1.191,0.808,1.953C326.634,230.045,326.361,230.706,325.806,231.241"/>
	<path fill="#B4B3B4" d="M301.001,188.788c5.136,0.008,6.297,6.336,6.285,10.656c0,8.953-13.777,9.391-14.416,9.391
		C292.887,194.274,297.333,188.792,301.001,188.788 M198.259,208.301c0-3.547-0.098-19.854,9.941-19.854
		c8.774,0.004,9.271,13.987,9.26,20.369c0,6.376-0.813,20.355-9.787,20.355C198.445,229.167,198.259,214.077,198.259,208.301
		 M237.186,175.262c0,1.777-0.031,56.035-0.031,56.035l14.549,0.01l0.012-17.145l2.189-2.844c0,0,5.188,9.012,8.299,13.907
		c3.107,4.886,6.969,7.417,13.584,7.423c6.133,0,10.896-3.635,10.896-3.635s4.883,3.689,14.121,3.695
		c16.069,0.006,20.296-12.338,20.827-13.979c0,0-6.264,7.191-16.698,7.178c-10.441-0.004-11.22-10.619-11.765-13.189
		c6.222-0.799,28.351-2.477,28.354-15.801c0.009-9.549-9.557-11.772-17.633-11.776c-15.748-0.009-26.602,10.437-26.615,24.685
		c0,10.215,4.431,14.652,5.814,16.168c-2.668,0.854-4.354,0.373-8.854-6.045c-2.301-3.296-10.819-17.24-10.819-17.24l15.64-18.115
		h-18.65c0.713,0,4.838,2.514,4.834,5.166c0.004,0.91-0.324,1.385-0.98,2.152c-0.654,0.766-12.551,14.66-12.551,14.66l0.02-38.523
		l-20.387-0.012C231.341,168.036,237.186,168.887,237.186,175.262 M186.439,222.178c2.485,3.867,8.627,10.52,21.342,10.529
		c17.602,0.004,26.482-11.272,26.486-24.203c0.016-12.918-8.375-23.531-25.431-23.537c-13.024-0.014-25.978,7.427-25.987,23.964
		c0,1.588,0.188,3.377,0.438,4.747c0.142,0.8,0.532,2.271,0.933,3.582c-2.959,3.904-8.65,9.557-17.007,9.554
		c-11.504-0.01-19.719-8.229-19.715-27.86c0.015-19.627,7.708-29.877,18.058-29.871c13.231,0.006,19.133,15.278,20.108,17.551
		l1.383-18.605c-5.5,1.014-11.323-3.15-22.073-3.172c-20.18-0.012-34.91,15.359-34.918,35.195
		c-0.023,19.746,13.375,32.973,32.666,32.976C176.145,233.032,183.303,226.187,186.439,222.178"/>
	<path fill="#B4B3B4" d="M305.248,168.17c-0.746,0.836-1.562,1.965-2.209,3.297c0,0,3.775-0.963,5.838-3.586
		c0.463-0.59,1.247-1.662,0.727-2.303C309.433,165.372,308.336,164.709,305.248,168.17 M296.83,175.842
		c-1.491,1.527-3.029,2.91-4.809,3.851c-1.457,0.63-3.299,1.282-4.709,0.14c-0.685-0.629-0.746-1.687-0.502-2.562
		c0.271-0.916,0.75-1.771,1.205-2.607c0,0,6.067-11.129,6.131-11.244c0.069-0.121,0.17-0.114,0.17-0.114
		c1.096,0,4.344-0.007,4.472-0.007c0.116,0,0.026,0.205,0.065,0.127c0.039-0.077-2.109,3.951-2.109,3.951s-4.561,8.443-4.746,8.799
		c-0.467,0.873-0.047,1.543,1.262,0.716c1.598-1.011,2.463-2.052,3.43-3.322c1.291-1.685,1.996-3.942,4.225-6.297
		c2.164-2.299,3.902-3.375,5.737-4.019c2.104-0.737,4.459-0.213,5.032,1.334c0.498,1.34-0.233,3.197-1.188,4.297
		c-2.253,2.576-5.29,3.988-8.465,4.701c-0.555,0.771-1.434,3.914,1.41,3.851c1.584-0.039,2.905-0.918,4.334-1.854
		c2.472-1.748,4.748-3.951,6.368-6.453c0.765-1.366,1.601-2.746,2.283-4.133h-2.776c0,0,0.981-1.69,0.985-1.69h2.743l3.065-5.377
		l4.512,0.009c0,0.02-2.577,4.884-2.836,5.368c0.649-0.011,3.461-0.007,3.461-0.007l-0.843,1.693l-3.543,0.004l-0.455,0.733
		c0,0-3.753,6.962-5.081,9.342c-1.094,1.958-0.269,2.272,0.536,1.933c1.088-0.459,2.449-1.93,2.924-2.4
		c0.832-0.953,1.64-1.911,2.323-2.91c0.634-0.012,1.5-0.012,1.768,0c-2.136,3.521-5.419,7.553-9.566,8.655
		c-1.12,0.183-2.481,0.202-3.275-0.653c-0.766-0.796-0.718-2.115-0.333-3.072c0.128-0.314,0.274-0.67,0.337-0.802
		c0.069-0.127-0.004-0.19-0.14-0.067c-2.548,2.389-5.688,4.688-9.133,4.72c-1.402,0.009-3.012-0.604-3.709-1.978
		C296.691,177.118,296.857,176.2,296.83,175.842"/>
	<path fill="#B4B3B4" d="M298.039,156.665c-1.361,0.771-1.986,2.236-1.363,3.336c0.617,1.104,2.305,1.274,3.58,0.523
		c1.256-0.732,1.965-2.21,1.346-3.312C300.982,156.112,299.402,155.899,298.039,156.665"/>
	<path fill="#B4B3B4" d="M280.044,155.562c-0.313,0.468-0.621,1.038-1.194,2.161c-0.572,1.121-1.722,4.386-2.666,6.65
		c-1.638,3.928-4.078,7.442-7.06,9.944c-2.472,2.086-3.769,2.976-5.787,3.69c0,0,0.757,0.275,2.494,0.348
		c6.649,0.289,12.258-2.686,15.418-7.131c2.924-4.122,5.03-9.691,1.662-14.73c-3.177-4.729-17.07-6.636-24.599-0.145
		c-4.141,3.574-2.696,8.961,3.166,6.693c1.041-0.459,1.984-1.244,2.363-1.955c3.369,1.236,7.406-1.387,7.406-1.387
		s-2.871,6.422-9.842,7.35c-7.135,0.945-9.135-2.77-9.043-5.391c0.676-8.754,17.889-13.861,28.145-9.414
		c8.418,3.655,10.201,10.086,8.484,15.213c-2.529,7.562-8.986,10.801-15.107,12.125c-6.611,1.438-12.004,0.14-13.779-0.308
		c-0.748-0.198-1.106-0.429-1.106-0.429s2.349-1.624,4.597-4.35c1.891-2.293,3.86-5.098,5.271-7.504
		C272.087,161.459,276.371,157.066,280.044,155.562"/>
</g>
</svg>
