<?xml version="1.0" encoding="utf-8"?>
<!-- Generator: Adobe Illustrator 15.0.0, SVG Export Plug-In . SVG Version: 6.00 Build 0)  -->
<!DOCTYPE svg PUBLIC "-//W3C//DTD SVG 1.1//EN" "http://www.w3.org/Graphics/SVG/1.1/DTD/svg11.dtd">
<svg version="1.1" id="Layer_1" xmlns="http://www.w3.org/2000/svg" xmlns:xlink="http://www.w3.org/1999/xlink" x="0px" y="0px"
	 width="199.613px" height="18.947px" viewBox="0 0 199.613 18.947" enable-background="new 0 0 199.613 18.947"
	 xml:space="preserve">
<path fill="#B4B3B4" d="M15.755,9.475C15.755,4.242,20.257,0,25.81,0c5.554,0,10.055,4.24,10.055,9.475
	c0,5.23-4.501,9.473-10.055,9.473C20.257,18.947,15.755,14.707,15.755,9.475 M18.577,9.475c0-3.873,3.238-7.011,7.232-7.011
	s7.232,3.138,7.232,7.011c0,3.871-3.238,7.01-7.232,7.01S18.577,13.346,18.577,9.475"/>
<polygon fill="#B4B3B4" points="36.592,18.947 36.592,0.916 39.292,0.916 39.292,16.699 44.459,16.699 44.459,18.947 "/>
<g>
	<path fill="#B4B3B4" d="M0,0.76h5.383c5.834,0,9.569,3.966,9.569,9.117c0,4.158-2.7,8.914-9.301,8.914H0V0.76z M2.942,3.078v13.457
		h3.056c3.44,0,6.044-3.002,6.044-6.695c0-3.44-2.457-6.762-6.337-6.762H2.942z"/>
</g>
<polygon fill="#B4B3B4" points="68.834,18.947 68.834,16.699 62.373,16.699 62.373,10.627 68.656,10.627 68.656,8.416 62.373,8.416 
	62.373,3.233 68.834,3.233 68.834,0.916 59.487,0.916 59.487,18.947 "/>
<path fill="#B4B3B4" d="M108.402,11.586h5.075l-2.539-6.319L108.402,11.586z M119.346,18.947l-7.541-18.031h-1.733l-7.542,18.031
	h2.915l2.043-5.082h6.904l2.041,5.082H119.346z"/>
<polygon fill="#B4B3B4" points="162.297,18.947 154.755,0.916 153.021,0.916 145.48,18.947 148.394,18.947 150.437,13.865 
	157.341,13.865 159.382,18.947 "/>
<polygon fill="#FFFFFF" points="151.353,11.117 156.428,11.117 153.887,4.797 "/>
<polygon fill="#B4B3B4" points="188.666,10.117 193.742,10.117 191.202,3.797 "/>
<polygon fill="#FFFFFF" points="108.401,11.117 113.477,11.117 110.937,4.797 "/>
<path fill="#B4B3B4" d="M188.664,11.543h5.078l-2.541-6.321L188.664,11.543z M199.614,18.793l-7.543-18.032h-1.733l-7.542,18.032
	h2.912l2.046-5.082h6.905l2.039,5.082H199.614z"/>
<g>
	<path fill="#B4B3B4" d="M95.321,9.334h8.764v0.142c0,6.263-3.113,9.474-9.158,9.474c-5.554,0-10.056-4.242-10.056-9.474
		C84.87,4.242,89.372,0,94.926,0c3.646,0,6.793,1.863,8.271,4.564l-2.189,1.114c-1.303-1.935-3.53-3.215-6.082-3.215
		c-3.996,0-7.231,3.138-7.231,7.011c0,3.871,3.236,7.01,7.231,7.01c3.246,0,6.17-1.84,6.17-4.926h-5.774L95.321,9.334L95.321,9.334z
		"/>
</g>
<polygon fill="#B4B3B4" points="165.97,5.828 165.97,18.947 163.299,18.947 163.299,0.916 165.047,0.916 177.705,14.357 
	177.705,0.916 180.281,0.916 180.281,18.947 178.41,18.947 "/>
<path fill="#B4B3B4" d="M58.72,17.183c-1.611,1.112-3.588,1.765-5.724,1.765c-6.367,0-9.843-4.24-9.843-9.473S46.66,0,52.996,0
	c2.131,0,4.098,0.65,5.724,1.76v2.676c-1.366-1.221-3.203-1.972-5.232-1.972c-4.148,0-7.513,3.138-7.513,7.011
	c0,3.871,3.363,7.01,7.513,7.01c2.035,0,3.864-0.756,5.232-1.979V17.183z"/>
<path fill="#B4B3B4" d="M127.542,5.846c0-1.922-1.146-2.612-2.766-2.612h-2.273v5.332h1.99
	C125.807,8.565,127.542,7.768,127.542,5.846 M129.112,13.761c0-2.193-1.502-2.979-3.627-2.979h-2.981v6.084h2.981
	C127.206,16.865,129.112,15.955,129.112,13.761 M130.38,5.728c0-3.187-1.899-4.812-6.377-4.812h-4.455v18.031h6.119
	c2.484,0,6.399-0.765,6.399-5.082c0-3.636-3.729-4.644-3.729-4.644S130.38,8.025,130.38,5.728"/>
<path fill="#B4B3B4" d="M141.241,5.846c0-1.922-1.146-2.612-2.766-2.612h-2.273v5.332h1.99
	C139.503,8.565,141.241,7.768,141.241,5.846 M142.812,13.761c0-2.193-1.502-2.979-3.627-2.979h-2.981v6.084h2.981
	C140.906,16.865,142.812,15.955,142.812,13.761 M144.077,5.728c0-3.187-1.897-4.812-6.377-4.812h-4.455v18.031h6.119
	c2.485,0,6.401-0.765,6.401-5.082c0-3.636-3.729-4.644-3.729-4.644S144.077,8.025,144.077,5.728"/>
<path fill="#B4B3B4" d="M76.778,12.63c0.584-0.312,1.008-0.653,1.008-1.203c0-0.19-0.109-0.853-0.89-0.853
	c-0.987,0-0.999,1.018-0.589,1.508L76.778,12.63z M76.364,14.277c-0.758,0.44-1.371,0.926-1.371,1.732
	c0,0.892,0.752,1.336,1.467,1.336c0.629,0,1.263-0.335,1.834-0.785l-1.577-1.871C76.593,14.543,76.476,14.406,76.364,14.277
	 M77.599,13.589l1.719,1.995c0.648-0.721,1.075-1.392,1.075-1.392l1.003,1.003c0,0-0.453,0.67-1.183,1.426l1.607,1.857h-1.912
	l-0.754-0.9c-0.812,0.631-1.771,1.138-2.77,1.138c-1.84,0-2.886-1.267-2.886-2.673c0-1.524,0.959-2.25,1.976-2.775
	c-0.59-0.689-0.859-1.127-0.859-1.887c0-1.167,0.887-2.072,2.262-2.072s2.314,0.729,2.314,1.993
	C79.192,12.434,78.439,13.072,77.599,13.589"/>
<path fill="#FFFFFF" d="M18.577,9.464c0-3.872,3.238-7.011,7.232-7.011s7.232,3.139,7.232,7.011c0,3.87-3.238,7.011-7.232,7.011
	C21.816,16.474,18.577,13.334,18.577,9.464"/>
<path fill="#FFFFFF" d="M140.574,5.572c0-1.922-1.146-2.611-2.765-2.611h-2.274v5.332h1.99
	C138.837,8.293,140.574,7.494,140.574,5.572 M142.145,13.488c0-2.193-1.502-2.979-3.627-2.979h-2.981v6.084h2.981
	C140.24,16.592,142.145,15.682,142.145,13.488"/>
<path fill="#FFFFFF" d="M127.241,5.572c0-1.922-1.146-2.611-2.766-2.611h-2.273v5.332h1.99
	C125.504,8.293,127.241,7.494,127.241,5.572 M128.813,13.488c0-2.193-1.502-2.979-3.627-2.979h-2.982v6.084h2.982
	C126.906,16.592,128.813,15.682,128.813,13.488"/>
<polygon fill="#FFFFFF" points="188.666,10.951 193.742,10.951 191.201,4.631 "/>
</svg>
