<?xml version="1.0" encoding="utf-8"?>
<!-- Generator: Adobe Illustrator 15.0.0, SVG Export Plug-In . SVG Version: 6.00 Build 0)  -->
<!DOCTYPE svg PUBLIC "-//W3C//DTD SVG 1.1//EN" "http://www.w3.org/Graphics/SVG/1.1/DTD/svg11.dtd">
<svg version="1.1" id="Layer_1" xmlns="http://www.w3.org/2000/svg" xmlns:xlink="http://www.w3.org/1999/xlink" x="0px" y="0px"
	 width="296.456px" height="295.946px" viewBox="1.272 0 296.456 295.946" enable-background="new 1.272 0 296.456 295.946"
	 xml:space="preserve">
<path fill="#EA1274" d="M149.756,0C68.032,0,1.782,66.25,1.782,147.973s66.25,147.973,147.974,147.973
	c81.723,0,147.973-66.25,147.973-147.973S231.479,0,149.756,0 M149.756,257.488c-60.393,0-109.516-49.125-109.516-109.515
	c0-60.39,49.123-109.515,109.516-109.515c60.392,0,109.515,49.125,109.515,109.515C259.271,208.363,210.147,257.488,149.756,257.488
	"/>
<polygon fill="#EA1274" points="175.396,71.058 124.114,71.058 124.114,147.973 85.659,147.973 149.756,224.889 213.851,147.973 
	175.396,147.973 "/>
</svg>
