<?xml version="1.0" encoding="utf-8"?>
<!-- Generator: Adobe Illustrator 15.0.0, SVG Export Plug-In . SVG Version: 6.00 Build 0)  -->
<!DOCTYPE svg PUBLIC "-//W3C//DTD SVG 1.1//EN" "http://www.w3.org/Graphics/SVG/1.1/DTD/svg11.dtd">
<svg version="1.1" id="Layer_1" xmlns="http://www.w3.org/2000/svg" xmlns:xlink="http://www.w3.org/1999/xlink" x="0px" y="0px"
	 width="201.422px" height="76.595px" viewBox="110.345 119.484 201.422 76.595"
	 enable-background="new 110.345 119.484 201.422 76.595" xml:space="preserve">
<g>
	<g>
		<defs>
			<rect id="SVGID_1_" x="110.345" y="119.484" width="201.422" height="76.594"/>
		</defs>
		<clipPath id="SVGID_2_">
			<use xlink:href="#SVGID_1_"  overflow="visible"/>
		</clipPath>
		<path clip-path="url(#SVGID_2_)" fill="#231F20" d="M135.044,136.394c-23.887-0.004-24.814,18.592-24.691,23.417
			c0,0-1.17,21.741,24.105,21.741c21.723,0,22.791-13.643,22.791-13.643l-9.994,0.02c0,0-1.945,7.517-12.754,7.315
			c-13.895-0.259-14.436-13.723-14.436-13.723h38.498C158.564,161.522,161.484,136.399,135.044,136.394 M120.386,154.93
			c0,0,0.684-12.175,14.424-12.179c13.688-0.003,13.688,12.179,13.688,12.179H120.386z"/>
	</g>
	<g>
		<path fill="#231F20" d="M185.3,137.394c-12.012-0.066-17.176,7.114-17.176,7.114v-24.023h-9.629l0.162,50.769
			c0,0-0.057,5.913-0.42,9.824h9.35l0.402-5.706c0,0,4.361,7.181,17.109,7.181c12.752,0,22.814-7.853,23.084-22.411
			C208.451,145.581,197.314,137.462,185.3,137.394 M183.095,176.06c-15.168,0.19-14.922-16.086-14.922-16.086
			s-0.551-15.668,14.898-16.073c15.447-0.399,14.945,16.407,14.945,16.407S198.263,175.868,183.095,176.06"/>
		<path fill="#231F20" d="M252.669,171.054c0.023-6.568,0.215-12.434,0-16.569c-0.254-4.794,0.201-16.37-20.533-17.227
			c0,0-19.879-1.81-21.943,12.984h10.17c0,0,0.789-6.778,11.104-6.583c9.762,0.185,11.539,4.974,11.49,10.861
			c0,0-8.367,0.025-11.158,0.038c-5.033,0.024-22.643,0.583-24.287,11.31c-1.955,12.755,9.428,16.732,18.334,16.684
			c8.908-0.052,13.99-2.719,17.766-7.499l0.402,5.938l8.857-0.052C252.871,180.939,252.644,177.62,252.669,171.054 M227.505,176.412
			c0,0-9.648,0.01-10.215-7.7c-0.604-8.229,14.846-7.734,14.846-7.734l10.918-0.011
			C243.054,160.967,244.822,176.638,227.505,176.412"/>
	</g>
	<polygon fill="#231F20" points="290.648,136.196 273.765,169.786 256.917,136.196 245.4,136.196 268.265,179.437 259.445,196.078 
		270.582,196.078 301.06,136.196 	"/>
	<path fill="#62737C" d="M304.958,139.597v-1.241h-0.383v-0.464h0.383v-0.648h0.691v0.648h0.814v0.464h-0.814v1.154
		c0,0.211,0.137,0.294,0.373,0.294c0.154,0,0.293-0.026,0.43-0.078v0.44c-0.172,0.077-0.359,0.12-0.623,0.12
		C305.318,140.286,304.958,140.113,304.958,139.597"/>
	<path fill="#62737C" d="M307.167,137.892h0.693v0.355c0.197-0.209,0.459-0.404,0.924-0.404c0.434,0,0.742,0.163,0.904,0.415
		c0.24-0.252,0.561-0.415,1.02-0.415c0.656,0,1.059,0.324,1.059,0.899v1.505h-0.693v-1.34c0-0.375-0.221-0.577-0.611-0.577
		c-0.379,0-0.648,0.208-0.648,0.586v1.331h-0.691v-1.344c0-0.365-0.23-0.573-0.611-0.573c-0.385,0-0.65,0.226-0.65,0.586v1.331
		h-0.693V137.892z"/>
</g>
</svg>
