<?xml version="1.0" encoding="utf-8"?>
<!-- Generator: Adobe Illustrator 15.0.0, SVG Export Plug-In . SVG Version: 6.00 Build 0)  -->
<!DOCTYPE svg PUBLIC "-//W3C//DTD SVG 1.1//EN" "http://www.w3.org/Graphics/SVG/1.1/DTD/svg11.dtd">
<svg version="1.1" id="Layer_1" xmlns="http://www.w3.org/2000/svg" xmlns:xlink="http://www.w3.org/1999/xlink" x="0px" y="0px"
	 width="201.422px" height="76.596px" viewBox="0 0 201.422 76.596" enable-background="new 0 0 201.422 76.596"
	 xml:space="preserve">
<path fill="#B4B3B4" d="M24.699,16.911C0.812,16.907-0.114,35.503,0.009,40.328c0,0-1.17,21.74,24.104,21.74
	c21.724,0,22.791-13.643,22.791-13.643l-9.994,0.021c0,0-1.944,7.516-12.754,7.314C10.261,55.502,9.72,42.039,9.72,42.039h38.498
	C48.22,42.039,51.14,16.916,24.699,16.911 M10.042,35.448c0,0,0.684-12.176,14.424-12.18c13.688-0.003,13.688,12.18,13.688,12.18
	H10.042z"/>
<path fill="#B4B3B4" d="M74.955,17.911c-12.012-0.066-17.176,7.113-17.176,7.113V1.002H48.15l0.162,50.769
	c0,0-0.058,5.912-0.421,9.824h9.351l0.402-5.707c0,0,4.36,7.182,17.108,7.182c12.752,0,22.814-7.854,23.084-22.41
	C98.106,26.098,86.97,17.979,74.955,17.911 M72.751,56.578c-15.169,0.189-14.923-16.086-14.923-16.086s-0.551-15.668,14.897-16.074
	c15.447-0.399,14.945,16.408,14.945,16.408S87.919,56.385,72.751,56.578"/>
<path fill="#B4B3B4" d="M142.324,51.572c0.022-6.568,0.215-12.435,0-16.57c-0.254-4.794,0.201-16.37-20.532-17.228
	c0,0-19.88-1.81-21.943,12.984h10.17c0,0,0.789-6.778,11.104-6.583c9.762,0.185,11.539,4.974,11.49,10.861
	c0,0-8.367,0.024-11.158,0.038c-5.033,0.023-22.643,0.583-24.287,11.309c-1.955,12.756,9.428,16.732,18.334,16.684
	c8.908-0.051,13.99-2.719,17.766-7.498l0.402,5.938l8.857-0.051C142.526,61.457,142.3,58.136,142.324,51.572 M117.16,56.929
	c0,0-9.647,0.01-10.215-7.701c-0.604-8.229,14.847-7.732,14.847-7.732l10.918-0.012C132.71,41.484,134.478,57.156,117.16,56.929"/>
<polygon fill="#B4B3B4" points="180.304,16.713 163.421,50.302 146.572,16.713 135.056,16.713 157.921,59.955 149.101,76.595 
	160.237,76.595 190.716,16.713 "/>
<path fill="#B4B3B4" d="M194.613,20.115v-1.241h-0.383v-0.464h0.383v-0.648h0.69v0.648h0.814v0.464h-0.814v1.153
	c0,0.212,0.138,0.295,0.374,0.295c0.153,0,0.293-0.026,0.43-0.078v0.439c-0.172,0.077-0.359,0.12-0.623,0.12
	C194.974,20.803,194.613,20.63,194.613,20.115"/>
<path fill="#B4B3B4" d="M196.822,18.409h0.693v0.354c0.196-0.209,0.459-0.404,0.924-0.404c0.434,0,0.742,0.163,0.903,0.415
	c0.24-0.252,0.562-0.415,1.021-0.415c0.656,0,1.059,0.324,1.059,0.899v1.505h-0.692v-1.34c0-0.375-0.222-0.577-0.611-0.577
	c-0.379,0-0.647,0.208-0.647,0.586v1.331h-0.691V19.42c0-0.365-0.23-0.573-0.611-0.573c-0.385,0-0.649,0.227-0.649,0.586v1.331
	h-0.693v-2.354H196.822z"/>
</svg>
