<?xml version="1.0" encoding="utf-8"?>
<!-- Generator: Adobe Illustrator 15.0.0, SVG Export Plug-In . SVG Version: 6.00 Build 0)  -->
<!DOCTYPE svg PUBLIC "-//W3C//DTD SVG 1.1//EN" "http://www.w3.org/Graphics/SVG/1.1/DTD/svg11.dtd">
<svg version="1.1" id="Layer_1" xmlns="http://www.w3.org/2000/svg" xmlns:xlink="http://www.w3.org/1999/xlink" x="0px" y="0px"
	 width="193.276px" height="62.41px" viewBox="157.828 158.451 193.276 62.41"
	 enable-background="new 157.828 158.451 193.276 62.41" xml:space="preserve">
<g>
	<polygon fill="#231F20" points="343.782,216.364 346.804,216.364 346.804,216.93 345.615,216.93 345.615,220.098 344.962,220.098 
		344.962,216.93 343.782,216.93 	"/>
	<polygon fill="#231F20" points="347.226,216.364 348.15,216.364 349.178,219.287 349.189,219.287 350.194,216.364 351.104,216.364 
		351.104,220.098 350.48,220.098 350.48,217.215 350.47,217.215 349.435,220.098 348.898,220.098 347.859,217.215 347.847,217.215 
		347.847,220.098 347.226,220.098 	"/>
</g>
<path fill="#231F20" d="M242.537,202.971h-11.996v17.154h-14.422v-61.146h25.577c12.522,0,21.89,9.469,21.89,21.994
	C263.585,191.604,255.168,202.971,242.537,202.971 M241.8,172.448h-11.26v16.418h11.471c4.104,0,7.156-3.26,7.156-8.205
	C249.167,176.135,246.433,172.448,241.8,172.448"/>
<polygon fill="#231F20" points="325.754,220.125 314.077,201.918 302.392,220.125 285.029,220.125 305.868,188.971 285.871,158.977 
	303.234,158.977 314.077,176.66 324.914,158.977 342.283,158.977 322.281,188.971 343.123,220.125 "/>
<rect x="267.974" y="158.977" fill="#231F20" width="14.418" height="61.148"/>
<path fill="#231F20" d="M173.086,195.92c0.636,6.732,5.581,11.156,13.055,11.156c4.737,0,9.783-2.105,13.364-6.211l10.633,9.055
	c-6.525,7.469-14.632,10.941-23.787,10.941c-17.679,0-28.523-11.787-28.523-31.785c0-17.996,11.16-30.625,26.838-30.625
	c15.787,0,26.418,10.943,26.418,27.785v9.684H173.086z M184.666,172.239c-5.789,0-10.734,4.422-11.471,9.996h22.418
	C194.978,177.395,191.82,172.239,184.666,172.239"/>
</svg>
