<?xml version="1.0" encoding="utf-8"?>
<!-- Generator: Adobe Illustrator 15.0.0, SVG Export Plug-In . SVG Version: 6.00 Build 0)  -->
<!DOCTYPE svg PUBLIC "-//W3C//DTD SVG 1.1//EN" "http://www.w3.org/Graphics/SVG/1.1/DTD/svg11.dtd">
<svg version="1.1" id="Layer_1" xmlns="http://www.w3.org/2000/svg" xmlns:xlink="http://www.w3.org/1999/xlink" x="0px" y="0px"
	 width="193.275px" height="62.41px" viewBox="0 0 193.275 62.41" enable-background="new 0 0 193.275 62.41" xml:space="preserve">
<g>
	<polygon fill="#B4B3B4" points="185.954,57.913 188.976,57.913 188.976,58.479 187.787,58.479 187.787,61.646 187.134,61.646 
		187.134,58.479 185.954,58.479 	"/>
	<polygon fill="#B4B3B4" points="189.398,57.913 190.323,57.913 191.35,60.836 191.362,60.836 192.366,57.913 193.276,57.913 
		193.276,61.646 192.653,61.646 192.653,58.764 192.642,58.764 191.607,61.646 191.071,61.646 190.031,58.764 190.019,58.764 
		190.019,61.646 189.398,61.646 	"/>
</g>
<path fill="#B4B3B4" d="M84.709,44.52H72.713v17.154H58.291V0.527h25.576c12.522,0,21.891,9.47,21.891,21.994
	C105.757,33.152,97.34,44.52,84.709,44.52 M83.972,13.997h-11.26v16.418h11.471c4.104,0,7.156-3.261,7.156-8.205
	C91.339,17.684,88.605,13.997,83.972,13.997"/>
<polygon fill="#B4B3B4" points="167.926,61.674 156.249,43.467 144.564,61.674 127.2,61.674 148.04,30.52 128.043,0.525 
	145.406,0.525 156.249,18.209 167.086,0.525 184.455,0.525 164.453,30.52 185.295,61.674 "/>
<rect x="110.146" y="0.525" fill="#B4B3B4" width="14.418" height="61.148"/>
<path fill="#B4B3B4" d="M15.258,37.469c0.636,6.732,5.581,11.156,13.055,11.156c4.737,0,9.783-2.105,13.364-6.211l10.633,9.055
	C45.784,58.938,37.678,62.41,28.523,62.41C10.844,62.41,0,50.623,0,30.625C0,12.629,11.159,0,26.838,0
	c15.787,0,26.418,10.943,26.418,27.785v9.684H15.258L15.258,37.469z M26.838,13.788c-5.789,0-10.734,4.422-11.472,9.995h22.418
	C37.15,18.943,33.991,13.788,26.838,13.788"/>
</svg>
