<?xml version="1.0" encoding="utf-8"?>
<!-- Generator: Adobe Illustrator 15.0.0, SVG Export Plug-In . SVG Version: 6.00 Build 0)  -->
<!DOCTYPE svg PUBLIC "-//W3C//DTD SVG 1.1//EN" "http://www.w3.org/Graphics/SVG/1.1/DTD/svg11.dtd">
<svg version="1.1" id="Layer_1" xmlns="http://www.w3.org/2000/svg" xmlns:xlink="http://www.w3.org/1999/xlink" x="0px" y="0px"
	 width="24px" height="24px" viewBox="0 0 24 24" enable-background="new 0 0 24 24" xml:space="preserve">
<path fill="#4C4D4D" d="M24,2.5v19c0,1.375-1.125,2.5-2.5,2.5H16V14h3v-3h-3l0.005-1.673c0-0.9,0.302-1.327,1.597-1.327H19V4h-4
	c-3,0-3,3-3,4v3h-2v3h2v10H2.5C1.125,24,0,22.875,0,21.5v-19C0,1.125,1.125,0,2.5,0h19C22.875,0,24,1.125,24,2.5"/>
</svg>
