<?xml version="1.0" encoding="utf-8"?>
<!-- Generator: Adobe Illustrator 15.0.0, SVG Export Plug-In . SVG Version: 6.00 Build 0)  -->
<!DOCTYPE svg PUBLIC "-//W3C//DTD SVG 1.1//EN" "http://www.w3.org/Graphics/SVG/1.1/DTD/svg11.dtd">
<svg version="1.1" id="Layer_1" xmlns="http://www.w3.org/2000/svg" xmlns:xlink="http://www.w3.org/1999/xlink" x="0px" y="0px"
	 width="530.667px" height="79.333px" viewBox="0 0 530.667 79.333" enable-background="new 0 0 530.667 79.333"
	 xml:space="preserve">
<rect x="-54.407" y="-2.988" fill="none" width="640.332" height="85.309"/>
<path fill="#B4B3B4" d="M252.63,21.567c0,10.645-1.07,43.651-1.07,43.651c0,6.386,2.133,9.228,8.163,9.228v2.838h-23.775v-2.838
	c6.031,0,9.226-2.842,9.226-9.228l2.128-53.944c-1.77-4.256-3.549-5.68-8.163-6.029V2.755h18.101l19.166,50.396l19.521-50.396
	h16.324v2.489c-4.616,0-7.098,2.123-7.098,7.096l2.131,52.168c0,7.809,1.42,9.938,7.809,9.938v2.838h-27.329v-2.838
	c5.324,0,7.806-1.777,7.449-9.938c0,0-1.062-36.557-1.421-42.941l-13.129,36.195c-1.776,4.613-3.545,9.941-4.965,15.618l-4.26,0.353
	c-1.07-3.902-3.91-10.998-3.91-10.998S256.533,31.862,252.63,21.567"/>
<rect x="-54.407" y="-2.988" fill="none" width="640.332" height="85.309"/>
<path fill="#B4B3B4" d="M230.268,77.641c-1.421-0.354-2.839-0.354-4.261-0.354c-2.839,0-7.805,1.416-13.839,1.416
	c-23.062,0-40.101-13.842-40.101-39.393c0-21.648,15.968-38.33,40.457-38.33c5.679,0,12.065,1.067,17.388,3.197
	c1.068-1.064,1.426-1.777,2.484-2.836h2.133c-0.358,3.898-1.777,16.675-1.777,16.675h-2.128
	c-1.418-7.452-5.321-12.419-17.744-12.419c-14.904,0-28.39,11.713-28.39,33.364c0,24.485,13.841,35.128,29.097,35.128
	c9.939,0,15.974-5.676,19.877-12.773l2.483,1.062L230.268,77.641z"/>
<rect x="-54.407" y="-2.988" fill="none" width="640.332" height="85.309"/>
<path fill="#B4B3B4" d="M163.192,16.597h-2.483c-0.349-6.743-2.483-8.87-7.806-8.87h-10.289v55.715
	c0,9.229,1.77,11.006,7.805,11.006v2.84h-26.62v-2.84c6.036,0,7.812-1.775,7.812-11.357V7.727h-10.296
	c-6.742,0-7.806,1.774-9.582,8.87h-2.483l1.776-15.969l1.77,0.354c0.713,1.772,2.132,1.772,6.393,1.772h34.426
	c6.387,0,7.806,0,9.227-2.127h2.126L163.192,16.597z"/>
<rect x="-54.407" y="-2.988" fill="none" width="640.332" height="85.309"/>
<path fill="#B4B3B4" d="M87.959,79.061c-4.973,0-8.875-0.714-11.709-1.773c-2.845-0.713-4.972-1.772-6.036-2.49
	c-1.419,1.425-2.489,3.197-2.489,3.197l-2.126-0.707l1.776-16.682l2.483,0.354c1.42,7.811,6.743,13.486,17.745,13.486
	c8.52,0,14.192-7.097,14.192-14.904c0-6.391-2.476-9.586-10.996-15.973c-2.84-1.779-5.323-3.192-7.456-4.97
	c-7.812-4.967-12.772-10.647-12.772-19.872c0-10.646,8.87-17.746,20.579-17.746c6.743,0,11.001,2.133,12.422,2.84l2.483-2.84
	l1.776,0.357l-1.776,15.258l-2.483-0.354c0-7.096-4.253-10.291-11.359-10.291c-6.736,0-11.709,3.548-11.709,10.291
	c0,6.031,4.616,9.938,9.939,13.488c2.84,1.77,4.966,3.188,7.092,4.612c12.429,8.869,15.269,14.55,15.269,23.063
	C112.803,69.836,103.215,79.061,87.959,79.061"/>
<rect x="-54.407" y="-2.988" fill="none" width="640.332" height="85.309"/>
<path fill="#B4B3B4" d="M47.503,16.597h-2.84c0-6.387-2.839-8.87-8.519-8.87H20.17v28.034h10.295c5.323,0,6.386-2.84,7.099-7.453
	h2.483v19.878h-2.483c-0.713-5.328-1.776-7.453-7.45-7.453H20.17v23.775c0,8.872,2.132,9.938,7.812,9.938v2.842H1.011v-2.842
	c6.743,0,7.806-1.774,7.806-9.938V12.34c0-4.971-2.133-7.1-7.806-7.1V2.755h36.903c6.393,0,7.812-0.354,8.876-2.479h2.482
	L47.503,16.597z"/>
<rect x="-54.407" y="-2.988" fill="none" width="640.332" height="85.309"/>
<path fill="#B4B3B4" d="M386.064,17.311l-9.933,32.293h20.584L386.064,17.311z M430.431,20.856v42.586
	c0,9.229,2.125,11.006,7.805,11.006v2.84h-41.877v-2.84c3.196,0,6.036-1.066,6.036-3.195c0-1.416-0.362-3.9-1.069-6.391
	l-3.19-10.293h-23.422c-0.356,1.424-4.618,13.133-4.618,16.33c0,2.834,3.197,3.549,5.323,3.549v2.84h-19.515v-2.84
	c3.547,0,6.385-0.357,8.869-7.812l18.102-57.845c-1.062-2.486-2.481-3.193-4.965-3.55V2.757h15.968l19.163,60.685
	c1.771,6.395,3.547,9.586,6.389,11.006c4.258-1.42,5.323-2.84,5.323-11.006V12.34c-3.198-4.26-3.55-7.1-9.585-7.1V2.758h18.102
	l29.811,50.749V14.827c0-7.812-1.777-9.586-7.805-9.586V2.758h39.742v2.482c-2.477,0-4.609,1.064-4.609,3.551
	c0,1.773,0.705,3.549,1.412,5.68l11.361,24.484l11.008-23.778c1.77-3.194,2.125-4.966,2.125-6.743c0-2.129-1.418-3.193-4.617-3.193
	V2.758h18.811v2.482c-4.607,0-7.447,4.261-9.584,9.229l-14.547,29.812v19.518c0,8.516,2.133,10.648,7.812,10.648v2.84H487.21v-2.84
	c5.68,0,7.807-2.133,7.807-10.648V47.122l-15.611-33.008c-2.84-6.387-3.902-7.809-5.68-8.873c-3.547,1.42-4.609,3.906-4.609,9.586
	v54.652c0,0,0.352,4.254,0.707,9.225l-4.615,0.357L430.431,20.856z"/>
<rect x="-54.407" y="-2.988" fill="none" width="640.332" height="85.309"/>
<path fill="#B4B3B4" d="M338.514,7.724h-1.776v36.558h3.19c11.714,0,17.752-5.323,17.752-18.812
	C357.68,11.983,352.349,7.724,338.514,7.724 M342.06,49.604h-5.322v15.258c0,7.811,2.127,9.586,8.166,9.586v2.84h-27.33v-2.84
	c5.681,0,7.806-2.131,7.806-9.941V14.471c0-7.809-2.125-9.229-7.806-9.229V2.759h20.584c19.873,0,31.588,6.033,31.588,22.362
	C369.746,42.155,355.544,49.604,342.06,49.604"/>
<rect x="-54.407" y="-2.988" fill="none" width="640.332" height="85.309"/>
<path fill="#B4B3B4" d="M218.203,20.505c-9.232,0-12.421,8.87-12.421,19.163c0,9.58,2.84,19.16,12.421,19.16
	c9.226,0,12.065-9.58,12.065-19.518C230.268,29.733,226.722,20.505,218.203,20.505 M218.203,63.09
	c-13.484,0-22.717-9.583-22.717-23.421c0-13.132,9.589-23.425,22.717-23.425c12.772,0,22.354,9.938,22.354,23.425
	C240.557,52.797,230.624,63.09,218.203,63.09"/>
<rect x="-54.407" y="-2.988" fill="none" width="640.332" height="85.309"/>
<path fill="#B4B3B4" d="M57.086,24.407l-5.323,17.389h11.001L57.086,24.407z M62.052,58.829v-2.481c3.546,0,4.26-1.063,4.26-2.13
	c0-1.417-0.356-2.482-0.713-3.551c0,0-0.707-2.84-1.419-4.967H50.338l-1.413,4.613c-0.356,1.067-0.714,2.133-0.714,3.549
	c0,1.422,1.42,2.484,3.553,2.484v2.48H37.921v-2.48c3.547,0,4.966-1.062,6.387-4.966l10.645-31.94
	c-0.356-1.42-1.419-2.486-3.546-2.486v-2.487h11.358c9.22,26.976,11.71,34.071,11.71,34.071c1.776,6.035,3.546,7.81,6.386,7.81
	v2.481H62.052z"/>
</svg>
