<?xml version="1.0" encoding="utf-8"?>
<!-- Generator: Adobe Illustrator 15.0.0, SVG Export Plug-In . SVG Version: 6.00 Build 0)  -->
<!DOCTYPE svg PUBLIC "-//W3C//DTD SVG 1.1//EN" "http://www.w3.org/Graphics/SVG/1.1/DTD/svg11.dtd">
<svg version="1.1" id="Layer_1" xmlns="http://www.w3.org/2000/svg" xmlns:xlink="http://www.w3.org/1999/xlink" x="0px" y="0px"
	 width="357.666px" height="88.875px" viewBox="0 0 357.666 88.875" enable-background="new 0 0 357.666 88.875"
	 xml:space="preserve">
<rect x="-38.605" y="-3" fill="none" width="436.762" height="94.024"/>
<path fill="#B4B3B4" d="M209.265,84.148c-1.639,0-3.685,0-4.914-0.404c-0.408-5.734-0.818-29.9-0.408-51.201
	c2.457-0.821,4.093-1.229,6.143-1.229c9.012,0,13.926,10.647,13.926,23.752C224.01,71.457,217.867,84.148,209.265,84.148
	 M218.687,24.761c-5.735,0-10.24,1.229-14.744,3.687c0-13.105,0-24.983,0.408-29.082l-27.443,4.916v2.457l2.869,0.411
	c3.686,0.815,4.916,2.864,5.732,7.782c0.819,9.829,0.409,62.256,0,70.857c7.372,1.641,15.154,2.869,22.938,2.869
	c21.709,0,34.815-13.517,34.815-34.815C243.263,37.047,232.615,24.761,218.687,24.761"/>
<rect x="-38.605" y="-3" fill="none" width="436.762" height="94.024"/>
<path fill="#B4B3B4" d="M73.69,1.006H1.605v3.687l4.096,0.409c5.324,0.818,7.369,4.096,8.188,11.878
	c1.232,14.742,0.821,41.37,0,54.065c-0.819,7.777-2.864,11.47-8.188,11.88L1.605,83.74v3.274h46.282V83.74l-4.915-0.815
	c-5.324-0.41-7.373-4.103-8.191-11.88c-0.411-5.326-0.821-13.928-0.821-24.579l9.831,0.411c6.144,0,9.01,4.916,10.239,11.882h3.687
	V29.675H54.03c-1.229,6.964-4.095,11.88-10.239,11.88l-9.831,0.406c0-13.92,0.411-27.029,0.821-34.812h14.332
	c11.062,0,16.795,6.962,20.89,19.248l4.096-1.227L73.69,1.006z"/>
<rect x="-38.605" y="-3" fill="none" width="436.762" height="94.024"/>
<path fill="#B4B3B4" d="M95.808,28.037c-9.009,0-11.467,12.289-11.467,28.262c0,15.562,4.096,28.263,12.29,28.263
	c9.418,0,11.875-12.29,11.875-28.263C108.506,40.734,104.41,28.037,95.808,28.037 M97.038,23.942
	c20.481,0,30.72,13.925,30.72,32.356c0,17.613-11.466,32.357-31.95,32.357c-20.478,0-30.718-13.927-30.718-32.357
	C65.09,38.687,76.56,23.942,97.038,23.942"/>
<rect x="-38.605" y="-3" fill="none" width="436.762" height="94.024"/>
<path fill="#B4B3B4" d="M267.427,48.93l19.249-0.411c0-8.192-1.226-20.478-8.188-20.478
	C271.522,28.041,267.837,39.506,267.427,48.93 M248.585,56.709c0-16.795,10.65-32.769,31.54-32.769
	c17.198,0,25.394,12.702,25.394,29.494h-38.092c-0.41,15.151,6.963,26.211,21.713,26.211c6.549,0,9.828-1.636,13.922-4.502
	l1.642,2.045c-4.103,5.737-13.108,11.472-24.577,11.472C261.692,88.658,248.585,75.554,248.585,56.709"/>
<rect x="-38.605" y="-3" fill="none" width="436.762" height="94.024"/>
<path fill="#B4B3B4" d="M354.259,27.223c-4.915-2.051-11.469-3.283-18.839-3.283c-15.153,0-24.573,9.012-24.573,19.664
	c0,10.648,6.959,15.155,16.791,18.432c10.236,3.684,13.105,6.549,13.105,11.465c0,4.918-3.688,9.425-10.239,9.425
	c-7.782,0-13.519-4.507-18.022-16.795l-2.865,0.821l0.406,18.021c4.916,2.043,13.93,3.687,21.709,3.687
	c15.976,0,26.217-8.192,26.217-20.892c0-8.601-4.51-13.517-15.157-17.617c-11.466-4.5-15.563-7.364-15.563-12.69
	c0-5.327,3.69-9.014,8.604-9.014c7.372,0,12.288,4.504,15.975,15.564l2.866-0.817L354.259,27.223z"/>
<rect x="-38.605" y="-3" fill="none" width="436.762" height="94.024"/>
<path fill="#B4B3B4" d="M181.004,25.582c-6.961-4.096-19.25-2.051-25.804,12.695l0.409-14.335l-27.441,5.325v2.457l2.866,0.408
	c3.687,0.41,5.324,2.458,5.734,7.785c0.819,9.83,0.411,27.033,0,35.636c-0.41,4.912-2.047,7.371-5.734,7.776l-2.866,0.414v3.275
	h38.092v-3.275l-4.917-0.414c-4.095-0.405-5.325-2.864-5.733-7.776c-0.818-7.786-0.818-23.351-0.409-33.179
	c2.047-2.869,11.059-5.327,19.249,0L181.004,25.582z"/>
</svg>
