<?xml version="1.0" encoding="utf-8"?>
<!-- Generator: Adobe Illustrator 15.0.0, SVG Export Plug-In . SVG Version: 6.00 Build 0)  -->
<!DOCTYPE svg PUBLIC "-//W3C//DTD SVG 1.1//EN" "http://www.w3.org/Graphics/SVG/1.1/DTD/svg11.dtd">
<svg version="1.1" id="Layer_1" xmlns="http://www.w3.org/2000/svg" xmlns:xlink="http://www.w3.org/1999/xlink" x="0px" y="0px"
	 width="268.627px" height="268.629px" viewBox="0 0 268.627 268.629" enable-background="new 0 0 268.627 268.629"
	 xml:space="preserve">
<path fill="#F58D86" d="M270.86,12.21c0-6.722-5.483-12.21-12.209-12.21h-97.685c-6.722,0-12.21,5.488-12.21,12.21v97.684
	c0,6.723,5.488,12.21,12.21,12.21h97.685c6.726,0,12.209-5.487,12.209-12.21V12.21z M270.86,158.734
	c0-6.724-5.483-12.211-12.209-12.211h-97.685c-6.722,0-12.21,5.487-12.21,12.211v97.683c0,6.724,5.488,12.212,12.21,12.212h97.685
	c6.726,0,12.209-5.488,12.209-12.212V158.734z M124.338,12.21c0-6.722-5.489-12.21-12.21-12.21H14.444
	C7.723,0,2.234,5.488,2.234,12.21v97.684c0,6.723,5.489,12.21,12.21,12.21h97.684c6.721,0,12.21-5.487,12.21-12.21V12.21z
	 M124.338,158.734c0-6.724-5.489-12.211-12.21-12.211H14.444c-6.721,0-12.21,5.487-12.21,12.211v97.683
	c0,6.724,5.489,12.212,12.21,12.212h97.684c6.721,0,12.21-5.488,12.21-12.212V158.734z"/>
</svg>
