<?xml version="1.0" encoding="utf-8"?>
<!-- Generator: Adobe Illustrator 15.0.0, SVG Export Plug-In . SVG Version: 6.00 Build 0)  -->
<!DOCTYPE svg PUBLIC "-//W3C//DTD SVG 1.1//EN" "http://www.w3.org/Graphics/SVG/1.1/DTD/svg11.dtd">
<svg version="1.1" id="Layer_1" xmlns="http://www.w3.org/2000/svg" xmlns:xlink="http://www.w3.org/1999/xlink" x="0px" y="0px"
	 width="115.081px" height="95.26px" viewBox="0 0 115.081 95.26" enable-background="new 0 0 115.081 95.26" xml:space="preserve">
<g>
	<path fill-rule="evenodd" clip-rule="evenodd" fill="#B4B3B4" d="M98.473,2.464h3.857c3.75-0.107,5.357,3.322,5.357,6v40.183
		c0.107,2.893-1.607,5.57-4.929,5.57h-4.286V2.464L98.473,2.464z M102.437,0.964h-15.43v1.5h4.072v90.33h-4.072v1.607h17.358v-1.607
		h-5.893V56.041h5.143c7.286,0,11.466-3.857,11.466-9.108v-36.11C115.081,5.572,111.545,0.964,102.437,0.964L102.437,0.964z"/>
	<path fill-rule="evenodd" clip-rule="evenodd" fill="#B4B3B4" d="M20.787,2.143c0,1.5-0.857,1.393-1.5,0.857
		c-2.571-1.714-5.572-3-8.357-3C6.43,0,0.107,2.25,0,11.68V80.9c0.107,12.107,5.894,14.357,11.572,14.357
		c4.5,0.107,6.644-2.25,8.357-3.107c0.965-0.32,2.037,0.537,2.037,2.357h1.82V50.468h3.751v-1.5H11.894v1.5h4.501v37.824
		c0,3.107-2.036,5.465-4.715,5.465c-2.572,0-4.5-2.463-4.5-5.465V8.894c0-2.143,0.428-7.179,3.75-7.179
		c6.429,0,9.857,18.858,9.857,28.609h1.822V0.857h-1.822V2.143L20.787,2.143z"/>
	<path fill-rule="evenodd" clip-rule="evenodd" fill="#B4B3B4" d="M49.183,54.326l4.501-40.396l4.606,40.396H49.183L49.183,54.326z
		 M58.505,55.933l4.179,36.861h-4.071v1.607h15.43v-1.607H69.97L59.684,0.857h-6.536L43.504,87.65
		c-0.536,3.107-0.75,5.037-5.25,5.145v1.607h11.571v-1.607c-3.321,0-4.821-2.145-4.5-4.287l3.644-32.574H58.505L58.505,55.933z"/>
</g>
</svg>
