<?xml version="1.0" encoding="utf-8"?>
<!-- Generator: Adobe Illustrator 15.0.0, SVG Export Plug-In . SVG Version: 6.00 Build 0)  -->
<!DOCTYPE svg PUBLIC "-//W3C//DTD SVG 1.1//EN" "http://www.w3.org/Graphics/SVG/1.1/DTD/svg11.dtd">
<svg version="1.1" id="Layer_1" xmlns="http://www.w3.org/2000/svg" xmlns:xlink="http://www.w3.org/1999/xlink" x="0px" y="0px"
	 width="150.713px" height="150.713px" viewBox="0 0 150.713 150.713" enable-background="new 0 0 150.713 150.713"
	 xml:space="preserve">
<path fill="#B4B3B4" d="M150.713,75.354C150.713,33.812,116.9,0,75.355,0C33.812,0,0,33.812,0,75.354
	c0,41.705,33.812,75.357,75.355,75.357C116.9,150.712,150.713,117.06,150.713,75.354 M147.116,75.354
	c0,39.666-32.097,71.765-71.763,71.765c-39.663,0-71.813-32.099-71.813-71.765C3.54,35.69,35.69,3.54,75.354,3.54
	C115.021,3.539,147.116,35.904,147.116,75.354 M142.557,75.354c0-23.828-12.133-48.467-38.219-56.355
	c-5.421-1.661-9.98-2.736-15.24-2.736c-12.078,0-12.508,6.869-18.143,6.869c-3.115,0-5.209-2.256-5.209-4.992
	c0-4.774,5.637-8.533,14.6-8.533c8.375,0,14.815,2.096,16.051,2.685l0.215-0.589c-2.254-0.863-10.198-3.6-21.256-3.6
	C51.311,8.103,26.891,20.449,19,46.321c-1.666,5.418-2.736,10.035-2.736,15.242c0,12.129,6.867,12.722,6.867,18.355
	c0,2.951-2.254,5.046-4.99,5.046c-4.776,0-8.534-5.476-8.534-14.653c0-8.318,2.094-14.815,2.469-16.047l-0.59-0.216
	c-0.644,2.521-3.382,10.253-3.382,21.308c0,24.209,12.343,48.63,38.216,56.574c5.42,1.662,10.037,2.683,15.243,2.683
	c12.132,0,12.507-7.084,18.143-7.084c2.95,0,5.26,2.306,5.26,5.204c0,4.617-5.476,8.373-14.652,8.373
	c-8.318,0-15.029-2.092-16.051-2.521l-0.213,0.642c2.309,1.021,10.252,3.332,21.309,3.332c23.992,0,48.629-12.133,56.357-38.22
	c1.664-5.206,2.684-9.983,2.684-15.028c0-12.291-6.869-12.721-6.869-18.355c0-3.115,2.094-5.207,4.99-5.207
	c4.834,0,8.588,5.637,8.588,14.814c0,8.158-2.094,14.599-2.521,16.05l0.645,0.216C140.031,94.356,142.557,86.628,142.557,75.354
	 M117.273,95.375c0,9.396-8.104,19.217-20.02,19.217c-14.386,0-21.685-12.132-21.685-22.973c0-15.243,10.412-21.687,14.813-23.991
	c-0.858-0.645-1.502-1.451-2.093-2.523c-5.046,3.543-9.608,6.709-19.218,12.131c-0.426,6.654-1.018,13.955-2.734,19
	c-3.543,10.625-10.843,18.356-20.449,18.356c-8.106,0-12.078-5.852-12.078-12.132c0-4.562,2.684-10.41,7.515-14.812
	c6.063-5.42,12.722-8.75,21.899-13.578c0.216-1.235,0.429-2.471,0.644-3.975c-2.308,2.094-5.637,2.954-8.372,2.954
	c-4.349,0-7.943-3.757-8.749-7.729c-5.85-0.43-10.253-4.616-10.467-11.271c0-4.777,1.879-8.964,5.045-8.964
	c1.235,0,1.666,1.019,1.666,1.879c0,0.804-1.076,3.541-1.076,6.226c0,2.738,1.289,6.279,4.617,6.279
	c0-10.842,7.944-24.852,17.336-24.852c6.228,0,7.087,4.617,7.087,6.71c0,9.823-9.822,20.665-17.767,23.347
	c0.215,0.858,1.071,3.166,3.596,3.166c3.113,0,6.869-2.949,8.75-5.258c0.804-4.35,3.972-10.628,8.158-10.628
	c1.662,0,2.469,1.235,2.469,2.739c0,3.111-3.327,7.084-5.853,9.77c-0.377,2.092-0.59,4.398-0.59,6.277
	c7.299-4.401,11.056-6.655,16.478-10.629c-0.429-1.445-0.429-3.164-0.429-4.828c0-9.77,6.494-20.666,15.027-20.666
	c4.832,0,7.301,3.383,7.301,7.141c0,7.083-6.065,13.309-14.601,19.807c0.646,1.664,1.665,3.109,3.327,3.969
	c0.216-0.428,2.953-0.858,5.207-0.858c2.523,0,6.066,0.646,6.066,3.166c0,2.9-3.973,3.546-7.088,3.546
	c-1.662,0.215-4.398-0.431-4.398-0.431c-4.562,1.233-13.365,6.494-13.365,19.806c0,9.02,5.637,17.338,14.439,17.338
	c6.652,0,12.072-4.992,12.289-12.723c0-4.99-2.092-10.251-7.084-10.251c-2.521,0-4.777,1.879-4.777,4.615
	c-0.215,4.188,2.896,4.616,2.896,7.301c0,1.879-1.445,2.738-2.896,2.738c-4.188,0-7.354-4.187-7.354-9.394
	c0-6.281,5.475-11.488,12.559-11.488C112.498,78.897,117.273,86.842,117.273,95.375 M101.871,42.776c0-1.02-0.216-2.309-1.503-2.309
	c-3.114,0-8.104,6.709-8.104,15.244C98.49,50.292,101.871,45.674,101.871,42.776 M64.891,41.916c0-1.019-0.592-1.448-1.449-1.448
	c-4.402,0-10.629,11.485-10.629,18.357C59.684,55.065,64.891,46.532,64.891,41.916 M62.42,80.991
	c-9.394,4.562-21.31,12.719-21.31,21.684c0,3.329,1.666,5.422,4.778,5.422C55.066,108.097,60.702,93.495,62.42,80.991"/>
</svg>
