<?xml version="1.0" encoding="utf-8"?>
<!-- Generator: Adobe Illustrator 15.0.0, SVG Export Plug-In . SVG Version: 6.00 Build 0)  -->
<!DOCTYPE svg PUBLIC "-//W3C//DTD SVG 1.1//EN" "http://www.w3.org/Graphics/SVG/1.1/DTD/svg11.dtd">
<svg version="1.1" id="Layer_1" xmlns="http://www.w3.org/2000/svg" xmlns:xlink="http://www.w3.org/1999/xlink" x="0px" y="0px"
	 width="297.455px" height="297.477px" viewBox="1.272 0 297.455 297.477" enable-background="new 1.272 0 297.455 297.477"
	 xml:space="preserve">
<circle fill="#8BC53F" cx="150.058" cy="148.713" r="148.785"/>
<g id="qB5vNG_3_">
	<g id="XMLID_1_">
		<g>
			<path fill="#FFFFFF" d="M76.556,163.108c-0.081-4.836,5.432-8.354,8.125-11.071c3.177-3.203,6.841-7.424,11.607-7.5
				c6.883-0.107,15.744,10.963,19.346,14.289c6.62,6.106,10.52,10.235,17.411,16.066c18.939-24.923,41.14-55.618,61.132-82.495
				c3.11-4.182,6.713-12.207,13.154-11.428c4.376,0.528,7.387,3.278,12.382,6.428c4.294,2.71,8.983,4.346,9.285,8.928
				c0.337,5.114-6.445,11.978-9.673,16.428c-22.123,30.495-43.644,59.557-66.936,90.355c-3.826,5.061-7.448,12.231-13.154,13.21
				c-8.319,1.428-14.618-5.632-19.346-10c-10.025-9.253-20.251-18.691-30.179-27.855C85.396,174.485,76.645,168.607,76.556,163.108z
				"/>
		</g>
		<g>
		</g>
	</g>
</g>
</svg>
