<?xml version="1.0" encoding="utf-8"?>
<!-- Generator: Adobe Illustrator 15.0.0, SVG Export Plug-In . SVG Version: 6.00 Build 0)  -->
<!DOCTYPE svg PUBLIC "-//W3C//DTD SVG 1.1//EN" "http://www.w3.org/Graphics/SVG/1.1/DTD/svg11.dtd">
<svg version="1.1" id="Layer_1" xmlns="http://www.w3.org/2000/svg" xmlns:xlink="http://www.w3.org/1999/xlink" x="0px" y="0px"
	 width="174.739px" height="104.855px" viewBox="0 0 174.739 104.855" enable-background="new 0 0 174.739 104.855"
	 xml:space="preserve">
<path fill="#B4B3B4" d="M149.027,33.805c-2.511-0.49-4.149-2.924-3.659-5.437c0.49-2.512,2.924-4.151,5.435-3.661
	c9.341,1.827,13.725,7.259,15.289,9.756c8.996,6.462,8.802,12.561,7.59,16.009c1.472,3.876,2.739,11.523-5.905,18.314
	c-0.775,3.557-3.306,10.006-11.535,12.431c-1.988,2.654-6.395,7.262-13.162,7.519c-2.336,2.488-6.944,5.948-14.068,5.156
	c-2.492,1.857-7.079,4.188-13.592,3.119c-3.287,2.431-9.964,5.15-20.007-0.981c-0.424,1.923-1.258,3.647-2.37,5.033
	c-1.88,2.34-4.558,3.774-7.537,3.775v0.018h-0.002h-0.001v-0.018c-2.979-0.001-5.658-1.436-7.538-3.776
	c-1.111-1.385-1.947-3.11-2.371-5.033c-10.043,6.133-16.719,3.412-20.007,0.982c-6.513,1.068-11.101-1.262-13.592-3.119
	c-7.124,0.792-11.731-2.669-14.067-5.156c-6.774-0.257-11.183-4.873-13.168-7.525c-8.495-2.584-9.377-9.766-9.07-14.105
	c-10.512-8.113-1.276-18.827-1.248-18.86c1.65-1.952,4.571-2.195,6.522-0.544s2.194,4.572,0.544,6.524
	c-0.01,0.012-3.381,3.918,1.439,6.605l3.178,1.771l-0.967,3.502c-0.004,0.017-1.588,5.529,3.332,6.492l2.122,0.415l1.05,1.904
	c0.008,0.015,2.801,5.178,7.801,4.521l3.004-0.396l1.562,2.624c0.007,0.012,2.387,4.159,8.298,2.783L45.11,83.8l1.836,2.225
	c0.008,0.009,2.598,3.229,8.695,1.486l3.062-0.875l1.92,2.579c0.008,0.011,2.902,4.084,11.734-2.108
	c2.297-1.607,5.335-2.458,7.09-2.65c0.605-0.065,1.177-0.071,1.666-0.02c2.285,0.241,3.812,1.466,4.331,3.68
	c0.022,0.093,0.04,0.186,0.058,0.277c0.016-0.092,0.035-0.185,0.057-0.277c0.52-2.214,2.047-3.438,4.332-3.68
	c0.488-0.052,1.061-0.046,1.664,0.02c1.756,0.192,4.795,1.042,7.09,2.65c8.834,6.192,11.729,2.119,11.737,2.108l1.919-2.579
	l3.063,0.875c6.096,1.742,8.687-1.478,8.693-1.486l1.836-2.225l2.784,0.647c5.912,1.376,8.292-2.771,8.3-2.783l1.562-2.624
	l3.004,0.396c5,0.657,7.794-4.506,7.802-4.521l1.049-1.904l2.122-0.415c6.238-1.221,6.361-6.558,6.361-6.572l0.084-2.356
	l1.963-1.322c6.915-4.657,3.733-9.404,3.725-9.418l-1.831-2.846l2.157-2.61c0.004-0.004,1.467-1.646-4.972-5.982l-1.114-0.75
	l-0.534-1.188C158.349,39.538,156.524,35.271,149.027,33.805L149.027,33.805z"/>
<path fill="#B4B3B4" d="M169.28,50.425c0.945,1.697,4.481,9.425-5.173,16.107c-0.147,1.664-1.311,9.262-10.299,11.174
	c-0.827,1.367-5.093,7.728-12.548,6.986c-0.984,1.431-5.224,6.688-13.413,4.964c-1.103,1.142-5.629,5.115-13.528,3.03
	c-1.316,1.457-7.258,6.731-18.68-1.275c-1.482-1.039-3.466-1.592-4.625-1.722c0.065,0.165,0.126,0.336,0.182,0.511
	c0.37,1.17,0.541,2.573,0.541,2.95v0.001h-0.002c0,2.122-0.699,4.028-1.807,5.407c-1.14,1.418-2.715,2.288-4.424,2.289v0.002h-0.002
	h-0.001v-0.002c-1.71-0.001-3.284-0.871-4.425-2.29c-1.106-1.378-1.806-3.284-1.807-5.404h-0.002V93.15v-0.001h0.002
	c0.001-0.274,0.084-1.04,0.257-1.858c0.026-0.125,0.058-0.26,0.093-0.404v0.001c0.101-0.409,0.224-0.822,0.373-1.198
	c-1.158,0.129-3.145,0.683-4.629,1.722c-11.42,8.007-17.361,2.732-18.678,1.275c-7.9,2.085-12.426-1.889-13.529-3.03
	c-8.189,1.725-12.428-3.533-13.412-4.964c-7.455,0.741-11.722-5.619-12.548-6.986c-8.985-1.911-10.151-9.507-10.3-11.173
	c-10.155-6.967-6.405-14.346-5.322-16.066c-1.084-1.737-4.83-9.185,5.322-16.15c0.148-1.667,1.315-9.262,10.3-11.172
	c0.827-1.368,5.093-7.727,12.548-6.986c0.984-1.431,5.223-6.689,13.411-4.964c1.103-1.142,5.63-5.116,13.53-3.031
	c1.316-1.457,7.258-6.731,18.678,1.275c1.484,1.039,3.471,1.593,4.629,1.722c-0.07-0.173-0.131-0.344-0.184-0.512
	c-0.37-1.17-0.541-2.573-0.541-2.949V7.699h0.002c0.001-2.121,0.7-4.028,1.808-5.407c1.14-1.419,2.714-2.289,4.423-2.29V0h0.002
	h0.001v0.002c1.71,0,3.285,0.871,4.425,2.29c1.107,1.378,1.806,3.284,1.807,5.405h0.002V7.7v0.001h-0.002
	c0,0.273-0.083,1.04-0.257,1.857c-0.026,0.125-0.057,0.26-0.092,0.404l-0.001,0c-0.1,0.408-0.224,0.823-0.374,1.198
	c1.159-0.129,3.145-0.683,4.628-1.722c11.422-8.006,17.363-2.732,18.68-1.275c7.899-2.085,12.426,1.889,13.528,3.031
	c8.189-1.726,12.429,3.533,13.413,4.964c7.454-0.741,11.72,5.617,12.547,6.986c8.988,1.91,10.151,9.509,10.3,11.173
	C173.761,40.999,170.225,48.729,169.28,50.425L169.28,50.425z M163.146,65.662c10.213-6.878,4.882-14.873,4.867-14.896l-0.22-0.341
	l0.22-0.341c0.015-0.023,5.346-8.019-4.867-14.896l-0.268-0.181l-0.012-0.322c-0.001-0.024-0.201-8.523-9.584-10.358l-0.29-0.057
	l-0.143-0.26c-0.012-0.021-4.093-7.571-11.823-6.555l-0.41,0.054l-0.213-0.358c-0.012-0.019-3.851-6.689-12.635-4.646l-0.379,0.088
	l-0.25-0.303c-0.012-0.015-4.25-5.264-12.871-2.801l-0.418,0.12l-0.262-0.352c-0.015-0.021-5.19-7.222-17.229,1.216
	c-1.682,1.179-3.926,1.804-5.227,1.946c-0.335,0.037-0.622,0.042-0.839,0.02l0,0c-0.459-0.049-0.757-0.254-0.841-0.613v-0.002
	c-0.045-0.196-0.011-0.389,0.109-0.573c0.249-0.382,0.447-0.983,0.596-1.586V9.661c0.027-0.114,0.055-0.236,0.082-0.365
	c0.157-0.739,0.231-1.383,0.231-1.595h-0.002V7.7V7.697h0.002c0-1.82-0.592-3.446-1.529-4.613c-0.905-1.128-2.131-1.82-3.44-1.82
	v0.002h-0.001H85.5V1.264c-1.309,0-2.533,0.692-3.438,1.819c-0.938,1.168-1.53,2.794-1.53,4.616h0.002V7.7
	c0,0.317,0.152,1.526,0.482,2.568c0.066,0.21,0.135,0.399,0.201,0.555h0.003c0.071,0.165,0.145,0.31,0.218,0.423l0.002,0.003
	c0.121,0.187,0.155,0.38,0.109,0.576c-0.084,0.358-0.381,0.563-0.841,0.613l0,0c-0.216,0.023-0.504,0.017-0.839-0.02
	c-1.301-0.143-3.545-0.768-5.227-1.946C62.606,2.035,57.43,9.236,57.416,9.257l-0.263,0.352l-0.417-0.12
	c-8.622-2.463-12.86,2.786-12.872,2.801l-0.25,0.303l-0.378-0.088c-8.784-2.043-12.623,4.627-12.634,4.646l-0.214,0.358
	l-0.409-0.054c-7.73-1.016-11.812,6.533-11.823,6.555l-0.144,0.26l-0.289,0.057C8.34,26.162,8.138,34.661,8.137,34.685l-0.012,0.323
	l-0.268,0.179c-10.821,7.246-5.031,14.883-5.016,14.905l0.279,0.377l-0.279,0.375c-0.016,0.022-5.803,7.573,5.016,14.818l0.268,0.18
	l0.012,0.322c0.001,0.024,0.203,8.523,9.586,10.359l0.289,0.057l0.144,0.26c0.012,0.021,4.093,7.571,11.823,6.555l0.409-0.054
	l0.214,0.358c0.011,0.019,3.85,6.689,12.631,4.646l0.381-0.089l0.25,0.304c0.012,0.015,4.25,5.265,12.872,2.801l0.417-0.119
	l0.263,0.353c0.015,0.02,5.19,7.222,17.228-1.217c1.682-1.179,3.928-1.804,5.228-1.946c0.334-0.036,0.62-0.042,0.836-0.02
	c0.46,0.049,0.759,0.253,0.843,0.612c0.046,0.196,0.012,0.39-0.109,0.576c-0.248,0.382-0.446,0.983-0.594,1.587v0.002
	c-0.027,0.113-0.056,0.237-0.083,0.365c-0.157,0.738-0.231,1.383-0.231,1.596h0.002v0.001v0.003h-0.002
	c0,1.82,0.592,3.446,1.529,4.613c0.906,1.127,2.131,1.818,3.44,1.819v-0.003h0.001h0.002v0.003c1.309-0.001,2.534-0.692,3.439-1.819
	c0.938-1.167,1.529-2.794,1.529-4.615h-0.002V93.15c0-0.318-0.152-1.527-0.482-2.568c-0.062-0.197-0.131-0.385-0.204-0.556
	c-0.071-0.165-0.145-0.31-0.219-0.424L89.564,89.6c-0.121-0.187-0.155-0.38-0.109-0.576c0.084-0.359,0.383-0.563,0.843-0.612
	c0.216-0.022,0.502-0.017,0.836,0.02c1.301,0.143,3.546,0.768,5.228,1.946c12.038,8.438,17.214,1.236,17.229,1.217l0.262-0.353
	l0.418,0.119c8.621,2.464,12.859-2.786,12.871-2.801l0.251-0.304l0.38,0.089c8.782,2.043,12.621-4.627,12.633-4.646l0.213-0.358
	l0.41,0.054c7.73,1.017,11.812-6.533,11.823-6.555l0.143-0.26l0.29-0.057c9.383-1.836,9.583-10.335,9.584-10.359l0.012-0.321
	L163.146,65.662L163.146,65.662z"/>
<path fill="#FFFFFF" d="M168.544,50.425c0,0,5.687,8.532-5.047,15.761c0,0-0.214,9.024-10.094,10.958c0,0-4.297,7.949-12.458,6.876
	c0,0-4.082,7.089-13.318,4.939c0,0-4.511,5.587-13.531,3.009c0,0-5.551,7.719-18.096-1.075c-2.481-1.738-6.272-2.199-5.907-1.639
	c0.698,1.076,1.011,3.412,1.011,3.896c0,3.943-2.581,7.066-5.602,7.066c-3.02,0-5.602-3.123-5.602-7.066
	c0-0.483,0.312-2.819,1.01-3.896c0.365-0.561-3.424-0.1-5.907,1.639c-12.544,8.794-18.095,1.075-18.095,1.075
	c-9.021,2.578-13.532-3.009-13.532-3.009c-9.235,2.149-13.316-4.939-13.316-4.939c-8.162,1.073-12.458-6.876-12.458-6.876
	C7.722,75.211,7.506,66.187,7.506,66.187c-11.375-7.617-5.171-15.718-5.171-15.718s-6.204-8.188,5.171-15.805
	c0,0,0.216-9.024,10.096-10.957c0,0,4.296-7.95,12.458-6.876c0,0,4.081-7.089,13.316-4.94c0,0,4.511-5.586,13.532-3.009
	c0,0,5.551-7.718,18.095,1.075c2.483,1.739,6.272,2.2,5.907,1.638c-0.697-1.074-1.01-3.411-1.01-3.894
	c0-3.943,2.582-7.067,5.602-7.067c3.021,0,5.602,3.124,5.602,7.067c0,0.482-0.312,2.819-1.011,3.894
	c-0.365,0.562,3.426,0.101,5.907-1.638c12.545-8.793,18.096-1.075,18.096-1.075c9.021-2.578,13.531,3.009,13.531,3.009
	c9.236-2.149,13.318,4.94,13.318,4.94c8.161-1.074,12.458,6.876,12.458,6.876c9.88,1.933,10.094,10.957,10.094,10.957
	C174.231,41.893,168.544,50.425,168.544,50.425L168.544,50.425z"/>
<path fill="#B4B3B4" d="M166.386,50.52c0.104,0.44,0.361,1.378,0.627,2.111c1.132,3.11,1.102,5.587-1.205,8.561
	c-1.213,1.562-3.799,3.445-3.892,3.827c-1.642,6.751-3.197,7.802-9.531,9.72c-1.067,0.323-1.597,4.174-5.294,6.122
	c-2.364,1.247-5.402,1.166-7.363,0.937c-1.395,2.843-3.952,4.722-7.079,5.465c-1.905,0.451-5.557-0.37-5.76-0.199
	c-3.698,3.101-4.817,3.666-7.746,3.923c-2.006,0.176-5.435-0.782-5.476-0.727c-1.322,1.847-3.1,2.283-4.994,2.777
	c-6.349,1.657-10.521-4.053-16.295-5.512c-3.52-0.891-4.694,0.729-4.724,0.672c0.59,1.078,2.995,4.203,0.934,8.088
	c-0.641,1.205-1.789,1.857-3.032,1.89c-1.245-0.032-2.445-0.713-3.138-1.942c-2.115-3.756,0.291-7.127,0.959-8.062
	c0.059-0.081-1.24-1.554-4.645-0.645c-5.754,1.534-9.947,7.169-16.294,5.512c-1.896-0.494-3.304-1.215-4.995-2.777
	c-0.015-0.014-3.482,0.823-5.476,0.727c-2.937-0.141-4.048-0.822-7.747-3.923c-0.201-0.171-3.852,0.65-5.758,0.199
	c-3.128-0.743-5.684-2.622-7.078-5.465c-1.963,0.229-4.999,0.311-7.363-0.937c-3.697-1.948-4.228-5.799-5.295-6.122
	c-6.334-1.918-7.89-2.969-9.531-9.72c-0.092-0.382-2.68-2.266-3.891-3.827c-2.307-2.974-2.337-5.451-1.207-8.561
	c0.268-0.732,0.523-1.67,0.628-2.111H166.386L166.386,50.52z"/>
<path fill="#B4B3B4" d="M166.386,50.52c0.104-0.441,0.361-1.379,0.627-2.111c1.132-3.108,1.102-5.587-1.205-8.561
	c-1.213-1.562-3.799-3.447-3.892-3.826c-1.642-6.752-3.197-7.802-9.531-9.721c-1.067-0.324-1.597-4.174-5.294-6.122
	c-2.364-1.246-5.402-1.166-7.363-0.938c-1.395-2.842-3.952-4.72-7.079-5.464c-1.905-0.452-5.557,0.37-5.76,0.2
	c-3.698-3.1-4.817-3.666-7.746-3.923c-2.006-0.177-5.435,0.782-5.476,0.725c-1.322-1.846-3.1-2.281-4.994-2.777
	c-6.349-1.657-10.521,4.052-16.295,5.513c-3.52,0.89-4.694-0.729-4.724-0.672c0.59-1.078,2.995-4.202,0.934-8.088
	c-0.641-1.204-1.789-1.857-3.032-1.889c-1.245,0.032-2.445,0.712-3.138,1.942c-2.115,3.757,0.291,7.127,0.959,8.062
	c0.059,0.083-1.24,1.554-4.645,0.646c-5.754-1.535-9.947-7.169-16.294-5.513c-1.896,0.496-3.304,1.216-4.995,2.777
	c-0.015,0.014-3.482-0.821-5.476-0.725c-2.937,0.141-4.048,0.823-7.747,3.923c-0.201,0.169-3.852-0.652-5.758-0.2
	c-3.128,0.744-5.684,2.622-7.078,5.464c-1.963-0.228-4.999-0.308-7.363,0.938c-3.697,1.948-4.228,5.798-5.295,6.122
	c-6.334,1.918-7.89,2.968-9.531,9.721c-0.092,0.379-2.68,2.264-3.891,3.826c-2.307,2.974-2.337,5.453-1.207,8.561
	c0.268,0.732,0.523,1.67,0.628,2.111H166.386L166.386,50.52z"/>
<path fill="#FFFFFF" d="M85.443,95.704c1.193,0.039,1.726-1.825,1.583-3.257c-0.289-2.909-1.565-2.846-1.562-2.856
	c-0.012,0.028-1.217,0.351-1.562,2.856c-0.196,1.425,0.255,3.275,1.583,3.257H85.443L85.443,95.704z"/>
<path fill="#FFFFFF" d="M85.443,5.551c1.193-0.04,1.855,1.843,1.583,3.255c-0.209,1.083-0.84,2.926-1.562,2.856
	c-0.684,0.05-1.352-1.773-1.562-2.856c-0.273-1.412,0.255-3.276,1.583-3.255H85.443L85.443,5.551z"/>
<path fill="#FFFFFF" d="M85.463,86.406c6.508-4.444,10.78,0.613,16.597,3.79c3.08,1.683,8.813,0.105,10.946-2.254
	c4.558,1.228,9.847,0.613,13.207-3.073c4.85,1.235,9.548-1.222,12.594-4.915c4.782,0.677,9.477-2.767,11.979-6.758
	c4.838-0.964,8.271-5.311,9.522-9.832c4.027-2.417,6.548-8.095,4.311-12.737c2.237-4.643-0.283-10.32-4.311-12.738
	c-1.251-4.521-4.685-8.868-9.522-9.832c-2.502-3.992-7.196-7.435-11.979-6.759c-3.046-3.692-7.744-6.149-12.594-4.916
	c-3.36-3.685-8.649-4.299-13.207-3.071c-2.133-2.361-7.866-3.938-10.946-2.255c-5.816,3.178-10.089,8.235-16.597,3.791
	c-6.507,4.445-10.779-0.613-16.596-3.791c-3.08-1.683-8.814-0.106-10.947,2.255c-4.557-1.228-9.846-0.613-13.207,3.071
	c-4.849-1.233-9.547,1.224-12.593,4.916c-4.782-0.676-9.477,2.767-11.979,6.759c-4.838,0.964-8.27,5.311-9.521,9.832
	c-4.028,2.417-6.548,8.095-4.312,12.738c-2.236,4.643,0.283,10.32,4.312,12.737c1.251,4.521,4.683,8.868,9.521,9.832
	c2.503,3.991,7.197,7.435,11.979,6.758c3.046,3.693,7.744,6.15,12.593,4.915c3.361,3.687,8.65,4.301,13.207,3.073
	c2.133,2.359,7.867,3.937,10.947,2.254C74.684,87.02,78.957,81.962,85.463,86.406L85.463,86.406z"/>
<path fill="#B4B3B4" d="M78.903,54.742c1.182,1.407,3.492,1.088,5.166,0.546l1.246-0.567l0.004,3.736
	c-2.984,1.576-7.402,1.548-9.99-0.732c-2.194-1.969-2.554-4.822-2.188-7.675c0.523-2.382,2.553-4.652,4.944-5.158
	c2.983-0.62,5.966,0.394,7.373,3.097c0.698,1.251,0.845,2.616,0.956,4.052L78.903,54.742L78.903,54.742z"/>
<path fill="#B4B3B4" d="M67.561,46.045c-1.445-1.464-4.135-1.295-5.796-0.423c-2.504,1.465-3.349,4.194-3.376,6.98
	c0,2.76,1.238,5.602,3.91,6.671c1.605,0.62,3.715,0.423,5.066-0.591c0.168,0.843,0.056,1.802-0.535,2.421
	c-1.746,1.52-4.531,0.873-6.416,0.141l0.008,4.073c2.898,0.985,7.056,1.274,9.559-0.695c1.577-1.324,2.252-3.124,2.309-5.151
	l0.017-14.298h-4.604L67.561,46.045L67.561,46.045z"/>
<polygon fill="#B4B3B4" points="13.065,38.602 13.065,59.446 18.122,59.454 18.127,51.251 23.202,51.252 23.188,59.471 
	28.266,59.471 28.252,38.615 23.131,38.615 23.131,46.446 18.135,46.446 18.129,38.602 13.065,38.602 "/>
<path fill="#B4B3B4" d="M38.242,46.242c-1.323-1.406-3.854-1.322-5.46-0.619c-2.756,1.408-3.882,4.334-3.714,7.375
	c0.085,2.533,1.069,5.121,3.519,6.276c1.856,0.788,4.277,0.676,5.881-0.676l0.112,0.817h4.39V45.37h-4.587L38.242,46.242
	L38.242,46.242z"/>
<path fill="#FFFFFF" d="M36.209,49.683c0,0-2.111-0.105-2.111,2.849c0,0-0.282,2.816,2.182,2.816c0,0,2.039,0.105,2.039-2.85
	C38.319,52.498,38.635,49.753,36.209,49.683L36.209,49.683z"/>
<path fill="#B4B3B4" d="M40.272,43.743c1.469,0,2.66-1.192,2.66-2.662c0-1.471-1.191-2.663-2.66-2.663
	c-1.471,0-2.662,1.191-2.662,2.663C37.61,42.551,38.801,43.743,40.272,43.743L40.272,43.743z"/>
<path fill="#B4B3B4" d="M33.94,43.743c1.469,0,2.661-1.192,2.661-2.662c0-1.471-1.192-2.663-2.661-2.663
	c-1.471,0-2.66,1.191-2.66,2.663C31.28,42.551,32.469,43.743,33.94,43.743L33.94,43.743z"/>
<path fill="#B4B3B4" d="M52.909,46.242c-1.322-1.406-3.855-1.322-5.459-0.619c-2.758,1.408-3.883,4.334-3.715,7.375
	c0.085,2.533,1.07,5.121,3.518,6.276c1.857,0.788,4.277,0.676,5.881-0.676l0.113,0.817h4.389V45.37h-4.586L52.909,46.242
	L52.909,46.242z"/>
<path fill="#FFFFFF" d="M65.508,49.507c0,0-2.111-0.105-2.111,2.851c0,0-0.28,2.814,2.182,2.814c0,0,2.041,0.104,2.041-2.851
	C67.62,52.321,67.934,49.577,65.508,49.507L65.508,49.507z"/>
<path fill="#B4B3B4" d="M133.246,46.242c-1.323-1.406-3.856-1.322-5.458-0.619c-2.76,1.408-3.884,4.334-3.717,7.375
	c0.086,2.533,1.07,5.121,3.518,6.276c1.858,0.788,4.277,0.676,5.881-0.676l0.114,0.817h4.39V45.37h-4.587L133.246,46.242
	L133.246,46.242z"/>
<path fill="#FFFFFF" d="M131.211,49.683c0,0-2.11-0.105-2.11,2.849c0,0-0.281,2.816,2.182,2.816c0,0,2.04,0.105,2.04-2.85
	C133.323,52.498,133.639,49.753,131.211,49.683L131.211,49.683z"/>
<polygon fill="#B4B3B4" points="138.74,45.373 138.74,49.401 143.03,49.401 138.388,59.429 149.221,59.429 149.221,55.629 
	145.352,55.629 150.083,45.373 138.74,45.373 "/>
<path fill="#B4B3B4" d="M159.385,45.953v3.624c0,0-1.688-0.844-3.692-0.634c0,0-1.513-0.034-1.513,0.881
	c0,0-0.141,0.492,1.406,0.632c0,0,2.428,0.035,3.869,1.478c0,0,1.127,1.161,0.986,2.885c0,0,0.104,2.604-2.287,3.976
	c0,0-2.075,1.407-5.275,0.985c0,0-2.849-0.457-3.061-0.738v-3.906c0,0,1.899,0.985,3.518,1.021c0,0,1.97,0.036,2.04-0.809
	c0,0,0.175-0.705-1.794-1.057c0,0-2.674-0.263-3.922-2.515c0,0-1.143-2.867,0.932-5.014c0,0,1.672-1.758,4.31-1.583
	C154.902,45.179,157.417,45.145,159.385,45.953L159.385,45.953z"/>
<polygon fill="#B4B3B4" points="105.994,48.873 101.208,48.873 101.208,53.447 105.994,53.447 105.994,48.873 "/>
<path fill="#B4B3B4" d="M87.078,59.481V45.426h4.177l0.177,0.879c0,0,1.372-1.161,2.813-1.231c0,0,1.794-0.282,3.06,0.528
	c0,0,1.97,0.844,2.251,3.659v10.238h-4.502v-8.584c0,0-0.143-1.439-1.548-1.513c-1.353-0.07-1.706,0.423-1.792,1.513v8.567H87.078
	L87.078,59.481z"/>
<path fill="#FFFFFF" d="M50.875,49.683c0,0-2.111-0.105-2.111,2.849c0,0-0.28,2.816,2.182,2.816c0,0,2.039,0.105,2.039-2.85
	C52.985,52.498,53.303,49.753,50.875,49.683L50.875,49.683z"/>
<path fill="#B4B3B4" d="M107.787,38.602v20.862h6.121c0,0,3.904-0.176,5.697-1.443c0,0,4.115-1.828,4.22-9.218
	c0,0,0.07-6.508-4.186-8.865c0,0-2.215-1.39-5.311-1.336H107.787L107.787,38.602z"/>
<path fill="#FFFFFF" d="M113.133,43.28v11.574h1.406c0,0,1.478-0.035,2.392-1.091c0,0,1.514-1.301,1.514-4.714
	c0-0.106-0.018-3.834-1.794-4.961c0,0-0.827-0.808-2.146-0.808H113.133L113.133,43.28z"/>
<path fill="#FFFFFF" d="M81.473,49.995c-0.264-0.805-0.996-1.384-1.859-1.384c-1.087,0-1.966,0.913-1.966,2.041
	c0,0.218,0.034,0.43,0.096,0.628L81.473,49.995L81.473,49.995z"/>
<path fill="#B4B3B4" d="M154.146,65.777L154.146,65.777L154.146,65.777c0.615,0,1.171-0.249,1.572-0.65
	c0.401-0.402,0.649-0.957,0.65-1.57h-0.001v-0.003v-0.001h0.001c0-0.613-0.249-1.169-0.65-1.571l0,0
	c-0.401-0.401-0.957-0.65-1.57-0.65l0,0h-0.002h-0.001l0,0c-0.613,0-1.169,0.249-1.57,0.651c-0.401,0.401-0.65,0.956-0.65,1.569l0,0
	v0.002v0.002l0,0c0,0.613,0.249,1.169,0.65,1.571h0.001c0.401,0.401,0.956,0.65,1.568,0.65l0,0H154.146L154.146,65.777z
	 M154.147,65.957L154.147,65.957L154.147,65.957h-0.003l0,0c-0.662-0.001-1.262-0.27-1.695-0.703l0,0
	c-0.435-0.435-0.704-1.035-0.704-1.698l0,0v-0.002v-0.002l0,0c0.001-0.662,0.27-1.263,0.703-1.696
	c0.434-0.435,1.034-0.703,1.697-0.704l0,0h0.001h0.002l0,0c0.663,0.001,1.263,0.27,1.696,0.703h0.001l0,0
	c0.434,0.435,0.702,1.035,0.702,1.698h0.001v0.001v0.003h-0.001c0,0.662-0.269,1.263-0.702,1.696
	C155.412,65.688,154.811,65.957,154.147,65.957L154.147,65.957z"/>
<path fill="#B4B3B4" d="M153.203,65.206h0.331v-3.011h0.668c0.452,0,0.918,0.256,0.918,0.762c0,0.488-0.412,0.762-0.981,0.744
	h-0.277l1.129,1.505h0.417l-0.937-1.24c0.604,0,1.025-0.529,0.98-1.044c-0.035-0.412-0.192-1.031-1.356-1.031h-0.892V65.206
	L153.203,65.206z"/>
</svg>
