<?xml version="1.0" encoding="utf-8"?>
<!-- Generator: Adobe Illustrator 15.0.0, SVG Export Plug-In . SVG Version: 6.00 Build 0)  -->
<!DOCTYPE svg PUBLIC "-//W3C//DTD SVG 1.1//EN" "http://www.w3.org/Graphics/SVG/1.1/DTD/svg11.dtd">
<svg version="1.1" id="Layer_1" xmlns="http://www.w3.org/2000/svg" xmlns:xlink="http://www.w3.org/1999/xlink" x="0px" y="0px"
	 width="195.055px" height="79.801px" viewBox="0 0 195.055 79.801" enable-background="new 0 0 195.055 79.801"
	 xml:space="preserve">
<path fill="#B4B3B4" d="M155.13,55.632c8.936,0,16.177-7.255,16.177-16.203c0-8.947-7.241-16.199-16.177-16.199
	c-8.934,0-16.178,7.252-16.178,16.199C138.952,48.377,146.197,55.632,155.13,55.632"/>
<path fill="#B4B3B4" d="M155.025,60.661c-11.447,0-20.725-9.295-20.725-20.761c0-11.465,9.276-20.76,20.725-20.76
	c11.445,0,20.725,9.295,20.725,20.76C175.75,51.366,166.47,60.661,155.025,60.661 M115.835,45.314
	c-1.545-2.043-3.791-3.978-7.043-5.852c3.677-1.898,6.033-4.229,7.439-7.335c-0.496,2.521-0.759,5.121-0.759,7.785
	C115.473,41.747,115.6,43.55,115.835,45.314 M96.846,60.466c-1.755,1.445-4.126,1.342-6.293,1.342h-9.391V47.379h8.563
	c5.187,0,9.624,1.347,9.847,7.403C99.574,56.749,98.395,59.328,96.846,60.466 M81.194,18.198h8.435c4.115,0,8.438,0.721,8.438,5.976
	c0.303,4.742-2.533,7.555-8.218,7.555l-8.654,0.031L81.194,18.198L81.194,18.198z M155.208,0c-17.422,0-32.229,11.199-37.646,26.799
	c0.206-1.531,0.3-3.201,0.3-5.033c0-5.778-3.312-12.049-8.049-15.451c-4.432-3.199-8.906-5.15-14.264-5.15H61.037v78.598h32.347
	c6.39,0,11.864-2.351,17.323-6.271c5.05-3.614,8.272-10.038,8.272-16.124c0-0.284-0.002-0.564-0.007-0.846
	c6.295,13.738,20.149,23.281,36.233,23.281c22.004,0,39.848-17.865,39.848-39.9C195.055,17.864,177.212,0,155.208,0"/>
<polygon fill="#B4B3B4" points="36.373,29.007 20.088,29.007 20.088,0.019 0.001,0.019 0.001,78.89 19.989,78.89 19.989,48.109 
	36.274,48.109 36.274,78.89 56.623,78.89 56.623,0.019 36.373,0.019 "/>
</svg>
