<?xml version="1.0" encoding="utf-8"?>
<!-- Generator: Adobe Illustrator 15.0.0, SVG Export Plug-In . SVG Version: 6.00 Build 0)  -->
<!DOCTYPE svg PUBLIC "-//W3C//DTD SVG 1.1//EN" "http://www.w3.org/Graphics/SVG/1.1/DTD/svg11.dtd">
<svg version="1.1" id="Layer_1" xmlns="http://www.w3.org/2000/svg" xmlns:xlink="http://www.w3.org/1999/xlink" x="0px" y="0px"
	 width="195.054px" height="79.802px" viewBox="92.714 150.608 195.054 79.802"
	 enable-background="new 92.714 150.608 195.054 79.802" xml:space="preserve">
<path fill="#231F20" d="M247.843,206.24c8.935,0,16.176-7.254,16.176-16.202s-7.241-16.2-16.176-16.2
	c-8.934,0-16.178,7.252-16.178,16.2S238.91,206.24,247.843,206.24"/>
<path fill="#231F20" d="M247.738,211.269c-11.447,0-20.725-9.295-20.725-20.76s9.277-20.76,20.725-20.76
	c11.445,0,20.725,9.295,20.725,20.76S259.183,211.269,247.738,211.269 M208.548,195.923c-1.545-2.044-3.791-3.978-7.043-5.852
	c3.676-1.899,6.033-4.228,7.439-7.335c-0.496,2.52-0.759,5.121-0.759,7.785C208.186,192.355,208.313,194.158,208.548,195.923
	 M189.559,211.075c-1.755,1.445-4.126,1.342-6.293,1.342h-9.39v-14.429h8.563c5.187,0,9.624,1.347,9.847,7.403
	C192.287,207.357,191.108,209.936,189.559,211.075 M173.907,168.806h8.435c4.115,0,8.438,0.721,8.438,5.976
	c0.303,4.742-2.533,7.554-8.218,7.554l-8.654,0.031V168.806z M247.921,150.608c-17.422,0-32.23,11.199-37.646,26.799
	c0.206-1.532,0.3-3.201,0.3-5.034c0-5.778-3.312-12.048-8.049-15.451c-4.432-3.199-8.906-5.15-14.264-5.15h-34.512v78.597h32.346
	c6.39,0,11.865-2.35,17.324-6.27c5.049-3.614,8.272-10.038,8.272-16.124c0-0.284-0.002-0.565-0.007-0.846
	c6.295,13.739,20.15,23.281,36.234,23.281c22.004,0,39.847-17.865,39.847-39.9C287.768,168.472,269.925,150.608,247.921,150.608"/>
<polygon fill="#231F20" points="129.086,179.615 112.801,179.615 112.801,150.628 92.714,150.628 92.714,229.499 112.702,229.499 
	112.702,198.717 128.987,198.717 128.987,229.499 149.336,229.499 149.336,150.628 129.086,150.628 "/>
</svg>
