<?xml version="1.0" encoding="utf-8"?>
<!-- Generator: Adobe Illustrator 15.0.0, SVG Export Plug-In . SVG Version: 6.00 Build 0)  -->
<!DOCTYPE svg PUBLIC "-//W3C//DTD SVG 1.1//EN" "http://www.w3.org/Graphics/SVG/1.1/DTD/svg11.dtd">
<svg version="1.1" id="Layer_1" xmlns="http://www.w3.org/2000/svg" xmlns:xlink="http://www.w3.org/1999/xlink" x="0px" y="0px"
	 width="205.391px" height="192.23px" viewBox="0 0 205.391 192.23" enable-background="new 0 0 205.391 192.23"
	 xml:space="preserve">
<path fill="#B4B3B4" d="M181.694,191.938H23.69C10.604,191.938,0,182.03,0,169.821V22.406C0,10.196,10.604,0.293,23.69,0.293
	h158.005c13.087,0,23.696,9.903,23.696,22.113v147.415C205.391,182.03,194.781,191.938,181.694,191.938 M102.692,59.26
	c-21.819,0-39.501,16.494-39.501,36.855c0,20.347,17.682,36.855,39.501,36.855c21.817,0,39.501-16.508,39.501-36.855
	C142.194,75.755,124.509,59.26,102.692,59.26 M181.694,29.778c0-4.073-3.54-7.372-7.908-7.372H150.09
	c-4.362,0-7.896,3.299-7.896,7.372V51.89c0,4.066,3.534,7.371,7.896,7.371h23.695c4.368,0,7.908-3.305,7.908-7.371V29.778z
	 M181.694,81.368H163.81c1.305,4.719,2.078,9.648,2.078,14.749c0,32.565-28.3,58.967-63.197,58.967
	c-34.903,0-63.197-26.402-63.197-58.967c0-5.1,0.773-10.03,2.079-14.749H23.69v81.082c0,4.064,3.537,7.371,7.912,7.371h142.184
	c4.368,0,7.908-3.307,7.908-7.371V81.368z"/>
</svg>
