<?xml version="1.0" encoding="utf-8"?>
<!-- Generator: Adobe Illustrator 15.0.0, SVG Export Plug-In . SVG Version: 6.00 Build 0)  -->
<!DOCTYPE svg PUBLIC "-//W3C//DTD SVG 1.1//EN" "http://www.w3.org/Graphics/SVG/1.1/DTD/svg11.dtd">
<svg version="1.1" id="Layer_1" xmlns="http://www.w3.org/2000/svg" xmlns:xlink="http://www.w3.org/1999/xlink" x="0px" y="0px"
	 width="193.256px" height="40.014px" viewBox="0 0 193.256 40.014" enable-background="new 0 0 193.256 40.014"
	 xml:space="preserve">
<g>
	<path fill="#B4B3B4" d="M164.738,3.755c-5.646,1.322-8.011,2.242-14.319,5.308c-9.758,4.737-16.226,10.936-18.902,15.955
		c-0.719,1.616-0.99,3.582-0.793,5.045c0.074,1.028,0.361,2.047,0.802,2.979c1.565,2.672,4.274,3.404,6.97,3.375
		c1.164,0.08,2.32,0.002,3.363-0.186c0.363-0.078,3.08-0.363,3.984-1.66c0.17-0.289,0.179-0.457,0.078-0.559
		c-0.209-0.222-0.49-0.089-2.113,0.047c-4.842,0.186-8.621,0.213-10.047-2.291c-1.674-3.185,0.539-7.318,2.371-9.332
		c3.302-3.771,8.031-7.582,14.66-11.031c3.696-1.922,7.807-3.756,11.76-4.773c2.127-0.545,4.002-0.985,6.219-1.024
		c1.807,0.106,2.495,0.244,3.709,1.018c0.799,0.652,1.105,1.558,0.965,2.066c-0.135,0.613-0.695,0.809-0.373,1.139
		c0.512,0.599,1.327,0.135,1.833-0.524c0.173-0.357,0.614-0.869,0.438-2.197C174.535,3.743,170.017,2.55,164.738,3.755"/>
	<path fill="#B4B3B4" d="M172.792,24.716c0.344,0.558,0.28,1.132-0.228,1.539c-3.347,1.851-5.479,2.979-7.918,5.974
		c-0.479,0.772,0.051,1.455,0.824,1.521c2.832,0.08,6.771-0.608,6.771-0.608c0.137,0.118,0.247,0.057,0.225,0.215
		c-2.196,2.033-5.391,2.186-6.516,2.317c-1.136-0.032-2.488,0.076-3.289-0.877c-0.921-1.088-0.671-2.821-0.115-3.592
		c2.569-3.174,5.537-4.58,8.971-6.709C171.995,24.193,173.023,24.005,172.792,24.716"/>
	<path fill="#B4B3B4" d="M63.145,23.677c0.003,0.562,0.688,0.439,0.536,1.064c-1.68,2.92-2.797,5.076-4.381,7.883
		c-0.172,0.291,0.352,0.551,1.057-0.113c2.984-2.813,5.633-6.631,8.676-9.278c0.393-0.246,0.584-0.16,1.223-0.058
		c0.996,0.162,0.404,1.005,0.158,1.269c-4.151,3.342-7.123,11.125-12.108,11.611c-0.644,0.063-1.13-0.197-1.279-0.628
		c-0.356-1.02,0.415-1.926,0.312-3.067c-2.037,2.039-1.976,1.299-4.154,3.354c-0.799,0.539-1.395-0.061-1.721-0.639
		c-0.426-0.518-0.18-1.238,0.326-1.51l0.368-0.037c5.185-3.172,6.05-5.887,9.66-10.326C62.429,22.935,62.859,23.501,63.145,23.677"
		/>
	<path fill="#B4B3B4" d="M84.03,24.032c0.096,1.344-1.346,4.209-2.285,5.664c-2.396,3.703-4.353,5.77-8.1,5.715
		c-0.484-0.061-0.713-0.324-0.889-0.578c-0.147-0.231-0.174-1.385-0.192-2.473c-1.338,1.518-1.842,2.061-2.437,2.553
		c-0.396,0.33-1.756,1.246-2.237,1.271c-0.152,0.049-1.022-1.207-0.699-2.05c-0.09-0.805,0.782-0.508,1.149-0.975
		c4.209-2.666,3.642-4.428,7.117-8.057c-0.146-0.365,0.271-0.406,0.459-0.584c0.61-0.166,1.166,0.729,1.201,0.918
		c-0.328,1.84-1.377,3.657-2.033,5.28c-0.26,0.642-0.955,1.654-0.265,1.976c2.324-0.381,4.519-3.076,6.001-5.443
		c0.707-1.121,2.412-4.36,2.863-3.789L84.03,24.032z"/>
	<path fill="#B4B3B4" d="M55.189,22.378c0.336,0.283,0.83,1.004,0.213,1.103c-1.051,0.771-2.635,1.182-3.55,1.61
		c-1.859,0.849-3.288,1.505-4.932,2.625c1.277,0.229,2.775-0.096,3.705,0.729c0.367,0.637,0.238,1.49-6.275,4.967
		c-2.854,1.172,1.184,1.025,1.676,2.168c0.1,0.209-0.275,0.621-0.643,0.724c-0.576,0.174-3.947-0.343-4.157-0.613
		c-0.483-0.119-0.856-1.547-0.392-2.199c0.324-0.656,3.357-2.322,4.953-3.457c-0.379-0.115-1.221-0.215-1.654-0.656
		c-0.366-0.289-0.663-1.336-0.204-2.041c0.468-0.782,5.711-3.812,7.737-4.543C52.794,22.39,53.99,21.378,55.189,22.378"/>
	<path fill="#B4B3B4" d="M95.132,23.013c0.058,0.521,0.26,0.959-0.322,1.213c-1.062,0-3.549,0.606-3.43,0.854
		c0.994,0.654,2.054,1.166,2.518,1.664c0.342,0.729-0.27,1.471-0.947,1.924c-3.021,1.998-5.91,2.81-6.916,4.785
		c0.236,0.187,3.113-0.207,3.084,0.633c-0.256,0.562-0.17,1.412-0.996,1.494c-1.013,0.32-3.801-0.301-4.435-0.936
		c-0.537-0.363-0.204-1.896,0.229-2.383c2.179-2.744,3.453-2.49,6.049-4.687c-0.612-0.906-1.758-1.379-1.269-2.715
		c0.405-1.494,1.697-2.016,3.104-2.342c0.826-0.193,2.016-0.558,2.431-0.449C94.232,22.072,94.919,22.243,95.132,23.013"/>
	<path fill="#B4B3B4" d="M114.517,23.405c0.689,1.174-0.527,3.064-1.096,4.191c1.457,0.209,3.26,0.397,3.438,0.176
		c1.82-2.254,2.464-3.189,4.074-5.238c1.333-1.695,1.539-2.367,2.508-2.291c0.636-0.193,0.7,0.633,0.476,1.127
		c-1.008,2.42-2.664,4.244-4.146,6.476c0.902,0.114,3.564-0.8,3.139,0.35c-0.634,1.131-3.539,1.568-5.177,1.824l-3.969,5.375
		c-0.328,0.227-1.692,0.293-1.765-0.269c0.035-0.946,1.396-2.565,1.765-3.19c0.366-0.556,0.967-1.383,1.213-1.767
		c-0.356-0.002-3.213,0.285-3.015-0.385c-0.85,0.621-1.86,1.572-2.938,2.623c-1.444,1.174-3.461,3.463-4.162,3.621
		c-0.75,0.016-1.055-0.633-1.062-0.902c-0.104-0.463,0.459-1.088,0.693-1.313c1.957-1.861,4.188-3.99,5.738-5.885
		c0.698-0.806,1.914-2.91,1.801-3.488c-0.006-0.461-2.98-1.398-4.707-1.433c-2.123-0.104-4.266,0.354-6.164,1.281
		c-0.562,0.324-1.188,0.601-1.272,0.5c-0.05-0.059-0.097-0.156-0.144-0.254c-0.152-0.158-1.713-0.246-1.599-0.94
		c-0.444-0.341,1.998-1.443,4.171-2.066c3.463-0.992,6.244-0.707,8.82-0.062C112.874,21.9,114.202,22.933,114.517,23.405"/>
	<path fill="#B4B3B4" d="M104.702,27.255c-3.064,3.14-5.228,5.974-8.902,8.48c-0.514,0.111-1.123-0.226-1.297-0.693
		c-0.482-1.305,1.475-1.896,2.399-2.824c2.294-2.12,6-6.385,6.537-6.514C104.981,25.202,104.702,27.255,104.702,27.255"/>
	<path fill="#B4B3B4" d="M28.503,21.394c6.465-8.334,12.023-15.722,14.6-18.785c0.734-0.941,1.223-1.756,0.583-2.287
		c-0.955-0.795-1.924,0.092-2.187,0.449c-1.734,1.918-7.608,9.737-9.326,11.813c-1.717,2.076-6.049,7.646-8.008,10.146
		c-1.961,2.496-9.968,12.156-11.049,13.305c-1.072,1.139-1.812,1.781-2.178,2.791c-0.075,0.777,0.366,1.084,1.206,1.174
		c0.87,0.097,1.209-0.453,1.396-0.617C17.524,34.308,24.417,26.665,28.503,21.394"/>
	<path fill="#B4B3B4" d="M66.482,2.902c-0.735-0.986-1.854-0.691-2.59-0.26c-3.847,2.744-11.695,7.348-15.74,9.69
		c-2.987,1.699-6.905,4.113-10.542,5.933c-3.195,1.6-8.402,4.004-8.904,6.504c-0.597,1.643,0.053,3.383,1.037,5.062
		c0.983,1.683,3.627,4.854,6.301,5.469c0.527,0.076,1.178-0.26,1.078-0.721c-2.4-2.051-5.371-5.258-6.004-7.168
		c-0.587-1.774,0.271-2.688,1.103-3.334c0.585-0.453,2.319-1.5,4.708-2.727c5.488-2.824,18.635-10.752,20.548-11.861
		c2.746-1.59,4.61-2.758,8.237-4.953C66.677,3.907,66.958,3.53,66.482,2.902"/>
	<path fill="#B4B3B4" d="M9.642,20.298c0.725,0.039,0.859,0.011,2.189,0.054c1.815,0.057,3.254-0.302,4.379-0.035
		c1.129,0.262,1.67,1.383,1.088,1.906c-0.418,0.379-1.629,0.18-2.371,0.077c-0.803-0.11-0.698-0.1-1.486-0.043
		c-0.791,0.054-1.268,0.031-2.021,0.019c-0.756-0.014-2.06-0.082-3.064-0.092c-1.12-0.013-3.732-0.054-4.079-0.041
		c-0.34,0.014-2.071-0.082-3.362-0.076c-1.149,0.008-1.305-1.779,0.062-1.869c1.365-0.09,3.533-0.002,4.508,0.057
		C6.423,20.308,7.78,20.197,9.642,20.298"/>
	<path fill="#B4B3B4" d="M152.46,33.634c-0.482-0.1-1.244,0.097-1.082-1.032c-0.4-0.634,3.844-4.468,7.51-4.47
		C157.253,32.097,155.161,33.466,152.46,33.634 M160.816,25.202c-0.562-0.893-2.121-1.291-2.212,0.328
		c-1.518,0.459-3.277,1.066-4.814,1.814c-2.215,1.188-4.822,2.831-5.002,6.016c-0.052,0.979,0.565,2.162,1.774,2.565
		c1.125,0.38,5.344,0.095,7.438-1.918C158.809,33.238,161.902,28.025,160.816,25.202"/>
	<path fill="#B4B3B4" d="M179.56,31.784c-0.719,0.146-1.082,0.051-1.399,0.295c-0.581,0.453-0.365,0.422-0.738,0.988
		c-0.21,0.317,0.693,0.91,1.899,0.771c1.283-0.145,2.449-0.42,2.849-0.526c0.784-0.211,0.468,0.088,0.424,0.674
		c-0.711,2.102-4.125,1.84-4.729,1.943c-1.114-0.011-2.13,0.145-2.893-0.703c-1.079-1.193,0.325-3.379,1.536-4.795
		c2.137-2.029,3.389-3.494,5.511-5.183c0.953-0.639,3.96-0.639,6.659-0.944c2.052-0.234,0.886-0.169,4.104-0.33
		c0.943,0.108,0.256,1.229-0.158,1.332c-5.238,1.053-4.9,1.01-7.018,1.678c-0.844,0.262-1.793,0.631-2.373,0.42
		c-0.158-0.58-0.174-0.01-1.422,0.949c-0.146,0.119-1.111,0.983-1.497,1.354c1.984,0.158,4.09-0.521,3.418,0.318
		c0.227,0.268-0.07,0.881-0.493,1.096C182.831,31.333,180.271,31.644,179.56,31.784"/>
</g>
</svg>
