<?xml version="1.0" encoding="utf-8"?>
<!-- Generator: Adobe Illustrator 15.0.0, SVG Export Plug-In . SVG Version: 6.00 Build 0)  -->
<!DOCTYPE svg PUBLIC "-//W3C//DTD SVG 1.1//EN" "http://www.w3.org/Graphics/SVG/1.1/DTD/svg11.dtd">
<svg version="1.1" id="Layer_1" xmlns="http://www.w3.org/2000/svg" xmlns:xlink="http://www.w3.org/1999/xlink" x="0px" y="0px"
	 width="195.518px" height="88.739px" viewBox="131.119 145.638 195.518 88.739"
	 enable-background="new 131.119 145.638 195.518 88.739" xml:space="preserve">
<g>
	<polygon fill="#231F20" points="228.955,145.638 177.463,168.344 147.503,168.344 147.503,177.85 131.119,177.85 131.119,234.377 
		326.636,234.377 326.636,177.85 310.408,177.85 310.408,168.344 280.449,168.344 	"/>
	<path fill="#FFFFFF" d="M202.74,188.834c1.717,0.16,3.121,1.609,3.744,3.221l0.312,1.771v23.512
		c-0.312,1.449-1.246,3.061-2.807,3.545l-2.342,0.32H186.98c-1.559-0.158-2.809-0.482-3.744-1.771
		c-0.625-0.805-0.625-1.771-0.625-2.576v-24.479c0.156-1.447,1.094-2.736,2.342-3.223l1.092-0.32H202.74z M198.373,196.242h-7.333
		v17.393h7.333V196.242z"/>
	<polygon fill="#FFFFFF" points="166.227,180.908 166.227,212.635 179.179,212.635 179.179,220.203 157.8,220.203 157.8,180.908 	
		"/>
	<rect x="272.802" y="180.908" fill="#FFFFFF" width="7.334" height="9.342"/>
	<path fill="#FFFFFF" d="M300.107,191.573v6.602c-1.404-0.482-3.119-1.447-4.523-1.771c-2.498-1.127-6.553-2.254-8.27-0.322
		c-0.625,0.484-0.779,1.127-0.779,1.936c0.467,2.252,2.963,2.576,4.367,3.701c4.057,1.613,9.363,4.348,9.834,9.344
		c0.775,3.701-0.471,7.084-3.123,9.502c-5.15,4.186-18.568-0.326-18.568-0.326v-7.406c0,0,8.895,3.381,11.076,3.061
		c1.25-0.162,2.342-0.967,2.811-1.934c0.154-1.127,0.154-1.934-0.469-2.738c-4.367-3.219-9.986-3.703-13.107-9.018
		c-1.402-2.9-1.248-7.088,0.469-9.664c2.652-3.867,6.711-4.992,11.078-4.67C295.583,188.67,300.107,191.573,300.107,191.573"/>
	<path fill="#FFFFFF" d="M232.857,213.635h4.523l-0.156-24.801h8.738v27.379c0.158,1.932-0.779,3.701-2.496,4.508l-1.717,0.482
		h-10.453c-1.094-0.32-2.184-1.447-2.811-2.574c-0.779,1.449-1.246,2.574-2.809,2.574h-9.986c-0.779-0.158-1.09-0.32-1.561-0.482
		c-0.936-0.484-2.494-1.127-2.494-4.508v-27.379h8.582l-0.158,24.801h4.838v-24.801h7.959V213.635z"/>
	<polygon fill="#FFFFFF" points="270.773,195.242 259.226,195.242 259.226,200.397 270.773,200.397 270.929,207.643 
		259.226,207.643 259.226,212.635 270.773,212.635 270.773,220.203 250.798,220.203 250.798,187.834 270.773,187.834 	"/>
	<path fill="#F1F6F8" d="M301.826,191.25c0-1.449,1.092-2.578,2.496-2.578s2.652,1.129,2.652,2.578c0,1.609-1.248,2.736-2.652,2.736
		S301.826,192.86,301.826,191.25 M304.322,193.502c1.246,0,2.184-0.965,2.184-2.252c0-1.289-0.938-2.096-2.184-2.096
		c-1.092,0-2.029,0.807-2.029,2.096C302.292,192.537,303.23,193.502,304.322,193.502 M303.855,192.86h-0.471v-3.059h1.094
		c0.781,0,1.09,0.16,1.09,0.805s-0.309,0.805-0.779,0.805l0.779,1.449h-0.465l-0.781-1.289h-0.467V192.86z M304.322,191.088
		c0.467,0,0.781,0,0.781-0.482c0-0.322-0.314-0.484-0.625-0.484h-0.623v0.967H304.322z"/>
</g>
</svg>
