<?xml version="1.0" encoding="utf-8"?>
<!-- Generator: Adobe Illustrator 15.0.0, SVG Export Plug-In . SVG Version: 6.00 Build 0)  -->
<!DOCTYPE svg PUBLIC "-//W3C//DTD SVG 1.1//EN" "http://www.w3.org/Graphics/SVG/1.1/DTD/svg11.dtd">
<svg version="1.1" id="Layer_1" xmlns="http://www.w3.org/2000/svg" xmlns:xlink="http://www.w3.org/1999/xlink" x="0px" y="0px"
	 width="195.518px" height="88.739px" viewBox="0 0 195.518 88.739" enable-background="new 0 0 195.518 88.739"
	 xml:space="preserve">
<g>
	<polygon fill="#B4B3B4" points="97.837,0 46.345,22.706 16.385,22.706 16.385,32.211 0.001,32.211 0.001,88.739 195.518,88.739 
		195.518,32.211 179.29,32.211 179.29,22.706 149.331,22.706 	"/>
	<path fill="#FFFFFF" d="M71.622,43.196c1.717,0.16,3.12,1.608,3.743,3.221l0.312,1.771V71.7c-0.312,1.449-1.246,3.061-2.808,3.545
		l-2.342,0.32H55.862c-1.559-0.158-2.809-0.482-3.744-1.771c-0.625-0.805-0.625-1.771-0.625-2.576V46.739
		c0.156-1.447,1.095-2.736,2.343-3.224l1.092-0.319H71.622z M67.255,50.604h-7.333v17.393h7.333V50.604L67.255,50.604z"/>
	<polygon fill="#FFFFFF" points="35.109,35.27 35.109,66.997 48.061,66.997 48.061,74.565 26.682,74.565 26.682,35.27 	"/>
	<rect x="141.684" y="35.27" fill="#FFFFFF" width="7.334" height="9.342"/>
	<path fill="#FFFFFF" d="M168.989,45.934v6.602c-1.403-0.481-3.119-1.446-4.522-1.771c-2.498-1.127-6.554-2.254-8.271-0.321
		c-0.625,0.483-0.778,1.127-0.778,1.936c0.467,2.252,2.963,2.576,4.366,3.701c4.058,1.613,9.363,4.348,9.834,9.344
		c0.775,3.701-0.471,7.084-3.122,9.502c-5.15,4.186-18.568-0.326-18.568-0.326v-7.406c0,0,8.895,3.381,11.076,3.062
		c1.25-0.162,2.342-0.968,2.811-1.935c0.154-1.127,0.154-1.934-0.469-2.737c-4.367-3.22-9.986-3.703-13.107-9.019
		c-1.401-2.899-1.248-7.088,0.47-9.664c2.651-3.867,6.711-4.992,11.077-4.67C164.465,43.032,168.989,45.934,168.989,45.934"/>
	<path fill="#FFFFFF" d="M101.739,67.997h4.523l-0.156-24.801h8.738v27.379c0.158,1.932-0.779,3.701-2.496,4.508l-1.717,0.482
		h-10.453c-1.094-0.32-2.185-1.447-2.812-2.574c-0.778,1.449-1.246,2.574-2.809,2.574h-9.986c-0.778-0.158-1.09-0.32-1.561-0.482
		c-0.937-0.484-2.494-1.127-2.494-4.508V43.196h8.582l-0.158,24.801h4.838V43.196h7.959L101.739,67.997L101.739,67.997z"/>
	<polygon fill="#FFFFFF" points="139.655,49.604 128.108,49.604 128.108,54.758 139.655,54.758 139.811,62.004 128.108,62.004 
		128.108,66.997 139.655,66.997 139.655,74.565 119.68,74.565 119.68,42.196 139.655,42.196 	"/>
	<path fill="#F1F6F8" d="M170.708,45.612c0-1.449,1.092-2.578,2.495-2.578c1.404,0,2.652,1.129,2.652,2.578
		c0,1.608-1.248,2.735-2.652,2.735C171.8,48.347,170.708,47.221,170.708,45.612 M173.203,47.864c1.246,0,2.185-0.965,2.185-2.252
		c0-1.289-0.938-2.097-2.185-2.097c-1.092,0-2.028,0.808-2.028,2.097C171.174,46.899,172.112,47.864,173.203,47.864 M172.737,47.221
		h-0.471v-3.059h1.094c0.781,0,1.09,0.16,1.09,0.805s-0.309,0.805-0.778,0.805l0.778,1.449h-0.465l-0.781-1.289h-0.467V47.221
		L172.737,47.221z M173.203,45.45c0.468,0,0.781,0,0.781-0.482c0-0.322-0.313-0.484-0.625-0.484h-0.623v0.967H173.203L173.203,45.45
		z"/>
</g>
</svg>
