<?xml version="1.0" encoding="utf-8"?>
<!-- Generator: Adobe Illustrator 15.0.0, SVG Export Plug-In . SVG Version: 6.00 Build 0)  -->
<!DOCTYPE svg PUBLIC "-//W3C//DTD SVG 1.1//EN" "http://www.w3.org/Graphics/SVG/1.1/DTD/svg11.dtd">
<svg version="1.1" id="Layer_1" xmlns="http://www.w3.org/2000/svg" xmlns:xlink="http://www.w3.org/1999/xlink" x="0px" y="0px"
	 width="200.926px" height="26.346px" viewBox="0 0 200.926 26.346" enable-background="new 0 0 200.926 26.346"
	 xml:space="preserve">
<g>
	<path fill="#B4B3B4" d="M70.786,10.903c0.74,0.406,1.684,0.613,2.78,0.613c1.114,0,2.015-0.207,2.786-0.613
		c0.785-0.372,1.154-0.86,1.154-1.397c0-0.573-0.369-1.019-1.154-1.393C75.581,7.7,74.681,7.5,73.566,7.541
		C72.468,7.5,71.558,7.7,70.786,8.113c-0.775,0.374-1.143,0.818-1.143,1.393C69.646,10.042,70.011,10.531,70.786,10.903"/>
	<path fill="#B4B3B4" d="M126.741,10.857c0.741,0.372,1.684,0.576,2.791,0.576c1.062,0,2.008-0.204,2.781-0.576
		c0.783-0.407,1.15-0.862,1.15-1.393c0-0.573-0.367-1.062-1.15-1.43c-0.773-0.37-1.719-0.576-2.781-0.576
		c-1.107,0-2.006,0.206-2.791,0.576c-0.773,0.367-1.141,0.855-1.141,1.43C125.601,9.993,125.968,10.448,126.741,10.857"/>
	<path fill="#B4B3B4" d="M198.879,21.749h-47.98c-10.062-1.279-10.991-5.646-11.267-7.215v-0.013c0-0.103-0.043-0.95-0.058-1.233
		c0.015-0.042,0.03-0.082,0.038-0.126c0.884-4.718,4.537-7.348,11.152-8.038h47.996c1.134,0,2.039-0.916,2.039-2.051
		c0-1.132-0.905-2.052-2.039-2.052h-48.139c-0.072,0-0.135,0.013-0.203,0.015c-10.693,1.096-13.971,6.774-14.824,11.354
		c-0.094,0.243-0.141,0.514-0.129,0.801l0.102,1.804c0,0.08,0,0.063,0.005,0.139c0.312,1.811,0.991,3.397,2.024,4.768l-9.086-5.055
		L102.767,0.552c-0.645-0.524-1.571-0.634-2.336-0.188L65.792,20.562V2.421c0-1.129-0.918-2.047-2.053-2.047
		c-0.191,0-0.375,0.035-0.553,0.085c-0.278,0.009-0.562,0.069-0.827,0.199L31.632,15.486c-0.146,0.069-0.275,0.159-0.396,0.258
		l-3.294,1.631l3.538,1.783c0.299,0.149,0.619,0.213,0.935,0.212c0.334,0.019,0.677-0.035,0.999-0.19l28.28-13.646V23.8
		c0,0.611,0.269,1.152,0.688,1.527c0.633,0.747,1.723,0.961,2.596,0.444l12.233-7.129c0.021,0.004,0.041,0.013,0.062,0.016
		l6.906-4.07h-0.01l17.287-10.074l18.156,10.074H87.72l-7.019,4.097h46.293l13.293,7.404c0.989,0.547,2.235,0.194,2.784-0.796
		c0.214-0.386,0.288-0.811,0.24-1.219c2.017,0.827,4.41,1.415,7.181,1.76c0.081,0.01,0.161,0.02,0.252,0.02h48.131
		c1.129,0,2.049-0.914,2.049-2.054C200.928,22.667,200.008,21.749,198.879,21.749"/>
	<path fill="#B4B3B4" d="M3.056,0.222c-1.008-0.514-2.244-0.104-2.75,0.903c-0.142,0.276-0.207,0.569-0.217,0.86
		c-0.051,0.18-0.087,0.363-0.087,0.562v21.376c0,1.134,0.913,2.053,2.05,2.053c1.127,0,2.045-0.919,2.045-2.053V5.341L25.972,16.38
		l4.599-2.264L3.056,0.222z"/>
</g>
</svg>
