<?xml version="1.0" encoding="utf-8"?>
<!-- Generator: Adobe Illustrator 15.0.0, SVG Export Plug-In . SVG Version: 6.00 Build 0)  -->
<!DOCTYPE svg PUBLIC "-//W3C//DTD SVG 1.1//EN" "http://www.w3.org/Graphics/SVG/1.1/DTD/svg11.dtd">
<svg version="1.1" id="Layer_1" xmlns="http://www.w3.org/2000/svg" xmlns:xlink="http://www.w3.org/1999/xlink" x="0px" y="0px"
	 width="297.455px" height="297.477px" viewBox="1.272 0 297.455 297.477" enable-background="new 1.272 0 297.455 297.477"
	 xml:space="preserve">
<circle fill="#EA1274" cx="150.083" cy="148.438" r="148.694"/>
<path fill-rule="evenodd" clip-rule="evenodd" fill="#FFFFFF" d="M172.244,112.178c7.696,1.784,13.824,8.341,15.605,15.504
	c0.611,3.352,3.53,5.883,7.025,5.883c3.917,0,7.127-3.21,7.127-7.13c0-5.129-4.312-12.937-10.194-18.781
	c-5.772-5.706-12.652-9.732-18.318-9.732c-3.919,0-7.127,3.314-7.127,7.237C166.362,108.648,168.892,111.573,172.244,112.178z
	 M74.262,205.633c-5.527,5.521-5.527,14.506,0,20.03c5.523,5.526,14.507,5.526,19.993,0l40.955-40.919
	c9.551,5.952,20.812,9.411,32.932,9.411c34.468,0,62.375-27.909,62.375-62.374c0-34.466-27.907-62.373-62.375-62.373
	c-34.465,0-62.373,27.907-62.373,62.373c0,12.085,3.459,23.383,9.412,32.935L74.262,205.633z M123.59,131.781
	c0-24.594,19.958-44.552,44.552-44.552c24.597,0,44.554,19.958,44.554,44.552c0,24.594-19.957,44.553-44.554,44.553
	C143.548,176.334,123.59,156.375,123.59,131.781z"/>
</svg>
