<?xml version="1.0" encoding="utf-8"?>
<!-- Generator: Adobe Illustrator 15.0.0, SVG Export Plug-In . SVG Version: 6.00 Build 0)  -->
<!DOCTYPE svg PUBLIC "-//W3C//DTD SVG 1.1//EN" "http://www.w3.org/Graphics/SVG/1.1/DTD/svg11.dtd">
<svg version="1.1" id="Layer_1" xmlns="http://www.w3.org/2000/svg" xmlns:xlink="http://www.w3.org/1999/xlink" x="0px" y="0px"
	 width="297.455px" height="297.477px" viewBox="0 0 297.455 297.477" enable-background="new 0 0 297.455 297.477"
	 xml:space="preserve">
<circle fill="#F58D86" cx="150.083" cy="148.438" r="148.694"/>
<path fill="#FFFFFF" d="M172.244,112.178c7.696,1.784,13.823,8.341,15.604,15.504c0.611,3.353,3.53,5.883,7.025,5.883
	c3.917,0,7.127-3.21,7.127-7.13c0-5.129-4.312-12.937-10.193-18.781c-5.772-5.705-12.652-9.731-18.318-9.731
	c-3.92,0-7.127,3.313-7.127,7.237C166.362,108.648,168.892,111.573,172.244,112.178z M74.262,205.633
	c-5.527,5.521-5.527,14.506,0,20.03c5.523,5.525,14.507,5.525,19.993,0l40.955-40.919c9.551,5.951,20.812,9.41,32.932,9.41
	c34.469,0,62.375-27.908,62.375-62.374s-27.906-62.372-62.375-62.372c-34.465,0-62.373,27.906-62.373,62.372
	c0,12.086,3.459,23.384,9.412,32.936L74.262,205.633z M123.59,131.781c0-24.595,19.958-44.553,44.552-44.553
	c24.598,0,44.555,19.958,44.555,44.553c0,24.594-19.957,44.553-44.555,44.553C143.548,176.334,123.59,156.375,123.59,131.781z"/>
</svg>
