<?xml version="1.0" encoding="utf-8"?>
<!-- Generator: Adobe Illustrator 15.0.0, SVG Export Plug-In . SVG Version: 6.00 Build 0)  -->
<!DOCTYPE svg PUBLIC "-//W3C//DTD SVG 1.1//EN" "http://www.w3.org/Graphics/SVG/1.1/DTD/svg11.dtd">
<svg version="1.1" id="Layer_1" xmlns="http://www.w3.org/2000/svg" xmlns:xlink="http://www.w3.org/1999/xlink" x="0px" y="0px"
	 width="186.095px" height="107.028px" viewBox="96.271 147.595 186.095 107.028"
	 enable-background="new 96.271 147.595 186.095 107.028" xml:space="preserve">
<path fill-rule="evenodd" clip-rule="evenodd" fill="#231F20" d="M100.408,235.903l4.922,13.406c0.271,0.755,0.544,1.51,0.814,2.234
	l0.725,2.145h0.454c0.724-2.084,0.754-2.145,1.026-2.869c0.271-0.755,0.392-1.087,0.483-1.389l5.013-13.467l0.241,15.641v0.15
	c0,1.42-0.452,1.752-2.507,1.873v0.725c1.843-0.15,2.688-0.211,3.805-0.211c1.057,0,1.933,0.061,3.774,0.211v-0.725
	c-2.144-0.121-2.506-0.423-2.506-1.993l-0.303-14.856l-0.028-0.241c-0.092-1.237,0.482-1.63,2.505-1.782v-0.725
	c-1.117,0.091-1.631,0.121-2.386,0.121c-0.846,0-1.57-0.03-2.899-0.15l-5.676,15.279L102.25,234c-1.147,0.12-1.811,0.15-2.868,0.15
	c-0.815,0-1.33-0.03-2.476-0.121v0.756c0.875,0.029,1.327,0.121,1.75,0.302c0.545,0.212,0.815,0.755,0.756,1.511l-0.03,0.18
	l-0.604,14.856c-0.09,1.601-0.393,1.843-2.506,1.993v0.725c1.51-0.121,2.204-0.15,3.048-0.15c0.847,0,1.511,0.029,2.96,0.15v-0.725
	c-2.083-0.15-2.475-0.423-2.475-1.752v-0.241L100.408,235.903L100.408,235.903z M131.569,249.611
	c-0.362,2.567-1.721,3.956-3.834,3.956c-1.631,0-2.778-0.814-3.411-2.446c-0.363-0.966-0.515-2.052-0.575-4.317h8.97
	c-0.093-4.529-2.084-7.096-5.498-7.096c-3.531,0-5.918,2.989-5.918,7.397c0,4.591,2.355,7.458,6.069,7.458
	c3.02,0,5.013-1.842,5.376-4.952H131.569L131.569,249.611z M123.809,245.715c0.303-3.472,1.419-5.223,3.382-5.223
	c1.933,0,2.959,1.69,3.11,5.223H123.809L123.809,245.715z M134.832,240.764c2.113,0.03,2.143,0.09,2.143,1.963v9.391
	c0,1.298-0.333,1.54-2.174,1.63v0.604c1.569-0.15,2.355-0.182,3.383-0.182c0.995,0,1.78,0.031,3.381,0.182v-0.604
	c-1.843-0.09-2.174-0.332-2.174-1.63v-6.312c0-2.989,0.995-4.892,2.597-4.892c0.514,0,0.905,0.303,0.905,0.725
	c0,0.092,0,0.182-0.03,0.271c-0.119,0.484-0.119,0.484-0.119,0.635c0,0.574,0.542,0.996,1.237,0.996
	c0.784,0,1.268-0.574,1.268-1.449c0-1.419-1.087-2.445-2.627-2.445c-1.57,0-2.838,0.996-3.533,2.748
	c-0.029-1.208-0.09-1.691-0.271-2.869c-1.086,0.332-2.386,0.574-3.984,0.725V240.764L134.832,240.764z M156.996,239.374h-0.545
	l-0.786,1.54c-0.966-0.906-1.812-1.268-3.08-1.268c-3.531,0-5.978,3.08-5.978,7.609c0,4.378,2.354,7.337,5.888,7.337
	c2.718,0,4.438-1.751,4.802-4.982h-1.208c-0.362,2.657-1.48,3.986-3.353,3.986c-2.325,0-3.502-2.144-3.502-6.371
	c0-4.288,1.299-6.764,3.594-6.764c1.146,0,2.204,0.664,2.777,1.751c0.332,0.604,0.483,1.087,0.724,2.144h0.667V239.374
	L156.996,239.374z M170.008,249.611c-0.362,2.567-1.722,3.956-3.836,3.956c-1.63,0-2.777-0.814-3.411-2.446
	c-0.362-0.966-0.514-2.052-0.575-4.317h8.97c-0.091-4.529-2.084-7.096-5.495-7.096c-3.533,0-5.918,2.989-5.918,7.397
	c0,4.591,2.354,7.458,6.068,7.458c3.02,0,5.013-1.842,5.375-4.952H170.008L170.008,249.611z M162.248,245.715
	c0.302-3.472,1.419-5.223,3.383-5.223c1.932,0,2.959,1.69,3.109,5.223H162.248L162.248,245.715z M187.31,253.265
	c-2.022-0.061-2.204-0.241-2.204-2.054v-17.422c-1.329,0.361-3.169,0.693-4.56,0.785v0.543c1.902,0,2.144,0.211,2.144,1.751v5.314
	c-1.116-1.812-1.992-2.355-3.622-2.355c-3.233,0-5.496,3.05-5.496,7.398s2.325,7.397,5.616,7.397c1.689,0,2.868-0.785,3.744-2.476
	c0.09,1.117,0.12,1.298,0.393,2.415c1.238-0.393,1.871-0.514,3.985-0.785V253.265L187.31,253.265z M179.338,240.673
	c2.235,0,3.381,2.294,3.381,6.794c0,4.137-1.116,6.311-3.259,6.311c-2.206,0-3.352-2.295-3.352-6.582
	C176.109,242.847,177.195,240.673,179.338,240.673L179.338,240.673z M199.297,249.611c-0.36,2.567-1.721,3.956-3.834,3.956
	c-1.631,0-2.778-0.814-3.412-2.446c-0.363-0.966-0.514-2.052-0.574-4.317h8.969c-0.092-4.529-2.084-7.096-5.496-7.096
	c-3.532,0-5.919,2.989-5.919,7.397c0,4.591,2.355,7.458,6.069,7.458c3.02,0,5.012-1.842,5.376-4.952H199.297L199.297,249.611z
	 M191.538,245.715c0.302-3.472,1.419-5.223,3.382-5.223c1.933,0,2.958,1.69,3.11,5.223H191.538L191.538,245.715z M203.252,254.623
	h0.515l0.724-1.328c1.148,0.846,2.295,1.238,3.653,1.238c2.81,0,4.834-1.812,4.834-4.349c0-1.751-0.817-2.748-3.081-3.744
	c-2.114-0.937-2.355-1.026-2.779-1.237c-1.237-0.635-1.69-1.179-1.69-2.145c0-1.389,1.237-2.477,2.839-2.477
	c1.872,0,2.898,1.148,3.17,3.563h0.664v-4.681h-0.513l-0.514,1.238c-1.057-0.695-1.933-0.967-3.079-0.967
	c-2.688,0-4.529,1.661-4.529,4.017c0,1.751,0.694,2.627,2.898,3.624c1.872,0.875,2.869,1.328,2.898,1.359
	c1.239,0.633,1.691,1.237,1.691,2.173c0,1.54-1.359,2.718-3.111,2.718c-1.418,0-2.657-0.755-3.26-1.932
	c-0.303-0.635-0.484-1.148-0.666-2.115h-0.664V254.623L203.252,254.623z M214.516,246.864h7.761v-1.359h-7.761V246.864
	L214.516,246.864z M223.244,234.12v0.726c2.174,0.15,2.475,0.392,2.475,2.022v14.646c0,1.63-0.241,1.842-2.475,2.022v0.725h7.608
	c2.264,0,3.534-0.271,4.74-1.057c1.541-0.967,2.506-2.808,2.506-4.711c0-2.627-1.539-4.438-4.257-4.982
	c2.175-0.845,3.292-2.354,3.292-4.468c0-1.541-0.664-2.93-1.782-3.836c-1.026-0.785-2.203-1.087-4.167-1.087H223.244L223.244,234.12
	z M228.254,243.27v-8.213h2.567c2.537,0,3.624,1.237,3.624,4.047c0,1.389-0.332,2.445-0.998,3.17
	c-0.663,0.755-1.479,0.996-3.139,0.996H228.254L228.254,243.27z M228.254,244.206h2.869c1.57,0,2.537,0.302,3.201,0.997
	c0.694,0.724,1.086,1.992,1.086,3.412c0,3.019-1.509,4.709-4.195,4.709h-1.119c-1.568,0-1.842-0.241-1.842-1.539V244.206
	L228.254,244.206z M251.022,249.611c-0.361,2.567-1.72,3.956-3.834,3.956c-1.631,0-2.778-0.814-3.413-2.446
	c-0.361-0.966-0.513-2.052-0.572-4.317h8.968c-0.092-4.529-2.085-7.096-5.496-7.096c-3.533,0-5.918,2.989-5.918,7.397
	c0,4.591,2.355,7.458,6.068,7.458c3.021,0,5.014-1.842,5.375-4.952H251.022L251.022,249.611z M243.262,245.715
	c0.302-3.472,1.42-5.223,3.383-5.223c1.932,0,2.958,1.69,3.109,5.223H243.262L243.262,245.715z M254.314,240.914h0.394
	c1.629,0.03,1.75,0.15,1.75,1.873v9.33c0,1.298-0.301,1.54-2.173,1.63v0.604c1.51-0.15,2.263-0.182,3.29-0.182
	c0.996,0,1.782,0.031,3.262,0.182v-0.604c-1.57-0.06-1.964-0.362-1.964-1.569v-7.277c0-1.268,0.151-1.934,0.575-2.506
	c0.574-0.816,1.51-1.299,2.566-1.299c0.965,0,1.751,0.363,2.204,1.057c0.362,0.574,0.483,1.238,0.483,2.627v7.398
	c0,1.207-0.393,1.51-1.993,1.569v0.604c1.479-0.15,2.266-0.182,3.261-0.182c1.057,0,1.812,0.031,3.322,0.182v-0.604
	c-1.843-0.09-2.174-0.332-2.174-1.63v-7.247c0-1.419-0.212-2.446-0.664-3.171c-0.756-1.237-2.145-1.963-3.745-1.963
	c-1.751,0-2.959,0.726-4.076,2.355c-0.062-1.117-0.182-2.113-0.332-2.627c-0.997,0.393-2.295,0.664-3.986,0.906V240.914
	L254.314,240.914z M270.952,254.261h10.388l0.784-4.349h-0.634c-0.302,0.906-0.572,1.48-0.936,2.114
	c-0.755,1.178-1.299,1.45-2.869,1.45h-3.532l8.213-13.469h-10.024l-0.696,3.926h0.635c1.057-2.717,1.541-3.14,3.504-3.14h3.352
	L270.952,254.261z"/>
<path fill-rule="evenodd" clip-rule="evenodd" fill="#231F20" d="M219.85,182.455c0,8.431-3.418,16.063-8.943,21.588
	c-5.524,5.525-13.156,8.943-21.589,8.943c-8.431,0-16.063-3.418-21.59-8.943c-5.524-5.524-8.94-13.157-8.94-21.588
	c0-8.432,3.416-16.064,8.94-21.59c5.526-5.524,13.159-8.941,21.59-8.941c8.433,0,16.064,3.417,21.589,8.941
	C216.432,166.391,219.85,174.024,219.85,182.455z M167.501,160.639c-5.584,5.583-9.037,13.297-9.037,21.816
	s3.453,16.232,9.037,21.816c5.584,5.582,13.297,9.035,21.816,9.035s16.232-3.453,21.816-9.035
	c5.583-5.584,9.037-13.297,9.037-21.816s-3.454-16.233-9.037-21.816c-5.584-5.583-13.297-9.037-21.816-9.037
	S173.085,155.056,167.501,160.639z"/>
<g>
	<defs>
		<path id="SVGID_1_" d="M189.318,151.602c8.52,0,16.232,3.454,21.816,9.037c5.583,5.583,9.037,13.297,9.037,21.816
			s-3.454,16.232-9.037,21.816c-5.584,5.582-13.297,9.035-21.816,9.035s-16.232-3.453-21.816-9.035
			c-5.584-5.584-9.037-13.297-9.037-21.816s3.453-16.233,9.037-21.816S180.798,151.602,189.318,151.602z M212.225,159.547
			c-5.861-5.863-13.961-9.488-22.907-9.488s-17.046,3.625-22.908,9.488c-5.861,5.863-9.488,13.962-9.488,22.908
			c0,8.945,3.627,17.045,9.488,22.907c5.862,5.862,13.962,9.489,22.908,9.489s17.046-3.627,22.907-9.489
			c5.862-5.862,9.489-13.962,9.489-22.907C221.714,173.509,218.087,165.41,212.225,159.547z"/>
	</defs>
	<use xlink:href="#SVGID_1_"  overflow="visible" fill-rule="evenodd" clip-rule="evenodd" fill="#231F20"/>
	<clipPath id="SVGID_2_">
		<use xlink:href="#SVGID_1_"  overflow="visible"/>
	</clipPath>
	<g clip-path="url(#SVGID_2_)">
		
			<image overflow="visible" width="1521" height="1712" xlink:href="5193382D.png"  transform="matrix(0.0508 0 0 0.0508 161.4009 127.1228)">
		</image>
	</g>
	<g clip-path="url(#SVGID_2_)">
		
			<image overflow="visible" width="1521" height="1711" xlink:href="5193382F.png"  transform="matrix(0.0508 0 0 0.0508 161.4009 127.1228)">
		</image>
	</g>
	<g clip-path="url(#SVGID_2_)">
		
			<image overflow="visible" width="1394" height="1577" xlink:href="5193382A.png"  transform="matrix(0.0508 0 0 0.0508 146.9995 146.199)">
		</image>
	</g>
</g>
<g>
	<polygon fill-rule="evenodd" clip-rule="evenodd" fill="#231F20" points="194.347,179.552 216.656,196.771 216.946,198.406 
		215.368,198.965 189.318,188.261 163.258,198.969 161.691,198.406 161.98,196.771 184.289,179.551 188.045,151.627 
		189.318,150.553 190.59,151.633 	"/>
	<polygon fill-rule="evenodd" clip-rule="evenodd" fill="#231F20" points="190.264,151.616 189.358,150.662 189.278,150.662 
		188.373,151.616 184.665,179.181 184.665,179.181 188.977,181.906 184.59,179.726 162.137,197.055 161.765,198.317 
		161.804,198.385 163.084,198.694 188.81,188.122 189.012,183.025 189.318,187.914 215.551,198.694 216.832,198.386 
		216.871,198.317 216.5,197.063 194.045,179.726 189.659,181.906 193.959,179.121 	"/>
	<g>
		<defs>
			<polygon id="SVGID_3_" points="189.278,150.662 188.373,151.616 184.665,179.181 188.977,181.906 189.278,150.662 			"/>
		</defs>
		<use xlink:href="#SVGID_3_"  overflow="visible" fill-rule="evenodd" clip-rule="evenodd" fill="#231F20"/>
		<clipPath id="SVGID_4_">
			<use xlink:href="#SVGID_3_"  overflow="visible"/>
		</clipPath>
		<path clip-path="url(#SVGID_4_)" fill-rule="evenodd" clip-rule="evenodd" fill="#231F20" d="M186.726,181.037
			c-1.008-0.616-0.952-1.625-0.784-3.867s2.914-28.527,2.914-28.527l-2.914,2.915L180,179.021L186.726,181.037z"/>
	</g>
	<g>
		<defs>
			<polygon id="SVGID_5_" points="189.358,150.662 190.264,151.616 193.971,179.181 189.659,181.906 189.358,150.662 			"/>
		</defs>
		<use xlink:href="#SVGID_5_"  overflow="visible" fill-rule="evenodd" clip-rule="evenodd" fill="#231F20"/>
		<clipPath id="SVGID_6_">
			<use xlink:href="#SVGID_5_"  overflow="visible"/>
		</clipPath>
		<g clip-path="url(#SVGID_6_)">
			
				<image overflow="visible" width="604" height="1281" xlink:href="5193382B.png"  transform="matrix(0.0508 0 0 0.0508 177.021 130.157)">
			</image>
		</g>
	</g>
	<g>
		<defs>
			<polygon id="SVGID_7_" points="161.804,198.385 189.012,183.025 188.81,188.122 163.084,198.694 161.804,198.385 			"/>
		</defs>
		<use xlink:href="#SVGID_7_"  overflow="visible" fill-rule="evenodd" clip-rule="evenodd" fill="#231F20"/>
		<clipPath id="SVGID_8_">
			<use xlink:href="#SVGID_7_"  overflow="visible"/>
		</clipPath>
		<g clip-path="url(#SVGID_8_)">
			
				<image overflow="visible" width="1194" height="866" xlink:href="51933835.png"  transform="matrix(0.0508 0 0 0.0508 142.1685 169.7971)">
			</image>
		</g>
	</g>
	<g>
		<defs>
			<polygon id="SVGID_9_" points="216.832,198.386 215.551,198.694 189.826,188.122 189.624,183.026 216.832,198.386 			"/>
		</defs>
		<use xlink:href="#SVGID_9_"  overflow="visible" fill-rule="evenodd" clip-rule="evenodd" fill="#231F20"/>
		<clipPath id="SVGID_10_">
			<use xlink:href="#SVGID_9_"  overflow="visible"/>
		</clipPath>
		<g clip-path="url(#SVGID_10_)">
			
				<image overflow="visible" width="1194" height="866" xlink:href="51933837.png"  transform="matrix(0.0508 0 0 0.0508 175.8862 169.7971)">
			</image>
		</g>
	</g>
	<g>
		<defs>
			<polygon id="SVGID_11_" points="161.765,198.317 188.671,182.434 184.156,180.062 162.137,197.055 161.765,198.317 			"/>
		</defs>
		<use xlink:href="#SVGID_11_"  overflow="visible" fill-rule="evenodd" clip-rule="evenodd" fill="#231F20"/>
		<clipPath id="SVGID_12_">
			<use xlink:href="#SVGID_11_"  overflow="visible"/>
		</clipPath>
		<path clip-path="url(#SVGID_12_)" fill-rule="evenodd" clip-rule="evenodd" fill="#231F20" d="M186.796,180.92
			c-1.039-0.566-1.885-0.014-3.744,1.254c-1.855,1.266-23.246,16.787-23.246,16.787l1.065-3.98l20.813-18.877L186.796,180.92z"/>
	</g>
	<g>
		<defs>
			<polygon id="SVGID_13_" points="216.872,198.317 216.499,197.055 194.481,180.062 189.964,182.434 216.872,198.317 			"/>
		</defs>
		<use xlink:href="#SVGID_13_"  overflow="visible" fill-rule="evenodd" clip-rule="evenodd" fill="#231F20"/>
		<clipPath id="SVGID_14_">
			<use xlink:href="#SVGID_13_"  overflow="visible"/>
		</clipPath>
		<path clip-path="url(#SVGID_14_)" fill-rule="evenodd" clip-rule="evenodd" fill="#231F20" d="M191.841,180.92
			c1.037-0.566,1.883-0.014,3.741,1.254c1.857,1.266,23.247,16.787,23.247,16.787l-1.064-3.98l-20.814-18.877L191.841,180.92z"/>
	</g>
	<path fill-rule="evenodd" clip-rule="evenodd" fill="#231F20" d="M194.347,179.552l22.309,17.219l0.29,1.636l-1.578,0.559
		l-26.05-10.704l-26.06,10.708l-1.567-0.562l0.289-1.636l22.309-17.22l3.757-27.924l1.272-1.074l1.272,1.08L194.347,179.552z
		 M190.264,151.616l-0.906-0.954h-0.08l-0.905,0.954l-3.708,27.564l0,0l4.312,2.726l-4.387-2.181l-22.453,17.329l-0.372,1.262
		l0.039,0.068l1.28,0.309l25.726-10.571l0.202-5.098l0.306,4.89l26.233,10.779l1.28-0.308l0.039-0.069l-0.37-1.254l-22.455-17.337
		l-4.387,2.181l4.301-2.785L190.264,151.616z"/>
</g>
<g>
	<defs>
		<path id="SVGID_15_" d="M223.857,182.455c0,9.537-3.866,18.172-10.116,24.422s-14.885,10.116-24.423,10.116
			c-9.537,0-18.173-3.866-24.423-10.116c-6.249-6.25-10.115-14.885-10.115-24.422c0-9.538,3.866-18.173,10.115-24.422
			c6.25-6.251,14.886-10.117,24.423-10.117c9.538,0,18.173,3.866,24.423,10.117C219.991,164.282,223.857,172.917,223.857,182.455z
			 M212.656,159.117c-5.973-5.973-14.224-9.668-23.338-9.668s-17.365,3.695-23.338,9.668s-9.667,14.223-9.667,23.338
			c0,9.113,3.694,17.365,9.667,23.338s14.224,9.666,23.338,9.666s17.365-3.693,23.338-9.666c5.974-5.973,9.667-14.225,9.667-23.338
			C222.323,173.34,218.629,165.09,212.656,159.117z"/>
	</defs>
	<use xlink:href="#SVGID_15_"  overflow="visible" fill-rule="evenodd" clip-rule="evenodd" fill="#231F20"/>
	<clipPath id="SVGID_16_">
		<use xlink:href="#SVGID_15_"  overflow="visible"/>
	</clipPath>
	<g clip-path="url(#SVGID_16_)">
		
			<image overflow="visible" width="1407" height="1292" xlink:href="5193383A.png"  transform="matrix(0.0508 0 0 0.0508 143.3276 161.3147)">
		</image>
	</g>
	<g clip-path="url(#SVGID_16_)">
		
			<image overflow="visible" width="1408" height="1290" xlink:href="5193383B.png"  transform="matrix(0.0508 0 0 0.0508 143.2749 161.4075)">
		</image>
	</g>
	<g clip-path="url(#SVGID_16_)">
		
			<image overflow="visible" width="1417" height="1849" xlink:href="5193383D.png"  transform="matrix(0.0508 0 0 0.0508 164.7642 135.8816)">
		</image>
	</g>
</g>
<path fill-rule="evenodd" clip-rule="evenodd" fill="#231F20" d="M223.857,182.455c0,9.537-3.866,18.172-10.116,24.422
	s-14.885,10.116-24.423,10.116c-9.537,0-18.173-3.866-24.423-10.116c-6.249-6.25-10.115-14.885-10.115-24.422
	c0-9.538,3.866-18.173,10.115-24.422c6.25-6.251,14.886-10.117,24.423-10.117c9.538,0,18.173,3.866,24.423,10.117
	C219.991,164.282,223.857,172.917,223.857,182.455z M164.667,157.805c-6.308,6.309-10.21,15.023-10.21,24.65
	c0,9.626,3.902,18.341,10.21,24.649c6.309,6.309,15.024,10.21,24.65,10.21s18.342-3.901,24.65-10.21
	c6.308-6.309,10.21-15.023,10.21-24.649c0-9.627-3.902-18.342-10.21-24.65c-6.309-6.309-15.024-10.21-24.65-10.21
	S170.976,151.496,164.667,157.805z"/>
</svg>
