<?xml version="1.0" encoding="utf-8"?>
<!-- Generator: Adobe Illustrator 15.0.0, SVG Export Plug-In . SVG Version: 6.00 Build 0)  -->
<!DOCTYPE svg PUBLIC "-//W3C//DTD SVG 1.1//EN" "http://www.w3.org/Graphics/SVG/1.1/DTD/svg11.dtd">
<svg version="1.1" id="Layer_1" xmlns="http://www.w3.org/2000/svg" xmlns:xlink="http://www.w3.org/1999/xlink" x="0px" y="0px"
	 width="186.095px" height="107.029px" viewBox="0 0 186.095 107.029" enable-background="new 0 0 186.095 107.029"
	 xml:space="preserve">
<g>
	<path fill-rule="evenodd" clip-rule="evenodd" fill="#B4B3B4" d="M4.137,88.307l4.922,13.406c0.271,0.756,0.544,1.511,0.814,2.234
		l0.725,2.145h0.454c0.724-2.083,0.754-2.145,1.026-2.868c0.271-0.755,0.392-1.087,0.483-1.39l5.013-13.467l0.241,15.642v0.15
		c0,1.419-0.452,1.751-2.507,1.872v0.726c1.843-0.151,2.688-0.212,3.805-0.212c1.057,0,1.933,0.061,3.774,0.212v-0.726
		c-2.144-0.121-2.506-0.422-2.506-1.992l-0.303-14.856l-0.028-0.241c-0.092-1.238,0.482-1.631,2.505-1.782v-0.726
		c-1.117,0.092-1.631,0.122-2.386,0.122c-0.846,0-1.57-0.03-2.899-0.151l-5.676,15.279L5.979,86.405
		c-1.147,0.121-1.811,0.151-2.868,0.151c-0.815,0-1.33-0.03-2.476-0.122v0.756c0.875,0.029,1.327,0.121,1.75,0.303
		c0.545,0.211,0.815,0.755,0.756,1.51l-0.03,0.181L2.506,104.04c-0.09,1.6-0.393,1.842-2.506,1.992v0.726
		c1.51-0.121,2.204-0.151,3.048-0.151c0.847,0,1.511,0.03,2.96,0.151v-0.726c-2.083-0.15-2.475-0.422-2.475-1.751v-0.241
		L4.137,88.307L4.137,88.307z M35.298,102.016c-0.362,2.566-1.721,3.955-3.834,3.955c-1.631,0-2.778-0.814-3.411-2.445
		c-0.363-0.967-0.515-2.053-0.575-4.318h8.97c-0.093-4.529-2.084-7.096-5.498-7.096c-3.531,0-5.918,2.99-5.918,7.398
		c0,4.59,2.355,7.458,6.069,7.458c3.02,0,5.013-1.843,5.376-4.952H35.298L35.298,102.016z M27.538,98.121
		c0.303-3.472,1.419-5.224,3.382-5.224c1.933,0,2.959,1.691,3.11,5.224H27.538L27.538,98.121z M38.561,93.168
		c2.113,0.031,2.143,0.09,2.143,1.963v9.391c0,1.299-0.333,1.541-2.174,1.631v0.604c1.569-0.151,2.355-0.183,3.383-0.183
		c0.995,0,1.78,0.031,3.381,0.183v-0.604c-1.843-0.09-2.174-0.332-2.174-1.631v-6.311c0-2.989,0.995-4.892,2.597-4.892
		c0.514,0,0.905,0.302,0.905,0.725c0,0.091,0,0.181-0.03,0.271c-0.119,0.483-0.119,0.483-0.119,0.634
		c0,0.574,0.542,0.997,1.237,0.997c0.784,0,1.268-0.574,1.268-1.449c0-1.419-1.087-2.446-2.627-2.446
		c-1.57,0-2.838,0.996-3.533,2.748c-0.029-1.207-0.09-1.691-0.271-2.868c-1.086,0.332-2.386,0.573-3.984,0.724V93.168L38.561,93.168
		z M60.725,91.78H60.18l-0.786,1.54c-0.966-0.906-1.812-1.269-3.08-1.269c-3.531,0-5.978,3.08-5.978,7.609
		c0,4.379,2.354,7.338,5.888,7.338c2.718,0,4.438-1.751,4.802-4.982h-1.208c-0.362,2.656-1.48,3.986-3.353,3.986
		c-2.325,0-3.502-2.145-3.502-6.371c0-4.288,1.299-6.764,3.594-6.764c1.146,0,2.204,0.664,2.777,1.75
		c0.332,0.604,0.483,1.088,0.724,2.145h0.667V91.78L60.725,91.78z M73.737,102.016c-0.362,2.566-1.722,3.955-3.836,3.955
		c-1.63,0-2.777-0.814-3.411-2.445c-0.362-0.967-0.514-2.053-0.575-4.318h8.97c-0.091-4.529-2.084-7.096-5.495-7.096
		c-3.533,0-5.918,2.99-5.918,7.398c0,4.59,2.354,7.458,6.068,7.458c3.02,0,5.013-1.843,5.375-4.952H73.737L73.737,102.016z
		 M65.977,98.121c0.302-3.472,1.419-5.224,3.383-5.224c1.932,0,2.959,1.691,3.109,5.224H65.977L65.977,98.121z M91.039,105.67
		c-2.022-0.061-2.204-0.242-2.204-2.055V86.194c-1.329,0.362-3.169,0.694-4.56,0.785v0.544c1.902,0,2.144,0.211,2.144,1.751v5.314
		c-1.116-1.812-1.992-2.355-3.622-2.355c-3.233,0-5.496,3.049-5.496,7.398c0,4.348,2.325,7.397,5.616,7.397
		c1.689,0,2.868-0.786,3.744-2.476c0.09,1.117,0.12,1.298,0.393,2.415c1.238-0.394,1.871-0.514,3.985-0.786V105.67L91.039,105.67z
		 M83.067,93.079c2.235,0,3.381,2.294,3.381,6.793c0,4.138-1.116,6.311-3.259,6.311c-2.206,0-3.352-2.294-3.352-6.582
		C79.838,95.252,80.924,93.079,83.067,93.079L83.067,93.079z M103.026,102.016c-0.36,2.566-1.721,3.955-3.834,3.955
		c-1.631,0-2.778-0.814-3.412-2.445c-0.363-0.967-0.514-2.053-0.574-4.318h8.969c-0.092-4.529-2.084-7.096-5.496-7.096
		c-3.532,0-5.919,2.99-5.919,7.398c0,4.59,2.355,7.458,6.069,7.458c3.02,0,5.012-1.843,5.376-4.952H103.026L103.026,102.016z
		 M95.267,98.121c0.302-3.472,1.419-5.224,3.382-5.224c1.933,0,2.958,1.691,3.11,5.224H95.267L95.267,98.121z M106.981,107.029
		h0.515l0.724-1.329c1.148,0.846,2.295,1.238,3.653,1.238c2.81,0,4.834-1.812,4.834-4.348c0-1.752-0.817-2.748-3.081-3.744
		c-2.114-0.938-2.355-1.027-2.779-1.238c-1.237-0.635-1.69-1.178-1.69-2.145c0-1.389,1.237-2.476,2.839-2.476
		c1.872,0,2.898,1.147,3.17,3.563h0.664V91.87h-0.513l-0.514,1.238c-1.057-0.694-1.933-0.966-3.079-0.966
		c-2.688,0-4.529,1.661-4.529,4.017c0,1.75,0.694,2.627,2.898,3.623c1.872,0.875,2.869,1.328,2.898,1.359
		c1.239,0.634,1.691,1.238,1.691,2.174c0,1.539-1.359,2.717-3.111,2.717c-1.418,0-2.657-0.754-3.26-1.932
		c-0.303-0.635-0.484-1.147-0.666-2.114h-0.664V107.029L106.981,107.029z M118.245,99.268h7.761v-1.359h-7.761V99.268
		L118.245,99.268z M126.973,86.526v0.725c2.174,0.15,2.475,0.393,2.475,2.023v14.645c0,1.631-0.241,1.842-2.475,2.023v0.725h7.608
		c2.264,0,3.534-0.271,4.74-1.057c1.541-0.967,2.506-2.809,2.506-4.711c0-2.627-1.539-4.438-4.257-4.982
		c2.175-0.846,3.292-2.355,3.292-4.469c0-1.54-0.664-2.93-1.782-3.835c-1.026-0.785-2.203-1.087-4.167-1.087H126.973L126.973,86.526
		z M131.983,95.674v-8.213h2.567c2.537,0,3.624,1.238,3.624,4.047c0,1.389-0.332,2.445-0.998,3.17
		c-0.663,0.756-1.479,0.996-3.139,0.996H131.983L131.983,95.674z M131.983,96.612h2.869c1.57,0,2.537,0.302,3.201,0.996
		c0.694,0.725,1.086,1.992,1.086,3.412c0,3.02-1.509,4.709-4.195,4.709h-1.119c-1.568,0-1.842-0.24-1.842-1.538V96.612
		L131.983,96.612z M154.751,102.016c-0.361,2.566-1.72,3.955-3.834,3.955c-1.631,0-2.778-0.814-3.413-2.445
		c-0.361-0.967-0.513-2.053-0.572-4.318h8.968c-0.092-4.529-2.085-7.096-5.496-7.096c-3.533,0-5.918,2.99-5.918,7.398
		c0,4.59,2.355,7.458,6.068,7.458c3.021,0,5.014-1.843,5.375-4.952H154.751L154.751,102.016z M146.991,98.121
		c0.302-3.472,1.42-5.224,3.383-5.224c1.932,0,2.958,1.691,3.109,5.224H146.991L146.991,98.121z M158.043,93.32h0.394
		c1.629,0.03,1.75,0.15,1.75,1.872v9.33c0,1.299-0.301,1.541-2.173,1.631v0.604c1.51-0.151,2.263-0.183,3.29-0.183
		c0.996,0,1.782,0.031,3.262,0.183v-0.604c-1.57-0.061-1.964-0.362-1.964-1.57v-7.277c0-1.268,0.151-1.933,0.575-2.506
		c0.574-0.816,1.51-1.299,2.566-1.299c0.965,0,1.751,0.363,2.204,1.058c0.362,0.573,0.483,1.237,0.483,2.627v7.397
		c0,1.208-0.393,1.51-1.993,1.57v0.604c1.479-0.151,2.266-0.183,3.261-0.183c1.057,0,1.812,0.031,3.322,0.183v-0.604
		c-1.843-0.09-2.174-0.332-2.174-1.631v-7.246c0-1.42-0.212-2.447-0.664-3.172c-0.756-1.236-2.145-1.962-3.745-1.962
		c-1.751,0-2.959,0.726-4.076,2.355c-0.062-1.117-0.182-2.114-0.332-2.628c-0.997,0.394-2.295,0.665-3.986,0.907V93.32
		L158.043,93.32z M174.681,106.667h10.388l0.784-4.349h-0.634c-0.302,0.906-0.572,1.479-0.936,2.114
		c-0.755,1.178-1.299,1.449-2.869,1.449h-3.532l8.213-13.468H176.07l-0.696,3.925h0.635c1.057-2.717,1.541-3.139,3.504-3.139h3.352
		L174.681,106.667z"/>
	<path fill-rule="evenodd" clip-rule="evenodd" fill="#B4B3B4" d="M123.579,34.86c0,8.432-3.418,16.064-8.943,21.589
		c-5.524,5.524-13.156,8.942-21.589,8.942c-8.431,0-16.063-3.418-21.59-8.942c-5.524-5.524-8.94-13.157-8.94-21.589
		s3.416-16.063,8.94-21.589c5.526-5.525,13.159-8.942,21.59-8.942c8.433,0,16.064,3.417,21.589,8.942
		C120.161,18.796,123.579,26.428,123.579,34.86z M71.23,13.044c-5.584,5.583-9.037,13.296-9.037,21.816s3.453,16.233,9.037,21.816
		s13.297,9.036,21.816,9.036s16.232-3.453,21.816-9.036c5.583-5.583,9.037-13.297,9.037-21.816s-3.454-16.232-9.037-21.816
		c-5.584-5.583-13.297-9.037-21.816-9.037S76.814,7.461,71.23,13.044z"/>
	<g>
		<defs>
			<path id="SVGID_1_" d="M93.047,4.007c8.52,0,16.232,3.454,21.816,9.037c5.583,5.583,9.037,13.296,9.037,21.816
				s-3.454,16.233-9.037,21.816c-5.584,5.583-13.297,9.036-21.816,9.036s-16.232-3.453-21.816-9.036s-9.037-13.297-9.037-21.816
				s3.453-16.232,9.037-21.816C76.814,7.461,84.527,4.007,93.047,4.007z M115.954,11.953c-5.861-5.863-13.961-9.489-22.907-9.489
				s-17.046,3.626-22.908,9.489c-5.861,5.862-9.488,13.962-9.488,22.907c0,8.946,3.627,17.045,9.488,22.908
				c5.862,5.862,13.962,9.488,22.908,9.488s17.046-3.626,22.907-9.488c5.862-5.863,9.489-13.962,9.489-22.908
				C125.443,25.915,121.816,17.815,115.954,11.953z"/>
		</defs>
		<use xlink:href="#SVGID_1_"  overflow="visible" fill-rule="evenodd" clip-rule="evenodd" fill="#B4B3B4"/>
		<clipPath id="SVGID_2_">
			<use xlink:href="#SVGID_1_"  overflow="visible"/>
		</clipPath>
	</g>
	<g>
		<polygon fill-rule="evenodd" clip-rule="evenodd" fill="#B4B3B4" points="98.076,31.958 120.385,49.176 120.675,50.811 
			119.097,51.371 93.047,40.667 66.987,51.375 65.42,50.811 65.709,49.176 88.018,31.957 91.774,4.033 93.047,2.958 94.319,4.038 		
			"/>
		<polygon fill-rule="evenodd" clip-rule="evenodd" fill="#B4B3B4" points="93.993,4.021 93.087,3.068 93.007,3.068 92.102,4.021 
			88.394,31.586 88.394,31.586 92.706,34.311 88.319,32.131 65.866,49.459 65.494,50.721 65.533,50.791 66.813,51.098 
			92.539,40.528 92.741,35.43 93.047,40.319 119.28,51.098 120.561,50.792 120.6,50.721 120.229,49.468 97.774,32.131 
			93.388,34.311 97.688,31.527 		"/>
		<g>
			<defs>
				<polygon id="SVGID_3_" points="93.007,3.068 92.102,4.021 88.394,31.586 92.706,34.311 93.007,3.068 				"/>
			</defs>
			<use xlink:href="#SVGID_3_"  overflow="visible" fill-rule="evenodd" clip-rule="evenodd" fill="#B4B3B4"/>
			<clipPath id="SVGID_4_">
				<use xlink:href="#SVGID_3_"  overflow="visible"/>
			</clipPath>
			<path clip-path="url(#SVGID_4_)" fill-rule="evenodd" clip-rule="evenodd" fill="#B4B3B4" d="M90.455,33.443
				c-1.008-0.616-0.952-1.625-0.784-3.867s2.914-28.527,2.914-28.527l-2.914,2.915l-5.941,27.463L90.455,33.443z"/>
		</g>
		<g>
			<defs>
				<polygon id="SVGID_5_" points="65.494,50.721 92.4,34.839 87.885,32.467 65.866,49.459 65.494,50.721 				"/>
			</defs>
			<use xlink:href="#SVGID_5_"  overflow="visible" fill-rule="evenodd" clip-rule="evenodd" fill="#B4B3B4"/>
			<clipPath id="SVGID_6_">
				<use xlink:href="#SVGID_5_"  overflow="visible"/>
			</clipPath>
			<path clip-path="url(#SVGID_6_)" fill-rule="evenodd" clip-rule="evenodd" fill="#B4B3B4" d="M90.525,33.325
				c-1.039-0.566-1.885-0.013-3.744,1.254c-1.855,1.267-23.246,16.787-23.246,16.787l1.065-3.98l20.813-18.877L90.525,33.325z"/>
		</g>
		<g>
			<defs>
				<polygon id="SVGID_7_" points="120.601,50.721 120.228,49.46 98.21,32.467 93.693,34.839 120.601,50.721 				"/>
			</defs>
			<use xlink:href="#SVGID_7_"  overflow="visible" fill-rule="evenodd" clip-rule="evenodd" fill="#B4B3B4"/>
			<clipPath id="SVGID_8_">
				<use xlink:href="#SVGID_7_"  overflow="visible"/>
			</clipPath>
			<path clip-path="url(#SVGID_8_)" fill-rule="evenodd" clip-rule="evenodd" fill="#B4B3B4" d="M95.57,33.325
				c1.037-0.565,1.883-0.013,3.741,1.254c1.857,1.267,23.247,16.787,23.247,16.787l-1.064-3.98L100.68,28.508L95.57,33.325z"/>
		</g>
		<path fill-rule="evenodd" clip-rule="evenodd" fill="#B4B3B4" d="M98.076,31.958l22.309,17.219l0.29,1.635l-1.578,0.56
			l-26.05-10.704l-26.06,10.708l-1.567-0.563l0.289-1.635l22.309-17.22l3.757-27.924l1.272-1.074l1.272,1.08L98.076,31.958z
			 M93.993,4.021l-0.906-0.954h-0.08l-0.905,0.954l-3.708,27.565l0,0l4.312,2.725l-4.387-2.18L65.866,49.459l-0.372,1.262
			l0.039,0.069l1.28,0.308l25.726-10.57l0.202-5.098l0.306,4.889l26.233,10.779l1.28-0.307l0.039-0.07l-0.37-1.253L97.774,32.131
			l-4.387,2.18l4.301-2.784L93.993,4.021z"/>
	</g>
	<g>
		<defs>
			<path id="SVGID_9_" d="M127.586,34.86c0,9.537-3.866,18.173-10.116,24.423c-6.25,6.249-14.885,10.116-24.423,10.116
				c-9.537,0-18.173-3.867-24.423-10.116c-6.249-6.25-10.115-14.886-10.115-24.423s3.866-18.172,10.115-24.422
				c6.25-6.25,14.886-10.117,24.423-10.117c9.538,0,18.173,3.866,24.423,10.117C123.72,16.688,127.586,25.323,127.586,34.86z
				 M116.385,11.522c-5.973-5.973-14.224-9.667-23.338-9.667s-17.365,3.695-23.338,9.667s-9.667,14.224-9.667,23.338
				s3.694,17.365,9.667,23.338c5.973,5.974,14.224,9.667,23.338,9.667s17.365-3.693,23.338-9.667
				c5.974-5.973,9.667-14.224,9.667-23.338S122.358,17.495,116.385,11.522z"/>
		</defs>
		<use xlink:href="#SVGID_9_"  overflow="visible" fill-rule="evenodd" clip-rule="evenodd" fill="#B4B3B4"/>
		<clipPath id="SVGID_10_">
			<use xlink:href="#SVGID_9_"  overflow="visible"/>
		</clipPath>
	</g>
	<path fill-rule="evenodd" clip-rule="evenodd" fill="#B4B3B4" d="M127.586,34.86c0,9.537-3.866,18.173-10.116,24.423
		c-6.25,6.249-14.885,10.116-24.423,10.116c-9.537,0-18.173-3.867-24.423-10.116c-6.249-6.25-10.115-14.886-10.115-24.423
		s3.866-18.172,10.115-24.422c6.25-6.25,14.886-10.117,24.423-10.117c9.538,0,18.173,3.866,24.423,10.117
		C123.72,16.688,127.586,25.323,127.586,34.86z M68.396,10.21c-6.308,6.309-10.21,15.023-10.21,24.649
		c0,9.627,3.902,18.342,10.21,24.65c6.309,6.309,15.024,10.21,24.65,10.21s18.342-3.901,24.65-10.21
		c6.308-6.309,10.21-15.023,10.21-24.65c0-9.626-3.902-18.341-10.21-24.649C111.389,3.902,102.673,0,93.047,0
		S74.705,3.902,68.396,10.21z"/>
</g>
</svg>
