<?xml version="1.0" encoding="utf-8"?>
<!-- Generator: Adobe Illustrator 15.0.0, SVG Export Plug-In . SVG Version: 6.00 Build 0)  -->
<!DOCTYPE svg PUBLIC "-//W3C//DTD SVG 1.1//EN" "http://www.w3.org/Graphics/SVG/1.1/DTD/svg11.dtd">
<svg version="1.1" id="Layer_1" xmlns="http://www.w3.org/2000/svg" xmlns:xlink="http://www.w3.org/1999/xlink" x="0px" y="0px"
	 width="297.455px" height="297.477px" viewBox="0 0 297.455 297.477" enable-background="new 0 0 297.455 297.477"
	 xml:space="preserve">
<circle fill="#F58D86" cx="149.963" cy="148.712" r="148.765"/>
<g id="XMLID_7_">
	<g>
		<path fill="#FFFFFF" d="M194.956,145.9c16.72,17.688,13.996,50.595-1.898,66.497c-8.373,8.373-18.449,11.951-33.565,13.934
			c0,7.601,0,15.199,0,22.8c-6.333,0-12.666,0-18.999,0c0-7.391,0-14.781,0-22.166c-26.662-3.743-41.525-19.271-46.864-44.331
			c9.208-3.249,20.114-4.794,29.132-8.233c3.68,7.954,4.211,17.79,14.566,22.8c15.003,7.252,40.486,0.146,33.564-21.532
			c-2.47-7.739-16.966-12.748-27.231-16.466c-20.785-7.536-41.519-16.017-44.331-41.165c-3.116-27.866,12.723-51.146,41.165-53.831
			c0-5.915,0-11.824,0-17.732c6.333,0,12.666,0,18.999,0c0,5.484,0,10.976,0,16.466c21.785,4.813,36.966,16.231,41.799,37.999
			c-8.721,3.521-17.611,6.871-25.966,10.767c-4.237-11.78-14.466-26.396-31.032-21.533c-7.473,2.19-14.059,12.521-10.133,22.166
			c2.895,7.112,16.004,11.121,26.599,15.199C173.767,132.537,187.338,137.844,194.956,145.9z"/>
	</g>
</g>
</svg>
