<?xml version="1.0" encoding="utf-8"?>
<!-- Generator: Adobe Illustrator 15.0.0, SVG Export Plug-In . SVG Version: 6.00 Build 0)  -->
<!DOCTYPE svg PUBLIC "-//W3C//DTD SVG 1.1//EN" "http://www.w3.org/Graphics/SVG/1.1/DTD/svg11.dtd">
<svg version="1.1" id="Layer_1" xmlns="http://www.w3.org/2000/svg" xmlns:xlink="http://www.w3.org/1999/xlink" x="0px" y="0px"
	 width="204.982px" height="94.061px" viewBox="0 0 204.982 94.061" enable-background="new 0 0 204.982 94.061"
	 xml:space="preserve">
<g>
	<path fill="#B4B3B4" d="M34.357,62.09c-1.16,0-2.022-0.74-2.022-1.737c0-1,0.854-1.744,2.022-1.744
		c1.154,0,2.023,0.759,2.023,1.744C36.382,61.333,35.507,62.09,34.357,62.09 M34.357,57.912c-1.631,0-2.903,0.994-2.903,2.44
		c0,1.447,1.282,2.437,2.903,2.437c1.623,0,2.906-0.994,2.906-2.437C37.264,58.906,35.988,57.912,34.357,57.912"/>
	<polygon fill="#B4B3B4" points="62.639,48.375 48.488,48.375 50.098,26.971 40.911,48.375 27.771,48.375 48.618,0.001 
		62.598,0.001 60.982,21.695 70.344,0.001 83.482,0.001 	"/>
	<polygon fill="#B4B3B4" points="64.344,48.375 85.189,0.001 98.327,0.001 77.48,48.375 	"/>
	<path fill="#B4B3B4" d="M34.366,60.097h-0.437V59.49h0.365c0.227,0,0.483,0.023,0.483,0.277
		C34.779,60.041,34.628,60.097,34.366,60.097 M35.583,59.833c0-0.632-0.478-0.791-1.271-0.791h-1.141v2.622h0.76v-1.115h0.129
		l0.693,1.115h0.875"/>
	<path fill="#B4B3B4" d="M26.259,32.699C7.899,51.465-9.417,76.429,5.88,87.928c14.82,11.142,33.35,4.543,45.979,0.146
		c12.634-4.397,152.259-57.171,152.259-57.171c1.348-0.586,1.096-1.319-0.589-0.952c-0.68,0.146-152.008,35.841-152.008,35.841
		C32.322,70.483,10.427,60.259,26.259,32.699"/>
	<path fill="#B4B3B4" d="M115.421,45.15l-0.842-25.214l19.862-18.98L115.421,45.15z M157.766,8.062l3.529-8.062h-26.326h-0.115
		H121.21l-13.765,14.512L113.8,0.001h-13.307L79.818,48.374h13.138l8.825-20.229l0.605,20.229l40.311-0.075l3.839-9.306h-15.328
		l5.035-11.729h12.631l3.887-9.015H140.13l4.33-10.188L157.766,8.062L157.766,8.062z"/>
</g>
</svg>
