<?xml version="1.0" encoding="utf-8"?>
<!-- Generator: Adobe Illustrator 15.0.0, SVG Export Plug-In . SVG Version: 6.00 Build 0)  -->
<!DOCTYPE svg PUBLIC "-//W3C//DTD SVG 1.1//EN" "http://www.w3.org/Graphics/SVG/1.1/DTD/svg11.dtd">
<svg version="1.1" id="Layer_1" xmlns="http://www.w3.org/2000/svg" xmlns:xlink="http://www.w3.org/1999/xlink" x="0px" y="0px"
	 width="204.982px" height="94.06px" viewBox="100.604 196.491 204.982 94.06"
	 enable-background="new 100.604 196.491 204.982 94.06" xml:space="preserve">
<g>
	<path fill="#62737C" d="M134.962,258.58c-1.16,0-2.023-0.74-2.023-1.737c0-1,0.855-1.745,2.023-1.745
		c1.154,0,2.023,0.759,2.023,1.745C136.986,257.823,136.111,258.58,134.962,258.58 M134.962,254.402
		c-1.631,0-2.904,0.994-2.904,2.441s1.283,2.436,2.904,2.436c1.623,0,2.906-0.994,2.906-2.436
		C137.869,255.396,136.593,254.402,134.962,254.402"/>
	<polygon fill="#231F20" points="163.244,244.865 149.093,244.865 150.703,223.462 141.515,244.865 128.376,244.865 
		149.222,196.491 163.203,196.491 161.587,218.185 170.949,196.491 184.087,196.491 	"/>
	<polygon fill="#231F20" points="164.949,244.865 185.794,196.491 198.931,196.491 178.085,244.865 	"/>
	<path fill="#231F20" d="M134.97,256.588h-0.436v-0.608h0.365c0.227,0,0.484,0.024,0.484,0.278
		C135.384,256.531,135.232,256.588,134.97,256.588 M136.187,256.323c0-0.632-0.477-0.791-1.271-0.791h-1.141v2.622h0.76v-1.115
		h0.129l0.693,1.115h0.875"/>
	<path fill="#231F20" d="M126.863,229.189c-18.359,18.766-35.676,43.731-20.379,55.23c14.82,11.141,33.35,4.543,45.98,0.146
		c12.633-4.397,152.258-57.171,152.258-57.171c1.348-0.586,1.096-1.319-0.588-0.952c-0.68,0.147-152.008,35.841-152.008,35.841
		C132.927,266.973,111.031,256.749,126.863,229.189"/>
	<path fill="#231F20" d="M216.025,241.64l-0.842-25.213l19.863-18.981L216.025,241.64z M258.371,204.553l3.529-8.062h-26.326h-0.115
		h-13.645l-13.764,14.512l6.354-14.512h-13.307l-20.674,48.373h13.137l8.826-20.229l0.605,20.229l40.311-0.075l3.838-9.306h-15.328
		l5.035-11.728h12.631l3.887-9.015h-12.631l4.33-10.188H258.371z"/>
</g>
</svg>
