<?xml version="1.0" encoding="utf-8"?>
<!-- Generator: Adobe Illustrator 15.0.0, SVG Export Plug-In . SVG Version: 6.00 Build 0)  -->
<!DOCTYPE svg PUBLIC "-//W3C//DTD SVG 1.1//EN" "http://www.w3.org/Graphics/SVG/1.1/DTD/svg11.dtd">
<svg version="1.1" id="Layer_1" xmlns="http://www.w3.org/2000/svg" xmlns:xlink="http://www.w3.org/1999/xlink" x="0px" y="0px"
	 width="262.951px" height="23.621px" viewBox="0 0 262.951 23.621" enable-background="new 0 0 262.951 23.621"
	 xml:space="preserve">
<g>
	<rect x="39.077" fill="#B4B3B4" width="3.726" height="23.621"/>
	<polygon fill="#B4B3B4" points="16.804,0 16.804,17.438 3.725,0 0,0 0,23.621 3.725,23.621 3.725,6.262 16.804,23.621 
		20.528,23.621 20.528,0 	"/>
	<polygon fill="#B4B3B4" points="78.156,0 78.156,17.438 65.077,0 61.352,0 61.352,23.621 65.077,23.621 65.077,6.262 
		78.156,23.621 81.881,23.621 81.881,0 	"/>
	<polygon fill="#B4B3B4" points="113.189,3.725 113.189,0 100.429,0 100.429,23.621 113.189,23.621 113.189,19.895 104.153,19.895 
		104.153,13.872 113.189,13.872 113.189,10.146 104.153,10.146 104.153,3.725 	"/>
	<polygon fill="#B4B3B4" points="204.939,3.725 204.939,0 192.178,0 192.178,23.621 204.939,23.621 204.939,19.895 195.903,19.895 
		195.903,13.872 204.939,13.872 204.939,10.146 195.903,10.146 195.903,3.725 	"/>
	<polygon fill="#B4B3B4" points="262.951,0 244.201,0 244.201,3.725 251.826,3.725 251.826,23.621 255.551,23.621 255.551,3.725 
		262.951,3.725 	"/>
	<polygon fill="#B4B3B4" points="175.756,0 170.843,14.433 165.93,0 162.436,0 157.522,14.433 152.609,0 148.843,0 157.141,23.621 
		158.201,23.621 164.183,5.37 170.165,23.621 171.225,23.621 179.522,0 	"/>
	<path fill="#B4B3B4" d="M231.513,7.166l0.055-5.234c0,0-2.657-1.932-5.77-1.932s-7.073,2.3-7.073,6.147s2.659,5.191,5.205,6.888
		c2.547,1.697,4.018,2.504,4.018,4.259s-1.3,2.829-3.565,2.829c-3.054,0-5.657-3.631-5.657-3.631v5.271c0,0,2.587,1.808,5.576,1.808
		c3.451,0,7.212-1.977,7.212-6.503c0-3.907-4.064-5.866-5.932-7.111c0,0-3.235-1.579-3.235-3.867c0-1.383,1.076-2.49,3.339-2.49
		C229.646,3.601,231.513,7.166,231.513,7.166z"/>
</g>
</svg>
