<?xml version="1.0" encoding="utf-8"?>
<!-- Generator: Adobe Illustrator 15.0.0, SVG Export Plug-In . SVG Version: 6.00 Build 0)  -->
<!DOCTYPE svg PUBLIC "-//W3C//DTD SVG 1.1//EN" "http://www.w3.org/Graphics/SVG/1.1/DTD/svg11.dtd">
<svg version="1.1" id="Layer_1" xmlns="http://www.w3.org/2000/svg" xmlns:xlink="http://www.w3.org/1999/xlink" x="0px" y="0px"
	 width="184.189px" height="244.459px" viewBox="0 0 184.189 244.459" enable-background="new 0 0 184.189 244.459"
	 xml:space="preserve">
<path fill="#B4B3B4" d="M109.561,172.528c-11.304,0-22.924-4.648-30.27-11.593c-4.907,14.074-11.505,33.312-12.538,37.014
	c-5.065,18.392-18.479,36.783-24.002,43.829c-1.448,1.821-3.228,2.682-5.15,2.682c-3.069,0-5.637-2.18-6.054-5.223
	c-2.869-19.826-2.683-37.701,0.487-51.071c2.31-9.812,19.368-68.174,22.467-78.704c-1.306-3.243-3.902-10.845-3.902-20.888
	c0-21.362,12.97-38.104,29.524-38.104c13.142,0,21.949,9.641,21.949,23.958c0,8.263-3.185,18.549-6.542,29.438
	c-1.809,5.882-3.672,11.894-5.051,17.746c-1.189,4.993-0.229,9.77,2.684,13.471c3.113,3.931,8.048,6.185,13.556,6.185
	c21.005,0,36.842-27.848,36.842-64.803c0-28.033-19.052-45.449-49.725-45.449c-38.763,0-59.666,29.84-59.666,57.93
	c0,9.383,2.396,16.584,7.547,22.667c2.969,3.5,4.146,6.082,2.77,11.218l-2.669,10.444c-1.119,4.318-4.404,7-8.521,7
	c-1.32,0-2.626-0.271-3.931-0.803c-18.378-7.518-29.366-27.63-29.366-53.783C-0.001,43.583,36.423,0,97.395,0
	c54.329,0,86.796,40.141,86.796,78.947C184.191,133.162,152.801,172.528,109.561,172.528"/>
</svg>
