<?xml version="1.0" encoding="utf-8"?>
<!-- Generator: Adobe Illustrator 15.0.0, SVG Export Plug-In . SVG Version: 6.00 Build 0)  -->
<!DOCTYPE svg PUBLIC "-//W3C//DTD SVG 1.1//EN" "http://www.w3.org/Graphics/SVG/1.1/DTD/svg11.dtd">
<svg version="1.1" id="Layer_1" xmlns="http://www.w3.org/2000/svg" xmlns:xlink="http://www.w3.org/1999/xlink" x="0px" y="0px"
	 width="297.455px" height="297.477px" viewBox="0 0 297.455 297.477" enable-background="new 0 0 297.455 297.477"
	 xml:space="preserve">
<circle fill="#F58C85" cx="150" cy="148.738" r="148.738"/>
<g id="a35l0S_1_">
	<g id="XMLID_6_">
		<g>
			<path fill="#FFFFFF" d="M139.781,193.064c-13.675,1.229-31.295-15.448-30.04-29.479c-4.093-0.909-8.973-1.038-14.315-1.399
				c-5.385-0.371-12.538,1.303-16.567-4.215c-3.857-5.277,1.993-11.573,5.896-17.688c3.583-5.609,7.072-12.924,10.949-17.688
				c11.761-14.444,24.661-7.513,35.938-7.858c15.267-16.093,31.697-25.425,48.57-30.602c14.028-4.31,29.408-6.623,42.111-3.931
				c0.285,0.186,0.15,0.371,0,0.562c2.867,12.735,0.349,27.277-3.934,40.986c-4.106,13.153-10.395,27.692-22.181,40.708
				c-2.116,2.336-6.198,4.841-7.86,7.86c-1.357,2.472,0.286,7.171,0.562,10.105c0.783,8.336,1.887,17.322-8.143,26.11
				c-4.463,3.913-9.724,6.685-15.724,10.668c-6.989,4.648-14.864,12.878-21.336,6.177c-3.604-3.729-2.465-10.736-2.805-15.158
				C140.463,202.479,139.573,198.04,139.781,193.064z M190.88,135.795c7.021-7.431,5.921-19.016-2.812-25.271
				c-5.612-4.02-13.307-4.738-18.807-0.839C148.392,124.476,174.591,153.011,190.88,135.795z"/>
			<path fill="#FFFFFF" d="M111.426,222.543c-6.05-0.165-4.748-7.101-5.054-10.668c-5.98,0.505-16.634,9.531-20.775,3.932
				c-3.187-4.311,4.854-14.553,4.773-19.373c-2.33-0.994-10.54,1.19-10.388-5.334c4.248-5.174,10.831-11.752,16.002-16.002
				c6.126,0.894,6.66,11.908,16.003,19.935c2.189,1.881,5.022,3.501,7.58,4.771c3.192,1.592,7.136,2.195,7.861,5.055
				C128.604,209.503,114.491,218.518,111.426,222.543z"/>
			<path fill="#F58C85" d="M188.067,110.525c8.731,6.255,9.832,17.84,2.812,25.271c-16.289,17.216-42.488-11.319-21.615-26.109
				C174.763,105.786,182.455,106.505,188.067,110.525z M170.663,120.07c-4.736,7.629,6.936,17.659,14.037,9.546
				c3.519-4.018,2.721-9.408-2.526-12.634C177.839,114.321,173.604,115.34,170.663,120.07z"/>
			<path fill="#FFFFFF" d="M184.7,129.616c-7.104,8.113-18.773-1.917-14.037-9.546c2.938-4.729,7.176-5.75,11.511-3.088
				C187.421,120.208,188.219,125.599,184.7,129.616z"/>
		</g>
	</g>
</g>
</svg>
