<?xml version="1.0" encoding="utf-8"?>
<!-- Generator: Adobe Illustrator 15.0.0, SVG Export Plug-In . SVG Version: 6.00 Build 0)  -->
<!DOCTYPE svg PUBLIC "-//W3C//DTD SVG 1.1//EN" "http://www.w3.org/Graphics/SVG/1.1/DTD/svg11.dtd">
<svg version="1.1" id="Layer_1" xmlns="http://www.w3.org/2000/svg" xmlns:xlink="http://www.w3.org/1999/xlink" x="0px" y="0px"
	 width="217.78px" height="33.357px" viewBox="145.216 173.34 217.78 33.357" enable-background="new 145.216 173.34 217.78 33.357"
	 xml:space="preserve">
<path fill="#231F20" d="M153.493,182.356c-0.149-0.629-0.112-1.289-0.03-1.631c0.213-0.99,0.889-2.098,2.852-2.098
	c1.82,0,2.895,1.129,2.895,2.826c0,0.576,0,1.928,0,1.928h7.76v-2.189c0-6.771-6.104-7.852-10.507-7.852
	c-5.529,0-10.047,1.832-10.873,6.918c-0.229,1.398-0.268,2.625,0.06,4.197c1.352,6.367,12.414,8.211,14.021,12.234
	c0.305,0.752,0.214,1.715,0.059,2.299c-0.252,1.045-0.953,2.105-3.035,2.105c-1.949,0-3.113-1.135-3.113-2.836l-0.004-2.996h-8.359
	v2.379c0,6.963,5.469,9.057,11.32,9.057c5.625,0,10.246-1.92,11.001-7.129c0.371-2.686,0.088-4.436-0.037-5.094
	C166.189,187.938,154.38,186.004,153.493,182.356L153.493,182.356z M351.983,187.989v4.543h3.193v4.506
	c0.008,0.404-0.016,0.836-0.081,1.184c-0.13,0.842-0.928,2.271-3.186,2.271c-2.257,0-3.039-1.43-3.172-2.271
	c-0.062-0.348-0.084-0.779-0.084-1.184v-14.23c0-0.504,0.03-1.055,0.142-1.471c0.149-0.758,0.822-2.256,3.099-2.256
	c2.378,0,2.969,1.578,3.103,2.256c0.099,0.447,0.099,1.199,0.099,1.199v1.73h7.841v-1.023c0,0,0.036-1.066-0.058-2.061
	c-0.591-5.838-5.401-7.688-10.92-7.688c-5.529,0-10.244,1.865-10.931,7.688c-0.062,0.535-0.156,1.49-0.156,2.061v13.092
	c0,0.566,0.021,1.008,0.127,2.053c0.508,5.68,5.431,7.691,10.94,7.691c5.538,0,10.424-2.012,10.947-7.691
	c0.086-1.045,0.095-1.486,0.11-2.053v-8.346H351.983L351.983,187.989z M297.926,174.334h-7.882v23.033
	c0.015,0.398,0,0.85-0.066,1.178c-0.166,0.777-0.822,2.266-2.991,2.266c-2.144,0-2.816-1.488-2.964-2.266
	c-0.083-0.328-0.091-0.779-0.083-1.178v-23.033h-7.871v22.314c-0.009,0.58,0.037,1.756,0.065,2.062
	c0.546,5.811,5.126,7.703,10.853,7.703c5.736,0,10.312-1.893,10.87-7.703c0.038-0.307,0.098-1.482,0.069-2.062V174.334
	L297.926,174.334z M225.579,174.334l-3.93,24.332l-3.925-24.332h-12.705l-0.67,31.133h7.781l0.209-28.826l5.352,28.826h7.894
	l5.362-28.826l0.212,28.826h7.801l-0.697-31.133H225.579L225.579,174.334z M178.55,174.334l-5.768,31.133h8.408l4.35-28.826
	l4.238,28.826h8.352l-5.742-31.133H178.55L178.55,174.334z M325.438,199.399l-7.326-25.064h-11.554v30.807h7.635l-0.44-25.867
	l7.873,25.867h11.081v-30.807h-7.693L325.438,199.399L325.438,199.399z M254.748,182.436c-0.141-0.617-0.102-1.268-0.029-1.609
	c0.223-0.998,0.896-2.08,2.819-2.08c1.801,0,2.85,1.117,2.85,2.801c0,0.562,0,1.898,0,1.898h7.683v-2.168
	c0-6.709-6.018-7.762-10.372-7.762c-5.479,0-9.96,1.811-10.775,6.855c-0.219,1.373-0.27,2.592,0.073,4.148
	c1.332,6.295,12.29,8.123,13.879,12.102c0.28,0.752,0.202,1.713,0.056,2.281c-0.235,1.035-0.938,2.08-3.001,2.08
	c-1.935,0-3.103-1.117-3.103-2.797l-0.004-2.988h-8.261v2.377c0,6.881,5.393,8.959,11.198,8.959c5.559,0,10.152-1.898,10.892-7.053
	c0.351-2.66,0.082-4.393-0.055-5.043C267.305,187.977,255.627,186.035,254.748,182.436L254.748,182.436z"/>
</svg>
