<?xml version="1.0" encoding="utf-8"?>
<!-- Generator: Adobe Illustrator 15.0.0, SVG Export Plug-In . SVG Version: 6.00 Build 0)  -->
<!DOCTYPE svg PUBLIC "-//W3C//DTD SVG 1.1//EN" "http://www.w3.org/Graphics/SVG/1.1/DTD/svg11.dtd">
<svg version="1.1" id="Layer_1" xmlns="http://www.w3.org/2000/svg" xmlns:xlink="http://www.w3.org/1999/xlink" x="0px" y="0px"
	 width="244.589px" height="243.471px" viewBox="0 0 244.589 243.471" enable-background="new 0 0 244.589 243.471"
	 xml:space="preserve">
<path fill="#F58C85" d="M125.062,254.815c-5.301,0-10.518-0.454-15.664-1.116l-8.033-32.159l-1.18-0.29
	c-6.925-1.988-13.623-4.769-19.833-8.226l-1.077-0.6L50.91,229.452c-8.933-7.045-16.046-14.255-22.195-22.211l17.008-28.343
	l-0.599-1.103c-3.501-6.3-6.252-12.994-8.158-19.81l-0.333-1.18l-32.163-8.04c-0.726-5.927-1.119-10.756-1.119-15.708
	c0-5.303,0.457-10.524,1.119-15.664l32.163-8.038l0.333-1.16c1.905-6.842,4.657-13.516,8.177-19.855l0.601-1.076l-17.03-28.386
	c6.958-8.872,14.151-15.959,22.215-22.174L79.296,53.72l1.075-0.604c6.294-3.503,12.972-6.256,19.814-8.162l1.18-0.33l8.033-32.159
	c5.912-0.71,10.756-1.123,15.664-1.123c5.352,0,10.529,0.455,15.714,1.123l8.033,32.159l1.18,0.33
	c6.839,1.905,13.49,4.659,19.814,8.162l1.077,0.604l28.343-17.016c8.937,7.045,16.067,14.178,22.237,22.174l-17.029,28.386
	l0.602,1.076c3.456,6.237,6.209,12.89,8.198,19.855l0.332,1.16l32.121,8.038c0.745,5.885,1.14,10.756,1.14,15.664
	c0,5.345-0.455,10.567-1.14,15.708l-32.121,8.04l-0.332,1.18c-2.009,6.897-4.742,13.593-8.198,19.81l-0.582,1.103l17.01,28.343
	c-7.029,8.909-14.19,16.042-22.174,22.211l-28.365-17.027l-1.076,0.579c-6.223,3.457-12.889,6.236-19.855,8.245l-1.18,0.29
	l-8.033,32.159C134.846,254.422,130.021,254.815,125.062,254.815 M125.062,87.516c-25.104,0-45.561,20.43-45.561,45.545
	c0,25.135,20.457,45.589,45.561,45.589c25.135,0,45.591-20.454,45.591-45.589C170.653,107.946,150.197,87.516,125.062,87.516"/>
</svg>
