<?xml version="1.0" encoding="utf-8"?>
<!-- Generator: Adobe Illustrator 15.0.0, SVG Export Plug-In . SVG Version: 6.00 Build 0)  -->
<!DOCTYPE svg PUBLIC "-//W3C//DTD SVG 1.1//EN" "http://www.w3.org/Graphics/SVG/1.1/DTD/svg11.dtd">
<svg version="1.1" id="Layer_1" xmlns="http://www.w3.org/2000/svg" xmlns:xlink="http://www.w3.org/1999/xlink" x="0px" y="0px"
	 width="297.455px" height="297.477px" viewBox="0 0 297.455 297.477" enable-background="new 0 0 297.455 297.477"
	 xml:space="preserve">
<circle fill="#F58D86" cx="150.213" cy="148.516" r="148.516"/>
<g id="QQHEih_1_">
	<g id="XMLID_2_">
		<g>
			<path fill="#FFFFFF" d="M223.106,94.009c-0.893,23.25,1.605,44.783,0,67.015c-1.535,21.229-13.729,36.315-27.233,47.605
				c-14.043,11.737-30.999,19.97-46.969,29.293c-24.412-13.976-48.579-25.773-64.334-47.604
				c-8.379-11.607-11.446-25.322-11.446-43.212c0-16.519-0.008-34.587,0-52.732c34.421-1.264,54.925-15.443,76.176-28.931
				C169.681,78.881,188.63,93.65,223.106,94.009z M212.056,149.306c0-14.051,0-29.633,0-45.042
				c-26.678-3.325-44.959-14.436-63.151-25.634c-18.586,11.198-37.59,22.005-64.334,25.634c0.288,19.705-1.322,39.165,0,56.029
				c0.15,1.934,0.371,3.973,0.789,5.858c6.659,30.076,39.702,45.449,63.545,59.324c20.646-11.575,40.756-21.247,53.679-39.916
				C209.3,175.852,212.056,164.262,212.056,149.306z"/>
			<path fill="#F58D86" d="M212.056,104.263c0,15.41,0,30.991,0,45.042c0,14.956-2.756,26.546-9.473,36.254
				c-12.923,18.669-33.032,28.341-53.679,39.916c-23.843-13.875-56.887-29.248-63.545-59.324c-0.418-1.887-0.639-3.926-0.789-5.858
				c-1.322-16.864,0.288-36.324,0-56.029c26.744-3.629,45.749-14.436,64.334-25.634C167.097,89.827,185.378,100.938,212.056,104.263
				z"/>
		</g>
		<g>
			<path fill="none" stroke="#FFFFFF" stroke-width="13" stroke-miterlimit="10" d="M148.904,78.629
				c18.191,11.198,36.474,22.309,63.15,25.634c0,15.41,0,30.991,0,45.042c0,14.956-2.755,26.546-9.472,36.254
				c-12.923,18.669-33.032,28.341-53.679,39.916c-23.843-13.875-56.887-29.248-63.545-59.324c-0.418-1.887-0.639-3.926-0.789-5.858
				c-1.322-16.864,0.288-36.324,0-56.029C111.314,100.634,130.318,89.827,148.904,78.629z"/>
			<path fill="none" stroke="#FFFFFF" stroke-width="13" stroke-miterlimit="10" d="M149.299,65.446
				c20.382,13.437,39.331,28.205,73.808,28.563c-0.893,23.25,1.605,44.783,0,67.015c-1.535,21.229-13.729,36.315-27.233,47.605
				c-14.043,11.737-30.999,19.97-46.969,29.293c-24.412-13.976-48.579-25.773-64.334-47.604
				c-8.379-11.607-11.446-25.322-11.446-43.212c0-16.519-0.008-34.587,0-52.732C107.544,93.112,128.049,78.933,149.299,65.446z"/>
		</g>
	</g>
</g>
</svg>
