<?xml version="1.0" encoding="utf-8"?>
<!-- Generator: Adobe Illustrator 15.0.0, SVG Export Plug-In . SVG Version: 6.00 Build 0)  -->
<!DOCTYPE svg PUBLIC "-//W3C//DTD SVG 1.1//EN" "http://www.w3.org/Graphics/SVG/1.1/DTD/svg11.dtd">
<svg version="1.1" id="Layer_1" xmlns="http://www.w3.org/2000/svg" xmlns:xlink="http://www.w3.org/1999/xlink" x="0px" y="0px"
	 width="195.035px" height="44.41px" viewBox="103.054 200.292 195.035 44.41"
	 enable-background="new 103.054 200.292 195.035 44.41" xml:space="preserve">
<g>
	<path fill="#231F20" d="M285.42,217.132l12.669-5.092l-7.245-11.748l-1.409,4.502c0,0-5.875-0.626-9.105,1.038
		c-2.703,1.312-4.799,3.074-7.893,6.403c-1.566,1.664-4.248,5.738-4.248,5.738l-1.666-13.082h-9.203l3.035,20.522l-5.443,15.508
		h10.927c0,0,2.291-6.695,2.545-7.382c0.724-2.251,3.429-7.93,5.72-10.867c2.551-3.354,7.733-10.182,12.727-9.986L285.42,217.132z"
		/>
	<path fill="#231F20" d="M238.326,204.853h-9.557l-10.612,22.521c0.489-2.646,3.916-22.521,3.916-22.521h-8.42
		c0,0-9.751,19.975-10.927,22.656l4.308-22.656h-9.692l-4.055,36.266h9.537l10.535-22.715c-0.49,2.508-3.975,22.715-3.975,22.715
		h9.498L238.326,204.853z"/>
	<path fill="#231F20" d="M239.109,226.862h4.936l2.211-13.276L239.109,226.862z M255.891,203.853l-4.308,36.325h-10.381l1.373-5.875
		h-7.344l-3.133,5.777h-9.105l19.483-36.228H255.891z"/>
	<path fill="#231F20" d="M181.872,230.017c-0.529,2.349-2.449,3.133-4.504,3.133h-2.683l2.252-6.619
		C178.976,226.448,182.505,227.021,181.872,230.017 M180.892,212.587h1.664c1.371,0,3.916,0.237,2.702,3.33
		c-0.979,2.447-3.681,2.977-5.149,2.977h-1.371L180.892,212.587z M175.898,241.021L175.898,241.021
		c4.994,0,12.983-1.665,15.471-9.145c1.43-4.309-1.176-8.38-3.819-9.791c2.841-0.979,5.64-4.465,6.425-7.245
		c2.25-7.891-2.508-10.143-7.99-10.143H174l-12.141,36.323H175.898z"/>
	<path fill="#231F20" d="M153.242,227.96L153.242,227.96c-0.293,0.881-0.686,2.153-1.33,3.172c-0.529,0.939-1.41,1.725-2.84,1.725
		c-1.312,0-1.704-0.785-1.665-1.764c0.058-0.979,0.548-2.252,0.842-3.191l7.637-22.813h-9.791l-7.931,23.694
		c-1.468,4.407-3.485,13.218,7.872,13.218s15.274-8.811,16.743-13.218l7.932-23.694h-9.831L153.242,227.96z"/>
	<path fill="#231F20" d="M103.054,232.562l13.12-5.385l-1.469,4.543c1.607,0.978,3.525,1.272,5.248,1.175
		c1.606-0.098,3.427-0.783,3.956-2.096c0.392-0.882-0.099-2.8-1.313-4.072c-1.429-1.509-2.506-3.466-3.093-4.993
		c-0.627-1.665-0.822-4.896-0.392-6.854c0.745-3.035,4.603-10.868,15.372-10.417c2.35,0.098,5.835,1.272,7.539,2.389l-4.014,7.598
		c-4.543-2.703-7.285-1.723-8.323,0.783c-1.018,2.448,0.685,4.837,2.252,6.697c2.017,2.312,3.623,4.798,3.623,7.695
		c0,6.795-7.284,12.337-16.292,12.337c-2.664,0-5.209-0.489-7.461-1.372l-1.312,4.113L103.054,232.562z"/>
</g>
</svg>
