<?xml version="1.0" encoding="utf-8"?>
<!-- Generator: Adobe Illustrator 15.0.0, SVG Export Plug-In . SVG Version: 6.00 Build 0)  -->
<!DOCTYPE svg PUBLIC "-//W3C//DTD SVG 1.1//EN" "http://www.w3.org/Graphics/SVG/1.1/DTD/svg11.dtd">
<svg version="1.1" id="Layer_1" xmlns="http://www.w3.org/2000/svg" xmlns:xlink="http://www.w3.org/1999/xlink" x="0px" y="0px"
	 width="195.477px" height="34.564px" viewBox="0 0 195.477 34.564" enable-background="new 0 0 195.477 34.564"
	 xml:space="preserve">
<g>
	<path fill="#B4B3B4" d="M147.161,12.79c0-1.433-1.848-3.431-5.215-3.431c-3.025,0-5.01,2.07-5.01,4.72
		c0,3.153,2.495,3.932,5.024,4.301c2.131,0.313,4.031,0.957,4.031,3.086c0,1.672-1.699,2.719-3.834,2.719
		c-1.543,0-2.627-0.521-3.576-1.461l-0.756,0.744c1.143,1.139,2.68,1.734,4.332,1.734c2.986,0,5.645-1.98,5.645-4.802
		c0-2.44-0.873-4.276-5.789-4.961c-2.045-0.282-3.782-0.678-3.719-2.481l0,0c0.051-1.385,1.578-2.597,3.717-2.597
		c1.148,0,2.511,0.38,3.064,0.941l-0.088,0.039l0,0c-0.566,0.26-0.933,0.828-0.933,1.447c0,0.832,0.705,1.535,1.537,1.535
		C146.444,14.325,147.161,13.622,147.161,12.79L147.161,12.79L147.161,12.79z M133.967,12.79c0-1.433-1.85-3.431-5.215-3.431
		c-3.024,0-5.01,2.07-5.01,4.72c0,3.153,2.496,3.932,5.024,4.301c2.13,0.313,4.029,0.957,4.029,3.086
		c0,1.672-1.699,2.719-3.832,2.719c-1.543,0-2.627-0.521-3.576-1.461l-0.756,0.744c1.142,1.139,2.681,1.734,4.332,1.734
		c2.984,0,5.646-1.98,5.646-4.802c0-2.44-0.875-4.276-5.791-4.961c-2.043-0.282-3.783-0.678-3.72-2.481h0.003
		c0.049-1.385,1.577-2.597,3.715-2.597c1.149,0,2.51,0.38,3.063,0.941l-0.086,0.039l0,0c-0.565,0.26-0.932,0.828-0.932,1.447
		c0,0.832,0.703,1.535,1.537,1.535C133.249,14.325,133.967,13.622,133.967,12.79L133.967,12.79L133.967,12.79z M52.524,12.79
		c0-1.433-1.849-3.431-5.216-3.431c-3.024,0-5.011,2.07-5.011,4.72c0,3.153,2.497,3.932,5.026,4.301
		c2.131,0.313,4.03,0.957,4.03,3.086c0,1.672-1.7,2.719-3.832,2.719c-1.544,0-2.628-0.521-3.577-1.461l-0.756,0.744
		c1.141,1.139,2.68,1.734,4.333,1.734c2.984,0,5.644-1.98,5.644-4.802c0-2.44-0.874-4.276-5.791-4.961
		c-2.043-0.282-3.781-0.678-3.718-2.481h0.001c0.05-1.385,1.578-2.597,3.716-2.597c1.149,0,2.51,0.38,3.064,0.941l-0.087,0.039l0,0
		c-0.566,0.26-0.933,0.828-0.933,1.447c0,0.832,0.705,1.535,1.536,1.535C51.805,14.325,52.524,13.622,52.524,12.79L52.524,12.79
		L52.524,12.79z M0.002,17.284L0.002,17.284 M17.284,34.564L17.284,34.564 M17.284,0.001L17.284,0.001 M34.567,17.284
		c0-9.548-7.738-17.283-17.283-17.283S0.002,7.736,0.002,17.284c0,9.545,7.737,17.28,17.282,17.28S34.567,26.829,34.567,17.284
		L34.567,17.284z M191.633,4.101h-2.67v5.637h-1.68v1.015h1.68l0,0l-0.016,8.588c0,3.852,1.793,5.705,4.771,5.705
		c0.736,0,1.308-0.105,1.758-0.254l0,0l-0.155-0.904c-0.314,0.096-0.644,0.154-0.982,0.154c-2.008,0-2.705-1.371-2.705-4.045v-9.244
		h3.492V9.738h-3.492V4.101L191.633,4.101z M100.712,9.659v1.006l0,0h-2.697c1.07,1.014,1.644,2.51,1.644,4.324
		c0,3.596-2.072,5.879-5.838,5.879c-1.996,0.026-3.646-0.146-3.646,1.309c0,1.061,1.943,0.947,4,1.041
		c3.021,0.137,6.09,0.414,6.09,4.035c0,2.826-3.121,4.787-6.34,4.787c-1.94,0-3.645-0.603-4.688-1.56l0.678-0.741
		c0.896,0.79,2.303,1.301,4.012,1.301c2.349,0,4.361-0.992,4.361-2.789c0-2.14-1.342-2.176-4.184-2.394
		c-2.533-0.188-5.044-0.664-5.044-3.092c0-1.258,0.515-2.199,1.828-2.643c-1.825-0.957-2.834-2.642-2.834-5.136
		c0-3.45,2.052-5.809,5.785-5.809c1.045,0,1.978,0.203,2.707,0.479L100.712,9.659L100.712,9.659z M96.946,14.676
		c0-3.418-1.053-4.477-3.109-4.477c-2.051,0-3.106,1.057-3.106,4.477v1.053c0,3.252,1.039,4.14,3.09,4.14
		c2.057,0,3.127-0.888,3.127-4.14L96.946,14.676L96.946,14.676z M118.2,16.005c-0.582,0.44-1.285,0.715-2.951,1.182
		c-2.084,0.584-2.738,1.408-2.738,3.625c0,1.597,0.478,3.092,2.222,3.119c1.973,0,3.469-1.701,3.469-3.285L118.2,16.005
		L118.2,16.005z M120.808,15.398v9.175H118.2v-1.521c-0.609,0.893-1.971,1.887-3.635,1.887c-3.14,0-4.697-1.887-4.697-4.051
		c0-3.195,2.131-3.787,4.992-4.635c2.403-0.711,3.521-1.076,3.521-3.131c0-1.664-1.051-2.857-3.188-2.857s-3.224,0.941-3.892,2.519
		l-0.934-0.38l0,0c0.834-2.137,2.678-3.139,4.904-3.139C118.405,9.263,120.808,11.71,120.808,15.398L120.808,15.398z M65.747,9.738
		v10.3c0,2.549-1.143,4.088-3.352,4.088c-2.267,0-3.414-1.539-3.414-4.088v-10.3h-2.668l0.025,9.162
		c0,3.632,2.115,6.254,5.998,6.254c3.938,0,6.079-2.622,6.079-6.254h0.001V9.738H65.747L65.747,9.738z M181.602,9.738v10.3
		c0,2.549-1.146,4.088-3.353,4.088c-2.268,0-3.414-1.539-3.414-4.088v-10.3h-2.67l0.027,9.162c0,3.632,2.114,6.254,5.998,6.254
		c3.936,0,6.08-2.622,6.08-6.254l0,0V9.738H181.602L181.602,9.738z M79.399,9.191c-1.935,0-3.334,0.896-4.104,2.076V9.738l0,0
		h-2.638v14.854h2.638V14.384c0-2.217,1.586-4.197,3.601-4.197c2.149,0,3.2,1.719,3.2,4.188v10.219h2.634V14.56
		C84.729,11.439,82.429,9.191,79.399,9.191L79.399,9.191z M103.719,24.583h2.636V1.937h-2.636V24.583L103.719,24.583z
		 M165.614,24.589v-9.896c0-2.551-0.81-4.502-3.166-4.502c-2.34,0-3.566,2.338-3.566,4.256l0.002,10.144h-2.666V1.943h2.677V1.941
		v9.22l0,0c0.649-1.039,1.909-1.984,4.092-1.984c3.215,0,5.299,2.26,5.299,5.379v10.035h-2.671V24.589z"/>
</g>
</svg>
