<?xml version="1.0" encoding="utf-8"?>
<!-- Generator: Adobe Illustrator 15.0.0, SVG Export Plug-In . SVG Version: 6.00 Build 0)  -->
<!DOCTYPE svg PUBLIC "-//W3C//DTD SVG 1.1//EN" "http://www.w3.org/Graphics/SVG/1.1/DTD/svg11.dtd">
<svg version="1.1" id="Layer_1" xmlns="http://www.w3.org/2000/svg" xmlns:xlink="http://www.w3.org/1999/xlink" x="0px" y="0px"
	 width="102.593px" height="128.347px" viewBox="147.083 158.85 102.593 128.347"
	 enable-background="new 147.083 158.85 102.593 128.347" xml:space="preserve">
<g>
	<path fill="#FFFFFF" d="M183.242,160.967c5.541-1.848,10.885,4.914,10.885,4.914l3.133-0.531h3.703
		c11.762,2.28,20.947,13.352,26.854,20.877c3.148,4.042,10.865,7.369,15.789,8.425c2.613,0.572,1.74,0.45,4.377,2.642
		c2.979,2.447,0.703,6.831-1.932,10.347c-1.312,1.75-5.951,7.016-7.369,8.424c-4.904,4.906-15.945,10.864-22.975,14.727
		c-5.271,2.899-27.982,12.988-35.631,12.988c-5.261,0-19.113,0.53-13.331-11.07l2.107-4.201c1.232-2.977,2.627-7.443,2.627-9.469
		c1.242-6.492-6.479-24.387,0-36.316c1.816-3.339,5.504-8.229,5.442-8.598c-0.695-4.037,0-6.494,1.231-8.956
		C180.458,162.948,180.076,162.021,183.242,160.967"/>
	<path fill="#231F20" d="M205.238,240.956h37.645v-26.885C230.123,228.378,208.419,240.088,205.238,240.956"/>
	<path fill="#231F20" d="M187.779,159.963c5.266,0.968,6.973,4.701,6.793,4.608c11.932-1.433,16.83,1.896,22.713,7.1
		c7.055,6.241,11.816,12.874,13.742,14.771c3.979,3.932,8.498,4.615,10.855,4.701c-2.975-8.54-7.236-18.909-21.709-26.955
		C207.048,156.892,190.494,158.823,187.779,159.963"/>
	<path d="M193.847,167.919c8.602,0.299,11.033,4.424,11.033,4.424c5.799,5.471,10.322,17.17,14.566,20.338
		c1.629-0.472,2.98-0.953,7.594-1.045c-3.244-0.301-8.943-9.514-8.973-9.577c-1.617-2.995-5.754-9.429-11.918-12.688
		C199.712,165.948,193.847,167.919,193.847,167.919"/>
	<path fill="#231F20" d="M178.109,163.036c-3.902,3.75-3.525,9.114-3.079,11.619c-7.232,6.336-9.591,16.98-8.942,27.419
		c-0.109,5.279,1.897,13.042,1.528,17.185c0.084,2.299-0.176,5.668-3.716,10.935c-3.211,4.838-3.801,7.78-3.957,10.354h-8.069
		v-41.535C153.408,175.99,171.416,165.714,178.109,163.036"/>
	<path fill="#231F20" d="M180.458,162.948c-4.08,3.839-1.357,9.683-1.357,9.683c0.449-0.764,6.877-4.711,10.947-5.273
		c-15.577,6.863-18.005,15.247-15.724,29.937c0.985,6.314,2.241,10.356,2.884,16.888c-3.811,3.162-6.239,8.154-6.239,8.154
		c0.898-5.758-1.396-13.562-2.27-21.202c-1.187-10.269,0.908-19.479,8.056-26.688C176.755,174.446,174.303,166.876,180.458,162.948"
		/>
	<path fill="#231F20" d="M202.527,207.65c32.027-15.26,36.553-5.276,36.553-5.276c5.166,11.13-23.877,27.157-25.863,27.917
		c-0.902,0.864-31.221,15.932-38.011,4.895c-0.26-0.961-3.162-8.82,18.005-25.041c10.506-8.069,24.158-13.718,35.459-16.793
		c-5.5,0.775-15.186,2.016-35.553,13.062c-18.269,10.536-31.105,27.62-27.574,34.543c9.86,9.197,35.264-2.212,46.574-7.777
		c17.193-7.879,41.176-25.722,37.1-35.694C240.265,185.579,202.449,206.983,202.527,207.65"/>
	<polygon fill="#231F20" points="147.083,249.154 171.69,249.154 169.774,253.092 164.002,253.092 164.002,264.702 154.87,264.702 
		154.87,253.092 149.152,253.092 	"/>
	<path fill="#231F20" d="M178.566,257.783h4.785l-2.334-4.691L178.566,257.783z M175.31,249.154h11.85l8.314,15.549h-9.309
		l-1.182-3.07h-7.959l-1.342,3.07h-9.053L175.31,249.154z"/>
	<polygon fill="#231F20" points="180.183,270.835 201.972,270.835 200.187,274.484 189.24,274.484 189.24,276.595 199.458,276.595 
		199.458,280.147 189.24,280.147 189.24,282.437 201.437,282.437 201.437,286.197 180.183,286.197 	"/>
	<g>
		<path fill="#231F20" d="M203.355,271.835h9.678v11.602h11.572l-1.906,3.76h-16.455c-2.453,0-2.889-2.119-2.889-2.119V271.835z"/>
		<path fill="#231F20" d="M225.953,271.835h9.699v11.602h11.566l-1.889,3.76h-16.465c-2.445,0-2.912-2.119-2.912-2.119V271.835z"/>
		<path fill="#231F20" d="M243.068,277.304h0.475c0.592,0,0.879,0.17,0.879,0.582c0,0.396-0.268,0.557-0.842,0.557h-0.512V277.304z
			 M242.289,276.81v3.632h0.779v-1.516h0.564l0.717,1.516h0.871l-0.809-1.64c0.523-0.117,0.809-0.476,0.809-1.005
			c0-0.637-0.51-0.987-1.533-0.987H242.289z M243.615,275.923c0.764,0,1.436,0.287,1.973,0.824c0.521,0.529,0.789,1.202,0.789,1.982
			c0,0.725-0.287,1.406-0.807,1.908c-0.547,0.529-1.238,0.809-2,0.809c-0.699,0-1.389-0.297-1.918-0.825
			c-0.521-0.53-0.797-1.211-0.797-1.937c0-0.727,0.295-1.427,0.834-1.973C242.208,276.192,242.861,275.923,243.615,275.923
			 M243.607,275.448c-0.879,0-1.648,0.312-2.26,0.923c-0.627,0.628-0.979,1.453-0.979,2.313c0,0.852,0.332,1.649,0.943,2.268
			c0.619,0.629,1.434,0.977,2.295,0.977c0.842,0,1.658-0.33,2.293-0.949c0.619-0.602,0.951-1.399,0.951-2.295
			c0-0.87-0.322-1.66-0.922-2.269C245.302,275.781,244.494,275.448,243.607,275.448"/>
		<path fill="#231F20" d="M215.542,254.091c0,0-6.588-0.48-8.305,0.373c0,0.117-3.172,0.201-3.25,3.461
			c0.273,4.707,6.32,4.025,6.32,4.025c1.266,0.294,6.334-0.558,6.334-0.558v3.917c0,0-4.064,0.773-7.953,0.773
			c-1.092-0.381-14.025,0.588-14.293-7.3c-1.352-9.012,14.559-8.63,14.559-8.63c5.516,0,8.229,0.671,8.229,0.671L215.542,254.091z"
			/>
		<path fill="#231F20" d="M217.992,258.122c0-4.414,5.723-7.969,13.229-7.969c7.48,0,13.57,2.785,13.57,7.969
			c0.068,5.373-6.09,7.961-13.57,7.961C223.714,266.083,217.912,263.304,217.992,258.122"/>
		<path fill="#F1F6F8" d="M227.58,258.346c0-2.348,0.996-4.823,3.904-4.735c2.256,0,3.795,2.113,3.613,4.711
			c0.182,2.679-1.084,4.311-3.613,4.311C228.767,262.632,227.58,260.715,227.58,258.346"/>
		<path fill="#231F20" d="M163.628,280.769v2.965h4.532c-0.004,0,1.996-0.082,1.613-1.631c0-0.956-1.521-1.334-1.521-1.334H163.628z
			 M163.628,274.807v2.788h4.532c-0.004,0,1.613,0,1.266-1.529c0-1.063-1.174-1.259-1.174-1.259H163.628z M154.869,271.835h18.171
			c0,0,5.069,0.391,4.624,3.648c0.445,3.079-2.814,3.643-2.814,3.643s2.908,0.377,3.26,3.564c0.457,3.923-4.344,4.506-4.344,4.506
			h-18.896V271.835z"/>
		<path fill="#231F20" d="M179.203,233.125c-2.113-4.766,8.859-14.906,24.453-22.618c15.629-7.728,29.971-10.12,32.078-5.34
			c2.1,4.777-8.859,14.896-24.471,22.624C195.648,235.503,181.3,237.897,179.203,233.125"/>
		<path fill="#F1F1F2" d="M183.257,226.173c-0.078-0.182,1.727-1.556,1.818-1.556c0.727,1.374,4.246,4.232,12.562,2.315
			c-6.145,0.392-9.93-5.079-6.689-6.521c0.818-0.484,12.309-7.385,13.932-6.04c2.623,7.3-2.301,13.518-7.502,15.247
			C193.044,231.068,186.97,231.355,183.257,226.173"/>
	</g>
</g>
</svg>
