<?xml version="1.0" encoding="utf-8"?>
<!-- Generator: Adobe Illustrator 15.0.0, SVG Export Plug-In . SVG Version: 6.00 Build 0)  -->
<!DOCTYPE svg PUBLIC "-//W3C//DTD SVG 1.1//EN" "http://www.w3.org/Graphics/SVG/1.1/DTD/svg11.dtd">
<svg version="1.1" id="Layer_1" xmlns="http://www.w3.org/2000/svg" xmlns:xlink="http://www.w3.org/1999/xlink" x="0px" y="0px"
	 width="291.762px" height="268.016px" viewBox="0 0 291.762 268.016" enable-background="new 0 0 291.762 268.016"
	 xml:space="preserve">
<path fill="#F58D86" d="M2.234,255.858c0,6.691,5.463,12.156,12.157,12.156h24.312c6.693,0,12.156-5.465,12.156-12.156v-24.314
	c0-6.692-5.463-12.155-12.156-12.155H14.392c-6.693,0-12.157,5.463-12.157,12.155L2.234,255.858L2.234,255.858z"/>
<path fill="#F58D86" d="M2.234,182.917c0,6.693,5.463,12.156,12.157,12.156h24.312c6.693,0,12.156-5.463,12.156-12.156v-24.312
	c0-6.693-5.463-12.157-12.156-12.157H14.392c-6.693,0-12.157,5.464-12.157,12.157L2.234,182.917L2.234,182.917z"/>
<path fill="#F58D86" d="M2.234,109.976c0,6.693,5.463,12.156,12.157,12.156h24.312c6.693,0,12.156-5.463,12.156-12.156V85.663
	c0-6.694-5.463-12.157-12.156-12.157H14.392c-6.693,0-12.157,5.463-12.157,12.157L2.234,109.976L2.234,109.976z"/>
<path fill="#F58D86" d="M2.234,37.035c0,6.694,5.463,12.157,12.157,12.157h24.312c6.693,0,12.156-5.463,12.156-12.157V12.721
	c0-6.693-5.463-12.157-12.156-12.157H14.392c-6.693,0-12.157,5.464-12.157,12.157L2.234,37.035L2.234,37.035z"/>
<path fill="#F58D86" d="M75.176,255.858c0,6.691,5.463,12.156,12.154,12.156h194.509c6.694,0,12.157-5.465,12.157-12.156v-24.314
	c0-6.692-5.463-12.155-12.157-12.155H87.33c-6.691,0-12.154,5.463-12.154,12.155V255.858z"/>
<path fill="#F58D86" d="M75.176,182.917c0,6.693,5.463,12.156,12.154,12.156h194.509c6.694,0,12.157-5.463,12.157-12.156v-24.312
	c0-6.693-5.463-12.157-12.157-12.157H87.33c-6.691,0-12.154,5.464-12.154,12.157V182.917z"/>
<path fill="#F58D86" d="M75.176,109.976c0,6.693,5.463,12.156,12.154,12.156h194.509c6.694,0,12.157-5.463,12.157-12.156V85.663
	c0-6.694-5.463-12.157-12.157-12.157H87.33c-6.691,0-12.154,5.463-12.154,12.157V109.976z"/>
<path fill="#F58D86" d="M75.176,37.035c0,6.694,5.463,12.157,12.154,12.157h194.509c6.694,0,12.157-5.463,12.157-12.157V12.721
	c0-6.693-5.463-12.157-12.157-12.157H87.33c-6.691,0-12.154,5.464-12.154,12.157V37.035z"/>
</svg>
