<?xml version="1.0" encoding="utf-8"?>
<!-- Generator: Adobe Illustrator 15.0.0, SVG Export Plug-In . SVG Version: 6.00 Build 0)  -->
<!DOCTYPE svg PUBLIC "-//W3C//DTD SVG 1.1//EN" "http://www.w3.org/Graphics/SVG/1.1/DTD/svg11.dtd">
<svg version="1.1" id="Layer_1" xmlns="http://www.w3.org/2000/svg" xmlns:xlink="http://www.w3.org/1999/xlink" x="0px" y="0px"
	 width="199.589px" height="25.691px" viewBox="0 0 199.589 25.691" enable-background="new 0 0 199.589 25.691"
	 xml:space="preserve">
<g>
	<path fill="#B4B3B4" d="M45.075,5.769l0.812,4.776h-0.451c-0.631-2.975-3.336-4.236-6.22-4.236c-0.45,0-0.901,0-1.532,0.182v8.203
		h1.082c2.342,0,3.785-0.901,3.785-2.795h0.451v6.671H42.64c-0.181-1.441-0.721-3.245-3.787-3.245h-1.17v7.573
		c0,1.261,0.539,1.982,2.434,1.982v0.452h-8.023V24.88c1.803,0,2.434-0.723,2.434-1.982V8.203c0-1.173-0.721-1.984-2.523-1.984V5.77
		L45.075,5.769L45.075,5.769z"/>
	<path fill="#B4B3B4" d="M61.302,5.769l0.812,4.776h-0.452c-0.632-2.975-3.336-4.236-6.22-4.236c-0.451,0-0.901,0-1.533,0.182v8.203
		h1.082c2.345,0,3.787-0.901,3.787-2.795h0.449v6.671h-0.359c-0.182-1.441-0.723-3.245-3.787-3.245H53.91v7.573
		c0,1.261,0.541,1.982,2.436,1.982v0.452h-8.023V24.88c1.803,0,2.434-0.723,2.434-1.982V8.203c0-1.173-0.721-1.984-2.523-1.984V5.77
		L61.302,5.769L61.302,5.769z"/>
	<path fill="#B4B3B4" d="M28.125,5.769v0.449c-1.353,0-2.164,0.723-2.164,1.984v14.694c0,1.351,0.901,1.982,2.164,1.982v0.452
		h-7.571v-0.452c1.353-0.092,2.163-0.634,2.163-1.982V8.202c0-1.263-0.811-1.984-2.163-1.984V5.769H28.125z"/>
	<path fill="#B4B3B4" d="M18.3,0.449l0.811,5.859h-0.359C17.58,3.244,15.506,1.17,11.45,1.17v20.733
		c0,2.254,1.262,2.977,2.614,2.977v0.451H5.048V24.88c1.262,0,2.794-0.723,2.794-2.977V1.17c-4.146,0-6.038,1.894-7.481,5.139H0
		l0.631-5.859H18.3L18.3,0.449z"/>
	<path fill="#B4B3B4" d="M134.773,12.53l5.408,6.763c0,0,0.541-1.083,0.631-2.164c0-1.263-0.631-1.715-1.713-1.894v-0.36h5.859
		c0,0,0.091,0.36,0,0.36c-1.081,0.179-1.893,0.541-2.706,1.171c-0.629,0.812-0.989,1.532-1.712,3.335l2.525,3.066
		c1.082,1.263,2.523,1.983,4.056,2.073v0.451h-6.312V24.88l-1.803-2.164c-1.533,1.532-3.966,2.886-6.4,2.886
		c-3.875,0-6.399-2.164-6.399-5.139c0-3.246,3.065-5.319,5.499-6.942c0,0-2.613-2.976-2.613-5.679c0-3.064,2.344-5.408,5.59-5.408
		c2.885,0,5.139,2.072,5.139,4.597C139.822,9.916,136.484,11.177,134.773,12.53 M137.839,6.85c-0.01-2.506-1.092-3.786-3.246-3.786
		c-2.164,0-3.426,1.263-3.426,3.336c0,2.343,3.154,5.589,3.154,5.589C136.847,10.545,137.839,9.105,137.839,6.85 M129.183,18.93
		c0,3.064,2.164,5.318,5.318,5.318c1.352,0,2.975-0.631,4.057-1.982l-6.31-8.113C130.716,14.694,129.183,16.317,129.183,18.93"/>
	<path fill="#B4B3B4" d="M174.078-0.001l0.271,7.843h-0.451c-0.812-4.417-3.696-6.941-7.395-6.941c-4.416,0-7.48,5.139-7.48,11.99
		c0,8.562,3.427,12.08,8.113,12.08c4.867,0,6.762-4.508,7.213-7.754h0.45v3.426c-0.812,1.441-3.245,4.779-8.384,4.779
		c-6.492,0-11.541-5.318-11.541-12.442c0-6.489,5.682-12.439,11.541-12.439c3.424,0,4.326,1.441,5.68,1.441
		c0.99,0,1.441-0.63,1.531-1.981L174.078-0.001L174.078-0.001z"/>
	<path fill="#B4B3B4" d="M197.787,21.725c0.992,0,1.803,0.812,1.803,1.803c0,0.992-0.811,1.713-1.803,1.713
		s-1.803-0.721-1.803-1.713C195.984,22.537,196.794,21.725,197.787,21.725"/>
	<path fill="#B4B3B4" d="M185.978,5.677c5.578,0.013,10.277,4.247,10.277,9.918c0,5.499-4.418,9.736-10.098,9.736
		c-5.59,0-10.277-4.42-10.277-9.736C175.88,10.277,180.48,5.677,185.978,5.677 M180.027,15.235c0,6.039,2.344,9.736,6.041,9.736
		c3.785,0,6.129-3.426,6.129-9.736c0-5.77-2.072-9.017-6.039-9.104C182.101,6.039,180.027,9.916,180.027,15.235"/>
	<path fill="#B4B3B4" d="M79.782,24.88c-0.722,0-1.263-0.632-1.623-1.081c-0.271-0.451-7.843-19.021-7.843-19.021l-6.941,16.947
		c-0.812,2.164-1.893,3.155-3.426,3.155v0.451h5.68V24.88c-1.172-0.09-1.893-0.632-1.893-1.442c0-0.631,1.802-4.958,1.802-4.958
		h6.853c0,0,1.894,4.057,1.982,4.958c0.09,0.721-0.99,1.442-2.072,1.442v0.451h7.48L79.782,24.88L79.782,24.88z M68.964,9.916
		l3.336,8.021h-6.582L68.964,9.916z"/>
	<path fill="#B4B3B4" d="M82.937,21.905c0,1.805-1.172,2.615-2.436,2.977v0.451h5.682v-0.451c-1.623-0.36-2.525-1.442-2.525-2.977
		V9.195l13.253,16.497V9.825c0-2.254,1.262-3.606,2.704-3.606V5.77h-6.401v0.36c1.804,0.541,3.065,1.623,3.065,3.695v9.735
		L85.281,5.769h-5.229v0.36c2.254,0.089,2.885,1.982,2.885,2.434V21.905L82.937,21.905z"/>
	<path fill="#B4B3B4" d="M100.335,6.218c0.803,0,0.994,0.007,1.623,1.173c0,0,6.041,9.646,6.041,9.736v5.771
		c0,1.261-1.082,1.982-2.705,2.073v0.36h8.383v-0.36c-1.531-0.091-2.523-0.812-2.523-2.073v-6.762c0,0,3.877-6.94,4.236-7.573
		c0.902-1.44,2.164-2.345,3.695-2.523V5.769h-6.852l0.092,0.271c2.162,0,2.703,2.074,1.893,3.336l-3.517,6.49l-4.325-7.572
		c-0.723-1.172,0.182-2.254,1.801-2.254V5.769h-7.842V6.218L100.335,6.218z"/>
</g>
</svg>
