<?xml version="1.0" encoding="utf-8"?>
<!-- Generator: Adobe Illustrator 15.0.0, SVG Export Plug-In . SVG Version: 6.00 Build 0)  -->
<!DOCTYPE svg PUBLIC "-//W3C//DTD SVG 1.1//EN" "http://www.w3.org/Graphics/SVG/1.1/DTD/svg11.dtd">
<svg version="1.1" id="Layer_1" xmlns="http://www.w3.org/2000/svg" xmlns:xlink="http://www.w3.org/1999/xlink" x="0px" y="0px"
	 width="297.85px" height="98.045px" viewBox="-0.292 98.944 297.85 98.045" enable-background="new -0.292 98.944 297.85 98.045"
	 xml:space="preserve">
<path fill="#231F20" d="M296.634,118.156l-1.315,0.002l-0.009-0.686c-0.137-1.703-0.424-6.525-0.789-10.582
	c-0.032-0.36-0.092-0.643-0.092-0.643c-0.784-0.023-3.994-0.127-4.045-0.181c-0.052-0.05-2.608-0.083-2.661-0.111
	c-0.024-0.012-8.41-0.063-17.056-0.07c-5.897-0.006-11.699,0.031-15.262,0.031c-0.874-0.004-4.013,0.12-4.013,0.12l-0.018,38.479
	l24.703,0.083c0.119,0,6.548-0.201,6.701-0.199c0.394,0.005,4.803-0.251,4.969-0.31c0,0,0.066-0.404,0.171-0.697
	c0.358-2.33,0.813-4.539,0.922-6.268c0,0,0.119-0.739,0.123-1.237l1.407-0.032c0,0.179,0.069,0.623,0.063,1.254
	c-0.012,2.317-0.181,7.131-0.173,10.291c0.004,4.543,0.127,8.649,0.153,10.704c0.02,0.586-0.019,1.522-0.019,1.522h-1.538
	c-0.028-0.218-0.057-0.44-0.087-0.677c-0.271-2.62-0.494-4.474-0.904-7.145c-0.014-0.135-0.092-0.616-0.123-0.926
	c-0.787-0.055-2.872-0.123-3.978-0.155c-0.48-0.018-6.501-0.062-13.282-0.072c-2.775-0.005-7.765,0.124-9.878,0.122
	c-2.478,0-6.569,0.157-9.242,0.256l0.028,34.895l0.105,4.494l15,0.26l21.359-0.02c0.101,0,4.896-0.191,6.391-0.163
	c0.318,0.006,0.957-0.046,0.957-0.046c0.142-1.131,0.319-3.417,0.493-5.594c0.014-0.257,0.547-6.047,0.547-7.602l1.312-0.015
	c0,1.47-0.276,19.75-0.276,19.75c-2.408,0-9.799-0.004-18.924-0.138c-5.534-0.085-11.704-0.079-17.783-0.168
	c-4.937-0.073-9.813-0.25-14.257-0.243c-6.329,0.007-12.528,0.422-14.935,0.426c-0.548,0-1.519-0.039-1.732-0.039v-2.296h0.443
	c1.483-0.01,5.846-0.267,8.125-0.693c0-0.461,0.148-6.151,0.148-6.269c0,0-0.011-72.253-0.011-75.496
	c0-3.488-0.061-9.305-0.061-9.823c-1.29-0.153-1.744-0.23-2.016-0.289c-1.367-0.192-4.062-0.426-5.502-0.529
	c-0.411,0.009-0.861-0.044-1.08-0.085c0,0-0.009-2.258-0.022-2.29c0.33,0.02,1.005-0.033,2.211-0.026
	c2.549,0.015,7.235,0.391,12.964,0.398c3.596,0.002,9.401-0.175,13.558-0.23c5.932,0,10.435-0.055,16.177-0.094
	c9.37-0.059,17.378-0.126,20.509-0.144c0.918-0.002,1.419-0.007,1.419-0.007c0,0.181-0.005,0.387-0.005,0.619
	c0,0.728-0.035,2.004-0.021,3.564C296.521,108.005,296.634,115.656,296.634,118.156 M138.994,131.617c0,0-2.163,11.965-5.287,28.846
	c-1.656,9.12-5.082,31.928-5.315,33.435c1.978,0.293,5.866,0.612,6.926,0.577c0.244,0,0.66,0.008,0.967,0.008l-0.005,2.308
	c-0.443,0.062-1.474,0.068-1.518,0.068c-3.748-0.079-6.448-0.365-10.493-0.365c-1.065,0-6.688,0.293-8.668,0.36
	c-0.825,0.037-1.995-0.057-2.217-0.046l0.004-2.286c0.192,0,0.585-0.081,0.834-0.088c1.792-0.08,4.551-0.358,6.888-0.661
	c0.191-1.123,2.211-12.366,2.856-16.351c2.479-13.183,9.796-57.222,10.711-63.161c0.804-6.415,1.737-14.393,1.822-15.27
	c1.939,0.031,5.286-0.041,5.286-0.041s6.476,20.116,7.527,23.062c1.053,2.946,20.84,53.856,20.84,53.856s9.289-21.938,17.565-45.473
	c1.674-4.764,3.875-10.981,5.493-16.012c2.372-7.362,4.976-15.439,4.976-15.439h5.095c0,0,1.264,8.993,1.711,12.994
	c1.301,11.655,9.808,59.005,12.796,74.577c0.745,3.896,1.311,7.271,1.311,7.271c0.879,0.059,4.318,0.401,6.36,0.569
	c0.426,0.035,1.571,0.102,1.831,0.102l0.013,2.342c0,0-0.931,0.053-1.438,0.053c-4.562-0.031-11.674-0.439-16.058-0.439
	c-3.903,0-7.657,0.332-11.561,0.418c-0.664,0.015-1.336-0.018-2.011-0.018v-2.323c0.021-0.003,0.543-0.032,0.813-0.021
	c1.906-0.091,6.963-0.586,7.461-0.61c0.005-0.852-0.276-3.801-0.682-6.815c-0.284-2.127-0.767-5.762-1.281-9.343
	c-1.115-6.967-6.254-35.822-7.783-43.836c-0.255-1.312-0.411-2.048-0.411-2.048s-15.934,40.879-19.148,48.93
	c-0.309,0.789-0.533,1.347-0.61,1.53c-3.069,7.759-5.644,14.675-5.644,14.675l-4.537-0.028l-24.827-63.819L138.994,131.617z
	 M108.811,196.877c-3.364,0-9.078-0.559-13.359-0.559c-4.236,0-9.982,0.559-14.121,0.559c-0.351,0-0.972-0.08-1.311-0.08v-2.318
	c0.817-0.021,4.474-0.352,5.487-0.429c1.193-0.085,2.296-0.145,2.787-0.306c0,0,0.009-2.799,0.024-7.138
	c0.042-15.004,0.132-57.411-0.009-76.601c-0.013-2.026-0.027-7.159-0.027-7.902c-0.776-0.074-1.858-0.179-2.633-0.284
	c-0.97-0.05-4.964-0.431-5.648-0.472l-0.025-2.323c3.963,0,9.849,0.406,14.625,0.406c4.565,0,10.753-0.406,15.441-0.406l-0.01,2.424
	c-0.742,0.05-2.551,0.164-2.612,0.169c-1.365,0.134-5.19,0.564-6.126,0.629v7.466c-0.005,17.183-0.02,62.136-0.028,77.273v4.907
	c0,1.155,0.008,1.851,0.019,1.894c0.021,0.088,2.419,0.312,2.972,0.344c1.057,0.124,5.405,0.316,5.539,0.348h0.293l-0.002,2.318
	C109.796,196.797,109.105,196.877,108.811,196.877 M31.418,105.817l-8.677-0.037H9.297c-0.936,0-8.144,0.07-8.144,0.07L1.024,117.51
	l-1.316,0.035l0.081-13.101l-0.047-5.387c4.581,0.223,21.139,0.372,38.318,0.372c20.033,0,32.938-0.206,38.004-0.356l-0.061,5.968
	l0.107,13.251l-1.365-0.013c0.009-1.082-0.224-5.483-0.211-5.91c0.007-0.162-0.286-6.07-0.327-6.512l-5.753-0.079l-17.233-0.002
	l-6.606,0.024l0.012,81.772c0,0.112,0.123,5.361,0.147,6.45c0.662,0.093,7.048,0.536,8.206,0.536l0.45-0.005v2.23
	c-0.343,0-0.771,0.034-1.125,0.033c-3.627-0.04-9.486-0.477-13.648-0.477c-4.096,0-9.876,0.401-14.15,0.47
	c-0.112,0.004-0.987-0.018-1.318-0.033l-0.009-2.374c0.042,0,0.304-0.008,0.707-0.021c1.804-0.071,6.248-0.369,7.409-0.468
	l0.18-0.025L31.418,105.817z"/>
</svg>
