<?xml version="1.0" encoding="utf-8"?>
<!-- Generator: Adobe Illustrator 15.0.0, SVG Export Plug-In . SVG Version: 6.00 Build 0)  -->
<!DOCTYPE svg PUBLIC "-//W3C//DTD SVG 1.1//EN" "http://www.w3.org/Graphics/SVG/1.1/DTD/svg11.dtd">
<svg version="1.1" id="Layer_1" xmlns="http://www.w3.org/2000/svg" xmlns:xlink="http://www.w3.org/1999/xlink" x="0px" y="0px"
	 width="205.282px" height="38.896px" viewBox="0 0 205.282 38.896" enable-background="new 0 0 205.282 38.896"
	 xml:space="preserve">
<g>
	<rect x="0.547" y="17.455" fill="#B4B3B4" stroke="#B4B3B4" stroke-miterlimit="10" width="7.459" height="7.459"/>
	<rect x="22.093" y="17.455" fill="#B4B3B4" stroke="#B4B3B4" stroke-miterlimit="10" width="7.459" height="7.459"/>
	<rect x="44.655" y="17.455" fill="#B4B3B4" stroke="#B4B3B4" stroke-miterlimit="10" width="7.459" height="7.459"/>
	<rect x="66.753" y="17.455" fill="#B4B3B4" stroke="#B4B3B4" stroke-miterlimit="10" width="7.459" height="7.459"/>
	<path fill="#B4B3B4" stroke="#B4B3B4" stroke-width="0.9662" d="M111.786,2.823c-0.754,0.053-1.358,0.186-1.813,0.402
		c-0.459,0.215-0.877,0.573-1.259,1.075c-0.291,0.363-0.512,0.767-0.652,1.205c-0.148,0.443-0.246,1-0.3,1.674
		c-0.094,0.898-0.142,1.962-0.142,3.191v19.117c0,1.777,0.08,3.102,0.24,3.965c0.158,0.865,0.441,1.557,0.854,2.074
		c0.727,0.918,1.749,1.42,3.072,1.504v0.563H99.136v-0.563c0.767-0.049,1.384-0.191,1.853-0.428c0.471-0.23,0.891-0.591,1.26-1.076
		c0.41-0.553,0.691-1.256,0.844-2.113c0.152-0.854,0.229-2.164,0.229-3.926V6.297L93.11,37.595h-0.418L82.543,6.763v22.726
		c0,1.777,0.076,3.092,0.227,3.94c0.152,0.847,0.434,1.546,0.844,2.099c0.369,0.504,0.789,0.867,1.258,1.092
		c0.472,0.223,1.082,0.363,1.836,0.412v0.563h-9.133v-0.563c0.754-0.049,1.365-0.189,1.834-0.412c0.47-0.225,0.889-0.588,1.26-1.092
		c0.408-0.553,0.691-1.256,0.842-2.113c0.152-0.854,0.229-2.164,0.229-3.926V10.371c0-0.799-0.02-1.549-0.059-2.258
		c-0.066-1.281-0.219-2.213-0.456-2.801C80.893,4.5,80.44,3.898,79.866,3.509c-0.573-0.389-1.34-0.618-2.291-0.688V2.257h8.601
		l8.578,27.695l8.892-27.695h8.146v0.566H111.786z"/>
	<path fill="#B4B3B4" stroke="#B4B3B4" stroke-width="1.0716" d="M113.407,25.293c0-3.031,0.896-5.738,2.689-8.115
		c2.184-2.883,4.793-4.323,7.828-4.323s5.637,1.44,7.805,4.323c1.793,2.396,2.692,5.109,2.692,8.144c0,2.996-0.854,5.664-2.56,8.004
		c-2.092,2.881-4.738,4.324-7.938,4.324s-5.854-1.443-7.961-4.324c-0.824-1.121-1.454-2.379-1.896-3.766
		C113.626,28.176,113.407,26.752,113.407,25.293z M117.485,24.969c0,3.257,0.582,6.017,1.75,8.279
		c1.315,2.525,2.926,3.789,4.826,3.789c0.807,0,1.594-0.281,2.356-0.844c0.762-0.562,1.42-1.351,1.975-2.357
		c0.584-1.047,1.056-2.36,1.414-3.942c0.358-1.58,0.539-3.109,0.539-4.586c0-1.533-0.19-3.08-0.573-4.646
		c-0.382-1.561-0.894-2.904-1.537-4.025c-1.226-2.112-2.729-3.172-4.513-3.172c-1.688,0-3.149,1.115-4.377,3.343
		C118.104,19.032,117.485,21.754,117.485,24.969z"/>
	<path fill="#B4B3B4" stroke="#B4B3B4" stroke-width="1.0185" d="M142.757,18.491c0.625-0.871,1.222-1.518,1.787-1.938
		c1.147-0.823,2.521-1.233,4.116-1.233c2.267,0,4.24,0.817,5.924,2.457c2.088,2.01,3.132,4.85,3.132,8.516s-1.002,6.553-3.002,8.664
		c-1.733,1.842-3.951,2.764-6.654,2.764c-1.421,0-2.622-0.221-3.606-0.655l-1.256-0.584c-0.344-0.152-0.649-0.229-0.918-0.229
		c-0.763,0-1.434,0.715-2.017,2.142h-0.911V8.529c0-1.902-0.265-3.262-0.798-4.086c-0.53-0.824-1.426-1.234-2.687-1.234V2.615
		l6.89-1.068V18.491L142.757,18.491z M142.757,26.177c0,1.812,0.088,3.478,0.267,4.998c0.178,1.523,0.407,2.629,0.69,3.322
		c0.34,0.83,0.849,1.48,1.522,1.955c0.676,0.473,1.443,0.709,2.306,0.709c1.812,0,3.306-0.982,4.483-2.941
		c1.183-1.963,1.771-4.456,1.771-7.485c0-1.588-0.193-3.101-0.58-4.529c-0.385-1.428-0.934-2.641-1.646-3.639
		c-0.563-0.826-1.188-1.457-1.871-1.894c-0.683-0.428-1.379-0.643-2.092-0.643c-0.859,0-1.66,0.297-2.404,0.897
		c-0.741,0.603-1.291,1.384-1.646,2.351C143.024,20.698,142.757,22.998,142.757,26.177z"/>
	<path fill="#B4B3B4" stroke="#B4B3B4" stroke-width="1.0185" d="M162.071,16.229l6.49-0.91v14.639l0.022,1.924
		c0,1.146,0.062,1.986,0.18,2.521c0.119,0.531,0.353,0.975,0.695,1.328c0.418,0.457,1.19,0.801,2.312,1.039v0.514h-9.932v-0.514
		c0.896-0.138,1.538-0.324,1.928-0.57c0.391-0.244,0.703-0.66,0.943-1.252c0.162-0.391,0.279-0.976,0.347-1.762
		c0.065-0.783,0.103-1.92,0.103-3.402v-6.254c0-1.738-0.037-2.961-0.113-3.658c-0.074-0.701-0.24-1.271-0.495-1.709
		c-0.256-0.475-0.565-0.813-0.925-1.025c-0.36-0.211-0.879-0.342-1.555-0.393V16.229L162.071,16.229z M166.761,6.176
		c-0.59,0-1.077-0.213-1.462-0.637c-0.385-0.422-0.577-0.957-0.577-1.6c0-0.627,0.195-1.156,0.591-1.588
		c0.391-0.435,0.873-0.648,1.448-0.648c0.574,0,1.056,0.215,1.448,0.648c0.395,0.432,0.589,0.961,0.589,1.588
		c0,0.643-0.192,1.178-0.577,1.6C167.835,5.963,167.349,6.176,166.761,6.176z"/>
	<path fill="#B4B3B4" stroke="#B4B3B4" stroke-width="1.0185" d="M174.675,2.457l6.489-0.912v28.381l0.021,1.935
		c0,1.154,0.061,1.996,0.182,2.529c0.119,0.536,0.352,0.979,0.695,1.334c0.418,0.456,1.188,0.807,2.309,1.045v0.514h-9.934v-0.514
		c0.897-0.138,1.541-0.326,1.932-0.572c0.39-0.246,0.703-0.664,0.941-1.258c0.166-0.392,0.283-0.98,0.35-1.767
		c0.066-0.789,0.103-1.93,0.103-3.422V9.797c0-1.729-0.039-2.946-0.112-3.66c-0.076-0.713-0.242-1.286-0.496-1.729
		c-0.256-0.473-0.562-0.814-0.924-1.016c-0.359-0.201-0.881-0.33-1.556-0.382V2.457z"/>
	<path fill="#B4B3B4" stroke="#B4B3B4" stroke-width="1.0507" d="M191.161,22.47c-0.053,0.886-0.078,1.525-0.078,1.927
		c0,1.569,0.189,3.104,0.566,4.604c0.381,1.498,0.896,2.746,1.551,3.736c0.67,1.016,1.498,1.811,2.486,2.387
		c0.988,0.578,2.025,0.869,3.111,0.869c0.803,0,1.562-0.164,2.285-0.494c0.721-0.326,1.318-0.785,1.795-1.369
		c0.535-0.641,0.996-1.662,1.383-3.063l0.475,0.188c-0.389,2.125-1.221,3.724-2.498,4.801c-1.277,1.08-2.979,1.621-5.098,1.621
		c-1.84,0-3.416-0.35-4.73-1.055c-1.314-0.699-2.43-1.779-3.34-3.238c-1.271-2.034-1.904-4.537-1.904-7.506
		c0-4.049,1.201-7.225,3.609-9.528c1.75-1.673,3.748-2.513,5.99-2.513c1.195,0,2.301,0.256,3.318,0.767
		c1.018,0.512,1.875,1.252,2.58,2.219c1.092,1.508,1.637,3.391,1.637,5.649L191.161,22.47L191.161,22.47z M200.938,21.416
		c-0.105-1.791-0.379-3.172-0.826-4.141c-0.402-0.877-0.938-1.572-1.607-2.082c-0.668-0.51-1.383-0.767-2.143-0.767
		c-1.279,0-2.398,0.662-3.357,1.986c-0.961,1.328-1.529,2.998-1.707,5.002L200.938,21.416L200.938,21.416z"/>
	<path fill="#B4B3B4" stroke="#B4B3B4" stroke-miterlimit="10" d="M18.37,34.688h5.677v2.848H6.983v-2.848h5.67V2.348
		c0,0-9.479-0.025-9.479,12.352H1.274V0.505h28.512V14.7h-1.937c0,0-0.454-12.367-9.479-12.367V34.688L18.37,34.688z"/>
</g>
</svg>
