<?xml version="1.0" encoding="utf-8"?>
<!-- Generator: Adobe Illustrator 15.0.0, SVG Export Plug-In . SVG Version: 6.00 Build 0)  -->
<!DOCTYPE svg PUBLIC "-//W3C//DTD SVG 1.1//EN" "http://www.w3.org/Graphics/SVG/1.1/DTD/svg11.dtd">
<svg version="1.1" id="Layer_1" xmlns="http://www.w3.org/2000/svg" xmlns:xlink="http://www.w3.org/1999/xlink" x="0px" y="0px"
	 width="198.219px" height="11.156px" viewBox="111.206 151.379 198.219 11.156"
	 enable-background="new 111.206 151.379 198.219 11.156" xml:space="preserve">
<g>
	<polygon fill="#231F20" points="120.081,153.022 116.405,153.022 116.405,162.272 114.881,162.272 114.881,153.022 
		111.206,153.022 111.206,151.653 120.081,151.653 	"/>
	<g>
		<defs>
			<rect id="SVGID_1_" x="111.206" y="151.379" width="195.994" height="11.156"/>
		</defs>
		<clipPath id="SVGID_2_">
			<use xlink:href="#SVGID_1_"  overflow="visible"/>
		</clipPath>
		<path clip-path="url(#SVGID_2_)" fill="#231F20" d="M131.363,161.01c2.382,0,4.144-1.73,4.144-4.049
			c0-2.334-1.762-4.045-4.144-4.045c-2.362,0-4.124,1.711-4.124,4.045C127.239,159.28,129,161.01,131.363,161.01 M131.363,151.514
			c3.506,0,5.712,2.488,5.712,5.447c0,2.865-2.146,5.449-5.74,5.449c-3.475,0-5.662-2.568-5.662-5.449
			C125.672,154.018,127.924,151.514,131.363,151.514"/>
	</g>
	<polygon fill="#231F20" points="154.135,162.274 152.615,162.274 152.615,154.002 152.583,154.002 149.309,158.11 149.065,158.11 
		145.796,154.002 145.764,154.002 145.764,162.274 144.239,162.274 144.239,151.653 145.672,151.653 149.187,156.014 
		152.719,151.653 154.135,151.653 	"/>
	<polygon fill="#231F20" points="172.661,162.274 171.137,162.274 171.137,154.002 171.106,154.002 167.836,158.11 167.584,158.11 
		164.315,154.002 164.289,154.002 164.289,162.274 162.762,162.274 162.762,151.653 164.194,151.653 167.71,156.014 171.25,151.653 
		172.661,151.653 	"/>
	<polygon fill="#231F20" points="186.836,151.653 188.68,151.653 184.743,156.66 184.743,162.274 183.219,162.274 183.219,156.651 
		179.278,151.653 181.114,151.653 183.961,155.309 	"/>
	<polygon fill="#231F20" points="229.95,162.274 228.428,162.274 228.428,157.651 222.475,157.651 222.475,162.274 220.956,162.274 
		220.956,151.653 222.475,151.653 222.475,156.278 228.428,156.278 228.428,151.653 229.95,151.653 	"/>
	<rect x="236.266" y="151.655" fill="#231F20" width="1.531" height="10.619"/>
	<polygon fill="#231F20" points="245.579,160.899 250.37,160.899 250.37,162.274 244.051,162.274 244.051,151.653 245.579,151.653 	
		"/>
	<polygon fill="#231F20" points="260.42,153.022 256.28,153.022 256.28,155.965 260.42,155.965 260.42,157.33 256.28,157.33 
		256.28,162.272 254.754,162.272 254.754,151.653 260.42,151.653 	"/>
	<rect x="265.758" y="151.655" fill="#231F20" width="1.523" height="10.619"/>
	<g>
		<defs>
			<rect id="SVGID_3_" x="111.206" y="151.379" width="195.994" height="11.156"/>
		</defs>
		<clipPath id="SVGID_4_">
			<use xlink:href="#SVGID_3_"  overflow="visible"/>
		</clipPath>
		<path clip-path="url(#SVGID_4_)" fill="#231F20" d="M281.809,161.535c-1.416,0.625-2.568,0.877-4.043,0.877
			c-3.254,0-5.652-2.277-5.652-5.391c0-3.127,2.457-5.508,5.688-5.508c1.254,0,2.125,0.199,3.789,0.902v1.539
			c-1.246-0.682-2.535-1.039-3.812-1.039c-2.305,0-4.096,1.756-4.096,4.061c0,2.365,1.773,4.035,4.295,4.035
			c0.828,0,1.574-0.189,2.305-0.42v-2.18h-2.041v-1.371h3.568V161.535z"/>
	</g>
	<polygon fill="#231F20" points="293.643,153.022 289.141,153.022 289.141,156.229 293.487,156.229 293.487,157.598 
		289.141,157.598 289.141,160.901 293.782,160.901 293.782,162.272 287.616,162.272 287.616,151.653 293.643,151.653 	"/>
	<g>
		<defs>
			<rect id="SVGID_5_" x="113.432" y="151.379" width="195.992" height="11.156"/>
		</defs>
		<clipPath id="SVGID_6_">
			<use xlink:href="#SVGID_5_"  overflow="visible"/>
		</clipPath>
		<path clip-path="url(#SVGID_6_)" fill="#231F20" d="M302.745,156.291h0.979c1.635,0,2.105-0.842,2.09-1.729
			c-0.016-0.994-0.611-1.602-2.09-1.602h-0.979V156.291z M303.895,151.653c2.15,0,3.488,1.139,3.488,2.977
			c0,1.23-0.637,2.148-1.777,2.596c0.969,0.643,1.561,1.621,2.369,2.939c0.455,0.736,0.715,1.09,1.449,2.109h-1.822l-1.4-2.184
			c-1.402-2.178-2.039-2.428-2.814-2.428h-0.643v4.611h-1.523v-10.621H303.895z"/>
	</g>
	<rect x="195.696" y="151.379" fill="#FFFFFF" width="16.881" height="11.156"/>
	<rect x="204.143" y="154.293" fill="#231F20" width="8.166" height="5.324"/>
	<rect x="195.981" y="154.305" fill="#FFFFFF" width="8.164" height="5.312"/>
	<rect x="195.981" y="151.655" fill="#231F20" width="16.328" height="2.646"/>
	<rect x="195.981" y="159.604" fill="#231F20" width="16.328" height="2.65"/>
</g>
</svg>
