<?xml version="1.0" encoding="utf-8"?>
<!-- Generator: Adobe Illustrator 15.0.0, SVG Export Plug-In . SVG Version: 6.00 Build 0)  -->
<!DOCTYPE svg PUBLIC "-//W3C//DTD SVG 1.1//EN" "http://www.w3.org/Graphics/SVG/1.1/DTD/svg11.dtd">
<svg version="1.1" id="Layer_1" xmlns="http://www.w3.org/2000/svg" xmlns:xlink="http://www.w3.org/1999/xlink" x="0px" y="0px"
	 width="159.981px" height="260.306px" viewBox="0 0 159.981 260.306" enable-background="new 0 0 159.981 260.306"
	 xml:space="preserve">
<path fill="#010101" d="M122.258,219.022c-13.459,0-31.934-8.177-31.934-13.659v-54.69v-43.078h61.777v-11.08V64.743H90.324V0.335
	H54.956c-0.895,16.377-5.807,31.151-13.362,42.417c-3.475,5.177-7.483,9.628-11.927,13.12c-7.161,5.637-15.418,8.871-24.208,8.871H0
	v42.852h29.667v11.581v94.171c0,39.996,35.853,47.134,60.554,46.957c5.619-0.033,10.667,0,16.128,0
	c37.729,0,44.955-3.469,53.633-8.098v-45.682v-0.154c-0.049,0.049-0.098,0.113-0.162,0.154
	C148.918,213.466,135.724,219.022,122.258,219.022"/>
</svg>
