<?xml version="1.0" encoding="utf-8"?>
<!-- Generator: Adobe Illustrator 15.0.0, SVG Export Plug-In . SVG Version: 6.00 Build 0)  -->
<!DOCTYPE svg PUBLIC "-//W3C//DTD SVG 1.1//EN" "http://www.w3.org/Graphics/SVG/1.1/DTD/svg11.dtd">
<svg version="1.1" id="Layer_1" xmlns="http://www.w3.org/2000/svg" xmlns:xlink="http://www.w3.org/1999/xlink" x="0px" y="0px"
	 width="236.074px" height="191.851px" viewBox="0.049 35.818 236.074 191.851"
	 enable-background="new 0.049 35.818 236.074 191.851" xml:space="preserve">
<path d="M236.123,58.527c-8.693,3.851-18.025,6.456-27.816,7.629c9.996-5.991,17.673-15.486,21.287-26.797
	c-9.356,5.556-19.717,9.581-30.753,11.757c-8.839-9.417-21.417-15.299-35.351-15.299c-26.747,0-48.429,21.682-48.429,48.436
	c0,3.79,0.42,7.489,1.251,11.038c-40.251-2.025-75.937-21.309-99.828-50.606C12.317,51.836,9.93,60.16,9.93,69.033
	c0,16.804,8.546,31.632,21.545,40.312c-7.942-0.253-15.414-2.429-21.936-6.056c-0.006,0.206-0.006,0.398-0.006,0.604
	c0,23.466,16.692,43.044,38.852,47.494c-4.068,1.111-8.344,1.699-12.757,1.699c-3.125,0-6.159-0.303-9.119-0.866
	c6.166,19.235,24.055,33.247,45.241,33.633c-16.574,12.991-37.452,20.727-60.144,20.727c-3.914,0-7.77-0.224-11.557-0.67
	c21.434,13.74,46.894,21.761,74.24,21.761c89.093,0,137.799-73.799,137.799-137.8c0-2.098-0.042-4.189-0.133-6.268
	C221.423,76.771,229.626,68.241,236.123,58.527"/>
</svg>
