<?xml version="1.0" encoding="utf-8"?>
<!-- Generator: Adobe Illustrator 15.0.0, SVG Export Plug-In . SVG Version: 6.00 Build 0)  -->
<!DOCTYPE svg PUBLIC "-//W3C//DTD SVG 1.1//EN" "http://www.w3.org/Graphics/SVG/1.1/DTD/svg11.dtd">
<svg version="1.1" id="Layer_1" xmlns="http://www.w3.org/2000/svg" xmlns:xlink="http://www.w3.org/1999/xlink" x="0px" y="0px"
	 width="215.036px" height="30.163px" viewBox="0 0 215.036 30.163" enable-background="new 0 0 215.036 30.163"
	 xml:space="preserve">
<g>
	<g>
		<g>
			<g>
				<path fill="#B4B3B4" d="M28.156,0.071v17.227c0,5.896-2.844,9.379-11.384,9.379c-8.565,0-11.424-3.483-11.424-9.379V5.188
					C5.238,2.318,2.887,0.011,0,0.011v3.345c1.047,0,1.877,0.813,1.977,1.833v13.287c0,6.83,5.356,11.682,14.796,11.682
					c9.425,0,14.759-4.852,14.759-11.682V0.071H28.156z"/>
				<path fill="#B4B3B4" d="M126.215,26.188v-8.069c0-1.108,0.941-2.019,2.033-2.04h14.705v-3.402h-14.756
					c-0.713,0.021-1.373,0.165-1.982,0.428V3.384h23.999V0h-27.408v29.573h28.406v-3.385H126.215z"/>
			</g>
		</g>
		<path fill="#B4B3B4" d="M212.964,26.395c-0.812,0.652-1.972,0.521-2.678-0.228l-6.469-8.213c4.831-0.149,8.698-4.108,8.698-8.965
			c0-4.971-4.027-8.99-8.991-8.99H181.63v29.573h3.385l0.031-9.636c0.036-1.073,0.945-1.968,2.044-1.968l12.452,0.004l8.091,10.273
			c1.861,2.199,5.133,2.567,7.403,0.78L212.964,26.395z M187.054,14.813c-0.713,0-1.388,0.146-2.011,0.399l-0.028-12.021
			l18.528-0.007c3.217,0,5.816,2.593,5.816,5.812c0,3.217-2.6,5.827-5.816,5.827L187.054,14.813z"/>
		<path fill="#B4B3B4" d="M88.805,14.292c1.903-1.451,3.151-3.737,3.151-6.33c0-4.382-3.56-7.952-7.952-7.952L61.88,0v29.573h22.05
			c4.649,0,8.415-3.773,8.415-8.434C92.345,18.315,90.943,15.822,88.805,14.292z M65.261,3.191l18.755,0.021
			c2.628,0,4.753,2.132,4.753,4.764c0,2.618-2.125,4.746-4.753,4.746H67.033c-0.619,0.043-1.229,0.186-1.772,0.421V3.191z
			 M83.93,26.395l-18.669-0.018v-8.387c0.013-1.12,0.943-2.072,2.054-2.072l16.615-0.003c2.896,0,5.23,2.343,5.23,5.224
			C89.16,24.052,86.825,26.395,83.93,26.395z"/>
	</g>
</g>
</svg>
