<?xml version="1.0" encoding="utf-8"?>
<!-- Generator: Adobe Illustrator 15.0.0, SVG Export Plug-In . SVG Version: 6.00 Build 0)  -->
<!DOCTYPE svg PUBLIC "-//W3C//DTD SVG 1.1//EN" "http://www.w3.org/Graphics/SVG/1.1/DTD/svg11.dtd">
<svg version="1.1" id="Layer_1" xmlns="http://www.w3.org/2000/svg" xmlns:xlink="http://www.w3.org/1999/xlink" x="0px" y="0px"
	 width="110.118px" height="121.84px" viewBox="145.946 161.374 110.118 121.84"
	 enable-background="new 145.946 161.374 110.118 121.84" xml:space="preserve">
<path fill="#231F20" d="M183.242,208.447c0-2.145,5.098-3.285,5.098-5.934c0-0.436-0.166-1.205-0.469-1.775
	c1.776,0.971,3.084,2.616,3.084,3.955c0,2.315-2.412,3.386-2.412,4.828c0,1.678,2.58,1.945,2.58,4.024
	c0,1.71-2.447,3.687-2.447,5.901c0,1.71,1.203,3.117,3.051,3.354c-0.604,0.133-1.141,0.234-1.711,0.234
	c-3.387,0-6.873-2.785-6.873-6.104c0-1.642,0.705-3.084,1.777-4.123c0.938,0.805,1.877,1.341,2.48,1.341
	c0.538,0,0.773-0.269,0.773-0.67C188.173,212.236,183.242,211.098,183.242,208.447 M193.938,225.382
	c-1.172,0.469-1.608,0.436-1.608,1.607c0,0.436-0.1,1.005-0.1,1.309c0,0.402,0.066,0.635,0.536,0.635
	c1.205,0,3.116-2.043,3.116-3.786c0-0.47-0.268-0.671-0.568-0.671C195.044,224.476,194.744,225.013,193.938,225.382
	 M193.804,222.966c0-1.508-3.117-1.541-3.117-3.82c0-0.571,0.368-1.545,1.107-2.585c0.299,1.745,1.006,2.651,2.513,3.222
	c2.983,1.105,3.387,2.781,3.387,4.56c0,3.016-2.112,6.772-7.544,6.772c-4.359,0-7.479-3.891-7.479-7.174
	c0-0.906,0.236-1.913,0.807-1.913c0.502,0,0.67,0.402,1.072,0.805c1.508,1.51,3.152,1.911,5.531,1.911
	C192.23,224.743,193.804,223.874,193.804,222.966 M176.972,227.056c2.684,0.67,4.023,2.113,4.292,3.824
	c0.269,1.643,0.603,2.986,1.241,3.656c0.838,0.936,2.481,1.773,3.922,1.773c1.207,0,2.181-0.401,2.181-1.505
	c0-1.209-1.644-3.925-4.058-3.925c-0.234,0-0.536,0.032-0.871,0.032c-0.303,0-0.739-0.066-1.008-0.301
	c-0.537-0.47-0.703-2.985-1.711-4.491c-1.104-1.678-2.311-2.146-3.955-2.146c-1.172,0-2.48,0.637-2.48,1.576
	C174.525,226.12,174.828,226.519,176.972,227.056 M186.328,234.571c-1.006,0-2.515-1.073-2.515-1.679
	c0-0.503,0.47-0.771,0.838-0.771c0.838,0,2.347,1.041,2.347,1.912C186.998,234.267,186.83,234.571,186.328,234.571 M195.347,233.296
	c0,0.3-0.102,0.637-0.369,0.971c-0.368-0.671-1.409-1.006-1.876-1.006c-3.455,0-2.147,4.995-5.836,4.995
	c-1.543,0-1.679-0.202-2.245-0.202c-0.236,0-0.37,0.103-0.37,0.302c0,0.873,1.241,3.021,4.692,3.021
	c3.457,0,6.773-2.113,6.773-4.731c0-0.436-0.1-0.904-0.302-1.376c0.136-0.199,0.47-0.333,0.771-0.333
	c0.537,0,0.84,0.604,1.342,0.604c0.537,0,0.939-0.404,0.939-0.938c0-0.438-0.236-0.736-0.639-0.939c0.27-0.2,0.47-0.536,0.47-0.904
	c0-0.571-0.403-1.107-1.071-1.107c-0.304,0-0.504,0.102-0.737,0.336c-0.068-0.604-0.402-1.174-1.04-1.174
	c-0.502,0-0.871,0.367-0.871,0.939C194.978,232.289,195.347,232.724,195.347,233.296 M218.046,175.287
	c-2.349,0-3.891-1.174-3.891-1.775c0-0.303,0.203-0.503,0.469-0.503c0.739,0,2.349,1.138,2.885,1.138
	c0.134,0,0.234-0.065,0.234-0.267c0-0.602-0.57-1.609-0.57-2.113c0-0.133,0.101-0.233,0.303-0.233c0.904,0,2.248,0.369,2.951,0.369
	c0.236,0,0.303-0.136,0.303-0.269c0-0.739-2.18-2.18-2.18-2.615c0-0.402,2.714-1.006,2.714-1.644c0-0.671-3.687-0.201-3.687-0.839
	c0-0.47,0.702-1.273,0.702-1.643c0-0.168-0.132-0.234-0.368-0.234c-0.302,0-1.912,0.637-2.582,0.637
	c-0.336,0-0.738-0.066-0.738-0.535c0-0.771,1.309-1.611,3.355-1.611c3.317,0,5.295,2.281,5.295,6.105
	C223.242,174.081,219.857,175.287,218.046,175.287 M211.507,168.917c0-0.368-1.307-1.073-1.307-1.475
	c0-0.067,0.067-0.102,0.166-0.102c0.368,0,1.006,0.135,1.51,0.135c0.435,0,0.502-1.877,0.838-1.877c0.234,0,0.638,1.776,1.007,1.776
	c0.435,0,1.237-0.503,1.575-0.503c0.067,0,0.133,0.032,0.133,0.101c0,0.235-0.838,1.14-0.838,1.408c0,0.302,1.88,0.671,1.88,0.94
	c0,0.334-1.914,0.302-1.914,0.602c0,0.234,0.706,1.173,0.706,1.477c0,0.066-0.035,0.1-0.102,0.1c-0.268,0-1.306-0.47-1.609-0.47
	c-0.368,0-0.973,1.376-1.273,1.376c-0.102,0-0.168-0.135-0.168-0.303l-0.068-1.341c0-0.136-0.065-0.269-0.233-0.269
	c-0.403,0-1.175-0.034-1.409-0.034c-0.166,0-0.232-0.033-0.232-0.101C210.167,170.091,211.507,169.154,211.507,168.917
	 M235.517,194.503c0-0.706-1.779-0.771-1.947-2.752c-0.033-0.301-0.134-0.839-0.504-0.839c-0.602,0-0.133,1.845-0.804,1.845
	c-1.544,0-2.048-3.017-2.616-3.017c-0.134,0-0.303,0.101-0.303,0.503c0,0.37,0.068,0.604,0.068,1.039s-0.103,0.736-0.5,0.736
	c-0.906,0-1.711-2.111-2.482-2.111c-0.168,0-0.336,0.102-0.336,0.269c0,0.402,0.671,1.14,0.671,1.507
	c0,0.807-2.181,0.369-2.181,1.04c0,0.303,0.301,0.404,0.705,0.404c0.705,0,1.811-0.303,2.379-0.303c0.338,0,0.842,0.067,0.842,0.503
	c0,0.47-1.209,1.074-1.209,1.509c0,0.202,0.201,0.302,0.367,0.302c0.908,0,2.515-1.576,3.654-1.576c0.202,0,0.706,0.102,0.706,0.404
	c0,0.436-1.142,1.205-1.142,1.842c0,0.168,0.102,0.37,0.303,0.37c0.604,0,1.409-1.575,2.549-1.575c0.436,0,1.074,0.168,1.408,0.168
	C235.416,194.771,235.517,194.603,235.517,194.503 M238.698,167.542c0,2.984-2.176,5.266-6.1,5.902
	c0.435,0.033,0.838,0.033,1.241,0.033c4.592,0,6.269-2.078,6.269-3.822C240.108,168.683,239.571,167.812,238.698,167.542
	 M233.033,170.929c0-2.38-5.699-2.984-5.699-3.52c0-0.437,3.186-1.176,4.83-1.21c-2.518-3.216-6.104-2.881-6.104-3.45
	c0-0.336,2.684-1.01,5.163-1.01c2.079,0,4.026,0.472,4.026,2.049c0,0.871-0.707,1.777-0.707,3.116c0,0.737,0.369,1.376,1.342,1.376
	c1.041,0,1.275-1.106,1.275-2.281c0-0.971-0.168-1.71-0.168-2.179c0-1.407,0.971-2.348,2.346-2.348c1.141,0,1.408,0.503,3.084,0.503
	c-0.904,0.536-1.24,1.51-1.24,1.979c0,1.41,0.906,2.381,0.906,5.267c0,5.296-4.961,7.175-11.032,7.175
	c-1.679,0-3.451-0.135-5.196-0.404c-0.27-0.033-0.336-0.1-0.336-0.269c0-0.436,2.382-0.67,2.382-2.815
	c0-0.839-0.271-1.644-0.271-1.945c0-0.167,0.136-0.269,0.271-0.269c0.503,0,1.507,1.946,3.384,1.946
	C231.792,172.64,233.033,172.473,233.033,170.929 M184.651,173.68c0,1.171,4.192,6.907,4.996,6.907c0.669,0,1.173-1.175,1.173-2.182
	c0-0.266-0.066-0.535-0.199-0.736c-0.605-0.838-4.865-4.191-5.802-4.191C184.718,173.478,184.651,173.578,184.651,173.68
	 M207.953,183.437c0.873,0.838,1.644,1.205,2.582,1.205c0.368,0,0.805-0.1,1.039-0.1c0.303,0,0.504,0.136,0.504,0.369
	c0,0.37-0.336,0.973-0.738,1.309c0.402,0.168,0.838,0.234,1.308,0.234c1.91,0,4.09-1.207,4.09-4.225
	c0.403,0.535,0.64,1.644,0.64,2.146c0,3.653-2.686,5.063-5.164,5.063c-1.61,0-2.416-0.537-2.616-0.537
	c-0.636,0-0.603,1.274-1.039,1.24c-0.772-0.133-1.476-1.844-1.476-3.654C207.082,185.413,207.35,184.275,207.953,183.437
	 M213.016,180.989c-0.267-0.436-1.274-0.671-1.743-0.671c-1.477,0-2.48,1.041-2.684,1.979c-0.133-0.336-0.234-0.738-0.234-1.14
	c0-1.477,1.006-3.286,3.454-3.286c2.147,0,2.983,1.14,3.286,1.14c0.334,0,0.67-0.336,0.938-0.336c0.369,0,0.369,0.571,0.369,0.974
	c0,1.341-0.602,3.652-2.111,4.492c-0.269-0.57-0.805-1.207-1.677-1.609c-0.235-0.1-0.335-0.301-0.335-0.501
	C212.279,181.659,212.614,181.19,213.016,180.989 M237.895,215.289c1.676,0,3.017,2.179,3.017,4.728c0,2.715-1.273,5.666-3.55,7.677
	c-0.034-4.526-5.569-3.083-5.569-6.371c0-1.406,1.006-2.347,2.215-2.347c1.072,0,1.912,0.303,2.515,0.905
	c-0.603-0.568-0.907-1.374-0.907-2.146C235.615,216.462,236.421,215.289,237.895,215.289 M160.005,170.223
	c0,0.672-2.549,2.919-3.453,2.919c-0.336,0-0.436-0.402-0.436-0.771c0-0.671,0.301-1.609,0.67-1.912
	c0.437-0.403,1.443-0.602,2.215-0.602C159.47,169.858,160.005,169.956,160.005,170.223 M181.398,191.114
	c-1.441,0-1.508,1.745-1.508,5.265c-1.073-2.312-2.852-4.795-4.93-4.795c-1.408,0-1.944,0.939-1.944,2.582
	c0,0.338,0.032,0.84,0.099,1.141c0.17-0.569,0.705-0.803,1.377-0.803c1.443,0,3.184,1.104,4.325,2.613
	c-1.308-0.234-2.582-0.47-3.653-0.47c-0.672,0-1.276,0.067-1.779,0.302c-0.971,0.436-2.28,1.879-2.28,4.058
	c0,0.337,0.034,0.702,0.103,1.105c1.172-2.615,4.291-3.786,6.303-3.786c0.402,0,0.703,0.032,0.938,0.066
	c-1.04,0.937-1.274,2.58-1.342,3.686c-0.033,0.536-0.235,0.571-0.603,0.571c0,1.104,0.871,2.747,0.871,3.587
	c0,0.302-0.168,0.572-0.336,0.638c0,1.474,1.476,2.547,1.476,3.486c0,0.234-0.066,0.436-0.167,0.537
	c0.101,0.604,1.711,1.642,1.912,2.077c0.334,0.706,0.57,0.771,0.736,0.771c0.569,0,1.476-0.671,1.476-1.275
	c0-0.2-0.169-0.434-0.302-0.534c-0.637-0.47-0.973-1.476-1.239-2.146c-0.235,0-0.537-0.135-0.636-0.47
	c-0.135-0.438-0.203-2.013-0.472-2.783c-0.437-0.101-0.636-0.268-0.636-1.175c0-0.436,0.268-2.146,0.268-2.749
	c-0.203,0-0.471-0.134-0.471-0.536c0-1.071,1.074-1.91,1.376-3.283c1.911,1.406,2.38,2.848,2.38,4.122
	c0,0.668-0.102,1.306-0.234,1.91c1.41-0.704,3.521-1.743,3.521-3.854c0-1.24-0.569-2.614-4.358-3.151
	c1.172-0.437,2.648-0.671,3.89-0.671c2.146,0,3.386,0.671,3.655,2.179c0.435-0.668,0.77-1.44,0.77-2.146
	c0-1.643-1.374-2.713-3.118-2.713c-2.045,0-3.856,1.07-5.802,2.379c0.873-1.811,1.477-2.883,2.55-2.883
	c0.167,0,0.335,0.033,0.502,0.065C183.712,192.558,182.205,191.114,181.398,191.114 M177.744,188.567
	c1.141,0,2.448-6.169,2.448-7.208c0-0.27-0.101-0.47-0.335-0.47c-1.04,0-2.482,5.866-2.482,7.174
	C177.375,188.298,177.441,188.567,177.744,188.567 M185.958,190.41c0.838,0,1.776-3.22,1.776-5.231c0-0.435-0.067-0.904-0.267-0.904
	c-0.704,0-1.881,3.316-1.881,5.13C185.587,190.109,185.755,190.41,185.958,190.41 M180.494,187.425c0.368,0,0.838-0.402,1.711-1.373
	c0.066-0.437,0.066-0.839,0.066-1.342c0-0.67-0.27-1.41-0.672-1.41c-1.006,0-1.508,2.686-1.508,3.388
	C180.091,187.089,180.294,187.425,180.494,187.425 M185.087,186.052c0-0.57-0.133-0.704-0.269-0.704
	c-0.335,0-0.705,0.403-1.239,1.306c0.066,1.209,0.268,1.744,0.603,1.744C184.55,188.398,185.087,187.224,185.087,186.052
	 M209.361,220.385c1.542,0.2,1.912,0.737,1.912,1.171c0,0.74-0.671,0.974-1.309,0.974c-0.469,0-1.004-0.1-1.576-0.1
	c-0.738,0-1.475,0.168-2.079,0.874c0.435,0.066,1.073,0.368,1.073,1.038c0,1.945-5.398,0.335-5.398,5.33
	c0,2.65,2.751,5.53,6.907,5.53c2.147,0,3.521-0.698,3.521-1.506c0-0.636-1.139-0.199-1.139-0.735c0-0.237,0.402-0.672,0.402-1.042
	c0-0.166-0.135-0.469-0.402-0.469c-0.605,0-1.744,0.973-4.059,0.973c-1.81,0-3.588-1.039-3.588-2.449c0-0.302,0.136-0.47,0.336-0.47
	c0.201,0,0.47,0.135,0.705,0.135c0.201,0,0.233-0.135,0.233-0.503c0-0.369,0-1.41,0.64-1.41c0.633,0,1.842,2.35,6.469,2.35
	c1.543,0,4.527-0.302,5.634-1.309c-0.033,3.69-2.917,8.549-8.952,8.549c-6.271,0-9.623-5.026-9.623-9.657
	c0-5.129,4.189-9.788,9.926-9.788c1.473,0,2.715,0.504,2.715,1.14C211.708,219.881,209.529,219.345,209.361,220.385
	 M219.654,222.161c0.236,0.368,0.338,0.739,0.338,1.075c0,0.938-0.637,1.811-0.637,2.783c0,1.104,0.839,2.009,2.109,2.009
	c1.375,0,2.314-1.106,2.314-2.412C223.779,223.84,222.169,222.329,219.654,222.161 M208.557,224.308
	c0.334,0.337,0.437,0.673,0.437,1.007c0,0.503-0.236,1.039-0.236,1.607c0,0.804,0.604,1.508,1.477,1.508
	c0.938,0,1.575-0.736,1.575-1.608C211.809,225.55,210.501,224.308,208.557,224.308 M213.016,218.609
	c3.521,0.67,5.433,3.318,5.433,5.801c0,1.711-1.072,3.284-2.951,3.284c-1.709,0-2.953-1.175-2.953-3.049
	c0-1.408,1.108-2.884,1.108-4.328C213.653,219.747,213.486,219.178,213.016,218.609 M214.759,223.067
	c0,0.472,0.336,0.839,0.805,0.839c0.536,0,0.874-0.469,0.874-1.005c0-0.705-0.638-1.677-1.244-1.677
	c-0.267,0-0.166,0.401-0.235,0.836C214.927,222.396,214.759,222.8,214.759,223.067 M208.388,201.275
	c0.369,2.848,4.191,1.405,4.191,4.859c0,0.504-0.135,1.242-0.135,1.878c0,0.737,0.067,1.375,0.639,1.375
	c0.569,0,0.705-0.403,0.705-0.94c0-0.536-0.136-1.205-0.136-1.573c0-1.175,0.839-1.442,1.341-1.442c1.275,0,2.248,1.308,4.158,1.308
	c-0.436,2.145-4.861,1.575-4.861,3.923c0,1.173,1.172,1.441,1.944,1.441c0.704,0,0.938-0.102,0.938-0.704
	c0-0.335-0.067-0.703-0.067-0.938c0-0.135,0.103-0.268,0.271-0.268c0.736,0,4.356,2.748,4.356,3.587
	c0,0.771-3.821,1.542-4.928,1.542c-0.334,0-0.403-0.234-0.403-0.367c0-0.236,0.571-0.94,0.571-1.342
	c0-0.303-0.502-0.504-1.845-0.504c-0.637,0-1.106,0.066-1.106,0.571c0,0.904,1.476,2.012,1.476,2.849
	c0,0.67-0.402,1.072-1.476,1.072c-0.905,0-2.28-0.704-2.28-1.875c0-0.941,0.973-1.879,0.973-2.449c0-0.168-0.135-0.437-0.537-0.437
	c-1.241,0-1.575,3.284-5.969,3.656c0.705-0.638,1.309-1.342,1.309-2.783c0-0.706-0.167-1.276-0.167-2.045
	c0-1.007,0.468-1.51,1.14-1.51c1.241,0,1.844,1.742,2.649,1.742c0.435,0,0.903-0.4,0.903-1.004c0-2.55-4.895-2.182-4.895-5.769
	C207.148,204.156,207.483,202.949,208.388,201.275 M224.38,211.098c0,0.838,0.271,1.809,1.108,1.809c0.704,0,1.31-1.072,1.31-2.245
	c0-1.341-0.236-2.382-0.236-2.918c0-0.233,0.102-0.335,0.236-0.335c0.502,0.034,0.972,1.408,1.509,1.408
	c0.604,0,1.507-1.106,1.875-1.106c0.1,0,0.135,0.134,0.135,0.168c0,0.502-0.772,1.609-0.772,2.045c0,0.37,1.945,0.437,1.945,0.772
	c0,0.503-2.046,0.503-3.015,0.938c-0.938,0.402-1.509,0.904-1.509,1.575s0.668,0.805,1.609,0.805c2.244,0,3.822-1.206,4.323-1.206
	c0.101,0,0.167,0.066,0.167,0.166c0,0.336-1.141,1.444-1.141,1.947c0,0.569,2.082,1.237,2.048,1.575
	c-0.034,0.1-0.166,0.131-0.403,0.131c-0.367,0-0.938-0.099-1.375-0.099c-0.27,0-0.503,0.032-0.604,0.167
	c-0.236,0.27,0.068,2.048-0.402,2.048c-0.436,0-1.578-3.959-4.156-3.959c-0.369,0-0.638,0.303-0.638,0.807
	c0,1.34,1.31,2.883,2.55,3.621c0.567,0.369,1.508,0.736,1.508,0.939c0,0.399-2.146,0.033-2.146,0.701
	c0,0.605,0.269,1.51,0.269,2.048c0,0.166-0.033,0.366-0.236,0.366c-0.4,0-1.373-1.842-1.844-1.842c-0.402,0-1.273,1.104-1.644,1.104
	c-0.101,0-0.167-0.1-0.167-0.2c0-0.773,1.24-2.513,1.24-4.225c0-0.804-0.1-2.547-1.073-2.547c-0.806,0-1.71,1.273-2.113,2.547
	c-0.235,0.738-0.065,3.588-0.603,3.588c-0.504,0-0.37-1.91-1.041-1.91c-0.499,0-1.572,0.904-1.943,0.904
	c-0.066,0-0.132-0.033-0.132-0.102c0-0.4,0.972-1.709,0.972-1.977c0-0.504-2.215-0.57-2.215-0.974c0-0.235,0.872-0.403,1.678-0.536
	c1.709-0.303,4.225-1.541,4.225-3.285c0-1.946-1.881-2.783-3.116-3.588c-0.64-0.403-1.343-0.738-1.343-1.008
	c0-0.268,0.806-0.268,1.14-0.268c0.5,0,1.004-0.033,1.004-0.437c0-0.302-0.069-0.902-0.069-1.372c0-0.334,0.035-0.604,0.17-0.604
	c0.502,0,1.209,1.643,1.543,1.643c0.535,0,1.274-1.341,1.779-1.341c0.166,0,0.233,0.101,0.233,0.402
	C225.02,208.481,224.38,209.89,224.38,211.098 M223.208,239.296c-0.873,0.671-2.916,2.18-6.303,2.18
	c-1.811,0-2.615-0.569-2.884-0.569c-0.334,0-0.704,0.335-1.073,0.772c-0.805,0.938-1.844,2.679-1.844,4.588
	c0,1.344,1.039,2.688,2.984,2.688c6.271,0,10.963-3.926,10.963-7.109C225.052,240.033,223.98,239.296,223.208,239.296
	 M221.464,238.927c0.269-0.235,0.334-0.602,0.334-0.973v-0.771c0-0.974-1.471-1.543-3.484-1.543c-2.447,0-3.757,1.106-3.757,1.576
	v1.542c0,0.639,1.476,1.275,3.288,1.275C219.287,240.033,220.596,239.664,221.464,238.927 M221.196,242.248
	c0.168,0,0.369,0.101,0.369,0.704c0,0.734-0.335,1.708-1.539,2.48c-0.839,0.567-1.979,1.038-3.657,1.072
	c0.269-0.805,0.469-1.644,0.469-2.447c0-0.27-0.032-0.471-0.065-0.771h0.437C219.857,243.287,220.996,242.248,221.196,242.248
	 M220.328,203.687c0-0.67,0.6-1.241,1.272-1.241c0.735,0,1.307,0.571,1.307,1.241c0,0.77-0.571,1.308-1.307,1.308
	C220.927,204.994,220.328,204.456,220.328,203.687 M160.675,184.173c0,0-0.969,0.738-2.178,0.738c-1.441,0-2.582-1.073-2.582-2.582
	c0-1.038,0.535-2.111,1.777-2.649c-0.033,0.202-0.033,0.369-0.033,0.572C157.66,182.163,158.733,183.603,160.675,184.173
	 M167.853,190.614c-0.738,0.869-1.51,2.345-1.51,3.856c0,1.808,1.107,3.317,2.816,3.317c1.643,0,2.416-1.409,2.416-2.849
	C171.576,192.69,169.528,191.114,167.853,190.614 M164.296,185.213c-0.198-0.034-0.467-0.034-0.735-0.034
	c-1.106,0-2.583,0.202-3.89,1.073c-2.953,1.912-2.483,4.928-2.953,5.7c-0.066,0.1-0.1,0.235-0.1,0.37
	c0,0.301,0.336,0.636,0.637,0.636c0.271,0,0.438-0.066,0.572-0.066c0.805,0,1.709,0.57,3.016,0.57c0.771,0,1.678-0.236,2.818-0.807
	c2.414-1.205,3.354-4.19,3.354-4.693c0-0.637-0.503-0.537-0.939-1.141c-0.47-0.702-0.236-0.971-0.537-1.374
	C165.335,185.281,164.902,185.281,164.296,185.213 M165.472,188.735c0,0.469-0.27,1.073-0.807,1.073c-1.17,0-2.11-1.779-2.11-2.785
	c0-0.635,0.368-0.701,0.872-0.701c0.234,0,0.334,0.032,0.503,0.133c0.301,0.168,0.301,0.839,0.669,1.34
	C164.8,188.13,165.472,188.5,165.472,188.735 M161.515,191.885c-1.107,0-2.312-1.373-2.312-2.613c0-0.671,0.504-1.51,0.868-1.51
	c0.136,0,0.202,0.101,0.236,0.334c0.2,1.645,1.274,2.583,2.28,3.052c0.102,0.066,0.17,0.102,0.17,0.168
	C162.757,191.55,162.119,191.885,161.515,191.885 M164.365,183.437c0.168-0.538,0.301-1.207,0.301-1.945
	c0-1.609-0.735-4.057-3.018-4.057c-1.307,0-2.245,1.038-2.245,2.279C159.403,182.364,162.052,183.437,164.365,183.437
	 M236.388,210.762c0.537-1.677,1.205-2.852,2.31-4.663c-1.104-0.567-4.021-1.774-4.021-3.752c0-2.314,2.886-4.123,3.484-4.123
	c0.27,0,0.338,0.234,0.338,0.671c0,1.206-0.572,3.149-0.572,4.188c0,0.938,0.604,1.844,1.14,1.844c0.571,0,2.147-2.011,2.147-3.988
	c0-3.555-3.119-4.627-4.088-4.627c-0.906,0-2.551,1.476-6.408,1.476c-7.209,0-8.85-7.142-8.85-10.261
	c0-0.135,0.03-0.168,0.065-0.168c0.168,0,0.872,0.872,3.151,0.872c1.176,0,2.248-0.302,3.959-0.302c4.021,0,5.801,2.783,8.283,6.338
	c1.506,0.938,5.094,2.447,5.094,6.705c0,3.752-3.99,5.836-4.961,9.857c1.541-0.168,2.445-2.919,4.022-2.919
	c0.806,0,1.174,0.639,1.174,1.643c0,1.478-0.838,3.689-2.448,5.064c0.035-0.134,0.035-0.302,0.035-0.502
	c0-0.94-0.371-2.281-1.443-2.281c-1.674,0-2.211,1.811-3.151,3.32c-0.972-3.42-2.28-6.506-4.627-8.383
	c-2.38-1.911-6.472-0.872-6.472-4.358c0-0.939,0.604-2.28,0.604-3.353c0-0.366-0.068-0.703-0.27-0.971
	c3.222,1.204,2.082,3.351,4.061,5.563c1.237,1.407,4.658,2.75,6.639,8.549c0.031-0.166,0.065-0.602,0.065-0.904
	c0-4.961-6.569-9.824-7.14-11.834c3.82,0.435,4.49,1.375,6.303,6.401C235.179,206.906,236.388,209.488,236.388,210.762
	 M190.621,172.169c0-2.012-5.498-5.734-5.498-7.241c0-0.065,0-0.101,0.03-0.167c0.404-1.107,4.964-1.881,4.964-2.785
	c0-0.436-0.805-0.436-1.207-0.436c-3.119,0-7.679,1.141-7.679,2.248c0,1.14,4.091,3.923,4.091,5.299
	c0,0.367-0.234,0.502-0.604,0.502c-1.139,0-3.623-1.375-4.795-1.375c-0.537,0-0.736,0.368-0.736,0.904
	c0,1.609,1.908,4.662,1.908,5.564c0,0.102-0.033,0.235-0.165,0.235c-0.604,0-3.454-3.352-4.459-3.352
	c-0.369,0-0.404,0.502-0.404,1.241v1.139c0,0.771-0.032,1.24-0.401,1.24c-0.873,0-1.275-2.447-2.113-2.447
	c-0.873,0-1.038,4.361-1.877,4.361c-0.971,0-0.135-4.798-1.074-4.798c-1.038,0-2.213,3.187-2.949,3.187
	c-0.27,0-0.337-0.268-0.337-0.504c0-0.971,0.571-2.547,0.571-3.486c0-0.47-0.135-0.737-0.537-0.737
	c-1.039,0-3.318,1.677-4.191,1.677c-0.134,0-0.302-0.067-0.302-0.202c0-0.806,3.656-3.353,3.656-4.492
	c0-1.107-5.031-0.369-5.031-1.644c0-1.072,3.588-2.18,3.588-3.287c0-0.971-4.258-1.406-5.899-1.406
	c-1.981,0-3.053,0.232-3.053,0.804c0,0.871,4.492,1.14,4.492,1.911c0,0.74-4.66,2.716-4.66,3.856c0,1.006,6.572,0.066,6.572,1.108
	c0,1.136-5.734,6.066-5.734,7.711c0,0.369,0.27,0.537,0.637,0.537c1.746,0,6.271-3.32,7.512-3.32c0.436,0,0.469,0.536,0.469,1.006
	c0,0.871-0.301,2.211-0.301,3.186c0,0.77,0.199,1.308,0.872,1.308c1.241,0,2.38-2.112,3.218-2.112c1.074,0,0.436,6.201,2.047,6.201
	c1.372,0,1.943-6.704,2.815-6.704s1.577,1.942,2.382,1.942c1.004,0,0.535-3.386,1.607-3.386c1.174,0,4.527,4.023,6.037,4.023
	c0.469,0,0.637-0.37,0.637-0.839c0-1.775-2.48-5.798-2.48-7.073c0-0.337,0.1-0.438,0.469-0.438c1.308,0,5.129,1.813,6.94,1.813
	C190.25,172.943,190.621,172.607,190.621,172.169 M187.13,165.531c0,0.604,2.115,1.912,3.086,1.912c0.57,0,0.738-0.771,0.738-1.577
	c0-1.003-0.437-1.038-1.308-1.038C188.542,164.827,187.13,165.129,187.13,165.531 M230.652,226.052c-0.47,0-0.975,0.369-0.975,1.271
	c0,1.008,0.775,1.644,1.209,1.846c0.234,0.133,0.604,0.268,0.974,0.268c0.972,0,1.743-0.268,1.743-1.074
	C233.603,227.323,232.095,226.052,230.652,226.052 M227.033,228.13c-0.705,0-4.596,5.198-7.109,5.198
	c-0.604,0-1.106-1.141-1.106-2.012c0-0.471,0.302-0.807,1.377-1.041c5.767-1.309,4.491-5.631,9.417-5.631
	c2.719,0,5.738,1.844,5.738,6.001c0,4.424-6.305,9.926-7.243,9.926c-0.772,0-1.61-1.108-1.61-1.846c0-0.234,0.101-0.536,0.772-0.805
	c3.216-1.276,5.062-4.225,5.062-5.733c0-0.335-0.166-0.671-0.604-0.671c-0.571,0-3.015,5.564-5.731,5.564
	c-1.88,0-3.791-1.709-3.791-2.511c0-1.343,5.432-3.825,5.432-5.704C227.634,228.162,227.3,228.13,227.033,228.13 M179.251,162.11
	c0-0.2-1.004-0.402-2.381-0.402c-2.179,0-1.875,1.812-3.553,1.812c-1.742,0-1.309-1.88-3.521-1.88c-1.342,0-2.58,0.236-2.58,0.537
	c0,0.401,1.574,0.236,1.574,1.343c0,1.174-3.387,1.509-3.387,2.211c0,0.234,0.268,0.336,0.604,0.336
	c0.738,0,1.912-0.336,2.748-0.336c0.472,0,0.906,0.103,0.906,0.538c0,0.838-1.809,2.348-1.809,3.019
	c0,0.202,0.168,0.269,0.335,0.269c0.67,0,1.812-1.712,2.883-1.712c1.777,0,0.604,3.79,1.575,3.79c1.006,0,0.57-3.723,2.014-3.723
	c1.174,0,2.047,2.582,2.85,2.582c0.201,0,0.367-0.168,0.367-0.402c0-0.703-1.006-2.146-1.006-3.086c0-0.57,0.402-0.838,0.939-0.838
	c0.771,0,1.812,0.47,2.382,0.47c0.201,0,0.401-0.067,0.401-0.302c0-0.805-2.984-1.676-2.984-2.715
	C177.609,162.578,179.251,162.578,179.251,162.11 M187.667,182.095c2.211,0,3.22,1.912,3.22,4.057c0,0.938-0.267,2.313-0.703,2.313
	s-0.37-0.771-0.437-1.476c-0.067-0.904-0.235-1.105-0.535-1.105c-0.57,0-0.939,1.34-0.939,2.581c0,0.772,0.132,1.644,0.736,1.644
	c0.334,0,0.638-0.167,0.839-0.368c-0.134,1.542-1.272,2.883-2.884,2.883c-2.95,0-4.057-3.454-4.393-5.466
	c-1.775,1.878-3.419,3.253-6.371,3.253c-2.748,0-3.988-2.013-3.988-3.923c0-0.57,0.201-2.045,0.902-2.045
	c0.84,0,0.102,2.748,1.746,2.748c0.402,0,1.139-0.334,1.542-1.439c0.236-0.672,0.368-1.376,0.368-1.98
	c0-0.905-0.199-1.475-0.871-1.475c-0.57,0-1.273,0.436-1.51,0.67c0.806-2.413,2.749-3.654,4.896-3.654
	c2.648,0,4.057,2.348,4.057,4.963c0,0.367-0.033,0.771-0.102,1.139C184.382,183.535,185.958,182.095,187.667,182.095 M206.71,249.49
	c1.61,0,1.511-0.134,2.015-0.134c0.503,0,0.536,0.304,0.536,0.503c0,0.738-1.645,1.643-4.561,1.643c-1.712,0-2.75-0.904-3.051-1.908
	c-1.678,1.07-4.225,2.044-6.738,2.044c-6.873,0-8.619-2.985-10.764-3.958c-1.643-0.738-4.158,0.704-7.677-3.219
	c0.467,0.098,1.104,0.131,1.608,0.131c3.084,0,4.728-1.506,4.728-3.919c0-0.302-0.034-0.639-0.067-0.939
	c0.939,0.368,3.084,1.978,3.588,4.825c0.067,0.337,1.442,0.638,2.314,0.638c1.206,0,2.749-0.503,2.982-2.478
	c4.024-0.336,6.738-2.718,7.309-5.736c1.443,0.47,3.084,1.776,3.486,2.448c0.569-0.201,1.24-0.302,2.013-0.302
	c1.073,0,2.278,0.201,3.722,0.639c0.067-0.438,0.135-0.974,0.807-0.974c1.004,0,0.736,1.107,1.072,1.744
	c0.168,0.334,1.006,0.536,1.006,1.208c0,0.637-0.537,0.871-0.871,0.871c-0.135,0-0.303-0.033-0.403-0.066
	c-0.671,0.236-0.705,5.061-3.522,5.061c-2.078,0-3.99-1.709-4.826-3.857c-0.234-0.635-0.738-1.035-1.207-1.035
	c-0.539,0-0.838,0.102-1.478,0.802c-1.81,1.979-4.825,3.688-8.547,3.688c-1.14,0-2.045-0.1-2.281-0.1
	c-0.133,0-0.133,0.035-0.133,0.067c0,0.234,1.14,1.14,3.621,1.14c5.899,0,7.34-3.32,8.278-3.32c0.136,0,0.539,0,0.772,0.536
	c1.375,3.222,4.36,3.958,6.235,3.958H206.71z M155.682,196.849c0,2.547,0.769,3.754,2.146,3.754c1.071,0,2.514-0.771,4.225-2.245
	c-1.309,0.303-2.313,0.503-3.219,0.503C157.626,198.861,156.686,198.392,155.682,196.849 M156.854,193.865
	c-0.034,0.167-0.034,0.334-0.034,0.502c0,1.576,0.84,2.447,1.947,2.447c0.837,0,1.809-0.502,2.68-1.609
	c-0.367,0.066-0.804,0.102-1.207,0.102C159.001,195.306,157.66,194.972,156.854,193.865 M165.069,193.396
	c-0.772,0.201-2.38,1.141-2.38,2.814c0,1.209,0.939,1.98,2.111,1.98c0.604,0,1.039-0.135,1.308-0.336
	c-0.938-0.906-1.274-1.912-1.274-2.916C164.833,194.234,164.935,193.797,165.069,193.396 M168.421,229.841
	c-1.106,0.269-2.883,2.012-2.883,4.762c0,3.283,3.521,8.35,9.322,8.35c4.896,0,6.1-3.388,6.1-5.669c0-5.061-3.117-8.617-7.172-8.617
	c-2.213,0-4.192,1.609-4.192,3.991c0,2.215,1.677,5.532,5.667,5.532c1.876,0,2.984-1.343,2.984-2.886
	c0-1.506-1.377-3.585-3.387-3.585c-0.605,0-1.041,0.401-1.041,1.04c0,0.804,1.107,1.609,2.482,1.609
	c0.337,0,0.602-0.066,0.736-0.135c0.067,0.103,0.101,0.271,0.101,0.403c0,0.769-0.736,1.237-1.876,1.237
	c-1.711,0-3.354-1.271-3.354-3.285c0-1.205,1.038-2.079,2.549-2.079c2.982,0,4.76,2.651,4.76,5.296c0,2.384-1.307,3.759-3.988,3.759
	C169.864,239.565,167.25,234.737,168.421,229.841 M218.516,179.446c0.437-0.268,2.312,0.168,4.76-1.04
	c0.302-0.165,0.603-0.233,0.871-0.233c1.175,0,0.873,1.342,1.946,1.342c0.84,0,1.912-0.706,2.549-0.706
	c1.004,0,2.445,3.152,2.445,4.629c0,1.71-2.578,2.749-5.631,2.749c-4.461,0-7.143-3.89-7.143-6.405
	C218.314,179.578,218.416,179.514,218.516,179.446 M225.826,183.704c1.475,0,2.582-0.671,2.582-1.073
	c0-0.134-0.201-0.233-0.638-0.233s-1.31-0.034-2.951-0.303c-1.409-0.234-2.483-0.77-2.885-0.77c-0.136,0-0.201,0.066-0.201,0.166
	C221.733,182.364,223.341,183.704,225.826,183.704 M167.718,217.198c1.408,0,2.582-1.04,2.582-3.352v-3.42
	c0-1.309,0.099-2.785,0.973-3.822c-0.102,0.436-0.102,0.905-0.102,1.339c0,2.886,1.609,4.864,1.609,7.647
	c0,1.036-0.3,1.607-1.105,1.607c-0.772,0-0.704-0.702-0.873-0.702c-0.133,0-0.336,0.435-0.336,0.903
	c0,0.705,0.505,1.812,1.912,1.812c1.207,0,2.18-1.107,2.18-2.35c0-3.016-2.346-6.367-2.346-9.587c0-1.41,0.367-2.349,0.67-3.086
	c0,6.673,5.666,11.536,5.666,14.317c0,0.639-0.469,1.141-1.174,1.141c-0.77,0-1.14-0.604-1.14-1.073
	c0-0.235-0.034-0.301-0.133-0.301c-0.202,0-0.808,0.669-0.808,1.543c0,1.104,0.906,2.445,2.582,2.445
	c1.912,0,2.953-1.608,2.953-3.05c0-3.521-6.875-8.853-6.875-14.554c0-0.972,0.168-2.547,0.873-3.754
	c-4.429,2.849-5.803,6.639-5.803,9.958c0,2.883-0.102,4.325-1.574,4.325c-0.771,0-0.973-0.704-1.24-0.704
	c-0.203,0-0.305,0.604-0.305,0.771C165.906,216.496,166.813,217.198,167.718,217.198 M166.276,184.207
	c0,0.738,0.603,1.342,1.343,1.342c0.736,0,1.34-0.604,1.34-1.342c0-0.737-0.604-1.342-1.34-1.342
	C166.878,182.865,166.276,183.47,166.276,184.207 M168.021,187.224c0,0.738,0.602,1.343,1.34,1.343s1.344-0.604,1.344-1.343
	c0-0.736-0.605-1.34-1.344-1.34S168.021,186.488,168.021,187.224 M204.098,242.786c0,0.733,0.603,1.337,1.341,1.337
	c0.734,0,1.339-0.604,1.339-1.337c0-0.739-0.604-1.343-1.339-1.343C204.701,241.444,204.098,242.047,204.098,242.786
	 M208.557,193.362c0,0.737,0.603,1.342,1.341,1.342c0.736,0,1.34-0.604,1.34-1.342c0-0.738-0.604-1.343-1.34-1.343
	C209.16,192.019,208.557,192.623,208.557,193.362 M207.417,198.09c0,1.04,0.871,1.91,1.91,1.91s1.91-0.87,1.91-1.91
	s-0.871-1.912-1.91-1.912S207.417,197.05,207.417,198.09 M211.641,195.943c0,1.141,0.903,2.047,2.047,2.047
	c1.138,0,2.044-0.906,2.044-2.047c0-1.139-0.906-2.046-2.044-2.046C212.544,193.897,211.641,194.804,211.641,195.943
	 M211.809,191.583c0,0.703,0.569,1.275,1.274,1.275s1.275-0.572,1.275-1.275c0-0.705-0.57-1.271-1.275-1.271
	S211.809,190.878,211.809,191.583 M217.878,188.365c0,0.705,0.57,1.274,1.273,1.274c0.705,0,1.275-0.569,1.275-1.274
	c0-0.703-0.57-1.275-1.275-1.275C218.449,187.089,217.878,187.661,217.878,188.365 M215.364,192.49c0,1.174,0.972,2.146,2.146,2.146
	s2.145-0.973,2.145-2.146s-0.971-2.146-2.145-2.146S215.364,191.316,215.364,192.49 M211.908,200.335
	c0,0.738,0.604,1.339,1.344,1.339c0.737,0,1.34-0.601,1.34-1.339s-0.603-1.341-1.34-1.341
	C212.512,198.994,211.908,199.597,211.908,200.335 M216.302,197.654c0,0.738,0.604,1.341,1.341,1.341s1.342-0.603,1.342-1.341
	s-0.604-1.342-1.342-1.342S216.302,196.915,216.302,197.654 M215.062,202.378c0,1.275,1.038,2.314,2.314,2.314
	c1.272,0,2.312-1.039,2.312-2.314c0-1.272-1.04-2.312-2.312-2.312C216.1,200.067,215.062,201.106,215.062,202.378 M219.89,199.53
	c0,0.873,0.706,1.576,1.574,1.576c0.871,0,1.576-0.703,1.576-1.576c0-0.869-0.705-1.573-1.576-1.573
	C220.596,197.956,219.89,198.66,219.89,199.53 M219.792,195.306c0,0.771,0.635,1.408,1.403,1.408c0.771,0,1.409-0.637,1.409-1.408
	c0-0.77-0.639-1.409-1.409-1.409C220.427,193.897,219.792,194.536,219.792,195.306 M238.5,163.52c0,0.47,0.367,0.838,0.838,0.838
	c0.468,0,0.838-0.368,0.838-0.838s-0.37-0.839-0.838-0.839C238.867,162.681,238.5,163.05,238.5,163.52 M163.796,225.013
	c0.134,1.14,1.205,2.01,2.414,1.877c0.435-0.036,0.838-0.17,1.104-0.337c0.271,1.073,1.106,1.745,2.347,1.609
	c1.241-0.1,2.114-1.14,1.979-2.377c0-0.336-0.101-0.537-0.2-0.772l0.234-0.032c1.173-0.135,2.078-1.207,1.977-2.383
	c-0.133-1.208-1.238-2.078-2.379-1.979c-0.438,0.103-0.807,0.234-1.072,0.471c-0.303-1.006-1.176-1.811-2.414-1.676
	c-1.175,0.066-2.08,1.205-1.947,2.446c0,0.168,0.066,0.437,0.168,0.67l-0.234,0.034
	C164.599,222.732,163.694,223.704,163.796,225.013 M167.517,223.974c-0.034-0.67,0.436-1.309,1.139-1.376
	c0.705-0.102,1.344,0.437,1.408,1.139c0.068,0.706-0.436,1.311-1.141,1.41C168.221,225.183,167.585,224.677,167.517,223.974
	 M210.535,174.415c0.536,0,0.637,1.308,0.738,2.08c0.066,0.403,0.133,0.438,0.301,0.438c0.403,0,1.04-1.544,1.475-1.544
	c0.64,0,2.349,1.778,5.197,1.778c4.057,0,7.881-2.852,7.881-7.88c0-4.863-3.42-7.714-8.146-7.714c-2.248,0-3.891,1.107-4.762,1.107
	c-0.537,0.034-1.342-1.307-1.746-1.307c-0.167,0-0.333,0.333-0.333,0.903c0,0.368,0,1.543-0.404,1.543
	c-0.804,0-3.922-2.314-3.922-1.476c0,0.772,2.078,3.119,2.078,3.722c0,0.604-2.045,1.174-2.045,1.575c0,0.739,2.18,0.873,2.18,1.812
	c0,0.938-2.282,1.675-2.282,2.38c0,0.571,2.282,0.168,2.282,0.873c0,0.704-1.676,3.05-1.676,3.722c0,0.168,0.032,0.168,0.167,0.168
	C208.154,176.597,210.066,174.415,210.535,174.415 M159.169,207.376c1.138,0,0.901-6.974,2.748-6.974c0.437,0,0.57,0.437,0.57,0.972
	c0,1.575-0.771,3.889-0.771,5.163c0,0.638,0.168,0.839,0.47,0.839c0.804,0,2.212-7.678,3.587-7.678c0.438,0,0.637,0.435,0.637,0.872
	c0,1.607-2.045,6.237-2.045,7.542c0,0.201,0.068,0.368,0.234,0.368c0.839,0,2.516-3.62,3.053-5.431
	c0.301-0.938,0.703-1.442,1.071-1.442c0.336,0,0.638,0.37,0.638,1.14c0,1.811-1.675,6.069-3.15,8.921
	c-1.142,2.212-2.918,5.397-2.918,7.175c0,0.904,0.168,1.844,1.475,2.984c-2.146-0.135-3.018-0.336-3.822-2.011
	c-3.588,7.139,6.605,6.438,3.119,12.772c-0.637-1.139-5.667-2.313-5.667-8.95c0-5.734,5.03-9.088,5.03-11.47
	c0-0.469-0.17-0.871-0.604-1.239c-1.106-0.938-1.14-1.712-2.012-1.712c-0.638,0-1.408,1.478-0.604,2.783
	c0.268,0.436,0.504,0.704,0.504,1.107c0,0.94-1.475,3.452-2.515,3.452c-1.038,0-1.845-2.58-1.845-6.738
	c0-3.688,0.837-7.409,1.879-7.409c0.3,0,0.402,0.2,0.402,0.469c0,0.437-0.135,1.308-0.135,2.783
	C158.498,207.241,158.867,207.376,159.169,207.376 M234.173,181.089c-0.469,0-1.141,0-1.508-0.738
	c-0.304-0.604-0.201-1.575-0.772-2.012c0.571,0.168,1.173,0.168,1.644,0.168c1.51,0,2.951-1.038,4.057-1.038
	c0.738,0,0.972,0.469,0.972,0.937C238.565,179.882,235.583,181.089,234.173,181.089 M234.912,184.878
	c3.486,0,6.674-2.783,6.674-5.23c0-1.141-0.539-2.078-1.914-2.246c0.234,0.302,0.336,0.536,0.336,1.071
	c0,1.845-2.814,3.891-5.867,3.891c-1.107,0-1.442,0.771-1.442,1.172C232.698,184.473,233.603,184.878,234.912,184.878
	 M234.644,186.286c0.436,3.186,5.262,7.478,6.57,7.377c0.873,0,1.207-4.158,1.207-7.377c0-1.844,0.103-3.287-0.871-3.621
	C240.007,185.783,235.951,186.421,234.644,186.286"/>
<path fill="#231F20" d="M145.959,273.99c-0.063-2.594,0.064-5.184,1.14-8.848c0.567-1.956,1.075-2.652,2.842-3.031
	c1.39-0.254,1.266,1.199,0.95,2.906c-0.693,3.789-1.016,5.621-0.758,9.92c0.246,4.55,2.336,6.319,4.609,6.319
	c3.412,0.063,4.93-2.778,5.561-6.888c0.504-3.285,0.125-4.869-0.192-5.877c-0.187-0.567-0.693-1.834-0.884-2.779
	c-0.25-2.402,0.884-3.536,1.834-3.855c1.139-0.316,1.584,0.254,2.021,1.583c0.571,2.022,0.635,4.671,0.444,8.461
	c-0.252,5.18-2.845,11.441-9.289,11.312C148.677,283.089,146.216,279.487,145.959,273.99 M232.873,272.98
	c1.329,0,1.71,1.576,1.395,2.527c-0.319,0.945-1.453,2.019-3.224,2.334C230.663,276.892,230.472,272.98,232.873,272.98
	 M208.168,275.126c0-1.071-0.571-1.961-1.264-1.961c-0.572,0-1.896,0.633-1.896,2.656c0,1.58,0.565,2.336,0.822,2.656
	C207.661,277.906,208.168,276.388,208.168,275.126 M188.513,262.24c-0.061-1.017-0.881-1.709-1.957-1.709
	c-1.201,0-2.34,1.264-2.209,2.842c0,0.947,0.692,1.896,1.896,1.896C187.632,265.269,188.642,263.693,188.513,262.24
	 M198.788,265.947c-0.108-1.764-0.537-2.562-1.483-2.498c-1.26,0.078-1.84,4.033-1.586,8.195c0.166,2.718,0.568,3.132,0.946,3.107
	C197.362,274.71,199.03,269.859,198.788,265.947 M237.298,274.242c0-1.579-1.451-3.794-3.601-3.794
	c-2.845,0-5.621,3.098-5.621,7.393c0,3.854,2.396,5.123,4.796,5.123c4.174,0,6.702-3.42,8.027-6.26
	c0.634,1.896,1.008,6.26,2.591,6.26c0.632,0,1.075-0.317,1.836-2.025c1.892-4.234,3.724-9.1,6.255-9.1
	c0.945,0,0.379,1.707,2.652,1.707c1.076,0,1.83-0.883,1.83-1.9c0-1.451-1.325-2.589-3.348-2.589c-5.937,0-7.199,8.913-8.15,8.913
	c-1.58,0-1.075-7.141-2.213-7.141c-1.012,0-1.52,1.201-1.645,1.768c-0.822,3.287-3.156,8.027-6.697,8.027
	c-0.82,0-2.274-0.317-2.274-1.138C231.737,278.6,237.298,278.478,237.298,274.242 M190.158,280.179c0.947,0,2.576-0.307,3.857-2.361
	c-0.732-1.625-1.256-4.916-1.33-6.114c-0.377-6.123,1.983-11.883,4.566-12.041c1.895-0.114,3.408,1.679,3.583,4.577
	c0.468,7.634-2.077,10.821-3.348,13.563c0.215,1.069,2.021,2.883,3.729,2.883c0.629,0,1.389-0.315,1.582-0.569
	c-0.13-0.439-0.258-1.008-0.258-1.831c0-4.423,2.848-8.153,5.311-8.153c1.961,0,3.093,2.589,3.093,4.303
	c0,2.018-1.705,3.663-4.229,5.242c0.444,0.439,1.262,0.759,1.961,0.759c3.602,0,5.492-4.359,6.887-8.346
	c0.252-0.757,0.697-1.83,1.578-1.83c1.518,0,2.15,9.982,4.674,9.982c1.078,0,1.959-2.212,1.959-3.914c0-1.265-0.44-1.392-0.44-3.227
	c0-2.019,1.073-3.728,2.53-3.728c0.882,0,1.199,0.886,1.199,1.959c0,4.045-2.905,11.565-7.2,11.565
	c-3.228,0-2.976-5.566-4.108-5.566c-1.268,0-3.037,5.632-9.291,5.632c-1.016,0-2.087-0.507-2.969-1.523
	c-1.518,1.017-2.785,1.458-4.238,1.458c-2.336,0-3.348-2.402-4.293-2.402c-1.141,0-2.4,2.468-6.193,2.468
	c-3.036,0-3.541-4.043-4.613-4.043c-0.948,0-2.402,4.043-3.98,4.043c-2.658,0-3.224-7.016-5.562-7.016
	c-1.834,0-7.623,7.123-9.196,6.959c-0.632-0.064-0.897-0.535-0.831-1.17c0.09-0.873,0.842-3.215,1.149-4.322
	c0.51-1.918,0.979-4.029,1.241-4.699c0.26-0.678,0.963-1.161,1.524-1.108c0.283,0.027,0.368,0.556,0.457,0.991
	c0.317,1.567,0.765,3.158,1.269,3.158c0.887,0,3.82-5.625,5.523-5.625c2.088,0,2.34,8.85,5.182,8.85
	c0.949,0,1.647-1.141,2.276-2.529c0.063-2.342,0.695-5.686,2.591-5.686c1.33,0,1.961,2.967,1.01,5.562
	C186.808,279.421,188.83,280.179,190.158,280.179"/>
</svg>
