<?xml version="1.0" encoding="utf-8"?>
<!-- Generator: Adobe Illustrator 15.0.0, SVG Export Plug-In . SVG Version: 6.00 Build 0)  -->
<!DOCTYPE svg PUBLIC "-//W3C//DTD SVG 1.1//EN" "http://www.w3.org/Graphics/SVG/1.1/DTD/svg11.dtd">
<svg version="1.1" id="Layer_1" xmlns="http://www.w3.org/2000/svg" xmlns:xlink="http://www.w3.org/1999/xlink" x="0px" y="0px"
	 width="418.473px" height="231.412px" viewBox="0 0 418.473 231.412" enable-background="new 0 0 418.473 231.412"
	 xml:space="preserve">
<g>
	<path fill="#B4B3B4" d="M210.067,106.257l-1.328-1.65c-4.951-6.142-11.616-11.772-19.275-16.278
		c-7.211-4.244-15.007-7.127-23.168-8.572l-2.043-0.361l0.723-1.944c2.852-7.683,4.298-15.833,4.298-24.225
		c0-8.465-1.526-16.776-4.539-24.7l-0.753-1.985l2.096-0.337c8.289-1.338,16.215-4.158,23.561-8.382
		c7.365-4.237,13.806-9.684,19.142-16.187L210.122,0l1.336,1.642c5.242,6.442,11.643,11.885,19.022,16.18
		c7.332,4.266,15.282,7.128,23.628,8.507l2.093,0.346l-0.76,1.979c-3.008,7.836-4.555,16.103-4.597,24.572
		c-0.042,8.521,1.443,16.851,4.412,24.759l0.748,1.989l-2.098,0.328c-8.365,1.312-16.304,4.081-23.602,8.228
		c-7.088,4.032-13.268,9.297-18.888,16.095L210.067,106.257z M168.9,76.735c7.843,1.615,15.343,4.508,22.319,8.613
		c7.347,4.323,13.833,9.649,18.875,15.488c5.535-6.37,11.604-11.391,18.502-15.312c7.062-4.015,14.693-6.798,22.717-8.286
		c-2.648-7.715-3.969-15.788-3.929-24.028c0.04-8.187,1.421-16.196,4.106-23.838c-8.014-1.558-15.657-4.434-22.75-8.56
		c-7.128-4.146-13.385-9.317-18.631-15.392c-5.327,6.129-11.625,11.304-18.748,15.401c-7.101,4.083-14.721,6.918-22.68,8.438
		c2.689,7.724,4.051,15.778,4.051,23.969C172.733,61.335,171.445,69.232,168.9,76.735z"/>
	<g>
		<path fill="#B4B3B4" d="M208.33,46.21h3.46v-8.285l19.925,0.557l0.017-3.459l-19.941,0.461v-8.318
			c2.83-0.764,4.92-3.352,4.92-6.422c0-3.667-2.982-6.651-6.65-6.651c-3.667,0-6.652,2.985-6.652,6.651
			c0,3.07,2.091,5.659,4.923,6.422v8.316l-19.417-0.664l-0.017,3.459L208.33,37.9V46.21z M206.868,20.743
			c0-1.759,1.432-3.191,3.191-3.191s3.192,1.432,3.192,3.191c0,1.761-1.433,3.193-3.192,3.193S206.868,22.504,206.868,20.743z"/>
		<path fill="#B4B3B4" d="M236.491,62.178c-0.509,7.934-10.27,16.985-21.156,16.985c-2.732,0-3.544-2.271-3.647-4.062V65.25
			c2.182-0.114,4.299-0.579,5.543-1.75c-0.048-0.406,0.06-2.342,0-2.747c-3.509,3.408-7.04,4.36-9.561,1.729
			c-1.862-1.981-2.187-5.584-2.187-7.12c0-3.566,1.318-7.896,5.344-7.896c1.962,0,3.271,0.792,4.377,1.833
			c1.057,1.089,1.875,2.04,1.875,2.04c0.1-0.024,0.125-0.1,0.1-0.248c-0.1-0.743,0.052-4.882,0.052-4.882s-0.558,0.033-0.79,0.03
			c0.051,0.12-0.27,0.621-0.27,0.621c-0.06,0.926-2.979-0.433-5.293-0.433c-3.021,0-5.186,1.188-6.544,2.625
			c-1.761,1.882-2.566,4.208-2.566,6.636c0,2.18,0.683,5.363,2.546,6.999c1.13,1.005,2.191,1.912,3.914,2.336v9.666v-0.001
			c0,1.831-0.711,4.475-3.66,4.475c-10.888,0-20.647-9.051-21.156-16.985l-5.594-3.356c4.863,22.395,31.33,24.799,32.127,29.544
			v0.053c0.002-0.01,0.006-0.018,0.008-0.027c0,0.009,0.004,0.018,0.005,0.027v-0.053c0.798-4.745,27.264-7.15,32.128-29.544
			L236.491,62.178z"/>
		<path fill="#B4B3B4" d="M182.802,47.542h1.612c0.752,0,0.778,0.093,1.083,0.792c0.307,0.705,5.804,13.644,6.658,15.75
			c0.127,0.297,0.252,0.569,0.555,0.569c0.201,0,0.402-0.124,0.503-0.323c0.251-0.52,5.685-14.339,6.515-15.65
			c0.578-0.892,1.65-1.14,2.255-1.14h0.603c0.152,0,0.202-0.075,0.202-0.199v-0.618c0-0.124-0.05-0.174-0.202-0.174
			c-0.201,0-6.199,0-6.401,0c-0.151,0-0.202,0.05-0.202,0.199v0.569c0,0.124,0.076,0.223,0.178,0.223h0.678
			c1.424-0.01,1.424,0.459,1.271,0.907c-0.326,0.96-4.258,10.404-4.258,10.404l-4.488-11.269l2.438-0.042
			c0.151,0,0.202-0.075,0.202-0.248v-0.544c0-0.124-0.051-0.199-0.252-0.199c-0.202,0-8.698,0-8.949,0
			c-0.101,0-0.15,0.05-0.15,0.199v0.569C182.651,47.467,182.701,47.542,182.802,47.542z"/>
		<path fill="#B4B3B4" d="M216.373,46.217c-0.071,0.016-0.027,0.023,0.067,0.023C216.432,46.218,216.411,46.208,216.373,46.217z"/>
		<path fill="#B4B3B4" d="M219.94,46.725c-0.106,0-0.16,0.052-0.16,0.206v0.644c0,0.129,0.054,0.181,0.16,0.181l2.328,0.031
			l-0.055,16.324l-2.059-0.023c-0.16,0-0.16,0.052-0.16,0.207v0.644c0,0.078,0,0.18,0.213,0.18c0.268,0,7.438,0,7.812,0
			c0.214,0,0.214-0.102,0.214-0.257v-0.592c0-0.077,0-0.181-0.214-0.181l-2.327,0.023l-0.027-7.056
			c0.696,0.104,1.498,0.104,2.408,0.104c4.549,0,7.116-2.01,7.116-5.204c0-1.597-0.802-3.04-2.032-3.916
			c-1.553-1.031-3.104-1.314-6.314-1.314C225.933,46.725,220.262,46.725,219.94,46.725z M231.444,51.902
			c0,0.927-0.106,1.906-0.642,2.68c-0.643,0.875-2.032,1.751-3.21,1.751c-0.696,0-1.447-0.052-1.928-0.206v-8.346
			c0.43-0.207,1.07-0.181,1.553-0.181C228.501,47.6,231.444,48.399,231.444,51.902z"/>
	</g>
	<g>
		<path fill="#B4B3B4" d="M0,130.04v-1.985h21.552v1.985h-6.613l14.312,41.796h0.166l13.689-41.796h-7.74v-1.985h16.186v1.985
			h-6.033l-18.057,55.24h-2.164L6.241,130.04H0z"/>
		<path fill="#B4B3B4" d="M68.182,173.657h1.532c-0.479,2.565-1.279,4.698-2.402,6.399c-1.125,1.699-2.537,2.969-4.241,3.808
			c-1.703,0.836-3.587,1.255-5.654,1.255c-3.655,0-6.893-1.565-9.708-4.697c-2.816-3.135-4.224-6.969-4.224-11.503
			c0-3.24,0.573-6.325,1.72-9.254s2.766-5.271,4.854-7.027c2.089-1.755,4.475-2.632,7.154-2.632c2.339,0,4.467,0.614,6.387,1.842
			c1.918,1.229,3.423,2.985,4.514,5.266c1.09,2.282,1.646,4.895,1.67,7.836H50.05v3.403c0,4.886,0.556,8.611,1.666,11.176
			c1.111,2.565,3.391,3.848,6.838,3.848c1.294,0,2.631-0.43,4.016-1.296c1.382-0.863,2.578-2.037,3.589-3.523
			C67.167,177.072,67.841,175.438,68.182,173.657z M50.118,162.479h13.301v-2.835c0-1.971-0.283-3.536-0.85-4.697
			c-0.568-1.162-1.322-1.998-2.263-2.511c-0.94-0.514-2.036-0.771-3.282-0.771c-1.77,0-3.193,0.675-4.271,2.025
			c-1.077,1.35-1.717,2.444-1.921,3.28C50.425,158.322,50.187,160.158,50.118,162.479z"/>
		<path fill="#B4B3B4" d="M107.104,182.121v1.903l-9.731,0.049v-6.284h-0.146c-0.95,2.295-2.386,4.104-4.308,5.427
			c-1.923,1.32-4.103,1.982-6.535,1.982c-5.867,0-8.801-2.712-8.801-8.14v-24.298h-4.045v-1.903l9.877-0.023v25.495
			c0,4.131,1.518,6.197,4.555,6.197c2.6,0,4.756-1.059,6.469-3.18c1.714-2.119,2.568-4.703,2.568-7.756v-18.83h-5.769v-1.903
			l11.601-0.023v31.287H107.104z"/>
		<path fill="#B4B3B4" d="M362.553,182.121v1.903l-9.084,0.101v-6.336h-0.137c-0.888,2.295-2.228,4.104-4.021,5.427
			c-1.795,1.32-3.829,1.982-6.1,1.982c-5.477,0-8.216-2.712-8.216-8.14v-24.298h-3.774v-1.903l9.218-0.092v25.563
			c0,4.131,1.419,6.197,4.254,6.197c2.426,0,4.438-1.059,6.037-3.18c1.601-2.119,2.398-4.703,2.398-7.756v-18.83h-3.98v-1.903
			l9.424,0.01v31.254H362.553z"/>
		<path fill="#B4B3B4" d="M111.274,152.761h-3.336v-1.903h16.059v1.903h-5.756l7.961,22.67l6.713-22.67h-4.253v-1.903h9.458v1.903
			h-3.335l-9.628,32.358h-2.347L111.274,152.761z"/>
		<path fill="#B4B3B4" d="M163.491,173.657h1.53c-0.477,2.565-1.277,4.698-2.4,6.399c-1.124,1.699-2.538,2.969-4.241,3.808
			c-1.703,0.836-3.588,1.255-5.654,1.255c-3.656,0-6.893-1.565-9.709-4.697c-2.816-3.135-4.223-6.969-4.223-11.503
			c0-3.24,0.573-6.325,1.719-9.254c1.146-2.929,2.765-5.271,4.854-7.027c2.089-1.755,4.474-2.632,7.153-2.632
			c2.338,0,4.468,0.614,6.387,1.842c1.92,1.229,3.424,2.985,4.515,5.266c1.089,2.282,1.646,4.895,1.667,7.836h-19.73v3.403
			c0,4.886,0.557,8.611,1.668,11.176c1.11,2.565,3.39,3.848,6.837,3.848c1.294,0,2.631-0.43,4.015-1.296
			c1.383-0.863,2.58-2.037,3.588-3.523C162.476,177.072,163.151,175.438,163.491,173.657z M145.427,162.479h13.302v-2.835
			c0-1.971-0.283-3.536-0.851-4.697c-0.566-1.162-1.321-1.998-2.262-2.511c-0.941-0.514-2.036-0.771-3.283-0.771
			c-1.769,0-3.193,0.675-4.27,2.025c-1.077,1.35-1.719,2.444-1.922,3.28C145.733,158.322,145.495,160.158,145.427,162.479z"/>
		<path fill="#B4B3B4" d="M243.04,184.024h-18.602v-1.903h6.175v-51.818h-6.175v-1.903l12.428,0.042v53.68h6.174V184.024z"/>
		<path fill="#B4B3B4" d="M262.221,184.024h-16.335v-1.903h5.354v-29.36h-5.354v-1.903l11.605-0.092v31.355h4.729V184.024z
			 M250.419,136.986c0-1.08,0.392-2.025,1.178-2.834c0.785-0.811,1.689-1.217,2.709-1.217c0.629,0,1.264,0.189,1.905,0.568
			s1.165,0.87,1.571,1.477c0.405,0.607,0.607,1.276,0.607,2.006c0,1.27-0.379,2.322-1.137,3.159
			c-0.76,0.837-1.742,1.255-2.947,1.255c-1.178,0-2.119-0.432-2.826-1.296C250.771,139.241,250.419,138.201,250.419,136.986z"/>
		<path fill="#B4B3B4" d="M290.202,173.657h1.509c-0.937,3.401-2.312,6.116-4.126,8.14c-1.813,2.026-4.441,3.132-7.882,3.322
			c-3.429,0-6.221-0.926-8.38-2.774c-2.157-1.85-3.708-4.058-4.653-6.623c-0.944-2.562-1.417-4.967-1.417-7.208
			c0-4.537,0.842-8.194,2.523-10.976c1.683-2.78,3.639-4.731,5.869-5.852c2.231-1.12,4.212-1.681,5.94-1.681
			c1.191,0,2.447,0.169,3.768,0.506c1.321,0.338,2.557,0.871,3.715,1.601c1.157,0.729,2.08,1.673,2.769,2.835
			c0.689,1.161,1.032,2.511,1.032,4.049c0,1.162-0.294,2.195-0.879,3.1c-0.589,0.903-1.376,1.355-2.361,1.355
			c-0.964,0-1.772-0.364-2.432-1.093c-0.656-0.729-0.986-1.688-0.986-2.876c0-0.918,0.164-1.653,0.493-2.207
			c0.855-1.438,1.634-5.609-4.256-5.609c-2.238,0-3.995,0.636-5.266,1.903c-1.271,1.271-2.158,3.133-2.66,5.589
			c-0.5,2.458-0.75,5.576-0.75,9.355c0,1.62,0.08,3.058,0.243,4.313c0.164,1.255,0.361,2.369,0.594,3.341
			c0.234,0.973,0.455,1.768,0.665,2.389c1.141,2.943,3.482,4.55,7.023,4.819c2.176,0,4.172-0.903,5.988-2.712
			C288.1,178.856,289.404,176.52,290.202,173.657z"/>
		<path fill="#B4B3B4" d="M321.747,196.968h4.158v1.903h-14.467v-1.903h4.717v-17.439h-0.138c-1.748,3.729-4.752,5.591-9.014,5.591
			c-2.331,0-4.466-0.776-6.413-2.328c-1.944-1.555-3.48-3.651-4.61-6.299c-1.13-2.646-1.693-5.44-1.693-8.385
			c0-4.131,0.697-7.558,2.097-10.285c1.396-2.727,3.102-4.711,5.117-5.954c2.015-1.241,3.896-1.862,5.641-1.862
			c2.027,0,3.873,0.607,5.54,1.822c1.664,1.216,2.846,2.902,3.546,5.063l-0.088-6.126l9.766,0.092v1.903h-4.158V196.968z
			 M316.295,166.853c0-3.184-0.16-5.581-0.487-7.188c-0.326-1.606-1.141-3.193-2.445-4.759c-1.539-1.944-3.438-2.917-5.694-2.917
			c-2.074,0-3.616,0.899-4.629,2.693c-1.013,1.796-1.642,3.822-1.887,6.075c-0.245,2.255-0.368,4.866-0.368,7.838
			c0,2.753,0.145,5.149,0.438,7.188c0.29,2.037,0.96,3.785,2.008,5.245c1.049,1.457,2.598,2.187,4.646,2.187
			c0.931,0,2.029-0.265,3.284-0.79c1.259-0.528,2.418-1.628,3.478-3.3c1.06-1.675,1.591-4.104,1.591-7.29
			c0.021-0.839,0.04-1.606,0.052-2.31C316.29,168.824,316.295,167.934,316.295,166.853z"/>
		<path fill="#B4B3B4" d="M381.294,150.006c2.535,0,4.877,0.763,7.022,2.287c2.144,1.526,3.851,3.633,5.119,6.319
			c1.27,2.687,1.904,5.647,1.904,8.889c0,2.538-0.362,4.868-1.087,6.987c-0.722,2.118-1.744,3.989-3.059,5.609
			c-1.314,1.618-2.826,2.862-4.533,3.726c-1.705,0.863-3.497,1.296-5.367,1.296c-1.85,0-3.633-0.441-5.352-1.318
			c-1.721-0.876-3.237-2.11-4.553-3.703s-2.339-3.469-3.074-5.631c-0.735-2.16-1.104-4.479-1.104-6.966
			c0-3.241,0.635-6.202,1.904-8.889c1.266-2.687,2.986-4.793,5.154-6.319C376.438,150.769,378.78,150.006,381.294,150.006z
			 M381.31,151.666c-2.271,0-3.945,0.771-5.023,2.309c-1.079,1.539-1.746,3.376-2.008,5.508c-0.261,2.134-0.389,4.808-0.389,8.019
			c0,3.268,0.128,5.969,0.389,8.101c0.262,2.133,0.929,3.977,2.008,5.528c1.078,1.552,2.753,2.328,5.023,2.328
			c2.274,0,3.949-0.776,5.027-2.328c1.075-1.552,1.745-3.396,2.007-5.528c0.259-2.132,0.39-4.833,0.39-8.101
			c0-3.211-0.131-5.885-0.39-8.019c-0.262-2.132-0.932-3.969-2.007-5.508C385.259,152.437,383.584,151.666,381.31,151.666z"/>
		<path fill="#B4B3B4" d="M399.016,152.761v-1.903h4.681v-8.229l6.035-3.355v11.584h7.001v1.903h-7.001v25.635
			c0,1.16,0.18,2.086,0.539,2.775c0.362,0.688,1.188,1.032,2.476,1.032c0.927,0,1.696-0.256,2.304-0.771
			c0.604-0.513,1.32-1.308,2.146-2.389l1.277,1.013c-0.466,0.945-1.171,1.816-2.114,2.611c-0.944,0.799-1.984,1.403-3.123,1.822
			c-1.138,0.419-2.263,0.629-3.373,0.629c-2.585,0-4.284-0.615-5.101-1.844c-0.814-1.228-1.22-3.058-1.22-5.486v-25.028H399.016z"/>
	</g>
	<path fill="#B4B3B4" d="M211.271,128.926c2.207,0.902,3.442,1.353,3.708,1.353c0.546,0,1.065-0.22,1.556-0.656
		s0.83-1.119,1.02-2.048l1.863,0.002l-0.109,18.845h-1.332c-0.771-3.741-2.013-6.649-3.027-9.056
		c-1.828-4.344-5.289-7.097-9.307-7.097c-7.262,0-13.298,8.495-13.298,26.091c0,12.917,4.839,27.143,14.284,27.143
		c7.65,0,11.736-7.946,13.035-16.1l1.818,0.052c-2.182,12.412-6.713,17.894-16.36,18.021c-6.224,0.085-11.581-2.892-15.241-8.653
		c-3.377-5.327-5.065-11.977-5.065-19.954c0-8.167,1.782-15.022,5.349-20.567c3.752-5.818,8.639-8.727,14.656-8.727
		C206.913,127.574,209.063,128.025,211.271,128.926z"/>
	<rect x="65.636" y="220.131" fill="#B4B3B4" width="10.983" height="10.984"/>
	<rect x="345.737" y="220.131" fill="#B4B3B4" width="10.984" height="10.984"/>
	<g>
		<path fill="#B4B3B4" d="M108.434,225.693c0.57-0.489,0.856-1.195,0.856-2.118c0-0.602-0.11-1.108-0.33-1.52
			c-0.219-0.414-0.533-0.749-0.943-1.008s-0.899-0.446-1.471-0.566c-0.57-0.117-1.205-0.177-1.908-0.177h-6.814l0.024,11.028h2.436
			l-0.013-4.487h3.139l3.325,4.515l2.657,0.027l-3.262-4.708C107.095,226.511,107.863,226.184,108.434,225.693z M104.067,225.212
			h-3.797v-3.104h3.797c0.526,0,0.965,0.038,1.316,0.114c0.352,0.079,0.629,0.188,0.834,0.327s0.351,0.302,0.439,0.493
			c0.087,0.188,0.132,0.395,0.132,0.617c0,0.224-0.045,0.431-0.132,0.618c-0.089,0.188-0.234,0.354-0.439,0.493
			s-0.482,0.248-0.834,0.324C105.032,225.174,104.594,225.212,104.067,225.212z"/>
		<path fill="#B4B3B4" d="M240.638,225.693c0.571-0.489,0.856-1.195,0.856-2.118c0-0.602-0.109-1.108-0.33-1.52
			c-0.219-0.414-0.533-0.749-0.943-1.008c-0.408-0.259-0.898-0.446-1.469-0.566c-0.571-0.117-1.207-0.177-1.909-0.177h-6.814
			l0.022,11.028h2.437l-0.012-4.487h3.138l3.385,4.566l2.598-0.024l-3.261-4.708C239.3,226.511,240.068,226.184,240.638,225.693z
			 M236.272,225.212h-3.797v-3.104h3.797c0.526,0,0.965,0.038,1.316,0.114c0.35,0.079,0.628,0.188,0.833,0.327
			c0.204,0.139,0.352,0.302,0.438,0.493c0.089,0.188,0.131,0.395,0.131,0.617c0,0.224-0.042,0.431-0.131,0.618
			c-0.087,0.188-0.234,0.354-0.438,0.493c-0.205,0.139-0.483,0.248-0.833,0.324C237.237,225.174,236.799,225.212,236.272,225.212z"
			/>
		<polygon fill="#B4B3B4" points="121.655,226.511 126.648,226.511 126.648,224.708 121.655,224.708 121.655,222.107 
			128.765,222.107 128.765,220.305 119.114,220.305 119.137,231.333 128.983,231.333 128.983,229.405 121.655,229.405 		"/>
		<polygon fill="#B4B3B4" points="316.031,229.405 316.031,226.511 321.022,226.511 321.022,224.708 316.031,224.708 
			316.031,222.107 323.138,222.107 323.138,220.305 313.487,220.305 313.513,231.333 323.358,231.333 323.358,229.405 		"/>
		<polygon fill="#B4B3B4" points="163.685,220.305 159.979,227.015 156.048,220.305 153.635,220.305 153.635,231.333 
			155.767,231.333 155.748,223.597 155.79,223.597 159.854,231.333 159.917,231.333 164.064,223.619 164.104,223.619 164.1,231.333 
			166.204,231.333 166.182,220.37 		"/>
		<path fill="#B4B3B4" d="M186.265,225.389c-0.416-0.231-0.893-0.397-1.427-0.504c-0.534-0.104-1.079-0.177-1.634-0.221
			c-0.557-0.04-1.102-0.076-1.636-0.104c-0.534-0.026-1.009-0.084-1.425-0.168c-0.418-0.082-0.755-0.21-1.011-0.376
			c-0.256-0.169-0.384-0.42-0.384-0.755c0-0.239,0.091-0.438,0.275-0.599c0.182-0.161,0.412-0.289,0.689-0.387
			s0.59-0.172,0.934-0.221s0.676-0.073,0.998-0.073c0.424,0,0.848,0.038,1.272,0.114c0.425,0.079,0.818,0.183,1.185,0.305
			c1.205,0.406,2.119,1.152,2.119,1.152l1.024-1.771c0,0-1.079-0.722-2.166-1.081c-0.414-0.136-0.911-0.245-1.481-0.356
			s-1.244-0.166-2.02-0.166c-0.906,0-1.696,0.101-2.369,0.302c-0.672,0.204-1.229,0.466-1.668,0.787
			c-0.438,0.321-0.765,0.691-0.976,1.111c-0.212,0.419-0.319,0.847-0.319,1.279c0,0.644,0.129,1.163,0.385,1.563
			c0.256,0.397,0.592,0.711,1.01,0.942c0.416,0.231,0.893,0.395,1.426,0.493c0.533,0.098,1.078,0.169,1.635,0.209
			c0.557,0.041,1.101,0.074,1.635,0.096c0.533,0.019,1.008,0.065,1.427,0.136c0.417,0.071,0.753,0.183,1.009,0.335
			s0.383,0.393,0.383,0.714s-0.138,0.58-0.416,0.776c-0.277,0.195-0.607,0.349-0.986,0.46c-0.382,0.111-0.769,0.186-1.164,0.221
			s-0.717,0.052-0.966,0.052c-0.337,0-0.716-0.038-1.142-0.114c-0.424-0.076-0.828-0.18-1.217-0.306
			c-0.388-0.125-0.73-0.27-1.03-0.43c-0.302-0.161-1.039-0.684-1.039-0.684l-0.912,1.854c0,0,1.511,0.814,1.884,0.947
			c0.373,0.134,0.842,0.245,1.406,0.335c0.562,0.093,1.26,0.137,2.095,0.137c0.599,0,1.246-0.044,1.941-0.137
			c0.694-0.09,1.341-0.267,1.942-0.533c0.599-0.265,1.1-0.63,1.502-1.09c0.402-0.463,0.604-1.057,0.604-1.783
			c0-0.629-0.128-1.139-0.384-1.53C187.018,225.931,186.681,225.62,186.265,225.389z"/>
		<polygon fill="#B4B3B4" points="210.06,231.333 212.44,231.333 212.458,226.511 217.7,226.511 217.7,224.708 212.458,224.708 
			212.458,222.107 220.204,222.107 220.204,220.305 210.06,220.305 		"/>
		<path fill="#B4B3B4" d="M254.239,220.305l-4.917,11.028h2.354l1.063-2.726h5.161l1.302,2.726h2.822l-5.63-11.028H254.239z
			 M253.204,227.056l1.889-4.755l2.018,4.755H253.204z"/>
		<polygon fill="#B4B3B4" points="280.942,220.305 280.971,227.728 273.679,220.305 270.979,220.305 271.113,231.333 
			273.39,231.333 273.402,223.619 280.721,231.333 283.318,231.333 283.27,220.305 		"/>
		<path fill="#B4B3B4" d="M301.739,228.976c-0.424,0.16-0.89,0.294-1.401,0.397c-0.513,0.105-1.002,0.157-1.471,0.157
			c-0.615,0-1.203-0.084-1.768-0.25c-0.563-0.169-1.054-0.414-1.47-0.735c-0.417-0.321-0.749-0.716-0.997-1.185
			c-0.251-0.469-0.374-1.002-0.374-1.604c0-0.603,0.123-1.136,0.374-1.604c0.248-0.468,0.58-0.863,0.997-1.185
			c0.416-0.321,0.906-0.566,1.47-0.735c0.564-0.166,1.152-0.25,1.768-0.25c0.365,0,0.763,0.041,1.195,0.125
			c0.431,0.085,0.842,0.188,1.229,0.316c0.387,0.125,0.713,0.267,0.978,0.427l1.293-1.792c-0.264-0.111-0.62-0.231-1.075-0.356
			c-0.452-0.125-0.983-0.245-1.591-0.356c-0.606-0.111-1.282-0.166-2.028-0.166c-0.923,0-1.808,0.117-2.655,0.356
			c-0.85,0.237-1.599,0.594-2.249,1.067c-0.65,0.477-1.165,1.067-1.547,1.772c-0.381,0.706-0.571,1.52-0.571,2.443
			c0,0.937,0.19,1.754,0.571,2.453c0.382,0.7,0.896,1.283,1.547,1.751c0.65,0.469,1.399,0.814,2.249,1.038
			c0.848,0.223,1.732,0.335,2.655,0.335c0.702,0,1.375-0.077,2.018-0.229c0.643-0.155,1.218-0.337,1.724-0.547
			c0.504-0.21,0.921-0.397,1.25-0.563l-1.054-1.626C302.519,228.632,302.165,228.814,301.739,228.976z"/>
		<rect x="139.435" y="220.305" fill="#B4B3B4" width="2.517" height="10.947"/>
	</g>
</g>
</svg>
