<?xml version="1.0" encoding="utf-8"?>
<!-- Generator: Adobe Illustrator 15.0.0, SVG Export Plug-In . SVG Version: 6.00 Build 0)  -->
<!DOCTYPE svg PUBLIC "-//W3C//DTD SVG 1.1//EN" "http://www.w3.org/Graphics/SVG/1.1/DTD/svg11.dtd">
<svg version="1.1" id="Layer_1" xmlns="http://www.w3.org/2000/svg" xmlns:xlink="http://www.w3.org/1999/xlink" x="0px" y="0px"
	 width="184.189px" height="192.568px" viewBox="0 0 184.189 192.568" enable-background="new 0 0 184.189 192.568"
	 xml:space="preserve">
<path fill="#B4B3B4" d="M184.073,122.217l-0.686,0.75c-6.992,2.184-13.344,3.331-21.614,3.331c-5.229,0-10.479-0.441-15.64-1.335
	c-10.189,21.284-32.601,48.592-52.187,63.591c-3.519,2.702-6.971,4.015-10.532,4.015c-3.474,0-7.014-1.279-10.819-3.893
	c-13.83-9.476-25.95-21.76-37.056-37.554c-14.978-21.296-25.343-45.967-30.78-73.328C1.71,62.387,0.171,47.09,0.194,32.335
	c0-1.367-0.044-3.584-0.077-6.1h33.945c-0.021,2.646-0.065,4.919-0.055,6.22c0.32,25.962,4.555,48.658,12.958,69.393
	c8.073,19.873,19.586,34.441,36.548,52.198c12.286-10.819,22.51-24.406,31.146-41.379c-17.514-11.746-28.674-28.663-33.186-50.302
	c-1.599-7.587-2.194-14.701-1.875-21.726c0.981-21.064,15.342-37.155,35.71-40.022C118.11,0.221,120.856,0,123.59,0
	c10.323,0,19.444,3.011,27.108,9.054c9.198,7.279,14.337,17.017,15.286,29.147c1.048,13.455-1.5,40.641-1.61,41.81l-0.287,2.69
	h-34.32l0.883-3.728c0.044-0.198,4.411-20.756,1.73-37.166c-0.552-3.397-2.349-7.532-7.73-7.952
	c-0.662-0.055-3.419-0.055-4.081,0.066c-5.052,0.838-7.444,3.484-7.456,8.349c-0.022,15.352,3.274,26.898,10.631,36.328
	c6.992,9.01,19.036,16.631,32.225,16.631c13.213,0,24.991-5.128,25.123-5.184l2.979-1.908v34.079H184.073z"/>
</svg>
