<?xml version="1.0" encoding="utf-8"?>
<!-- Generator: Adobe Illustrator 15.0.0, SVG Export Plug-In . SVG Version: 6.00 Build 0)  -->
<!DOCTYPE svg PUBLIC "-//W3C//DTD SVG 1.1//EN" "http://www.w3.org/Graphics/SVG/1.1/DTD/svg11.dtd">
<svg version="1.1" id="Layer_1" xmlns="http://www.w3.org/2000/svg" xmlns:xlink="http://www.w3.org/1999/xlink" x="0px" y="0px"
	 width="24px" height="24px" viewBox="0 0 24 24" enable-background="new 0 0 24 24" xml:space="preserve">
<path fill="#4C4E4E" d="M21.5,0h-19C1.125,0,0,1.125,0,2.5v19C0,22.875,1.125,24,2.5,24h19c1.375,0,2.5-1.125,2.5-2.5v-19
	C24,1.125,22.875,0,21.5,0 M20,14.499l-0.061,0.066c-0.619,0.193-1.182,0.295-1.914,0.295c-0.463,0-0.928-0.039-1.385-0.118
	c-0.902,1.885-2.887,4.303-4.621,5.631c-0.312,0.239-0.618,0.355-0.933,0.355c-0.308,0-0.621-0.113-0.958-0.345
	c-1.224-0.839-2.298-1.927-3.282-3.325c-1.326-1.886-2.243-4.07-2.725-6.493C3.852,9.201,3.716,7.846,3.718,6.54
	c0-0.121-0.004-0.317-0.007-0.54h3.006C6.715,6.234,6.711,6.435,6.712,6.55c0.028,2.299,0.403,4.309,1.147,6.145
	c0.715,1.76,1.735,3.05,3.236,4.622c1.089-0.958,1.994-2.161,2.758-3.664c-1.55-1.04-2.54-2.538-2.938-4.454
	c-0.141-0.672-0.195-1.302-0.166-1.924c0.087-1.865,1.358-3.29,3.162-3.544c0.248-0.035,0.491-0.055,0.733-0.055
	c0.914,0,1.722,0.267,2.4,0.802c0.814,0.645,1.27,1.507,1.354,2.581c0.093,1.191-0.133,3.599-0.143,3.702L18.23,11h-3.039
	l0.078-0.33c0.004-0.018,0.391-1.838,0.153-3.291c-0.049-0.301-0.208-0.667-0.685-0.704c-0.059-0.005-0.303-0.005-0.361,0.006
	c-0.447,0.074-0.659,0.309-0.66,0.739c-0.002,1.359,0.29,2.382,0.941,3.217c0.619,0.798,1.686,1.473,2.854,1.473
	c1.17,0,2.213-0.454,2.225-0.459L20,11.481V14.499z"/>
</svg>
