<?xml version="1.0" encoding="utf-8"?>
<!-- Generator: Adobe Illustrator 15.0.0, SVG Export Plug-In . SVG Version: 6.00 Build 0)  -->
<!DOCTYPE svg PUBLIC "-//W3C//DTD SVG 1.1//EN" "http://www.w3.org/Graphics/SVG/1.1/DTD/svg11.dtd">
<svg version="1.1" id="Layer_1" xmlns="http://www.w3.org/2000/svg" xmlns:xlink="http://www.w3.org/1999/xlink" x="0px" y="0px"
	 width="327.667px" height="85.405px" viewBox="-23.272 104.067 327.667 85.405"
	 enable-background="new -23.272 104.067 327.667 85.405" xml:space="preserve">
<g>
	<g>
		<defs>
			<rect id="SVGID_1_" x="-56.604" y="101.932" width="395" height="88.874"/>
		</defs>
		<clipPath id="SVGID_2_">
			<use xlink:href="#SVGID_1_"  overflow="visible"/>
		</clipPath>
		<path clip-path="url(#SVGID_2_)" fill="#231F20" d="M73.649,188.791c-9.553,0-18.69-5.355-24.605-12.659
			c-6.743-8.312-10.025-19.043-10.025-29.659c0-10.202,3.015-20.466,9.258-28.598c6.148-7.985,15.406-13.691,25.695-13.691
			c9.462,0,18.543,5.41,24.369,12.629c6.714,8.307,10.057,19.074,10.057,29.688c0,10.171-3.047,20.437-9.259,28.569
			C93.046,182.993,83.848,188.791,73.649,188.791"/>
		<polygon clip-path="url(#SVGID_2_)" fill="#231F20" points="-22.344,105.929 6.428,105.929 6.428,106.756 -0.638,106.756 
			20.832,165.546 38.959,106.756 31.833,106.756 31.833,105.929 47.359,105.929 47.359,106.756 40.499,106.756 14.947,188.019 
			-14.774,106.756 -22.344,106.756 		"/>
		<path clip-path="url(#SVGID_2_)" fill="#231F20" d="M171.382,104.508v28.242h-0.648c-1.213-5.558-2.928-10.973-5.912-15.879
			c-3.551-5.739-9.199-12.184-16.563-12.184c-16.918,0-18.453,30.311-18.453,41.873c0,10.354,0.827,21.029,4.586,30.729
			c2.629,6.798,6.443,10.143,13.513,10.143c5.617,0,11.591-2.839,14.58-7.721c0.768-1.269,0.826-2.688,0.826-4.14v-0.206v-21.619
			h-7.391v-0.854h27.057v0.854h-6.326v32.65h-0.562c-1.6-2.663-4.113-4.408-7.334-4.408c-2.338,0-4.617,0.828-6.656,1.951
			l-1.834,1.007c-4.141,1.834-8.104,3.165-12.682,3.165c-20.999,0-32.178-22.388-32.178-40.958c0-13.572,5.176-28.092,16.178-36.581
			c4.939-3.815,10.91-6.624,17.268-6.624c2.482,0,4.939,0.77,7.246,1.687l1.686,0.65c1.92,0.71,4.021,1.387,6.092,1.387
			c2.57,0,4.881-1.683,6.861-3.163H171.382z"/>
		<path clip-path="url(#SVGID_2_)" fill="#231F20" d="M179.457,105.929h28.865v0.827h-7.658v62.664
			c0,9.818,10.109,15.793,18.955,15.793c9.521,0,17.535-6.624,17.535-16.355v-62.102h-9.049v-0.827h74.496v29.069h-0.562
			c-0.859-7.689-2.338-15.585-7.633-21.588c-5.35-6.062-12.627-6.654-20.105-6.654h-8.074v37.381
			c1.658,0.177,3.342,0.293,5.027,0.293c10.139,0,12.775-6.979,13.217-15.615h0.74v32.797h-0.74
			c-1.271-7.837-4.73-16.234-13.93-16.234c-1.449,0-2.865,0.088-4.314,0.205v39.983h12.092c6.271,0,12.514-2.721,16.949-7.098
			c3.783-3.728,6.416-8.574,7.334-13.81c0.498-2.929,0.738-5.916,0.885-8.872h0.65v30.605h-58.229v-0.826h6.77v-78.812h-14.311
			v62.338c0,12.895-12.242,18.603-23.715,18.603c-12.984,0-27.301-6.298-27.301-21.146v-59.795h-7.895V105.929z"/>
		<path clip-path="url(#SVGID_2_)" fill="#FFFFFF" d="M93.786,146.473c0-11.741-4.2-41.078-20.079-41.078
			c-15.941,0-20.078,29.309-20.078,41.078s4.168,41.103,20.078,41.103C89.586,187.576,93.786,158.211,93.786,146.473"/>
	</g>
</g>
</svg>
