<?xml version="1.0" encoding="utf-8"?>
<!-- Generator: Adobe Illustrator 15.0.0, SVG Export Plug-In . SVG Version: 6.00 Build 0)  -->
<!DOCTYPE svg PUBLIC "-//W3C//DTD SVG 1.1//EN" "http://www.w3.org/Graphics/SVG/1.1/DTD/svg11.dtd">
<svg version="1.1" id="Layer_1" xmlns="http://www.w3.org/2000/svg" xmlns:xlink="http://www.w3.org/1999/xlink" x="0px" y="0px"
	 width="120.905px" height="147.087px" viewBox="149.866 124.711 120.905 147.087"
	 enable-background="new 149.866 124.711 120.905 147.087" xml:space="preserve">
<g>
	<path fill="#62737C" d="M242.468,155.204"/>
	<path fill="#62737C" d="M239.164,163.608"/>
	<path fill="#231F20" d="M243.789,171.536c-0.85,4.722-6.043,7.459-9.723,9.441c-3.684,1.889-7.459,3.398-11.33,4.814v-30.588
		c5.949,1.795,11.33,4.814,16.426,8.403C241.523,165.589,244.734,168.044,243.789,171.536 M235.197,210.056
		c-3.115,5.665-7.363,10.856-12.367,15.67l-0.094-29.926c3.398-2.455,6.891-4.627,11.139-5.004c1.699,0,3.211,0.566,4.344,1.888
		C241.996,198.632,237.56,204.864,235.197,210.056 M252.474,173.896c1.416-7.93-3.869-14.159-10.006-18.691
		c-8.594-6.324-18.314-10.101-28.324-13.027v104.604c4.438-3.871,8.875-8.214,13.123-12.651
		c9.062-10.008,17.467-20.202,20.959-32.478c1.416-5.567,0.662-11.895-4.061-15.67C248.226,182.772,251.908,178.806,252.474,173.896
		"/>
	<path fill="#62737C" d="M238.218,192.684"/>
	<path fill="#231F20" d="M206.404,246.025V141.799l-8.402,4.343v55.889c-0.377,1.605,0.756,4.06-1.039,4.815
		c-0.471,0.093-0.85-0.095-1.037-0.473c-3.588-13.5-5.1-27.755-5.76-42.39l-0.283-12.743l-8.025,5.946v3.4
		c0.473,13.5,1.416,26.717,3.967,39.366l-3.211,3.588c-1.229-1.699-1.982-3.492-2.832-5.288c-4.061-10.763-5.57-22.562-6.137-34.74
		l-6.986,5.192c0.66,18.503,4.156,35.969,15.389,49.847c2.172-2.455,4.342-5.003,6.514-7.365c1.133,5.006,2.736,9.818,4.625,14.539
		C196.3,232.996,199.796,240.361,206.404,246.025"/>
	<path fill="#62737C" d="M206.404,246.025"/>
	<path fill="#231F20" d="M233.685,236.3c-6.889,7.742-14.633,15.389-23.316,19.825c-8.309-4.153-15.576-11.329-22.188-18.597
		c-17.18-20.109-28.604-42.578-30.49-68.919c-0.189-2.171-0.285-4.247-0.189-6.513l10.668-2.455l2.453-8.78l13.123-3.116
		l0.096-0.281l2.359-9.063l23.791-5.57l24.545,5.57l2.359,9.251l13.312,3.21l2.266,8.78l10.764,2.455
		C262.953,190.796,251.531,214.869,233.685,236.3 M270.695,155.489l-12.557-3.114l-2.266-8.499l-12.84-3.021l-2.643-9.252
		l-30.305-6.892l-29.738,6.892l-2.643,9.252l-12.84,3.021c-0.852,2.927-1.605,5.76-2.361,8.593l-12.557,3.021
		c-0.943,26.717,6.42,50.224,19.732,71.183c9.725,15.012,24.357,30.871,40.406,38.706c10.857-5.191,20.486-13.878,29.172-23.602
		C260.31,217.419,271.828,188.907,270.695,155.489"/>
	<path fill="#62737C" d="M236.425,263.206"/>
	<path fill="#231F20" d="M234.82,263.206v-2.738h1.795c0.848,0,1.887,0.189,1.887,1.322c0,1.229-0.943,1.416-2.076,1.416H234.82z
		 M237.652,264.339c1.418-0.095,2.359-0.85,2.359-2.454c0-1.794-1.131-2.644-3.303-2.644h-3.4v9.063h1.512v-3.872h1.416l2.359,3.872
		h1.605L237.652,264.339z"/>
	<path fill="#231F20" d="M236.519,271.044c-3.869,0-6.986-3.116-6.986-6.988c0-3.87,3.117-6.985,6.986-6.985
		c3.871,0,6.984,3.115,6.984,6.985C243.503,267.928,240.39,271.044,236.519,271.044 M236.519,256.315
		c-4.248,0-7.742,3.493-7.742,7.741c0,4.249,3.494,7.742,7.742,7.742c4.25,0,7.74-3.493,7.74-7.742
		C244.259,259.808,240.769,256.315,236.519,256.315"/>
</g>
</svg>
