<?xml version="1.0" encoding="utf-8"?>
<!-- Generator: Adobe Illustrator 15.0.0, SVG Export Plug-In . SVG Version: 6.00 Build 0)  -->
<!DOCTYPE svg PUBLIC "-//W3C//DTD SVG 1.1//EN" "http://www.w3.org/Graphics/SVG/1.1/DTD/svg11.dtd">
<svg version="1.1" id="Layer_1" xmlns="http://www.w3.org/2000/svg" xmlns:xlink="http://www.w3.org/1999/xlink" x="0px" y="0px"
	 width="111.287px" height="117.378px" viewBox="0 0 111.287 117.378" enable-background="new 0 0 111.287 117.378"
	 xml:space="preserve">
<g>
	<polygon fill-rule="evenodd" clip-rule="evenodd" fill="#B4B3B4" points="14.41,2.226 25.537,2.226 39.244,34.909 55.644,0 
		72.159,34.909 86.219,2.226 97.229,2.226 72.044,59.394 55.762,23.313 39.128,59.276 14.41,2.226 	"/>
	<polygon fill-rule="evenodd" clip-rule="evenodd" fill="#B4B3B4" points="10.776,109.647 2.107,109.647 2.107,116.911 0,116.911 
		0,101.097 2.107,101.097 2.107,107.89 10.776,107.89 10.776,101.097 12.885,101.097 12.885,116.911 10.776,116.911 10.776,109.647 
			"/>
	<path fill-rule="evenodd" clip-rule="evenodd" fill="#B4B3B4" d="M34.206,108.944c0,3.162-1.405,6.795-5.622,6.795
		c-4.102,0-5.74-3.398-5.74-6.678c0-3.633,1.639-6.678,5.622-6.678C32.215,102.384,34.206,105.077,34.206,108.944L34.206,108.944z
		 M36.432,108.829c0-5.156-3.515-8.086-7.966-8.086c-3.866,0-7.966,2.344-7.966,8.318c0,4.92,3.162,8.316,7.966,8.316
		C33.736,117.378,36.432,113.632,36.432,108.829L36.432,108.829z"/>
	<polygon fill-rule="evenodd" clip-rule="evenodd" fill="#B4B3B4" points="49.318,102.97 49.318,116.911 47.209,116.911 
		47.209,102.97 42.523,102.97 42.523,101.097 54.121,101.097 54.121,102.97 49.318,102.97 	"/>
	<polygon fill-rule="evenodd" clip-rule="evenodd" fill="#B4B3B4" points="64.663,109.765 64.663,115.153 73.8,115.153 
		73.8,116.911 62.674,116.911 62.674,101.097 73.567,101.097 73.567,102.97 64.663,102.97 64.663,107.89 72.396,107.89 
		72.396,109.765 64.663,109.765 	"/>
	<polygon fill-rule="evenodd" clip-rule="evenodd" fill="#B4B3B4" points="85.048,115.036 92.661,115.036 92.661,116.911 
		82.938,116.911 82.938,101.097 85.048,101.097 85.048,115.036 	"/>
	<path fill-rule="evenodd" clip-rule="evenodd" fill="#B4B3B4" d="M104.608,109.647c-2.225-0.469-5.622-1.289-5.622-4.57
		c0-1.521,0.82-2.576,1.524-3.045c1.406-1.17,3.046-1.289,4.216-1.289c1.056,0,2.813,0,4.218,1.174
		c1.642,1.053,1.874,2.693,2.11,3.631l-2.227,0.117c0-0.469,0-1.643-1.173-2.578c-0.82-0.586-1.873-0.703-2.929-0.703
		c-1.874,0-3.514,0.703-3.514,2.461s1.756,2.109,3.045,2.459l1.758,0.469c1.287,0.236,1.874,0.352,2.577,0.703
		c2.343,0.938,2.694,2.811,2.694,3.865c0,1.523-0.586,2.93-1.992,3.865c-1.521,1.055-3.397,1.172-4.332,1.172
		c-1.406,0-6.327-0.232-6.679-5.504l2.227-0.236c0,0.588,0.115,1.994,1.288,3.047c0.938,0.82,2.108,1.055,3.279,1.055
		c2.225,0,3.866-1.172,3.866-3.164c0-1.875-1.404-2.342-2.929-2.695L104.608,109.647L104.608,109.647z"/>
</g>
</svg>
