<?xml version="1.0" encoding="utf-8"?>
<!-- Generator: Adobe Illustrator 15.0.0, SVG Export Plug-In . SVG Version: 6.00 Build 0)  -->
<!DOCTYPE svg PUBLIC "-//W3C//DTD SVG 1.1//EN" "http://www.w3.org/Graphics/SVG/1.1/DTD/svg11.dtd">
<svg version="1.1" id="Layer_1" xmlns="http://www.w3.org/2000/svg" xmlns:xlink="http://www.w3.org/1999/xlink" x="0px" y="0px"
	 width="201.093px" height="35.624px" viewBox="109.678 139.492 201.093 35.624"
	 enable-background="new 109.678 139.492 201.093 35.624" xml:space="preserve">
<path fill="#231F20" d="M174.954,158.726l-5.168,10.979c-3.49,7.147-11.774,6.705-17.354,1.638l0.885-2.817
	c7.41,11.981,19.822,2.564,13.239-5.774l-9.647-11.42c-6.573-7.588-10.533,0.448-6.883,3.371l5.418,4.09
	c3.98,2.826,2.65,8.836-2.5,9.37c-2.379,0.249-5.1-0.8-6.731-1.918l-0.44,1.518h-10.56c0.187-0.344,0.388-0.979,0.388-1.466
	l-0.027-17.5c0.01-0.318-0.197-0.34-0.319-0.076l-9.297,19.915l-4.103-18.05c-0.137-0.44-0.416-0.026-0.416-0.026
	c-0.69,0.953-3.727,5.21-4.269,5.938c-0.403,0.541-0.569,0.901-0.872,1.787c-0.154,0.443-3.486,13.834-3.634,14.356
	c-0.136,0.477,0.051,1.443,0.302,1.683h-3.287c0.114-0.091,0.649-0.717,0.775-1.206l2.62-13.521
	c0.581-2.663-0.161-5.363-0.161-5.363c-1.62-9.455-1.973-13.537-2.818-14.177h2.735c0.083,0.499,3.233,15.392,3.426,16.11
	c-0.192,0.309,10.472-15.979,10.472-15.979h2.767c0,0-1.384,1.303-1.63,1.637c-0.213,0.281-3.537,4.82-3.952,5.389l3.177,17.106
	l6.881-16.47h11.442v1.863c-1.254-0.625-5.603-1.385-7.323-1.159l-0.165,8.304c0.009,0.455,0,0.49,0.413,0.49l7.09-0.005v1.146
	h-7.588l-0.234,8.029c0,0.55,0.4,0.606,0.746,0.62c2.969,0.113,5.766-0.274,7.83-1.176l0.488-1.795
	c2.283,2.79,4.129,3.788,6.536,3.082c2.315-0.676,4.53-3.836,0.274-6.801l-4.141-2.928c-5.734-4.33-0.886-13.695,7.238-9.007
	c-0.025-8.157,10.356-12.225,17.689-6l-0.722,2.682c-6.473-10.513-18.331-1.868-12.849,5.634l7.763,10.146
	c1.744,2.188,2.041,3.767,2.041,3.767l9.14-17.48l4.545,19.004c0.162,0.598,0.494,1.212,0.732,1.444h-2.613
	c0.004,0-2.418-8.98-2.418-8.98L174.954,158.726z M175.461,157.488h4.093l-1.465-5.638L175.461,157.488z M310.771,148.091v1.411
	c-1.908-0.573-3.246-0.573-5.381-0.573l-0.637,17.635c-0.027,0.629,0.035,0.876,0.168,1.339l-2.537-0.008
	c0.141-0.477,0.223-0.659,0.268-1.34l-0.117-17.626h-3.58c-1.115,0-1.115,1.152-1.115,1.566c0,0-0.684,18.319-0.713,19.01
	c-0.246-0.36-14.352-18.373-14.352-18.373l0.008,16.771h-1.707c0.248-0.547,0.264-1.102,0.299-1.828c0,0,0.537-15.64,0.537-16.139
	c-0.15-0.222-1.256-1.63-1.436-1.851h3.441l12.549,17.302v-17.296H310.771z M190.787,147.897h3.441l12.547,17.303v-17.303h15.232
	l1.268-5.788c0.135-0.774,0.135-1.247-0.223-1.701h3.566l-7.574,31.756c-0.189,0.729-0.139,1.365,1.084,1.383
	c3.754,0.053,11.494-0.626,14.59-1.688l-1.438,2.515h-17.357c0.275-0.357,0.525-1.021,0.773-1.932l4.91-22.787
	c-1.861-0.686-4.137-0.729-6.234-0.728l-0.604,17.252c-0.004,0.644,0.102,1.117,0.217,1.533h-2.65
	c0.189-0.497,0.25-0.911,0.271-1.619l-0.137-17.172h-3.287c-1.08,0.027-0.857,0.995-0.887,1.409l-0.857,18.989l-14.35-18.376
	l0.006,16.769h-1.893c0.178-0.272,0.447-1.137,0.484-1.821l0.537-16.143L190.787,147.897z M186.212,167.712l-0.316-18.073
	c-0.002-0.645-0.375-1.366-0.748-1.742h3.221l-0.205,18.671c-0.033,0.255,0.318,1.078,0.469,1.145
	C188.595,167.708,186.212,167.712,186.212,167.712 M255.164,148.032c17.188-2.515,12.922,9.288,6.963,10.419
	c0,0,7.213,8.845,7.488,9.233c0-0.057-0.207-17.689-0.207-17.689c-0.043-1.424-0.65-2.016-0.65-2.016h10.295v2.016
	c0,0-2.184-1.077-7.004-1.104l-0.195,8.608h7.199v1.187h-7.199v7.837c0,0.622,0.523,0.579,0.912,0.579
	c4.701,0,7.631-1.05,7.631-1.05l-0.832,1.868c0,0-9.037,0.014-9.658,0c0.289,0.482,2.695,3.054,4.27,4.021
	c-0.775-0.308-4.008-1.466-5.197-2.765c-0.381-0.418-9.049-9.565-9.686-10.311c8.828-1.616,5.844-11.968-0.816-10.224l-0.939,19.041
	h-2.68c0.199-0.285,0.365-0.923,0.443-1.584l0.471-15.969C255.755,149.01,255.48,148.427,255.164,148.032 M242.64,162.103
	c0.029,6.853,8.182,7.075,8.195-0.387l0.014-13.736l2.268,0.002c-0.566,0.454-0.773,2.51-0.885,4.199
	c-0.039,0.579-0.441,9.146-0.49,9.986c-0.615,9.194-10.812,7.864-11.285,0.789c-0.051-0.772-0.221-12.574-0.277-12.99
	c-0.055-0.965-0.275-1.768-0.688-1.986h3.123L242.64,162.103z M222.875,167.685c0.213-0.216,0.676-0.884,0.904-1.272l9.965-19.567
	l4.549,19.251c0,0,0.539,1.406,0.803,1.589h-2.381c-0.166-0.553-2.57-9.08-2.57-9.08h-5.082c0,0-4.02,8.831-4.133,9.08H222.875z
	 M229.556,157.581h4.299l-1.607-5.971L229.556,157.581z"/>
</svg>
